%TF.GenerationSoftware,KiCad,Pcbnew,5.1.8*%
%TF.CreationDate,2020-11-15T21:26:51-08:00*%
%TF.ProjectId,teensy-toslink-receiver,7465656e-7379-42d7-946f-736c696e6b2d,rev?*%
%TF.SameCoordinates,Original*%
%TF.FileFunction,Legend,Bot*%
%TF.FilePolarity,Positive*%
%FSLAX46Y46*%
G04 Gerber Fmt 4.6, Leading zero omitted, Abs format (unit mm)*
G04 Created by KiCad (PCBNEW 5.1.8) date 2020-11-15 21:26:51*
%MOMM*%
%LPD*%
G01*
G04 APERTURE LIST*
%ADD10C,0.300000*%
%ADD11C,0.120000*%
%ADD12C,0.150000*%
%ADD13R,1.500000X1.500000*%
%ADD14O,1.500000X1.500000*%
%ADD15C,2.000000*%
%ADD16C,0.100000*%
%ADD17O,1.700000X1.700000*%
%ADD18R,1.700000X1.700000*%
G04 APERTURE END LIST*
D10*
X136965571Y-67302857D02*
X137965571Y-67588571D01*
X137251285Y-67874285D01*
X137965571Y-68160000D01*
X136965571Y-68445714D01*
X136965571Y-69660000D02*
X137965571Y-69660000D01*
X136965571Y-69017142D02*
X137751285Y-69017142D01*
X137894142Y-69088571D01*
X137965571Y-69231428D01*
X137965571Y-69445714D01*
X137894142Y-69588571D01*
X137822714Y-69660000D01*
X136965571Y-70160000D02*
X136965571Y-70731428D01*
X136465571Y-70374285D02*
X137751285Y-70374285D01*
X137894142Y-70445714D01*
X137965571Y-70588571D01*
X137965571Y-70731428D01*
X137965571Y-73017142D02*
X137179857Y-73017142D01*
X137037000Y-72945714D01*
X136965571Y-72802857D01*
X136965571Y-72517142D01*
X137037000Y-72374285D01*
X137894142Y-73017142D02*
X137965571Y-72874285D01*
X137965571Y-72517142D01*
X137894142Y-72374285D01*
X137751285Y-72302857D01*
X137608428Y-72302857D01*
X137465571Y-72374285D01*
X137394142Y-72517142D01*
X137394142Y-72874285D01*
X137322714Y-73017142D01*
X137965571Y-74874285D02*
X136965571Y-74874285D01*
X137108428Y-74874285D02*
X137037000Y-74945714D01*
X136965571Y-75088571D01*
X136965571Y-75302857D01*
X137037000Y-75445714D01*
X137179857Y-75517142D01*
X137965571Y-75517142D01*
X137179857Y-75517142D02*
X137037000Y-75588571D01*
X136965571Y-75731428D01*
X136965571Y-75945714D01*
X137037000Y-76088571D01*
X137179857Y-76160000D01*
X137965571Y-76160000D01*
X137894142Y-77445714D02*
X137965571Y-77302857D01*
X137965571Y-77017142D01*
X137894142Y-76874285D01*
X137751285Y-76802857D01*
X137179857Y-76802857D01*
X137037000Y-76874285D01*
X136965571Y-77017142D01*
X136965571Y-77302857D01*
X137037000Y-77445714D01*
X137179857Y-77517142D01*
X137322714Y-77517142D01*
X137465571Y-76802857D01*
X137894142Y-78088571D02*
X137965571Y-78231428D01*
X137965571Y-78517142D01*
X137894142Y-78660000D01*
X137751285Y-78731428D01*
X137679857Y-78731428D01*
X137537000Y-78660000D01*
X137465571Y-78517142D01*
X137465571Y-78302857D01*
X137394142Y-78160000D01*
X137251285Y-78088571D01*
X137179857Y-78088571D01*
X137037000Y-78160000D01*
X136965571Y-78302857D01*
X136965571Y-78517142D01*
X137037000Y-78660000D01*
X137894142Y-79302857D02*
X137965571Y-79445714D01*
X137965571Y-79731428D01*
X137894142Y-79874285D01*
X137751285Y-79945714D01*
X137679857Y-79945714D01*
X137537000Y-79874285D01*
X137465571Y-79731428D01*
X137465571Y-79517142D01*
X137394142Y-79374285D01*
X137251285Y-79302857D01*
X137179857Y-79302857D01*
X137037000Y-79374285D01*
X136965571Y-79517142D01*
X136965571Y-79731428D01*
X137037000Y-79874285D01*
D11*
%TO.C,L1*%
X148190378Y-74220000D02*
X148989622Y-74220000D01*
X148190378Y-73100000D02*
X148989622Y-73100000D01*
%TO.C,JP1*%
X149990000Y-75900000D02*
G75*
G03*
X149290000Y-75200000I-700000J0D01*
G01*
X149290000Y-77200000D02*
G75*
G03*
X149990000Y-76500000I0J700000D01*
G01*
X147190000Y-76500000D02*
G75*
G03*
X147890000Y-77200000I700000J0D01*
G01*
X147890000Y-75200000D02*
G75*
G03*
X147190000Y-75900000I0J-700000D01*
G01*
X149990000Y-76500000D02*
X149990000Y-75900000D01*
X147890000Y-77200000D02*
X149290000Y-77200000D01*
X147190000Y-75900000D02*
X147190000Y-76500000D01*
X149290000Y-75200000D02*
X147890000Y-75200000D01*
%TO.C,L1*%
D12*
X148756666Y-72588380D02*
X149232857Y-72588380D01*
X149232857Y-71588380D01*
X147899523Y-72588380D02*
X148470952Y-72588380D01*
X148185238Y-72588380D02*
X148185238Y-71588380D01*
X148280476Y-71731238D01*
X148375714Y-71826476D01*
X148470952Y-71874095D01*
%TO.C,JP1*%
X146010380Y-75366666D02*
X146724666Y-75366666D01*
X146867523Y-75319047D01*
X146962761Y-75223809D01*
X147010380Y-75080952D01*
X147010380Y-74985714D01*
X147010380Y-75842857D02*
X146010380Y-75842857D01*
X146010380Y-76223809D01*
X146058000Y-76319047D01*
X146105619Y-76366666D01*
X146200857Y-76414285D01*
X146343714Y-76414285D01*
X146438952Y-76366666D01*
X146486571Y-76319047D01*
X146534190Y-76223809D01*
X146534190Y-75842857D01*
X147010380Y-77366666D02*
X147010380Y-76795238D01*
X147010380Y-77080952D02*
X146010380Y-77080952D01*
X146153238Y-76985714D01*
X146248476Y-76890476D01*
X146296095Y-76795238D01*
%TD*%
%LPC*%
D13*
%TO.C,U1*%
X151892000Y-76200000D03*
D14*
X151892000Y-73660000D03*
X151892000Y-71120000D03*
D15*
X154432000Y-76280000D03*
X154432000Y-71040000D03*
%TD*%
%TO.C,L1*%
G36*
G01*
X149215000Y-74041250D02*
X149215000Y-73278750D01*
G75*
G02*
X149433750Y-73060000I218750J0D01*
G01*
X149871250Y-73060000D01*
G75*
G02*
X150090000Y-73278750I0J-218750D01*
G01*
X150090000Y-74041250D01*
G75*
G02*
X149871250Y-74260000I-218750J0D01*
G01*
X149433750Y-74260000D01*
G75*
G02*
X149215000Y-74041250I0J218750D01*
G01*
G37*
G36*
G01*
X147090000Y-74041250D02*
X147090000Y-73278750D01*
G75*
G02*
X147308750Y-73060000I218750J0D01*
G01*
X147746250Y-73060000D01*
G75*
G02*
X147965000Y-73278750I0J-218750D01*
G01*
X147965000Y-74041250D01*
G75*
G02*
X147746250Y-74260000I-218750J0D01*
G01*
X147308750Y-74260000D01*
G75*
G02*
X147090000Y-74041250I0J218750D01*
G01*
G37*
%TD*%
D16*
%TO.C,JP1*%
G36*
X148740000Y-75450000D02*
G01*
X149240000Y-75450000D01*
X149240000Y-75450602D01*
X149264534Y-75450602D01*
X149313365Y-75455412D01*
X149361490Y-75464984D01*
X149408445Y-75479228D01*
X149453778Y-75498005D01*
X149497051Y-75521136D01*
X149537850Y-75548396D01*
X149575779Y-75579524D01*
X149610476Y-75614221D01*
X149641604Y-75652150D01*
X149668864Y-75692949D01*
X149691995Y-75736222D01*
X149710772Y-75781555D01*
X149725016Y-75828510D01*
X149734588Y-75876635D01*
X149739398Y-75925466D01*
X149739398Y-75950000D01*
X149740000Y-75950000D01*
X149740000Y-76450000D01*
X149739398Y-76450000D01*
X149739398Y-76474534D01*
X149734588Y-76523365D01*
X149725016Y-76571490D01*
X149710772Y-76618445D01*
X149691995Y-76663778D01*
X149668864Y-76707051D01*
X149641604Y-76747850D01*
X149610476Y-76785779D01*
X149575779Y-76820476D01*
X149537850Y-76851604D01*
X149497051Y-76878864D01*
X149453778Y-76901995D01*
X149408445Y-76920772D01*
X149361490Y-76935016D01*
X149313365Y-76944588D01*
X149264534Y-76949398D01*
X149240000Y-76949398D01*
X149240000Y-76950000D01*
X148740000Y-76950000D01*
X148740000Y-75450000D01*
G37*
G36*
X147940000Y-76949398D02*
G01*
X147915466Y-76949398D01*
X147866635Y-76944588D01*
X147818510Y-76935016D01*
X147771555Y-76920772D01*
X147726222Y-76901995D01*
X147682949Y-76878864D01*
X147642150Y-76851604D01*
X147604221Y-76820476D01*
X147569524Y-76785779D01*
X147538396Y-76747850D01*
X147511136Y-76707051D01*
X147488005Y-76663778D01*
X147469228Y-76618445D01*
X147454984Y-76571490D01*
X147445412Y-76523365D01*
X147440602Y-76474534D01*
X147440602Y-76450000D01*
X147440000Y-76450000D01*
X147440000Y-75950000D01*
X147440602Y-75950000D01*
X147440602Y-75925466D01*
X147445412Y-75876635D01*
X147454984Y-75828510D01*
X147469228Y-75781555D01*
X147488005Y-75736222D01*
X147511136Y-75692949D01*
X147538396Y-75652150D01*
X147569524Y-75614221D01*
X147604221Y-75579524D01*
X147642150Y-75548396D01*
X147682949Y-75521136D01*
X147726222Y-75498005D01*
X147771555Y-75479228D01*
X147818510Y-75464984D01*
X147866635Y-75455412D01*
X147915466Y-75450602D01*
X147940000Y-75450602D01*
X147940000Y-75450000D01*
X148440000Y-75450000D01*
X148440000Y-76950000D01*
X147940000Y-76950000D01*
X147940000Y-76949398D01*
G37*
%TD*%
D17*
%TO.C,J6*%
X152400000Y-81280000D03*
X149860000Y-81280000D03*
X147320000Y-81280000D03*
D18*
X144780000Y-81280000D03*
%TD*%
D17*
%TO.C,J5*%
X144780000Y-71120000D03*
X144780000Y-73660000D03*
D18*
X144780000Y-76200000D03*
%TD*%
D17*
%TO.C,J4*%
X157480000Y-78740000D03*
X157480000Y-76200000D03*
X157480000Y-73660000D03*
X157480000Y-71120000D03*
D18*
X157480000Y-68580000D03*
%TD*%
D17*
%TO.C,J3*%
X154940000Y-78740000D03*
X152400000Y-78740000D03*
X149860000Y-78740000D03*
X147320000Y-78740000D03*
D18*
X144780000Y-78740000D03*
%TD*%
D17*
%TO.C,J2*%
X144780000Y-68580000D03*
X147320000Y-68580000D03*
X149860000Y-68580000D03*
X152400000Y-68580000D03*
D18*
X154940000Y-68580000D03*
%TD*%
D17*
%TO.C,J1*%
X147320000Y-66040000D03*
X149860000Y-66040000D03*
D18*
X152400000Y-66040000D03*
%TD*%
M02*
