%TF.GenerationSoftware,KiCad,Pcbnew,5.1.8*%
%TF.CreationDate,2020-11-15T21:26:51-08:00*%
%TF.ProjectId,teensy-toslink-receiver,7465656e-7379-42d7-946f-736c696e6b2d,rev?*%
%TF.SameCoordinates,Original*%
%TF.FileFunction,Soldermask,Bot*%
%TF.FilePolarity,Negative*%
%FSLAX46Y46*%
G04 Gerber Fmt 4.6, Leading zero omitted, Abs format (unit mm)*
G04 Created by KiCad (PCBNEW 5.1.8) date 2020-11-15 21:26:51*
%MOMM*%
%LPD*%
G01*
G04 APERTURE LIST*
%ADD10R,1.500000X1.500000*%
%ADD11O,1.500000X1.500000*%
%ADD12C,2.000000*%
%ADD13C,0.100000*%
%ADD14O,1.700000X1.700000*%
%ADD15R,1.700000X1.700000*%
G04 APERTURE END LIST*
D10*
%TO.C,U1*%
X151892000Y-76200000D03*
D11*
X151892000Y-73660000D03*
X151892000Y-71120000D03*
D12*
X154432000Y-76280000D03*
X154432000Y-71040000D03*
%TD*%
%TO.C,L1*%
G36*
G01*
X149215000Y-74041250D02*
X149215000Y-73278750D01*
G75*
G02*
X149433750Y-73060000I218750J0D01*
G01*
X149871250Y-73060000D01*
G75*
G02*
X150090000Y-73278750I0J-218750D01*
G01*
X150090000Y-74041250D01*
G75*
G02*
X149871250Y-74260000I-218750J0D01*
G01*
X149433750Y-74260000D01*
G75*
G02*
X149215000Y-74041250I0J218750D01*
G01*
G37*
G36*
G01*
X147090000Y-74041250D02*
X147090000Y-73278750D01*
G75*
G02*
X147308750Y-73060000I218750J0D01*
G01*
X147746250Y-73060000D01*
G75*
G02*
X147965000Y-73278750I0J-218750D01*
G01*
X147965000Y-74041250D01*
G75*
G02*
X147746250Y-74260000I-218750J0D01*
G01*
X147308750Y-74260000D01*
G75*
G02*
X147090000Y-74041250I0J218750D01*
G01*
G37*
%TD*%
D13*
%TO.C,JP1*%
G36*
X148740000Y-75450000D02*
G01*
X149240000Y-75450000D01*
X149240000Y-75450602D01*
X149264534Y-75450602D01*
X149313365Y-75455412D01*
X149361490Y-75464984D01*
X149408445Y-75479228D01*
X149453778Y-75498005D01*
X149497051Y-75521136D01*
X149537850Y-75548396D01*
X149575779Y-75579524D01*
X149610476Y-75614221D01*
X149641604Y-75652150D01*
X149668864Y-75692949D01*
X149691995Y-75736222D01*
X149710772Y-75781555D01*
X149725016Y-75828510D01*
X149734588Y-75876635D01*
X149739398Y-75925466D01*
X149739398Y-75950000D01*
X149740000Y-75950000D01*
X149740000Y-76450000D01*
X149739398Y-76450000D01*
X149739398Y-76474534D01*
X149734588Y-76523365D01*
X149725016Y-76571490D01*
X149710772Y-76618445D01*
X149691995Y-76663778D01*
X149668864Y-76707051D01*
X149641604Y-76747850D01*
X149610476Y-76785779D01*
X149575779Y-76820476D01*
X149537850Y-76851604D01*
X149497051Y-76878864D01*
X149453778Y-76901995D01*
X149408445Y-76920772D01*
X149361490Y-76935016D01*
X149313365Y-76944588D01*
X149264534Y-76949398D01*
X149240000Y-76949398D01*
X149240000Y-76950000D01*
X148740000Y-76950000D01*
X148740000Y-75450000D01*
G37*
G36*
X147940000Y-76949398D02*
G01*
X147915466Y-76949398D01*
X147866635Y-76944588D01*
X147818510Y-76935016D01*
X147771555Y-76920772D01*
X147726222Y-76901995D01*
X147682949Y-76878864D01*
X147642150Y-76851604D01*
X147604221Y-76820476D01*
X147569524Y-76785779D01*
X147538396Y-76747850D01*
X147511136Y-76707051D01*
X147488005Y-76663778D01*
X147469228Y-76618445D01*
X147454984Y-76571490D01*
X147445412Y-76523365D01*
X147440602Y-76474534D01*
X147440602Y-76450000D01*
X147440000Y-76450000D01*
X147440000Y-75950000D01*
X147440602Y-75950000D01*
X147440602Y-75925466D01*
X147445412Y-75876635D01*
X147454984Y-75828510D01*
X147469228Y-75781555D01*
X147488005Y-75736222D01*
X147511136Y-75692949D01*
X147538396Y-75652150D01*
X147569524Y-75614221D01*
X147604221Y-75579524D01*
X147642150Y-75548396D01*
X147682949Y-75521136D01*
X147726222Y-75498005D01*
X147771555Y-75479228D01*
X147818510Y-75464984D01*
X147866635Y-75455412D01*
X147915466Y-75450602D01*
X147940000Y-75450602D01*
X147940000Y-75450000D01*
X148440000Y-75450000D01*
X148440000Y-76950000D01*
X147940000Y-76950000D01*
X147940000Y-76949398D01*
G37*
%TD*%
D14*
%TO.C,J6*%
X152400000Y-81280000D03*
X149860000Y-81280000D03*
X147320000Y-81280000D03*
D15*
X144780000Y-81280000D03*
%TD*%
D14*
%TO.C,J5*%
X144780000Y-71120000D03*
X144780000Y-73660000D03*
D15*
X144780000Y-76200000D03*
%TD*%
D14*
%TO.C,J4*%
X157480000Y-78740000D03*
X157480000Y-76200000D03*
X157480000Y-73660000D03*
X157480000Y-71120000D03*
D15*
X157480000Y-68580000D03*
%TD*%
D14*
%TO.C,J3*%
X154940000Y-78740000D03*
X152400000Y-78740000D03*
X149860000Y-78740000D03*
X147320000Y-78740000D03*
D15*
X144780000Y-78740000D03*
%TD*%
D14*
%TO.C,J2*%
X144780000Y-68580000D03*
X147320000Y-68580000D03*
X149860000Y-68580000D03*
X152400000Y-68580000D03*
D15*
X154940000Y-68580000D03*
%TD*%
D14*
%TO.C,J1*%
X147320000Y-66040000D03*
X149860000Y-66040000D03*
D15*
X152400000Y-66040000D03*
%TD*%
M02*
