%TF.GenerationSoftware,KiCad,Pcbnew,5.1.8*%
%TF.CreationDate,2020-12-26T07:32:41-08:00*%
%TF.ProjectId,teensy-toslink-receiver,7465656e-7379-42d7-946f-736c696e6b2d,rev?*%
%TF.SameCoordinates,Original*%
%TF.FileFunction,Copper,L2,Bot*%
%TF.FilePolarity,Positive*%
%FSLAX46Y46*%
G04 Gerber Fmt 4.6, Leading zero omitted, Abs format (unit mm)*
G04 Created by KiCad (PCBNEW 5.1.8) date 2020-12-26 07:32:41*
%MOMM*%
%LPD*%
G01*
G04 APERTURE LIST*
%TA.AperFunction,ComponentPad*%
%ADD10O,1.700000X1.700000*%
%TD*%
%TA.AperFunction,ComponentPad*%
%ADD11R,1.700000X1.700000*%
%TD*%
%TA.AperFunction,ComponentPad*%
%ADD12C,2.000000*%
%TD*%
%TA.AperFunction,SMDPad,CuDef*%
%ADD13R,1.900000X0.300000*%
%TD*%
%TA.AperFunction,ComponentPad*%
%ADD14R,1.500000X1.500000*%
%TD*%
%TA.AperFunction,ComponentPad*%
%ADD15O,1.500000X1.500000*%
%TD*%
%TA.AperFunction,ComponentPad*%
%ADD16C,1.500000*%
%TD*%
%TA.AperFunction,ViaPad*%
%ADD17C,0.800000*%
%TD*%
%TA.AperFunction,Conductor*%
%ADD18C,0.250000*%
%TD*%
%TA.AperFunction,Conductor*%
%ADD19C,0.200000*%
%TD*%
%TA.AperFunction,Conductor*%
%ADD20C,0.100000*%
%TD*%
G04 APERTURE END LIST*
D10*
%TO.P,J2,5*%
%TO.N,/DIO17*%
X147320000Y-66040000D03*
%TO.P,J2,4*%
%TO.N,/DIO16*%
X149860000Y-66040000D03*
%TO.P,J2,3*%
%TO.N,/SPDIF_IN*%
X152400000Y-66040000D03*
%TO.P,J2,2*%
%TO.N,/DIO14*%
X154940000Y-66040000D03*
D11*
%TO.P,J2,1*%
%TO.N,/DIO13*%
X157480000Y-66040000D03*
%TD*%
%TO.P,R1,2*%
%TO.N,/HPD*%
%TA.AperFunction,SMDPad,CuDef*%
G36*
G01*
X143600000Y-77443000D02*
X143600000Y-77243000D01*
G75*
G02*
X143700000Y-77143000I100000J0D01*
G01*
X143960000Y-77143000D01*
G75*
G02*
X144060000Y-77243000I0J-100000D01*
G01*
X144060000Y-77443000D01*
G75*
G02*
X143960000Y-77543000I-100000J0D01*
G01*
X143700000Y-77543000D01*
G75*
G02*
X143600000Y-77443000I0J100000D01*
G01*
G37*
%TD.AperFunction*%
%TO.P,R1,1*%
%TO.N,+5V*%
%TA.AperFunction,SMDPad,CuDef*%
G36*
G01*
X142960000Y-77443000D02*
X142960000Y-77243000D01*
G75*
G02*
X143060000Y-77143000I100000J0D01*
G01*
X143320000Y-77143000D01*
G75*
G02*
X143420000Y-77243000I0J-100000D01*
G01*
X143420000Y-77443000D01*
G75*
G02*
X143320000Y-77543000I-100000J0D01*
G01*
X143060000Y-77543000D01*
G75*
G02*
X142960000Y-77443000I0J100000D01*
G01*
G37*
%TD.AperFunction*%
%TD*%
D12*
%TO.P,J7,M3*%
%TO.N,GND*%
X135423000Y-81510000D03*
%TO.P,J7,M4*%
X135423000Y-65810000D03*
%TO.P,J7,M1*%
X140323000Y-80910000D03*
%TO.P,J7,M2*%
X140323000Y-66410000D03*
D13*
%TO.P,J7,1*%
%TO.N,Net-(J7-Pad1)*%
X141323000Y-68910000D03*
%TO.P,J7,2*%
%TO.N,GND*%
X141323000Y-69410000D03*
%TO.P,J7,3*%
%TO.N,Net-(J7-Pad3)*%
X141323000Y-69910000D03*
%TO.P,J7,4*%
%TO.N,Net-(J7-Pad4)*%
X141323000Y-70410000D03*
%TO.P,J7,5*%
%TO.N,GND*%
X141323000Y-70910000D03*
%TO.P,J7,6*%
%TO.N,Net-(J7-Pad6)*%
X141323000Y-71410000D03*
%TO.P,J7,7*%
%TO.N,Net-(J7-Pad7)*%
X141323000Y-71910000D03*
%TO.P,J7,8*%
%TO.N,GND*%
X141323000Y-72410000D03*
%TO.P,J7,9*%
%TO.N,Net-(J7-Pad9)*%
X141323000Y-72910000D03*
%TO.P,J7,10*%
%TO.N,Net-(J7-Pad10)*%
X141323000Y-73410000D03*
%TO.P,J7,11*%
%TO.N,GND*%
X141323000Y-73910000D03*
%TO.P,J7,12*%
%TO.N,Net-(J7-Pad12)*%
X141323000Y-74410000D03*
%TO.P,J7,13*%
%TO.N,/CEC*%
X141323000Y-74910000D03*
%TO.P,J7,14*%
%TO.N,/ARC*%
X141323000Y-75410000D03*
%TO.P,J7,15*%
%TO.N,Net-(J7-Pad15)*%
X141323000Y-75910000D03*
%TO.P,J7,16*%
%TO.N,Net-(J7-Pad16)*%
X141323000Y-76410000D03*
%TO.P,J7,17*%
%TO.N,GND*%
X141323000Y-76910000D03*
%TO.P,J7,18*%
%TO.N,+5V*%
X141323000Y-77410000D03*
%TO.P,J7,19*%
%TO.N,/HPD*%
X141323000Y-77910000D03*
%TD*%
D14*
%TO.P,U1,1*%
%TO.N,Net-(C1-Pad1)*%
X151892000Y-71120000D03*
D15*
%TO.P,U1,2*%
%TO.N,GND*%
X151892000Y-73660000D03*
%TO.P,U1,3*%
%TO.N,/TOSLINK_RX*%
X151892000Y-76200000D03*
D16*
%TO.P,U1,4*%
%TO.N,N/C*%
X154432000Y-71040000D03*
%TO.P,U1,5*%
X154432000Y-76280000D03*
%TD*%
D10*
%TO.P,J6,4*%
%TO.N,GND*%
X144780000Y-81280000D03*
%TO.P,J6,3*%
%TO.N,/HPD*%
X144780000Y-78740000D03*
%TO.P,J6,2*%
%TO.N,/ARC*%
X144780000Y-76200000D03*
D11*
%TO.P,J6,1*%
%TO.N,+3V3*%
X144780000Y-73660000D03*
%TD*%
D10*
%TO.P,J5,3*%
%TO.N,GND*%
X149860000Y-68580000D03*
%TO.P,J5,2*%
%TO.N,/CEC*%
X147320000Y-68580000D03*
D11*
%TO.P,J5,1*%
%TO.N,+3V3*%
X144780000Y-68580000D03*
%TD*%
D10*
%TO.P,J4,5*%
%TO.N,/VBat*%
X157480000Y-78740000D03*
%TO.P,J4,4*%
%TO.N,+3V3*%
X157480000Y-76200000D03*
%TO.P,J4,3*%
%TO.N,GND*%
X157480000Y-73660000D03*
%TO.P,J4,2*%
%TO.N,/Program*%
X157480000Y-71120000D03*
D11*
%TO.P,J4,1*%
%TO.N,/OnOff*%
X157480000Y-68580000D03*
%TD*%
D10*
%TO.P,J3,5*%
%TO.N,/DIO12*%
X157480000Y-81280000D03*
%TO.P,J3,4*%
%TO.N,/DIO11*%
X154940000Y-81280000D03*
%TO.P,J3,3*%
%TO.N,/DIO10*%
X152400000Y-81280000D03*
%TO.P,J3,2*%
%TO.N,/DIO9*%
X149860000Y-81280000D03*
D11*
%TO.P,J3,1*%
%TO.N,/DIO8*%
X147320000Y-81280000D03*
%TD*%
D10*
%TO.P,J1,3*%
%TO.N,/ARC*%
X147320000Y-78740000D03*
%TO.P,J1,2*%
%TO.N,/SPDIF_IN*%
X149860000Y-78740000D03*
D11*
%TO.P,J1,1*%
%TO.N,/TOSLINK_RX*%
X152400000Y-78740000D03*
%TD*%
D17*
%TO.N,GND*%
X138684000Y-72898000D03*
%TO.N,/CEC*%
X137582509Y-76849205D03*
%TO.N,+5V*%
X138938000Y-78486000D03*
%TD*%
D18*
%TO.N,GND*%
X139680000Y-72410000D02*
X141323000Y-72410000D01*
X138684000Y-72898000D02*
X139172000Y-72410000D01*
%TO.N,/ARC*%
X143990000Y-75410000D02*
X144780000Y-76200000D01*
X141323000Y-75410000D02*
X143990000Y-75410000D01*
X147320000Y-78740000D02*
X144780000Y-76200000D01*
%TO.N,/SPDIF_IN*%
X151224999Y-67215001D02*
X152400000Y-66040000D01*
X151224999Y-69701999D02*
X151224999Y-67215001D01*
X149860000Y-71066998D02*
X151224999Y-69701999D01*
X149860000Y-78740000D02*
X149860000Y-71066998D01*
%TO.N,/TOSLINK_RX*%
X152400000Y-76708000D02*
X151892000Y-76200000D01*
X152400000Y-78740000D02*
X152400000Y-76708000D01*
%TO.N,/CEC*%
X141323000Y-74910000D02*
X146030000Y-74910000D01*
X147320000Y-73620000D02*
X147320000Y-68580000D01*
X146030000Y-74910000D02*
X147320000Y-73620000D01*
X139521714Y-74910000D02*
X137582509Y-76849205D01*
X141323000Y-74910000D02*
X139521714Y-74910000D01*
%TO.N,/HPD*%
X143950000Y-77910000D02*
X144780000Y-78740000D01*
X141323000Y-77910000D02*
X143950000Y-77910000D01*
X143830000Y-77790000D02*
X143950000Y-77910000D01*
X143830000Y-77343000D02*
X143830000Y-77790000D01*
%TO.N,+5V*%
X143123000Y-77410000D02*
X141323000Y-77410000D01*
X143190000Y-77343000D02*
X143123000Y-77410000D01*
X138938000Y-78087000D02*
X138938000Y-78486000D01*
X139615000Y-77410000D02*
X138938000Y-78087000D01*
X141323000Y-77410000D02*
X139615000Y-77410000D01*
%TD*%
D19*
%TO.N,GND*%
X157917247Y-64860526D02*
X158010063Y-64888549D01*
X156630000Y-64888549D01*
X156571190Y-64894341D01*
X156514640Y-64911496D01*
X156462523Y-64939353D01*
X156416842Y-64976842D01*
X156379353Y-65022523D01*
X156351496Y-65074640D01*
X156334341Y-65131190D01*
X156328549Y-65190000D01*
X156328549Y-66890000D01*
X156334341Y-66948810D01*
X156351496Y-67005360D01*
X156379353Y-67057477D01*
X156416842Y-67103158D01*
X156462523Y-67140647D01*
X156514640Y-67168504D01*
X156571190Y-67185659D01*
X156630000Y-67191451D01*
X158330000Y-67191451D01*
X158388810Y-67185659D01*
X158445360Y-67168504D01*
X158497477Y-67140647D01*
X158543158Y-67103158D01*
X158580647Y-67057477D01*
X158608504Y-67005360D01*
X158625659Y-66948810D01*
X158631451Y-66890000D01*
X158631451Y-65509972D01*
X158658172Y-65596292D01*
X158679001Y-65794474D01*
X158679000Y-81518103D01*
X158659474Y-81717247D01*
X158606253Y-81893521D01*
X158519812Y-82056093D01*
X158403436Y-82198784D01*
X158261569Y-82316147D01*
X158099598Y-82403724D01*
X157923708Y-82458172D01*
X157725536Y-82479000D01*
X136219462Y-82479000D01*
X136257580Y-82415290D01*
X135423000Y-81580711D01*
X135408858Y-81594853D01*
X135338147Y-81524142D01*
X135352289Y-81510000D01*
X135493711Y-81510000D01*
X136328290Y-82344580D01*
X136508425Y-82236805D01*
X136629362Y-82011083D01*
X136688965Y-81815290D01*
X139488420Y-81815290D01*
X139596195Y-81995425D01*
X139821917Y-82116362D01*
X140066894Y-82190938D01*
X140321714Y-82216289D01*
X140576583Y-82191439D01*
X140821707Y-82117345D01*
X141047666Y-81996854D01*
X141049805Y-81995425D01*
X141157580Y-81815290D01*
X140323000Y-80980711D01*
X139488420Y-81815290D01*
X136688965Y-81815290D01*
X136703938Y-81766106D01*
X136729289Y-81511286D01*
X136704439Y-81256417D01*
X136630345Y-81011293D01*
X136575646Y-80908714D01*
X139016711Y-80908714D01*
X139041561Y-81163583D01*
X139115655Y-81408707D01*
X139236146Y-81634666D01*
X139237575Y-81636805D01*
X139417710Y-81744580D01*
X140252289Y-80910000D01*
X140393711Y-80910000D01*
X141228290Y-81744580D01*
X141408425Y-81636805D01*
X141476839Y-81509114D01*
X143653054Y-81509114D01*
X143715688Y-81715597D01*
X143821119Y-81914864D01*
X143963400Y-82089734D01*
X144137062Y-82233486D01*
X144335432Y-82340596D01*
X144550886Y-82406948D01*
X144730000Y-82353915D01*
X144730000Y-81330000D01*
X144830000Y-81330000D01*
X144830000Y-82353915D01*
X145009114Y-82406948D01*
X145224568Y-82340596D01*
X145422938Y-82233486D01*
X145596600Y-82089734D01*
X145738881Y-81914864D01*
X145844312Y-81715597D01*
X145906946Y-81509114D01*
X145853837Y-81330000D01*
X144830000Y-81330000D01*
X144730000Y-81330000D01*
X143706163Y-81330000D01*
X143653054Y-81509114D01*
X141476839Y-81509114D01*
X141529362Y-81411083D01*
X141603938Y-81166106D01*
X141615400Y-81050886D01*
X143653054Y-81050886D01*
X143706163Y-81230000D01*
X144730000Y-81230000D01*
X144730000Y-80206085D01*
X144830000Y-80206085D01*
X144830000Y-81230000D01*
X145853837Y-81230000D01*
X145906946Y-81050886D01*
X145844312Y-80844403D01*
X145738881Y-80645136D01*
X145596600Y-80470266D01*
X145547956Y-80430000D01*
X146168549Y-80430000D01*
X146168549Y-82130000D01*
X146174341Y-82188810D01*
X146191496Y-82245360D01*
X146219353Y-82297477D01*
X146256842Y-82343158D01*
X146302523Y-82380647D01*
X146354640Y-82408504D01*
X146411190Y-82425659D01*
X146470000Y-82431451D01*
X148170000Y-82431451D01*
X148228810Y-82425659D01*
X148285360Y-82408504D01*
X148337477Y-82380647D01*
X148383158Y-82343158D01*
X148420647Y-82297477D01*
X148448504Y-82245360D01*
X148465659Y-82188810D01*
X148471451Y-82130000D01*
X148471451Y-81166735D01*
X148710000Y-81166735D01*
X148710000Y-81393265D01*
X148754194Y-81615443D01*
X148840884Y-81824729D01*
X148966737Y-82013082D01*
X149126918Y-82173263D01*
X149315271Y-82299116D01*
X149524557Y-82385806D01*
X149746735Y-82430000D01*
X149973265Y-82430000D01*
X150195443Y-82385806D01*
X150404729Y-82299116D01*
X150593082Y-82173263D01*
X150753263Y-82013082D01*
X150879116Y-81824729D01*
X150965806Y-81615443D01*
X151010000Y-81393265D01*
X151010000Y-81166735D01*
X151250000Y-81166735D01*
X151250000Y-81393265D01*
X151294194Y-81615443D01*
X151380884Y-81824729D01*
X151506737Y-82013082D01*
X151666918Y-82173263D01*
X151855271Y-82299116D01*
X152064557Y-82385806D01*
X152286735Y-82430000D01*
X152513265Y-82430000D01*
X152735443Y-82385806D01*
X152944729Y-82299116D01*
X153133082Y-82173263D01*
X153293263Y-82013082D01*
X153419116Y-81824729D01*
X153505806Y-81615443D01*
X153550000Y-81393265D01*
X153550000Y-81166735D01*
X153790000Y-81166735D01*
X153790000Y-81393265D01*
X153834194Y-81615443D01*
X153920884Y-81824729D01*
X154046737Y-82013082D01*
X154206918Y-82173263D01*
X154395271Y-82299116D01*
X154604557Y-82385806D01*
X154826735Y-82430000D01*
X155053265Y-82430000D01*
X155275443Y-82385806D01*
X155484729Y-82299116D01*
X155673082Y-82173263D01*
X155833263Y-82013082D01*
X155959116Y-81824729D01*
X156045806Y-81615443D01*
X156090000Y-81393265D01*
X156090000Y-81166735D01*
X156330000Y-81166735D01*
X156330000Y-81393265D01*
X156374194Y-81615443D01*
X156460884Y-81824729D01*
X156586737Y-82013082D01*
X156746918Y-82173263D01*
X156935271Y-82299116D01*
X157144557Y-82385806D01*
X157366735Y-82430000D01*
X157593265Y-82430000D01*
X157815443Y-82385806D01*
X158024729Y-82299116D01*
X158213082Y-82173263D01*
X158373263Y-82013082D01*
X158499116Y-81824729D01*
X158585806Y-81615443D01*
X158630000Y-81393265D01*
X158630000Y-81166735D01*
X158585806Y-80944557D01*
X158499116Y-80735271D01*
X158373263Y-80546918D01*
X158213082Y-80386737D01*
X158024729Y-80260884D01*
X157815443Y-80174194D01*
X157593265Y-80130000D01*
X157366735Y-80130000D01*
X157144557Y-80174194D01*
X156935271Y-80260884D01*
X156746918Y-80386737D01*
X156586737Y-80546918D01*
X156460884Y-80735271D01*
X156374194Y-80944557D01*
X156330000Y-81166735D01*
X156090000Y-81166735D01*
X156045806Y-80944557D01*
X155959116Y-80735271D01*
X155833263Y-80546918D01*
X155673082Y-80386737D01*
X155484729Y-80260884D01*
X155275443Y-80174194D01*
X155053265Y-80130000D01*
X154826735Y-80130000D01*
X154604557Y-80174194D01*
X154395271Y-80260884D01*
X154206918Y-80386737D01*
X154046737Y-80546918D01*
X153920884Y-80735271D01*
X153834194Y-80944557D01*
X153790000Y-81166735D01*
X153550000Y-81166735D01*
X153505806Y-80944557D01*
X153419116Y-80735271D01*
X153293263Y-80546918D01*
X153133082Y-80386737D01*
X152944729Y-80260884D01*
X152735443Y-80174194D01*
X152513265Y-80130000D01*
X152286735Y-80130000D01*
X152064557Y-80174194D01*
X151855271Y-80260884D01*
X151666918Y-80386737D01*
X151506737Y-80546918D01*
X151380884Y-80735271D01*
X151294194Y-80944557D01*
X151250000Y-81166735D01*
X151010000Y-81166735D01*
X150965806Y-80944557D01*
X150879116Y-80735271D01*
X150753263Y-80546918D01*
X150593082Y-80386737D01*
X150404729Y-80260884D01*
X150195443Y-80174194D01*
X149973265Y-80130000D01*
X149746735Y-80130000D01*
X149524557Y-80174194D01*
X149315271Y-80260884D01*
X149126918Y-80386737D01*
X148966737Y-80546918D01*
X148840884Y-80735271D01*
X148754194Y-80944557D01*
X148710000Y-81166735D01*
X148471451Y-81166735D01*
X148471451Y-80430000D01*
X148465659Y-80371190D01*
X148448504Y-80314640D01*
X148420647Y-80262523D01*
X148383158Y-80216842D01*
X148337477Y-80179353D01*
X148285360Y-80151496D01*
X148228810Y-80134341D01*
X148170000Y-80128549D01*
X146470000Y-80128549D01*
X146411190Y-80134341D01*
X146354640Y-80151496D01*
X146302523Y-80179353D01*
X146256842Y-80216842D01*
X146219353Y-80262523D01*
X146191496Y-80314640D01*
X146174341Y-80371190D01*
X146168549Y-80430000D01*
X145547956Y-80430000D01*
X145422938Y-80326514D01*
X145224568Y-80219404D01*
X145009114Y-80153052D01*
X144830000Y-80206085D01*
X144730000Y-80206085D01*
X144550886Y-80153052D01*
X144335432Y-80219404D01*
X144137062Y-80326514D01*
X143963400Y-80470266D01*
X143821119Y-80645136D01*
X143715688Y-80844403D01*
X143653054Y-81050886D01*
X141615400Y-81050886D01*
X141629289Y-80911286D01*
X141604439Y-80656417D01*
X141530345Y-80411293D01*
X141409854Y-80185334D01*
X141408425Y-80183195D01*
X141228290Y-80075420D01*
X140393711Y-80910000D01*
X140252289Y-80910000D01*
X139417710Y-80075420D01*
X139237575Y-80183195D01*
X139116638Y-80408917D01*
X139042062Y-80653894D01*
X139016711Y-80908714D01*
X136575646Y-80908714D01*
X136509854Y-80785334D01*
X136508425Y-80783195D01*
X136328290Y-80675420D01*
X135493711Y-81510000D01*
X135352289Y-81510000D01*
X134517710Y-80675420D01*
X134437000Y-80723709D01*
X134437000Y-80604710D01*
X134588420Y-80604710D01*
X135423000Y-81439289D01*
X136257580Y-80604710D01*
X136149805Y-80424575D01*
X135924083Y-80303638D01*
X135679106Y-80229062D01*
X135424286Y-80203711D01*
X135169417Y-80228561D01*
X134924293Y-80302655D01*
X134698334Y-80423146D01*
X134696195Y-80424575D01*
X134588420Y-80604710D01*
X134437000Y-80604710D01*
X134437000Y-80004710D01*
X139488420Y-80004710D01*
X140323000Y-80839289D01*
X141157580Y-80004710D01*
X141049805Y-79824575D01*
X140824083Y-79703638D01*
X140579106Y-79629062D01*
X140324286Y-79603711D01*
X140069417Y-79628561D01*
X139824293Y-79702655D01*
X139598334Y-79823146D01*
X139596195Y-79824575D01*
X139488420Y-80004710D01*
X134437000Y-80004710D01*
X134437000Y-76780261D01*
X136882509Y-76780261D01*
X136882509Y-76918149D01*
X136909410Y-77053387D01*
X136962177Y-77180779D01*
X137038783Y-77295429D01*
X137136285Y-77392931D01*
X137250935Y-77469537D01*
X137378327Y-77522304D01*
X137513565Y-77549205D01*
X137651453Y-77549205D01*
X137786691Y-77522304D01*
X137914083Y-77469537D01*
X138028733Y-77392931D01*
X138126235Y-77295429D01*
X138202841Y-77180779D01*
X138255608Y-77053387D01*
X138282509Y-76918149D01*
X138282509Y-76780261D01*
X138277529Y-76755225D01*
X139697755Y-75335000D01*
X140071549Y-75335000D01*
X140071549Y-75560000D01*
X140077341Y-75618810D01*
X140089836Y-75660000D01*
X140077341Y-75701190D01*
X140071549Y-75760000D01*
X140071549Y-76060000D01*
X140077341Y-76118810D01*
X140089836Y-76160000D01*
X140077341Y-76201190D01*
X140071549Y-76260000D01*
X140071549Y-76560000D01*
X140077341Y-76618810D01*
X140089836Y-76659998D01*
X140077340Y-76701190D01*
X140071548Y-76760000D01*
X140073000Y-76785000D01*
X140148000Y-76860000D01*
X140358267Y-76860000D01*
X140373000Y-76861451D01*
X142273000Y-76861451D01*
X142287733Y-76860000D01*
X142498000Y-76860000D01*
X142573000Y-76785000D01*
X142574452Y-76760000D01*
X142568660Y-76701190D01*
X142556164Y-76659998D01*
X142568659Y-76618810D01*
X142574451Y-76560000D01*
X142574451Y-76260000D01*
X142568659Y-76201190D01*
X142556164Y-76160000D01*
X142568659Y-76118810D01*
X142574451Y-76060000D01*
X142574451Y-75835000D01*
X143686437Y-75835000D01*
X143674194Y-75864557D01*
X143630000Y-76086735D01*
X143630000Y-76313265D01*
X143674194Y-76535443D01*
X143760884Y-76744729D01*
X143825577Y-76841549D01*
X143700000Y-76841549D01*
X143621681Y-76849263D01*
X143546371Y-76872108D01*
X143510000Y-76891549D01*
X143473629Y-76872108D01*
X143398319Y-76849263D01*
X143320000Y-76841549D01*
X143060000Y-76841549D01*
X142981681Y-76849263D01*
X142906371Y-76872108D01*
X142836966Y-76909206D01*
X142776131Y-76959131D01*
X142754901Y-76985000D01*
X142523000Y-76985000D01*
X142498000Y-76960000D01*
X142287733Y-76960000D01*
X142273000Y-76958549D01*
X140373000Y-76958549D01*
X140358267Y-76960000D01*
X140148000Y-76960000D01*
X140123000Y-76985000D01*
X139635874Y-76985000D01*
X139615000Y-76982944D01*
X139594126Y-76985000D01*
X139531686Y-76991150D01*
X139451573Y-77015452D01*
X139377740Y-77054916D01*
X139313026Y-77108026D01*
X139299716Y-77124244D01*
X138652244Y-77771716D01*
X138636026Y-77785026D01*
X138582916Y-77849741D01*
X138556613Y-77898952D01*
X138491776Y-77942274D01*
X138394274Y-78039776D01*
X138317668Y-78154426D01*
X138264901Y-78281818D01*
X138238000Y-78417056D01*
X138238000Y-78554944D01*
X138264901Y-78690182D01*
X138317668Y-78817574D01*
X138394274Y-78932224D01*
X138491776Y-79029726D01*
X138606426Y-79106332D01*
X138733818Y-79159099D01*
X138869056Y-79186000D01*
X139006944Y-79186000D01*
X139142182Y-79159099D01*
X139269574Y-79106332D01*
X139384224Y-79029726D01*
X139481726Y-78932224D01*
X139558332Y-78817574D01*
X139611099Y-78690182D01*
X139638000Y-78554944D01*
X139638000Y-78417056D01*
X139611099Y-78281818D01*
X139558332Y-78154426D01*
X139523598Y-78102442D01*
X139791040Y-77835000D01*
X140071549Y-77835000D01*
X140071549Y-78060000D01*
X140077341Y-78118810D01*
X140094496Y-78175360D01*
X140122353Y-78227477D01*
X140159842Y-78273158D01*
X140205523Y-78310647D01*
X140257640Y-78338504D01*
X140314190Y-78355659D01*
X140373000Y-78361451D01*
X142273000Y-78361451D01*
X142331810Y-78355659D01*
X142388360Y-78338504D01*
X142394916Y-78335000D01*
X143703006Y-78335000D01*
X143674194Y-78404557D01*
X143630000Y-78626735D01*
X143630000Y-78853265D01*
X143674194Y-79075443D01*
X143760884Y-79284729D01*
X143886737Y-79473082D01*
X144046918Y-79633263D01*
X144235271Y-79759116D01*
X144444557Y-79845806D01*
X144666735Y-79890000D01*
X144893265Y-79890000D01*
X145115443Y-79845806D01*
X145324729Y-79759116D01*
X145513082Y-79633263D01*
X145673263Y-79473082D01*
X145799116Y-79284729D01*
X145885806Y-79075443D01*
X145930000Y-78853265D01*
X145930000Y-78626735D01*
X145885806Y-78404557D01*
X145799116Y-78195271D01*
X145673263Y-78006918D01*
X145513082Y-77846737D01*
X145324729Y-77720884D01*
X145115443Y-77634194D01*
X144893265Y-77590000D01*
X144666735Y-77590000D01*
X144444557Y-77634194D01*
X144324828Y-77683788D01*
X144298420Y-77657380D01*
X144330892Y-77596629D01*
X144353737Y-77521319D01*
X144361451Y-77443000D01*
X144361451Y-77271382D01*
X144444557Y-77305806D01*
X144666735Y-77350000D01*
X144893265Y-77350000D01*
X145115443Y-77305806D01*
X145235172Y-77256212D01*
X146263788Y-78284828D01*
X146214194Y-78404557D01*
X146170000Y-78626735D01*
X146170000Y-78853265D01*
X146214194Y-79075443D01*
X146300884Y-79284729D01*
X146426737Y-79473082D01*
X146586918Y-79633263D01*
X146775271Y-79759116D01*
X146984557Y-79845806D01*
X147206735Y-79890000D01*
X147433265Y-79890000D01*
X147655443Y-79845806D01*
X147864729Y-79759116D01*
X148053082Y-79633263D01*
X148213263Y-79473082D01*
X148339116Y-79284729D01*
X148425806Y-79075443D01*
X148470000Y-78853265D01*
X148470000Y-78626735D01*
X148710000Y-78626735D01*
X148710000Y-78853265D01*
X148754194Y-79075443D01*
X148840884Y-79284729D01*
X148966737Y-79473082D01*
X149126918Y-79633263D01*
X149315271Y-79759116D01*
X149524557Y-79845806D01*
X149746735Y-79890000D01*
X149973265Y-79890000D01*
X150195443Y-79845806D01*
X150404729Y-79759116D01*
X150593082Y-79633263D01*
X150753263Y-79473082D01*
X150879116Y-79284729D01*
X150965806Y-79075443D01*
X151010000Y-78853265D01*
X151010000Y-78626735D01*
X150965806Y-78404557D01*
X150879116Y-78195271D01*
X150753263Y-78006918D01*
X150593082Y-77846737D01*
X150404729Y-77720884D01*
X150285000Y-77671290D01*
X150285000Y-76096584D01*
X150842000Y-76096584D01*
X150842000Y-76303416D01*
X150882350Y-76506274D01*
X150961502Y-76697362D01*
X151076411Y-76869336D01*
X151222664Y-77015589D01*
X151394638Y-77130498D01*
X151585726Y-77209650D01*
X151788584Y-77250000D01*
X151975001Y-77250000D01*
X151975001Y-77588549D01*
X151550000Y-77588549D01*
X151491190Y-77594341D01*
X151434640Y-77611496D01*
X151382523Y-77639353D01*
X151336842Y-77676842D01*
X151299353Y-77722523D01*
X151271496Y-77774640D01*
X151254341Y-77831190D01*
X151248549Y-77890000D01*
X151248549Y-79590000D01*
X151254341Y-79648810D01*
X151271496Y-79705360D01*
X151299353Y-79757477D01*
X151336842Y-79803158D01*
X151382523Y-79840647D01*
X151434640Y-79868504D01*
X151491190Y-79885659D01*
X151550000Y-79891451D01*
X153250000Y-79891451D01*
X153308810Y-79885659D01*
X153365360Y-79868504D01*
X153417477Y-79840647D01*
X153463158Y-79803158D01*
X153500647Y-79757477D01*
X153528504Y-79705360D01*
X153545659Y-79648810D01*
X153551451Y-79590000D01*
X153551451Y-78626735D01*
X156330000Y-78626735D01*
X156330000Y-78853265D01*
X156374194Y-79075443D01*
X156460884Y-79284729D01*
X156586737Y-79473082D01*
X156746918Y-79633263D01*
X156935271Y-79759116D01*
X157144557Y-79845806D01*
X157366735Y-79890000D01*
X157593265Y-79890000D01*
X157815443Y-79845806D01*
X158024729Y-79759116D01*
X158213082Y-79633263D01*
X158373263Y-79473082D01*
X158499116Y-79284729D01*
X158585806Y-79075443D01*
X158630000Y-78853265D01*
X158630000Y-78626735D01*
X158585806Y-78404557D01*
X158499116Y-78195271D01*
X158373263Y-78006918D01*
X158213082Y-77846737D01*
X158024729Y-77720884D01*
X157815443Y-77634194D01*
X157593265Y-77590000D01*
X157366735Y-77590000D01*
X157144557Y-77634194D01*
X156935271Y-77720884D01*
X156746918Y-77846737D01*
X156586737Y-78006918D01*
X156460884Y-78195271D01*
X156374194Y-78404557D01*
X156330000Y-78626735D01*
X153551451Y-78626735D01*
X153551451Y-77890000D01*
X153545659Y-77831190D01*
X153528504Y-77774640D01*
X153500647Y-77722523D01*
X153463158Y-77676842D01*
X153417477Y-77639353D01*
X153365360Y-77611496D01*
X153308810Y-77594341D01*
X153250000Y-77588549D01*
X152825000Y-77588549D01*
X152825000Y-76728866D01*
X152827055Y-76707999D01*
X152825333Y-76690517D01*
X152901650Y-76506274D01*
X152942000Y-76303416D01*
X152942000Y-76176584D01*
X153382000Y-76176584D01*
X153382000Y-76383416D01*
X153422350Y-76586274D01*
X153501502Y-76777362D01*
X153616411Y-76949336D01*
X153762664Y-77095589D01*
X153934638Y-77210498D01*
X154125726Y-77289650D01*
X154328584Y-77330000D01*
X154535416Y-77330000D01*
X154738274Y-77289650D01*
X154929362Y-77210498D01*
X155101336Y-77095589D01*
X155247589Y-76949336D01*
X155362498Y-76777362D01*
X155441650Y-76586274D01*
X155482000Y-76383416D01*
X155482000Y-76176584D01*
X155464129Y-76086735D01*
X156330000Y-76086735D01*
X156330000Y-76313265D01*
X156374194Y-76535443D01*
X156460884Y-76744729D01*
X156586737Y-76933082D01*
X156746918Y-77093263D01*
X156935271Y-77219116D01*
X157144557Y-77305806D01*
X157366735Y-77350000D01*
X157593265Y-77350000D01*
X157815443Y-77305806D01*
X158024729Y-77219116D01*
X158213082Y-77093263D01*
X158373263Y-76933082D01*
X158499116Y-76744729D01*
X158585806Y-76535443D01*
X158630000Y-76313265D01*
X158630000Y-76086735D01*
X158585806Y-75864557D01*
X158499116Y-75655271D01*
X158373263Y-75466918D01*
X158213082Y-75306737D01*
X158024729Y-75180884D01*
X157815443Y-75094194D01*
X157593265Y-75050000D01*
X157366735Y-75050000D01*
X157144557Y-75094194D01*
X156935271Y-75180884D01*
X156746918Y-75306737D01*
X156586737Y-75466918D01*
X156460884Y-75655271D01*
X156374194Y-75864557D01*
X156330000Y-76086735D01*
X155464129Y-76086735D01*
X155441650Y-75973726D01*
X155362498Y-75782638D01*
X155247589Y-75610664D01*
X155101336Y-75464411D01*
X154929362Y-75349502D01*
X154738274Y-75270350D01*
X154535416Y-75230000D01*
X154328584Y-75230000D01*
X154125726Y-75270350D01*
X153934638Y-75349502D01*
X153762664Y-75464411D01*
X153616411Y-75610664D01*
X153501502Y-75782638D01*
X153422350Y-75973726D01*
X153382000Y-76176584D01*
X152942000Y-76176584D01*
X152942000Y-76096584D01*
X152901650Y-75893726D01*
X152822498Y-75702638D01*
X152707589Y-75530664D01*
X152561336Y-75384411D01*
X152389362Y-75269502D01*
X152198274Y-75190350D01*
X151995416Y-75150000D01*
X151788584Y-75150000D01*
X151585726Y-75190350D01*
X151394638Y-75269502D01*
X151222664Y-75384411D01*
X151076411Y-75530664D01*
X150961502Y-75702638D01*
X150882350Y-75893726D01*
X150842000Y-76096584D01*
X150285000Y-76096584D01*
X150285000Y-73873455D01*
X150863922Y-73873455D01*
X150925319Y-74069922D01*
X151023865Y-74250636D01*
X151155773Y-74408652D01*
X151315974Y-74537898D01*
X151498312Y-74633407D01*
X151678546Y-74688075D01*
X151842000Y-74633717D01*
X151842000Y-73710000D01*
X151942000Y-73710000D01*
X151942000Y-74633717D01*
X152105454Y-74688075D01*
X152285688Y-74633407D01*
X152468026Y-74537898D01*
X152628227Y-74408652D01*
X152760135Y-74250636D01*
X152858681Y-74069922D01*
X152915184Y-73889114D01*
X156353054Y-73889114D01*
X156415688Y-74095597D01*
X156521119Y-74294864D01*
X156663400Y-74469734D01*
X156837062Y-74613486D01*
X157035432Y-74720596D01*
X157250886Y-74786948D01*
X157430000Y-74733915D01*
X157430000Y-73710000D01*
X157530000Y-73710000D01*
X157530000Y-74733915D01*
X157709114Y-74786948D01*
X157924568Y-74720596D01*
X158122938Y-74613486D01*
X158296600Y-74469734D01*
X158438881Y-74294864D01*
X158544312Y-74095597D01*
X158606946Y-73889114D01*
X158553837Y-73710000D01*
X157530000Y-73710000D01*
X157430000Y-73710000D01*
X156406163Y-73710000D01*
X156353054Y-73889114D01*
X152915184Y-73889114D01*
X152920078Y-73873455D01*
X152865812Y-73710000D01*
X151942000Y-73710000D01*
X151842000Y-73710000D01*
X150918188Y-73710000D01*
X150863922Y-73873455D01*
X150285000Y-73873455D01*
X150285000Y-73446545D01*
X150863922Y-73446545D01*
X150918188Y-73610000D01*
X151842000Y-73610000D01*
X151842000Y-72686283D01*
X151942000Y-72686283D01*
X151942000Y-73610000D01*
X152865812Y-73610000D01*
X152920078Y-73446545D01*
X152915185Y-73430886D01*
X156353054Y-73430886D01*
X156406163Y-73610000D01*
X157430000Y-73610000D01*
X157430000Y-72586085D01*
X157530000Y-72586085D01*
X157530000Y-73610000D01*
X158553837Y-73610000D01*
X158606946Y-73430886D01*
X158544312Y-73224403D01*
X158438881Y-73025136D01*
X158296600Y-72850266D01*
X158122938Y-72706514D01*
X157924568Y-72599404D01*
X157709114Y-72533052D01*
X157530000Y-72586085D01*
X157430000Y-72586085D01*
X157250886Y-72533052D01*
X157035432Y-72599404D01*
X156837062Y-72706514D01*
X156663400Y-72850266D01*
X156521119Y-73025136D01*
X156415688Y-73224403D01*
X156353054Y-73430886D01*
X152915185Y-73430886D01*
X152858681Y-73250078D01*
X152760135Y-73069364D01*
X152628227Y-72911348D01*
X152468026Y-72782102D01*
X152285688Y-72686593D01*
X152105454Y-72631925D01*
X151942000Y-72686283D01*
X151842000Y-72686283D01*
X151678546Y-72631925D01*
X151498312Y-72686593D01*
X151315974Y-72782102D01*
X151155773Y-72911348D01*
X151023865Y-73069364D01*
X150925319Y-73250078D01*
X150863922Y-73446545D01*
X150285000Y-73446545D01*
X150285000Y-71243038D01*
X150840549Y-70687489D01*
X150840549Y-71870000D01*
X150846341Y-71928810D01*
X150863496Y-71985360D01*
X150891353Y-72037477D01*
X150928842Y-72083158D01*
X150974523Y-72120647D01*
X151026640Y-72148504D01*
X151083190Y-72165659D01*
X151142000Y-72171451D01*
X152642000Y-72171451D01*
X152700810Y-72165659D01*
X152757360Y-72148504D01*
X152809477Y-72120647D01*
X152855158Y-72083158D01*
X152892647Y-72037477D01*
X152920504Y-71985360D01*
X152937659Y-71928810D01*
X152943451Y-71870000D01*
X152943451Y-70936584D01*
X153382000Y-70936584D01*
X153382000Y-71143416D01*
X153422350Y-71346274D01*
X153501502Y-71537362D01*
X153616411Y-71709336D01*
X153762664Y-71855589D01*
X153934638Y-71970498D01*
X154125726Y-72049650D01*
X154328584Y-72090000D01*
X154535416Y-72090000D01*
X154738274Y-72049650D01*
X154929362Y-71970498D01*
X155101336Y-71855589D01*
X155247589Y-71709336D01*
X155362498Y-71537362D01*
X155441650Y-71346274D01*
X155482000Y-71143416D01*
X155482000Y-71006735D01*
X156330000Y-71006735D01*
X156330000Y-71233265D01*
X156374194Y-71455443D01*
X156460884Y-71664729D01*
X156586737Y-71853082D01*
X156746918Y-72013263D01*
X156935271Y-72139116D01*
X157144557Y-72225806D01*
X157366735Y-72270000D01*
X157593265Y-72270000D01*
X157815443Y-72225806D01*
X158024729Y-72139116D01*
X158213082Y-72013263D01*
X158373263Y-71853082D01*
X158499116Y-71664729D01*
X158585806Y-71455443D01*
X158630000Y-71233265D01*
X158630000Y-71006735D01*
X158585806Y-70784557D01*
X158499116Y-70575271D01*
X158373263Y-70386918D01*
X158213082Y-70226737D01*
X158024729Y-70100884D01*
X157815443Y-70014194D01*
X157593265Y-69970000D01*
X157366735Y-69970000D01*
X157144557Y-70014194D01*
X156935271Y-70100884D01*
X156746918Y-70226737D01*
X156586737Y-70386918D01*
X156460884Y-70575271D01*
X156374194Y-70784557D01*
X156330000Y-71006735D01*
X155482000Y-71006735D01*
X155482000Y-70936584D01*
X155441650Y-70733726D01*
X155362498Y-70542638D01*
X155247589Y-70370664D01*
X155101336Y-70224411D01*
X154929362Y-70109502D01*
X154738274Y-70030350D01*
X154535416Y-69990000D01*
X154328584Y-69990000D01*
X154125726Y-70030350D01*
X153934638Y-70109502D01*
X153762664Y-70224411D01*
X153616411Y-70370664D01*
X153501502Y-70542638D01*
X153422350Y-70733726D01*
X153382000Y-70936584D01*
X152943451Y-70936584D01*
X152943451Y-70370000D01*
X152937659Y-70311190D01*
X152920504Y-70254640D01*
X152892647Y-70202523D01*
X152855158Y-70156842D01*
X152809477Y-70119353D01*
X152757360Y-70091496D01*
X152700810Y-70074341D01*
X152642000Y-70068549D01*
X151459490Y-70068549D01*
X151510762Y-70017277D01*
X151526973Y-70003973D01*
X151580083Y-69939259D01*
X151619547Y-69865426D01*
X151643849Y-69785313D01*
X151649999Y-69722873D01*
X151649999Y-69722867D01*
X151652054Y-69702000D01*
X151649999Y-69681133D01*
X151649999Y-67730000D01*
X156328549Y-67730000D01*
X156328549Y-69430000D01*
X156334341Y-69488810D01*
X156351496Y-69545360D01*
X156379353Y-69597477D01*
X156416842Y-69643158D01*
X156462523Y-69680647D01*
X156514640Y-69708504D01*
X156571190Y-69725659D01*
X156630000Y-69731451D01*
X158330000Y-69731451D01*
X158388810Y-69725659D01*
X158445360Y-69708504D01*
X158497477Y-69680647D01*
X158543158Y-69643158D01*
X158580647Y-69597477D01*
X158608504Y-69545360D01*
X158625659Y-69488810D01*
X158631451Y-69430000D01*
X158631451Y-67730000D01*
X158625659Y-67671190D01*
X158608504Y-67614640D01*
X158580647Y-67562523D01*
X158543158Y-67516842D01*
X158497477Y-67479353D01*
X158445360Y-67451496D01*
X158388810Y-67434341D01*
X158330000Y-67428549D01*
X156630000Y-67428549D01*
X156571190Y-67434341D01*
X156514640Y-67451496D01*
X156462523Y-67479353D01*
X156416842Y-67516842D01*
X156379353Y-67562523D01*
X156351496Y-67614640D01*
X156334341Y-67671190D01*
X156328549Y-67730000D01*
X151649999Y-67730000D01*
X151649999Y-67391041D01*
X151944828Y-67096212D01*
X152064557Y-67145806D01*
X152286735Y-67190000D01*
X152513265Y-67190000D01*
X152735443Y-67145806D01*
X152944729Y-67059116D01*
X153133082Y-66933263D01*
X153293263Y-66773082D01*
X153419116Y-66584729D01*
X153505806Y-66375443D01*
X153550000Y-66153265D01*
X153550000Y-65926735D01*
X153790000Y-65926735D01*
X153790000Y-66153265D01*
X153834194Y-66375443D01*
X153920884Y-66584729D01*
X154046737Y-66773082D01*
X154206918Y-66933263D01*
X154395271Y-67059116D01*
X154604557Y-67145806D01*
X154826735Y-67190000D01*
X155053265Y-67190000D01*
X155275443Y-67145806D01*
X155484729Y-67059116D01*
X155673082Y-66933263D01*
X155833263Y-66773082D01*
X155959116Y-66584729D01*
X156045806Y-66375443D01*
X156090000Y-66153265D01*
X156090000Y-65926735D01*
X156045806Y-65704557D01*
X155959116Y-65495271D01*
X155833263Y-65306918D01*
X155673082Y-65146737D01*
X155484729Y-65020884D01*
X155275443Y-64934194D01*
X155053265Y-64890000D01*
X154826735Y-64890000D01*
X154604557Y-64934194D01*
X154395271Y-65020884D01*
X154206918Y-65146737D01*
X154046737Y-65306918D01*
X153920884Y-65495271D01*
X153834194Y-65704557D01*
X153790000Y-65926735D01*
X153550000Y-65926735D01*
X153505806Y-65704557D01*
X153419116Y-65495271D01*
X153293263Y-65306918D01*
X153133082Y-65146737D01*
X152944729Y-65020884D01*
X152735443Y-64934194D01*
X152513265Y-64890000D01*
X152286735Y-64890000D01*
X152064557Y-64934194D01*
X151855271Y-65020884D01*
X151666918Y-65146737D01*
X151506737Y-65306918D01*
X151380884Y-65495271D01*
X151294194Y-65704557D01*
X151250000Y-65926735D01*
X151250000Y-66153265D01*
X151294194Y-66375443D01*
X151343788Y-66495172D01*
X150939238Y-66899722D01*
X150923026Y-66913027D01*
X150909721Y-66929239D01*
X150909719Y-66929241D01*
X150897453Y-66944188D01*
X150869916Y-66977741D01*
X150855154Y-67005360D01*
X150830452Y-67051574D01*
X150806149Y-67131687D01*
X150797944Y-67215001D01*
X150800000Y-67235878D01*
X150800000Y-67920770D01*
X150669734Y-67763400D01*
X150494864Y-67621119D01*
X150295597Y-67515688D01*
X150089114Y-67453054D01*
X149910000Y-67506163D01*
X149910000Y-68530000D01*
X149930000Y-68530000D01*
X149930000Y-68630000D01*
X149910000Y-68630000D01*
X149910000Y-69653837D01*
X150089114Y-69706946D01*
X150295597Y-69644312D01*
X150494864Y-69538881D01*
X150669734Y-69396600D01*
X150799999Y-69239231D01*
X150799999Y-69525958D01*
X149574239Y-70751719D01*
X149558027Y-70765024D01*
X149544722Y-70781236D01*
X149544720Y-70781238D01*
X149541633Y-70785000D01*
X149504917Y-70829738D01*
X149465453Y-70903571D01*
X149441150Y-70983684D01*
X149432945Y-71066998D01*
X149435001Y-71087875D01*
X149435000Y-77671290D01*
X149315271Y-77720884D01*
X149126918Y-77846737D01*
X148966737Y-78006918D01*
X148840884Y-78195271D01*
X148754194Y-78404557D01*
X148710000Y-78626735D01*
X148470000Y-78626735D01*
X148425806Y-78404557D01*
X148339116Y-78195271D01*
X148213263Y-78006918D01*
X148053082Y-77846737D01*
X147864729Y-77720884D01*
X147655443Y-77634194D01*
X147433265Y-77590000D01*
X147206735Y-77590000D01*
X146984557Y-77634194D01*
X146864828Y-77683788D01*
X145836212Y-76655172D01*
X145885806Y-76535443D01*
X145930000Y-76313265D01*
X145930000Y-76086735D01*
X145885806Y-75864557D01*
X145799116Y-75655271D01*
X145673263Y-75466918D01*
X145541345Y-75335000D01*
X146009133Y-75335000D01*
X146030000Y-75337055D01*
X146050867Y-75335000D01*
X146050874Y-75335000D01*
X146113314Y-75328850D01*
X146193427Y-75304548D01*
X146267260Y-75265084D01*
X146331974Y-75211974D01*
X146345283Y-75195757D01*
X147605763Y-73935278D01*
X147621974Y-73921974D01*
X147675084Y-73857260D01*
X147714548Y-73783427D01*
X147738850Y-73703314D01*
X147745000Y-73640874D01*
X147745000Y-73640868D01*
X147747055Y-73620001D01*
X147745000Y-73599134D01*
X147745000Y-69648710D01*
X147864729Y-69599116D01*
X148053082Y-69473263D01*
X148213263Y-69313082D01*
X148339116Y-69124729D01*
X148425806Y-68915443D01*
X148446956Y-68809114D01*
X148733052Y-68809114D01*
X148799404Y-69024568D01*
X148906514Y-69222938D01*
X149050266Y-69396600D01*
X149225136Y-69538881D01*
X149424403Y-69644312D01*
X149630886Y-69706946D01*
X149810000Y-69653837D01*
X149810000Y-68630000D01*
X148786085Y-68630000D01*
X148733052Y-68809114D01*
X148446956Y-68809114D01*
X148470000Y-68693265D01*
X148470000Y-68466735D01*
X148446957Y-68350886D01*
X148733052Y-68350886D01*
X148786085Y-68530000D01*
X149810000Y-68530000D01*
X149810000Y-67506163D01*
X149630886Y-67453054D01*
X149424403Y-67515688D01*
X149225136Y-67621119D01*
X149050266Y-67763400D01*
X148906514Y-67937062D01*
X148799404Y-68135432D01*
X148733052Y-68350886D01*
X148446957Y-68350886D01*
X148425806Y-68244557D01*
X148339116Y-68035271D01*
X148213263Y-67846918D01*
X148053082Y-67686737D01*
X147864729Y-67560884D01*
X147655443Y-67474194D01*
X147433265Y-67430000D01*
X147206735Y-67430000D01*
X146984557Y-67474194D01*
X146775271Y-67560884D01*
X146586918Y-67686737D01*
X146426737Y-67846918D01*
X146300884Y-68035271D01*
X146214194Y-68244557D01*
X146170000Y-68466735D01*
X146170000Y-68693265D01*
X146214194Y-68915443D01*
X146300884Y-69124729D01*
X146426737Y-69313082D01*
X146586918Y-69473263D01*
X146775271Y-69599116D01*
X146895001Y-69648710D01*
X146895000Y-73443959D01*
X145931451Y-74407509D01*
X145931451Y-72810000D01*
X145925659Y-72751190D01*
X145908504Y-72694640D01*
X145880647Y-72642523D01*
X145843158Y-72596842D01*
X145797477Y-72559353D01*
X145745360Y-72531496D01*
X145688810Y-72514341D01*
X145630000Y-72508549D01*
X143930000Y-72508549D01*
X143871190Y-72514341D01*
X143814640Y-72531496D01*
X143762523Y-72559353D01*
X143716842Y-72596842D01*
X143679353Y-72642523D01*
X143651496Y-72694640D01*
X143634341Y-72751190D01*
X143628549Y-72810000D01*
X143628549Y-74485000D01*
X142574451Y-74485000D01*
X142574451Y-74260000D01*
X142568659Y-74201190D01*
X142556164Y-74160002D01*
X142568660Y-74118810D01*
X142574452Y-74060000D01*
X142573000Y-74035000D01*
X142498000Y-73960000D01*
X142287733Y-73960000D01*
X142273000Y-73958549D01*
X140373000Y-73958549D01*
X140358267Y-73960000D01*
X140148000Y-73960000D01*
X140073000Y-74035000D01*
X140071548Y-74060000D01*
X140077340Y-74118810D01*
X140089836Y-74160002D01*
X140077341Y-74201190D01*
X140071549Y-74260000D01*
X140071549Y-74485000D01*
X139542580Y-74485000D01*
X139521713Y-74482945D01*
X139500846Y-74485000D01*
X139500840Y-74485000D01*
X139446812Y-74490321D01*
X139438399Y-74491150D01*
X139414097Y-74498522D01*
X139358287Y-74515452D01*
X139284454Y-74554916D01*
X139219740Y-74608026D01*
X139206435Y-74624238D01*
X137676489Y-76154185D01*
X137651453Y-76149205D01*
X137513565Y-76149205D01*
X137378327Y-76176106D01*
X137250935Y-76228873D01*
X137136285Y-76305479D01*
X137038783Y-76402981D01*
X136962177Y-76517631D01*
X136909410Y-76645023D01*
X136882509Y-76780261D01*
X134437000Y-76780261D01*
X134437000Y-72560000D01*
X140071548Y-72560000D01*
X140077340Y-72618810D01*
X140089836Y-72660002D01*
X140077341Y-72701190D01*
X140071549Y-72760000D01*
X140071549Y-73060000D01*
X140077341Y-73118810D01*
X140089836Y-73160000D01*
X140077341Y-73201190D01*
X140071549Y-73260000D01*
X140071549Y-73560000D01*
X140077341Y-73618810D01*
X140089836Y-73659998D01*
X140077340Y-73701190D01*
X140071548Y-73760000D01*
X140073000Y-73785000D01*
X140148000Y-73860000D01*
X140358267Y-73860000D01*
X140373000Y-73861451D01*
X142273000Y-73861451D01*
X142287733Y-73860000D01*
X142498000Y-73860000D01*
X142573000Y-73785000D01*
X142574452Y-73760000D01*
X142568660Y-73701190D01*
X142556164Y-73659998D01*
X142568659Y-73618810D01*
X142574451Y-73560000D01*
X142574451Y-73260000D01*
X142568659Y-73201190D01*
X142556164Y-73160000D01*
X142568659Y-73118810D01*
X142574451Y-73060000D01*
X142574451Y-72760000D01*
X142568659Y-72701190D01*
X142556164Y-72660002D01*
X142568660Y-72618810D01*
X142574452Y-72560000D01*
X142573000Y-72535000D01*
X142498000Y-72460000D01*
X142287733Y-72460000D01*
X142273000Y-72458549D01*
X140373000Y-72458549D01*
X140358267Y-72460000D01*
X140148000Y-72460000D01*
X140073000Y-72535000D01*
X140071548Y-72560000D01*
X134437000Y-72560000D01*
X134437000Y-71060000D01*
X140071548Y-71060000D01*
X140077340Y-71118810D01*
X140089836Y-71160002D01*
X140077341Y-71201190D01*
X140071549Y-71260000D01*
X140071549Y-71560000D01*
X140077341Y-71618810D01*
X140089836Y-71660000D01*
X140077341Y-71701190D01*
X140071549Y-71760000D01*
X140071549Y-72060000D01*
X140077341Y-72118810D01*
X140089836Y-72159998D01*
X140077340Y-72201190D01*
X140071548Y-72260000D01*
X140073000Y-72285000D01*
X140148000Y-72360000D01*
X140358267Y-72360000D01*
X140373000Y-72361451D01*
X142273000Y-72361451D01*
X142287733Y-72360000D01*
X142498000Y-72360000D01*
X142573000Y-72285000D01*
X142574452Y-72260000D01*
X142568660Y-72201190D01*
X142556164Y-72159998D01*
X142568659Y-72118810D01*
X142574451Y-72060000D01*
X142574451Y-71760000D01*
X142568659Y-71701190D01*
X142556164Y-71660000D01*
X142568659Y-71618810D01*
X142574451Y-71560000D01*
X142574451Y-71260000D01*
X142568659Y-71201190D01*
X142556164Y-71160002D01*
X142568660Y-71118810D01*
X142574452Y-71060000D01*
X142573000Y-71035000D01*
X142498000Y-70960000D01*
X142287733Y-70960000D01*
X142273000Y-70958549D01*
X140373000Y-70958549D01*
X140358267Y-70960000D01*
X140148000Y-70960000D01*
X140073000Y-71035000D01*
X140071548Y-71060000D01*
X134437000Y-71060000D01*
X134437000Y-69560000D01*
X140071548Y-69560000D01*
X140077340Y-69618810D01*
X140089836Y-69660002D01*
X140077341Y-69701190D01*
X140071549Y-69760000D01*
X140071549Y-70060000D01*
X140077341Y-70118810D01*
X140089836Y-70160000D01*
X140077341Y-70201190D01*
X140071549Y-70260000D01*
X140071549Y-70560000D01*
X140077341Y-70618810D01*
X140089836Y-70659998D01*
X140077340Y-70701190D01*
X140071548Y-70760000D01*
X140073000Y-70785000D01*
X140148000Y-70860000D01*
X140358267Y-70860000D01*
X140373000Y-70861451D01*
X142273000Y-70861451D01*
X142287733Y-70860000D01*
X142498000Y-70860000D01*
X142573000Y-70785000D01*
X142574452Y-70760000D01*
X142568660Y-70701190D01*
X142556164Y-70659998D01*
X142568659Y-70618810D01*
X142574451Y-70560000D01*
X142574451Y-70260000D01*
X142568659Y-70201190D01*
X142556164Y-70160000D01*
X142568659Y-70118810D01*
X142574451Y-70060000D01*
X142574451Y-69760000D01*
X142568659Y-69701190D01*
X142556164Y-69660002D01*
X142568660Y-69618810D01*
X142574452Y-69560000D01*
X142573000Y-69535000D01*
X142498000Y-69460000D01*
X142287733Y-69460000D01*
X142273000Y-69458549D01*
X140373000Y-69458549D01*
X140358267Y-69460000D01*
X140148000Y-69460000D01*
X140073000Y-69535000D01*
X140071548Y-69560000D01*
X134437000Y-69560000D01*
X134437000Y-69260000D01*
X140071548Y-69260000D01*
X140073000Y-69285000D01*
X140148000Y-69360000D01*
X140358267Y-69360000D01*
X140373000Y-69361451D01*
X142273000Y-69361451D01*
X142287733Y-69360000D01*
X142498000Y-69360000D01*
X142573000Y-69285000D01*
X142574452Y-69260000D01*
X142568660Y-69201190D01*
X142556164Y-69159998D01*
X142568659Y-69118810D01*
X142574451Y-69060000D01*
X142574451Y-68760000D01*
X142568659Y-68701190D01*
X142551504Y-68644640D01*
X142523647Y-68592523D01*
X142486158Y-68546842D01*
X142440477Y-68509353D01*
X142388360Y-68481496D01*
X142331810Y-68464341D01*
X142273000Y-68458549D01*
X140373000Y-68458549D01*
X140314190Y-68464341D01*
X140257640Y-68481496D01*
X140205523Y-68509353D01*
X140159842Y-68546842D01*
X140122353Y-68592523D01*
X140094496Y-68644640D01*
X140077341Y-68701190D01*
X140071549Y-68760000D01*
X140071549Y-69060000D01*
X140077341Y-69118810D01*
X140089836Y-69159998D01*
X140077340Y-69201190D01*
X140071548Y-69260000D01*
X134437000Y-69260000D01*
X134437000Y-67730000D01*
X143628549Y-67730000D01*
X143628549Y-69430000D01*
X143634341Y-69488810D01*
X143651496Y-69545360D01*
X143679353Y-69597477D01*
X143716842Y-69643158D01*
X143762523Y-69680647D01*
X143814640Y-69708504D01*
X143871190Y-69725659D01*
X143930000Y-69731451D01*
X145630000Y-69731451D01*
X145688810Y-69725659D01*
X145745360Y-69708504D01*
X145797477Y-69680647D01*
X145843158Y-69643158D01*
X145880647Y-69597477D01*
X145908504Y-69545360D01*
X145925659Y-69488810D01*
X145931451Y-69430000D01*
X145931451Y-67730000D01*
X145925659Y-67671190D01*
X145908504Y-67614640D01*
X145880647Y-67562523D01*
X145843158Y-67516842D01*
X145797477Y-67479353D01*
X145745360Y-67451496D01*
X145688810Y-67434341D01*
X145630000Y-67428549D01*
X143930000Y-67428549D01*
X143871190Y-67434341D01*
X143814640Y-67451496D01*
X143762523Y-67479353D01*
X143716842Y-67516842D01*
X143679353Y-67562523D01*
X143651496Y-67614640D01*
X143634341Y-67671190D01*
X143628549Y-67730000D01*
X134437000Y-67730000D01*
X134437000Y-67315290D01*
X139488420Y-67315290D01*
X139596195Y-67495425D01*
X139821917Y-67616362D01*
X140066894Y-67690938D01*
X140321714Y-67716289D01*
X140576583Y-67691439D01*
X140821707Y-67617345D01*
X141047666Y-67496854D01*
X141049805Y-67495425D01*
X141157580Y-67315290D01*
X140323000Y-66480711D01*
X139488420Y-67315290D01*
X134437000Y-67315290D01*
X134437000Y-66715290D01*
X134588420Y-66715290D01*
X134696195Y-66895425D01*
X134921917Y-67016362D01*
X135166894Y-67090938D01*
X135421714Y-67116289D01*
X135676583Y-67091439D01*
X135921707Y-67017345D01*
X136147666Y-66896854D01*
X136149805Y-66895425D01*
X136257580Y-66715290D01*
X135423000Y-65880711D01*
X134588420Y-66715290D01*
X134437000Y-66715290D01*
X134437000Y-66596291D01*
X134517710Y-66644580D01*
X135352289Y-65810000D01*
X135493711Y-65810000D01*
X136328290Y-66644580D01*
X136508425Y-66536805D01*
X136577053Y-66408714D01*
X139016711Y-66408714D01*
X139041561Y-66663583D01*
X139115655Y-66908707D01*
X139236146Y-67134666D01*
X139237575Y-67136805D01*
X139417710Y-67244580D01*
X140252289Y-66410000D01*
X140393711Y-66410000D01*
X141228290Y-67244580D01*
X141408425Y-67136805D01*
X141529362Y-66911083D01*
X141603938Y-66666106D01*
X141629289Y-66411286D01*
X141604439Y-66156417D01*
X141535013Y-65926735D01*
X146170000Y-65926735D01*
X146170000Y-66153265D01*
X146214194Y-66375443D01*
X146300884Y-66584729D01*
X146426737Y-66773082D01*
X146586918Y-66933263D01*
X146775271Y-67059116D01*
X146984557Y-67145806D01*
X147206735Y-67190000D01*
X147433265Y-67190000D01*
X147655443Y-67145806D01*
X147864729Y-67059116D01*
X148053082Y-66933263D01*
X148213263Y-66773082D01*
X148339116Y-66584729D01*
X148425806Y-66375443D01*
X148470000Y-66153265D01*
X148470000Y-65926735D01*
X148710000Y-65926735D01*
X148710000Y-66153265D01*
X148754194Y-66375443D01*
X148840884Y-66584729D01*
X148966737Y-66773082D01*
X149126918Y-66933263D01*
X149315271Y-67059116D01*
X149524557Y-67145806D01*
X149746735Y-67190000D01*
X149973265Y-67190000D01*
X150195443Y-67145806D01*
X150404729Y-67059116D01*
X150593082Y-66933263D01*
X150753263Y-66773082D01*
X150879116Y-66584729D01*
X150965806Y-66375443D01*
X151010000Y-66153265D01*
X151010000Y-65926735D01*
X150965806Y-65704557D01*
X150879116Y-65495271D01*
X150753263Y-65306918D01*
X150593082Y-65146737D01*
X150404729Y-65020884D01*
X150195443Y-64934194D01*
X149973265Y-64890000D01*
X149746735Y-64890000D01*
X149524557Y-64934194D01*
X149315271Y-65020884D01*
X149126918Y-65146737D01*
X148966737Y-65306918D01*
X148840884Y-65495271D01*
X148754194Y-65704557D01*
X148710000Y-65926735D01*
X148470000Y-65926735D01*
X148425806Y-65704557D01*
X148339116Y-65495271D01*
X148213263Y-65306918D01*
X148053082Y-65146737D01*
X147864729Y-65020884D01*
X147655443Y-64934194D01*
X147433265Y-64890000D01*
X147206735Y-64890000D01*
X146984557Y-64934194D01*
X146775271Y-65020884D01*
X146586918Y-65146737D01*
X146426737Y-65306918D01*
X146300884Y-65495271D01*
X146214194Y-65704557D01*
X146170000Y-65926735D01*
X141535013Y-65926735D01*
X141530345Y-65911293D01*
X141409854Y-65685334D01*
X141408425Y-65683195D01*
X141228290Y-65575420D01*
X140393711Y-66410000D01*
X140252289Y-66410000D01*
X139417710Y-65575420D01*
X139237575Y-65683195D01*
X139116638Y-65908917D01*
X139042062Y-66153894D01*
X139016711Y-66408714D01*
X136577053Y-66408714D01*
X136629362Y-66311083D01*
X136703938Y-66066106D01*
X136729289Y-65811286D01*
X136704439Y-65556417D01*
X136688810Y-65504710D01*
X139488420Y-65504710D01*
X140323000Y-66339289D01*
X141157580Y-65504710D01*
X141049805Y-65324575D01*
X140824083Y-65203638D01*
X140579106Y-65129062D01*
X140324286Y-65103711D01*
X140069417Y-65128561D01*
X139824293Y-65202655D01*
X139598334Y-65323146D01*
X139596195Y-65324575D01*
X139488420Y-65504710D01*
X136688810Y-65504710D01*
X136630345Y-65311293D01*
X136509854Y-65085334D01*
X136508425Y-65083195D01*
X136328290Y-64975420D01*
X135493711Y-65810000D01*
X135352289Y-65810000D01*
X135338147Y-65795858D01*
X135408858Y-65725147D01*
X135423000Y-65739289D01*
X136257580Y-64904710D01*
X136219462Y-64841000D01*
X157718104Y-64841000D01*
X157917247Y-64860526D01*
%TA.AperFunction,Conductor*%
D20*
G36*
X157917247Y-64860526D02*
G01*
X158010063Y-64888549D01*
X156630000Y-64888549D01*
X156571190Y-64894341D01*
X156514640Y-64911496D01*
X156462523Y-64939353D01*
X156416842Y-64976842D01*
X156379353Y-65022523D01*
X156351496Y-65074640D01*
X156334341Y-65131190D01*
X156328549Y-65190000D01*
X156328549Y-66890000D01*
X156334341Y-66948810D01*
X156351496Y-67005360D01*
X156379353Y-67057477D01*
X156416842Y-67103158D01*
X156462523Y-67140647D01*
X156514640Y-67168504D01*
X156571190Y-67185659D01*
X156630000Y-67191451D01*
X158330000Y-67191451D01*
X158388810Y-67185659D01*
X158445360Y-67168504D01*
X158497477Y-67140647D01*
X158543158Y-67103158D01*
X158580647Y-67057477D01*
X158608504Y-67005360D01*
X158625659Y-66948810D01*
X158631451Y-66890000D01*
X158631451Y-65509972D01*
X158658172Y-65596292D01*
X158679001Y-65794474D01*
X158679000Y-81518103D01*
X158659474Y-81717247D01*
X158606253Y-81893521D01*
X158519812Y-82056093D01*
X158403436Y-82198784D01*
X158261569Y-82316147D01*
X158099598Y-82403724D01*
X157923708Y-82458172D01*
X157725536Y-82479000D01*
X136219462Y-82479000D01*
X136257580Y-82415290D01*
X135423000Y-81580711D01*
X135408858Y-81594853D01*
X135338147Y-81524142D01*
X135352289Y-81510000D01*
X135493711Y-81510000D01*
X136328290Y-82344580D01*
X136508425Y-82236805D01*
X136629362Y-82011083D01*
X136688965Y-81815290D01*
X139488420Y-81815290D01*
X139596195Y-81995425D01*
X139821917Y-82116362D01*
X140066894Y-82190938D01*
X140321714Y-82216289D01*
X140576583Y-82191439D01*
X140821707Y-82117345D01*
X141047666Y-81996854D01*
X141049805Y-81995425D01*
X141157580Y-81815290D01*
X140323000Y-80980711D01*
X139488420Y-81815290D01*
X136688965Y-81815290D01*
X136703938Y-81766106D01*
X136729289Y-81511286D01*
X136704439Y-81256417D01*
X136630345Y-81011293D01*
X136575646Y-80908714D01*
X139016711Y-80908714D01*
X139041561Y-81163583D01*
X139115655Y-81408707D01*
X139236146Y-81634666D01*
X139237575Y-81636805D01*
X139417710Y-81744580D01*
X140252289Y-80910000D01*
X140393711Y-80910000D01*
X141228290Y-81744580D01*
X141408425Y-81636805D01*
X141476839Y-81509114D01*
X143653054Y-81509114D01*
X143715688Y-81715597D01*
X143821119Y-81914864D01*
X143963400Y-82089734D01*
X144137062Y-82233486D01*
X144335432Y-82340596D01*
X144550886Y-82406948D01*
X144730000Y-82353915D01*
X144730000Y-81330000D01*
X144830000Y-81330000D01*
X144830000Y-82353915D01*
X145009114Y-82406948D01*
X145224568Y-82340596D01*
X145422938Y-82233486D01*
X145596600Y-82089734D01*
X145738881Y-81914864D01*
X145844312Y-81715597D01*
X145906946Y-81509114D01*
X145853837Y-81330000D01*
X144830000Y-81330000D01*
X144730000Y-81330000D01*
X143706163Y-81330000D01*
X143653054Y-81509114D01*
X141476839Y-81509114D01*
X141529362Y-81411083D01*
X141603938Y-81166106D01*
X141615400Y-81050886D01*
X143653054Y-81050886D01*
X143706163Y-81230000D01*
X144730000Y-81230000D01*
X144730000Y-80206085D01*
X144830000Y-80206085D01*
X144830000Y-81230000D01*
X145853837Y-81230000D01*
X145906946Y-81050886D01*
X145844312Y-80844403D01*
X145738881Y-80645136D01*
X145596600Y-80470266D01*
X145547956Y-80430000D01*
X146168549Y-80430000D01*
X146168549Y-82130000D01*
X146174341Y-82188810D01*
X146191496Y-82245360D01*
X146219353Y-82297477D01*
X146256842Y-82343158D01*
X146302523Y-82380647D01*
X146354640Y-82408504D01*
X146411190Y-82425659D01*
X146470000Y-82431451D01*
X148170000Y-82431451D01*
X148228810Y-82425659D01*
X148285360Y-82408504D01*
X148337477Y-82380647D01*
X148383158Y-82343158D01*
X148420647Y-82297477D01*
X148448504Y-82245360D01*
X148465659Y-82188810D01*
X148471451Y-82130000D01*
X148471451Y-81166735D01*
X148710000Y-81166735D01*
X148710000Y-81393265D01*
X148754194Y-81615443D01*
X148840884Y-81824729D01*
X148966737Y-82013082D01*
X149126918Y-82173263D01*
X149315271Y-82299116D01*
X149524557Y-82385806D01*
X149746735Y-82430000D01*
X149973265Y-82430000D01*
X150195443Y-82385806D01*
X150404729Y-82299116D01*
X150593082Y-82173263D01*
X150753263Y-82013082D01*
X150879116Y-81824729D01*
X150965806Y-81615443D01*
X151010000Y-81393265D01*
X151010000Y-81166735D01*
X151250000Y-81166735D01*
X151250000Y-81393265D01*
X151294194Y-81615443D01*
X151380884Y-81824729D01*
X151506737Y-82013082D01*
X151666918Y-82173263D01*
X151855271Y-82299116D01*
X152064557Y-82385806D01*
X152286735Y-82430000D01*
X152513265Y-82430000D01*
X152735443Y-82385806D01*
X152944729Y-82299116D01*
X153133082Y-82173263D01*
X153293263Y-82013082D01*
X153419116Y-81824729D01*
X153505806Y-81615443D01*
X153550000Y-81393265D01*
X153550000Y-81166735D01*
X153790000Y-81166735D01*
X153790000Y-81393265D01*
X153834194Y-81615443D01*
X153920884Y-81824729D01*
X154046737Y-82013082D01*
X154206918Y-82173263D01*
X154395271Y-82299116D01*
X154604557Y-82385806D01*
X154826735Y-82430000D01*
X155053265Y-82430000D01*
X155275443Y-82385806D01*
X155484729Y-82299116D01*
X155673082Y-82173263D01*
X155833263Y-82013082D01*
X155959116Y-81824729D01*
X156045806Y-81615443D01*
X156090000Y-81393265D01*
X156090000Y-81166735D01*
X156330000Y-81166735D01*
X156330000Y-81393265D01*
X156374194Y-81615443D01*
X156460884Y-81824729D01*
X156586737Y-82013082D01*
X156746918Y-82173263D01*
X156935271Y-82299116D01*
X157144557Y-82385806D01*
X157366735Y-82430000D01*
X157593265Y-82430000D01*
X157815443Y-82385806D01*
X158024729Y-82299116D01*
X158213082Y-82173263D01*
X158373263Y-82013082D01*
X158499116Y-81824729D01*
X158585806Y-81615443D01*
X158630000Y-81393265D01*
X158630000Y-81166735D01*
X158585806Y-80944557D01*
X158499116Y-80735271D01*
X158373263Y-80546918D01*
X158213082Y-80386737D01*
X158024729Y-80260884D01*
X157815443Y-80174194D01*
X157593265Y-80130000D01*
X157366735Y-80130000D01*
X157144557Y-80174194D01*
X156935271Y-80260884D01*
X156746918Y-80386737D01*
X156586737Y-80546918D01*
X156460884Y-80735271D01*
X156374194Y-80944557D01*
X156330000Y-81166735D01*
X156090000Y-81166735D01*
X156045806Y-80944557D01*
X155959116Y-80735271D01*
X155833263Y-80546918D01*
X155673082Y-80386737D01*
X155484729Y-80260884D01*
X155275443Y-80174194D01*
X155053265Y-80130000D01*
X154826735Y-80130000D01*
X154604557Y-80174194D01*
X154395271Y-80260884D01*
X154206918Y-80386737D01*
X154046737Y-80546918D01*
X153920884Y-80735271D01*
X153834194Y-80944557D01*
X153790000Y-81166735D01*
X153550000Y-81166735D01*
X153505806Y-80944557D01*
X153419116Y-80735271D01*
X153293263Y-80546918D01*
X153133082Y-80386737D01*
X152944729Y-80260884D01*
X152735443Y-80174194D01*
X152513265Y-80130000D01*
X152286735Y-80130000D01*
X152064557Y-80174194D01*
X151855271Y-80260884D01*
X151666918Y-80386737D01*
X151506737Y-80546918D01*
X151380884Y-80735271D01*
X151294194Y-80944557D01*
X151250000Y-81166735D01*
X151010000Y-81166735D01*
X150965806Y-80944557D01*
X150879116Y-80735271D01*
X150753263Y-80546918D01*
X150593082Y-80386737D01*
X150404729Y-80260884D01*
X150195443Y-80174194D01*
X149973265Y-80130000D01*
X149746735Y-80130000D01*
X149524557Y-80174194D01*
X149315271Y-80260884D01*
X149126918Y-80386737D01*
X148966737Y-80546918D01*
X148840884Y-80735271D01*
X148754194Y-80944557D01*
X148710000Y-81166735D01*
X148471451Y-81166735D01*
X148471451Y-80430000D01*
X148465659Y-80371190D01*
X148448504Y-80314640D01*
X148420647Y-80262523D01*
X148383158Y-80216842D01*
X148337477Y-80179353D01*
X148285360Y-80151496D01*
X148228810Y-80134341D01*
X148170000Y-80128549D01*
X146470000Y-80128549D01*
X146411190Y-80134341D01*
X146354640Y-80151496D01*
X146302523Y-80179353D01*
X146256842Y-80216842D01*
X146219353Y-80262523D01*
X146191496Y-80314640D01*
X146174341Y-80371190D01*
X146168549Y-80430000D01*
X145547956Y-80430000D01*
X145422938Y-80326514D01*
X145224568Y-80219404D01*
X145009114Y-80153052D01*
X144830000Y-80206085D01*
X144730000Y-80206085D01*
X144550886Y-80153052D01*
X144335432Y-80219404D01*
X144137062Y-80326514D01*
X143963400Y-80470266D01*
X143821119Y-80645136D01*
X143715688Y-80844403D01*
X143653054Y-81050886D01*
X141615400Y-81050886D01*
X141629289Y-80911286D01*
X141604439Y-80656417D01*
X141530345Y-80411293D01*
X141409854Y-80185334D01*
X141408425Y-80183195D01*
X141228290Y-80075420D01*
X140393711Y-80910000D01*
X140252289Y-80910000D01*
X139417710Y-80075420D01*
X139237575Y-80183195D01*
X139116638Y-80408917D01*
X139042062Y-80653894D01*
X139016711Y-80908714D01*
X136575646Y-80908714D01*
X136509854Y-80785334D01*
X136508425Y-80783195D01*
X136328290Y-80675420D01*
X135493711Y-81510000D01*
X135352289Y-81510000D01*
X134517710Y-80675420D01*
X134437000Y-80723709D01*
X134437000Y-80604710D01*
X134588420Y-80604710D01*
X135423000Y-81439289D01*
X136257580Y-80604710D01*
X136149805Y-80424575D01*
X135924083Y-80303638D01*
X135679106Y-80229062D01*
X135424286Y-80203711D01*
X135169417Y-80228561D01*
X134924293Y-80302655D01*
X134698334Y-80423146D01*
X134696195Y-80424575D01*
X134588420Y-80604710D01*
X134437000Y-80604710D01*
X134437000Y-80004710D01*
X139488420Y-80004710D01*
X140323000Y-80839289D01*
X141157580Y-80004710D01*
X141049805Y-79824575D01*
X140824083Y-79703638D01*
X140579106Y-79629062D01*
X140324286Y-79603711D01*
X140069417Y-79628561D01*
X139824293Y-79702655D01*
X139598334Y-79823146D01*
X139596195Y-79824575D01*
X139488420Y-80004710D01*
X134437000Y-80004710D01*
X134437000Y-76780261D01*
X136882509Y-76780261D01*
X136882509Y-76918149D01*
X136909410Y-77053387D01*
X136962177Y-77180779D01*
X137038783Y-77295429D01*
X137136285Y-77392931D01*
X137250935Y-77469537D01*
X137378327Y-77522304D01*
X137513565Y-77549205D01*
X137651453Y-77549205D01*
X137786691Y-77522304D01*
X137914083Y-77469537D01*
X138028733Y-77392931D01*
X138126235Y-77295429D01*
X138202841Y-77180779D01*
X138255608Y-77053387D01*
X138282509Y-76918149D01*
X138282509Y-76780261D01*
X138277529Y-76755225D01*
X139697755Y-75335000D01*
X140071549Y-75335000D01*
X140071549Y-75560000D01*
X140077341Y-75618810D01*
X140089836Y-75660000D01*
X140077341Y-75701190D01*
X140071549Y-75760000D01*
X140071549Y-76060000D01*
X140077341Y-76118810D01*
X140089836Y-76160000D01*
X140077341Y-76201190D01*
X140071549Y-76260000D01*
X140071549Y-76560000D01*
X140077341Y-76618810D01*
X140089836Y-76659998D01*
X140077340Y-76701190D01*
X140071548Y-76760000D01*
X140073000Y-76785000D01*
X140148000Y-76860000D01*
X140358267Y-76860000D01*
X140373000Y-76861451D01*
X142273000Y-76861451D01*
X142287733Y-76860000D01*
X142498000Y-76860000D01*
X142573000Y-76785000D01*
X142574452Y-76760000D01*
X142568660Y-76701190D01*
X142556164Y-76659998D01*
X142568659Y-76618810D01*
X142574451Y-76560000D01*
X142574451Y-76260000D01*
X142568659Y-76201190D01*
X142556164Y-76160000D01*
X142568659Y-76118810D01*
X142574451Y-76060000D01*
X142574451Y-75835000D01*
X143686437Y-75835000D01*
X143674194Y-75864557D01*
X143630000Y-76086735D01*
X143630000Y-76313265D01*
X143674194Y-76535443D01*
X143760884Y-76744729D01*
X143825577Y-76841549D01*
X143700000Y-76841549D01*
X143621681Y-76849263D01*
X143546371Y-76872108D01*
X143510000Y-76891549D01*
X143473629Y-76872108D01*
X143398319Y-76849263D01*
X143320000Y-76841549D01*
X143060000Y-76841549D01*
X142981681Y-76849263D01*
X142906371Y-76872108D01*
X142836966Y-76909206D01*
X142776131Y-76959131D01*
X142754901Y-76985000D01*
X142523000Y-76985000D01*
X142498000Y-76960000D01*
X142287733Y-76960000D01*
X142273000Y-76958549D01*
X140373000Y-76958549D01*
X140358267Y-76960000D01*
X140148000Y-76960000D01*
X140123000Y-76985000D01*
X139635874Y-76985000D01*
X139615000Y-76982944D01*
X139594126Y-76985000D01*
X139531686Y-76991150D01*
X139451573Y-77015452D01*
X139377740Y-77054916D01*
X139313026Y-77108026D01*
X139299716Y-77124244D01*
X138652244Y-77771716D01*
X138636026Y-77785026D01*
X138582916Y-77849741D01*
X138556613Y-77898952D01*
X138491776Y-77942274D01*
X138394274Y-78039776D01*
X138317668Y-78154426D01*
X138264901Y-78281818D01*
X138238000Y-78417056D01*
X138238000Y-78554944D01*
X138264901Y-78690182D01*
X138317668Y-78817574D01*
X138394274Y-78932224D01*
X138491776Y-79029726D01*
X138606426Y-79106332D01*
X138733818Y-79159099D01*
X138869056Y-79186000D01*
X139006944Y-79186000D01*
X139142182Y-79159099D01*
X139269574Y-79106332D01*
X139384224Y-79029726D01*
X139481726Y-78932224D01*
X139558332Y-78817574D01*
X139611099Y-78690182D01*
X139638000Y-78554944D01*
X139638000Y-78417056D01*
X139611099Y-78281818D01*
X139558332Y-78154426D01*
X139523598Y-78102442D01*
X139791040Y-77835000D01*
X140071549Y-77835000D01*
X140071549Y-78060000D01*
X140077341Y-78118810D01*
X140094496Y-78175360D01*
X140122353Y-78227477D01*
X140159842Y-78273158D01*
X140205523Y-78310647D01*
X140257640Y-78338504D01*
X140314190Y-78355659D01*
X140373000Y-78361451D01*
X142273000Y-78361451D01*
X142331810Y-78355659D01*
X142388360Y-78338504D01*
X142394916Y-78335000D01*
X143703006Y-78335000D01*
X143674194Y-78404557D01*
X143630000Y-78626735D01*
X143630000Y-78853265D01*
X143674194Y-79075443D01*
X143760884Y-79284729D01*
X143886737Y-79473082D01*
X144046918Y-79633263D01*
X144235271Y-79759116D01*
X144444557Y-79845806D01*
X144666735Y-79890000D01*
X144893265Y-79890000D01*
X145115443Y-79845806D01*
X145324729Y-79759116D01*
X145513082Y-79633263D01*
X145673263Y-79473082D01*
X145799116Y-79284729D01*
X145885806Y-79075443D01*
X145930000Y-78853265D01*
X145930000Y-78626735D01*
X145885806Y-78404557D01*
X145799116Y-78195271D01*
X145673263Y-78006918D01*
X145513082Y-77846737D01*
X145324729Y-77720884D01*
X145115443Y-77634194D01*
X144893265Y-77590000D01*
X144666735Y-77590000D01*
X144444557Y-77634194D01*
X144324828Y-77683788D01*
X144298420Y-77657380D01*
X144330892Y-77596629D01*
X144353737Y-77521319D01*
X144361451Y-77443000D01*
X144361451Y-77271382D01*
X144444557Y-77305806D01*
X144666735Y-77350000D01*
X144893265Y-77350000D01*
X145115443Y-77305806D01*
X145235172Y-77256212D01*
X146263788Y-78284828D01*
X146214194Y-78404557D01*
X146170000Y-78626735D01*
X146170000Y-78853265D01*
X146214194Y-79075443D01*
X146300884Y-79284729D01*
X146426737Y-79473082D01*
X146586918Y-79633263D01*
X146775271Y-79759116D01*
X146984557Y-79845806D01*
X147206735Y-79890000D01*
X147433265Y-79890000D01*
X147655443Y-79845806D01*
X147864729Y-79759116D01*
X148053082Y-79633263D01*
X148213263Y-79473082D01*
X148339116Y-79284729D01*
X148425806Y-79075443D01*
X148470000Y-78853265D01*
X148470000Y-78626735D01*
X148710000Y-78626735D01*
X148710000Y-78853265D01*
X148754194Y-79075443D01*
X148840884Y-79284729D01*
X148966737Y-79473082D01*
X149126918Y-79633263D01*
X149315271Y-79759116D01*
X149524557Y-79845806D01*
X149746735Y-79890000D01*
X149973265Y-79890000D01*
X150195443Y-79845806D01*
X150404729Y-79759116D01*
X150593082Y-79633263D01*
X150753263Y-79473082D01*
X150879116Y-79284729D01*
X150965806Y-79075443D01*
X151010000Y-78853265D01*
X151010000Y-78626735D01*
X150965806Y-78404557D01*
X150879116Y-78195271D01*
X150753263Y-78006918D01*
X150593082Y-77846737D01*
X150404729Y-77720884D01*
X150285000Y-77671290D01*
X150285000Y-76096584D01*
X150842000Y-76096584D01*
X150842000Y-76303416D01*
X150882350Y-76506274D01*
X150961502Y-76697362D01*
X151076411Y-76869336D01*
X151222664Y-77015589D01*
X151394638Y-77130498D01*
X151585726Y-77209650D01*
X151788584Y-77250000D01*
X151975001Y-77250000D01*
X151975001Y-77588549D01*
X151550000Y-77588549D01*
X151491190Y-77594341D01*
X151434640Y-77611496D01*
X151382523Y-77639353D01*
X151336842Y-77676842D01*
X151299353Y-77722523D01*
X151271496Y-77774640D01*
X151254341Y-77831190D01*
X151248549Y-77890000D01*
X151248549Y-79590000D01*
X151254341Y-79648810D01*
X151271496Y-79705360D01*
X151299353Y-79757477D01*
X151336842Y-79803158D01*
X151382523Y-79840647D01*
X151434640Y-79868504D01*
X151491190Y-79885659D01*
X151550000Y-79891451D01*
X153250000Y-79891451D01*
X153308810Y-79885659D01*
X153365360Y-79868504D01*
X153417477Y-79840647D01*
X153463158Y-79803158D01*
X153500647Y-79757477D01*
X153528504Y-79705360D01*
X153545659Y-79648810D01*
X153551451Y-79590000D01*
X153551451Y-78626735D01*
X156330000Y-78626735D01*
X156330000Y-78853265D01*
X156374194Y-79075443D01*
X156460884Y-79284729D01*
X156586737Y-79473082D01*
X156746918Y-79633263D01*
X156935271Y-79759116D01*
X157144557Y-79845806D01*
X157366735Y-79890000D01*
X157593265Y-79890000D01*
X157815443Y-79845806D01*
X158024729Y-79759116D01*
X158213082Y-79633263D01*
X158373263Y-79473082D01*
X158499116Y-79284729D01*
X158585806Y-79075443D01*
X158630000Y-78853265D01*
X158630000Y-78626735D01*
X158585806Y-78404557D01*
X158499116Y-78195271D01*
X158373263Y-78006918D01*
X158213082Y-77846737D01*
X158024729Y-77720884D01*
X157815443Y-77634194D01*
X157593265Y-77590000D01*
X157366735Y-77590000D01*
X157144557Y-77634194D01*
X156935271Y-77720884D01*
X156746918Y-77846737D01*
X156586737Y-78006918D01*
X156460884Y-78195271D01*
X156374194Y-78404557D01*
X156330000Y-78626735D01*
X153551451Y-78626735D01*
X153551451Y-77890000D01*
X153545659Y-77831190D01*
X153528504Y-77774640D01*
X153500647Y-77722523D01*
X153463158Y-77676842D01*
X153417477Y-77639353D01*
X153365360Y-77611496D01*
X153308810Y-77594341D01*
X153250000Y-77588549D01*
X152825000Y-77588549D01*
X152825000Y-76728866D01*
X152827055Y-76707999D01*
X152825333Y-76690517D01*
X152901650Y-76506274D01*
X152942000Y-76303416D01*
X152942000Y-76176584D01*
X153382000Y-76176584D01*
X153382000Y-76383416D01*
X153422350Y-76586274D01*
X153501502Y-76777362D01*
X153616411Y-76949336D01*
X153762664Y-77095589D01*
X153934638Y-77210498D01*
X154125726Y-77289650D01*
X154328584Y-77330000D01*
X154535416Y-77330000D01*
X154738274Y-77289650D01*
X154929362Y-77210498D01*
X155101336Y-77095589D01*
X155247589Y-76949336D01*
X155362498Y-76777362D01*
X155441650Y-76586274D01*
X155482000Y-76383416D01*
X155482000Y-76176584D01*
X155464129Y-76086735D01*
X156330000Y-76086735D01*
X156330000Y-76313265D01*
X156374194Y-76535443D01*
X156460884Y-76744729D01*
X156586737Y-76933082D01*
X156746918Y-77093263D01*
X156935271Y-77219116D01*
X157144557Y-77305806D01*
X157366735Y-77350000D01*
X157593265Y-77350000D01*
X157815443Y-77305806D01*
X158024729Y-77219116D01*
X158213082Y-77093263D01*
X158373263Y-76933082D01*
X158499116Y-76744729D01*
X158585806Y-76535443D01*
X158630000Y-76313265D01*
X158630000Y-76086735D01*
X158585806Y-75864557D01*
X158499116Y-75655271D01*
X158373263Y-75466918D01*
X158213082Y-75306737D01*
X158024729Y-75180884D01*
X157815443Y-75094194D01*
X157593265Y-75050000D01*
X157366735Y-75050000D01*
X157144557Y-75094194D01*
X156935271Y-75180884D01*
X156746918Y-75306737D01*
X156586737Y-75466918D01*
X156460884Y-75655271D01*
X156374194Y-75864557D01*
X156330000Y-76086735D01*
X155464129Y-76086735D01*
X155441650Y-75973726D01*
X155362498Y-75782638D01*
X155247589Y-75610664D01*
X155101336Y-75464411D01*
X154929362Y-75349502D01*
X154738274Y-75270350D01*
X154535416Y-75230000D01*
X154328584Y-75230000D01*
X154125726Y-75270350D01*
X153934638Y-75349502D01*
X153762664Y-75464411D01*
X153616411Y-75610664D01*
X153501502Y-75782638D01*
X153422350Y-75973726D01*
X153382000Y-76176584D01*
X152942000Y-76176584D01*
X152942000Y-76096584D01*
X152901650Y-75893726D01*
X152822498Y-75702638D01*
X152707589Y-75530664D01*
X152561336Y-75384411D01*
X152389362Y-75269502D01*
X152198274Y-75190350D01*
X151995416Y-75150000D01*
X151788584Y-75150000D01*
X151585726Y-75190350D01*
X151394638Y-75269502D01*
X151222664Y-75384411D01*
X151076411Y-75530664D01*
X150961502Y-75702638D01*
X150882350Y-75893726D01*
X150842000Y-76096584D01*
X150285000Y-76096584D01*
X150285000Y-73873455D01*
X150863922Y-73873455D01*
X150925319Y-74069922D01*
X151023865Y-74250636D01*
X151155773Y-74408652D01*
X151315974Y-74537898D01*
X151498312Y-74633407D01*
X151678546Y-74688075D01*
X151842000Y-74633717D01*
X151842000Y-73710000D01*
X151942000Y-73710000D01*
X151942000Y-74633717D01*
X152105454Y-74688075D01*
X152285688Y-74633407D01*
X152468026Y-74537898D01*
X152628227Y-74408652D01*
X152760135Y-74250636D01*
X152858681Y-74069922D01*
X152915184Y-73889114D01*
X156353054Y-73889114D01*
X156415688Y-74095597D01*
X156521119Y-74294864D01*
X156663400Y-74469734D01*
X156837062Y-74613486D01*
X157035432Y-74720596D01*
X157250886Y-74786948D01*
X157430000Y-74733915D01*
X157430000Y-73710000D01*
X157530000Y-73710000D01*
X157530000Y-74733915D01*
X157709114Y-74786948D01*
X157924568Y-74720596D01*
X158122938Y-74613486D01*
X158296600Y-74469734D01*
X158438881Y-74294864D01*
X158544312Y-74095597D01*
X158606946Y-73889114D01*
X158553837Y-73710000D01*
X157530000Y-73710000D01*
X157430000Y-73710000D01*
X156406163Y-73710000D01*
X156353054Y-73889114D01*
X152915184Y-73889114D01*
X152920078Y-73873455D01*
X152865812Y-73710000D01*
X151942000Y-73710000D01*
X151842000Y-73710000D01*
X150918188Y-73710000D01*
X150863922Y-73873455D01*
X150285000Y-73873455D01*
X150285000Y-73446545D01*
X150863922Y-73446545D01*
X150918188Y-73610000D01*
X151842000Y-73610000D01*
X151842000Y-72686283D01*
X151942000Y-72686283D01*
X151942000Y-73610000D01*
X152865812Y-73610000D01*
X152920078Y-73446545D01*
X152915185Y-73430886D01*
X156353054Y-73430886D01*
X156406163Y-73610000D01*
X157430000Y-73610000D01*
X157430000Y-72586085D01*
X157530000Y-72586085D01*
X157530000Y-73610000D01*
X158553837Y-73610000D01*
X158606946Y-73430886D01*
X158544312Y-73224403D01*
X158438881Y-73025136D01*
X158296600Y-72850266D01*
X158122938Y-72706514D01*
X157924568Y-72599404D01*
X157709114Y-72533052D01*
X157530000Y-72586085D01*
X157430000Y-72586085D01*
X157250886Y-72533052D01*
X157035432Y-72599404D01*
X156837062Y-72706514D01*
X156663400Y-72850266D01*
X156521119Y-73025136D01*
X156415688Y-73224403D01*
X156353054Y-73430886D01*
X152915185Y-73430886D01*
X152858681Y-73250078D01*
X152760135Y-73069364D01*
X152628227Y-72911348D01*
X152468026Y-72782102D01*
X152285688Y-72686593D01*
X152105454Y-72631925D01*
X151942000Y-72686283D01*
X151842000Y-72686283D01*
X151678546Y-72631925D01*
X151498312Y-72686593D01*
X151315974Y-72782102D01*
X151155773Y-72911348D01*
X151023865Y-73069364D01*
X150925319Y-73250078D01*
X150863922Y-73446545D01*
X150285000Y-73446545D01*
X150285000Y-71243038D01*
X150840549Y-70687489D01*
X150840549Y-71870000D01*
X150846341Y-71928810D01*
X150863496Y-71985360D01*
X150891353Y-72037477D01*
X150928842Y-72083158D01*
X150974523Y-72120647D01*
X151026640Y-72148504D01*
X151083190Y-72165659D01*
X151142000Y-72171451D01*
X152642000Y-72171451D01*
X152700810Y-72165659D01*
X152757360Y-72148504D01*
X152809477Y-72120647D01*
X152855158Y-72083158D01*
X152892647Y-72037477D01*
X152920504Y-71985360D01*
X152937659Y-71928810D01*
X152943451Y-71870000D01*
X152943451Y-70936584D01*
X153382000Y-70936584D01*
X153382000Y-71143416D01*
X153422350Y-71346274D01*
X153501502Y-71537362D01*
X153616411Y-71709336D01*
X153762664Y-71855589D01*
X153934638Y-71970498D01*
X154125726Y-72049650D01*
X154328584Y-72090000D01*
X154535416Y-72090000D01*
X154738274Y-72049650D01*
X154929362Y-71970498D01*
X155101336Y-71855589D01*
X155247589Y-71709336D01*
X155362498Y-71537362D01*
X155441650Y-71346274D01*
X155482000Y-71143416D01*
X155482000Y-71006735D01*
X156330000Y-71006735D01*
X156330000Y-71233265D01*
X156374194Y-71455443D01*
X156460884Y-71664729D01*
X156586737Y-71853082D01*
X156746918Y-72013263D01*
X156935271Y-72139116D01*
X157144557Y-72225806D01*
X157366735Y-72270000D01*
X157593265Y-72270000D01*
X157815443Y-72225806D01*
X158024729Y-72139116D01*
X158213082Y-72013263D01*
X158373263Y-71853082D01*
X158499116Y-71664729D01*
X158585806Y-71455443D01*
X158630000Y-71233265D01*
X158630000Y-71006735D01*
X158585806Y-70784557D01*
X158499116Y-70575271D01*
X158373263Y-70386918D01*
X158213082Y-70226737D01*
X158024729Y-70100884D01*
X157815443Y-70014194D01*
X157593265Y-69970000D01*
X157366735Y-69970000D01*
X157144557Y-70014194D01*
X156935271Y-70100884D01*
X156746918Y-70226737D01*
X156586737Y-70386918D01*
X156460884Y-70575271D01*
X156374194Y-70784557D01*
X156330000Y-71006735D01*
X155482000Y-71006735D01*
X155482000Y-70936584D01*
X155441650Y-70733726D01*
X155362498Y-70542638D01*
X155247589Y-70370664D01*
X155101336Y-70224411D01*
X154929362Y-70109502D01*
X154738274Y-70030350D01*
X154535416Y-69990000D01*
X154328584Y-69990000D01*
X154125726Y-70030350D01*
X153934638Y-70109502D01*
X153762664Y-70224411D01*
X153616411Y-70370664D01*
X153501502Y-70542638D01*
X153422350Y-70733726D01*
X153382000Y-70936584D01*
X152943451Y-70936584D01*
X152943451Y-70370000D01*
X152937659Y-70311190D01*
X152920504Y-70254640D01*
X152892647Y-70202523D01*
X152855158Y-70156842D01*
X152809477Y-70119353D01*
X152757360Y-70091496D01*
X152700810Y-70074341D01*
X152642000Y-70068549D01*
X151459490Y-70068549D01*
X151510762Y-70017277D01*
X151526973Y-70003973D01*
X151580083Y-69939259D01*
X151619547Y-69865426D01*
X151643849Y-69785313D01*
X151649999Y-69722873D01*
X151649999Y-69722867D01*
X151652054Y-69702000D01*
X151649999Y-69681133D01*
X151649999Y-67730000D01*
X156328549Y-67730000D01*
X156328549Y-69430000D01*
X156334341Y-69488810D01*
X156351496Y-69545360D01*
X156379353Y-69597477D01*
X156416842Y-69643158D01*
X156462523Y-69680647D01*
X156514640Y-69708504D01*
X156571190Y-69725659D01*
X156630000Y-69731451D01*
X158330000Y-69731451D01*
X158388810Y-69725659D01*
X158445360Y-69708504D01*
X158497477Y-69680647D01*
X158543158Y-69643158D01*
X158580647Y-69597477D01*
X158608504Y-69545360D01*
X158625659Y-69488810D01*
X158631451Y-69430000D01*
X158631451Y-67730000D01*
X158625659Y-67671190D01*
X158608504Y-67614640D01*
X158580647Y-67562523D01*
X158543158Y-67516842D01*
X158497477Y-67479353D01*
X158445360Y-67451496D01*
X158388810Y-67434341D01*
X158330000Y-67428549D01*
X156630000Y-67428549D01*
X156571190Y-67434341D01*
X156514640Y-67451496D01*
X156462523Y-67479353D01*
X156416842Y-67516842D01*
X156379353Y-67562523D01*
X156351496Y-67614640D01*
X156334341Y-67671190D01*
X156328549Y-67730000D01*
X151649999Y-67730000D01*
X151649999Y-67391041D01*
X151944828Y-67096212D01*
X152064557Y-67145806D01*
X152286735Y-67190000D01*
X152513265Y-67190000D01*
X152735443Y-67145806D01*
X152944729Y-67059116D01*
X153133082Y-66933263D01*
X153293263Y-66773082D01*
X153419116Y-66584729D01*
X153505806Y-66375443D01*
X153550000Y-66153265D01*
X153550000Y-65926735D01*
X153790000Y-65926735D01*
X153790000Y-66153265D01*
X153834194Y-66375443D01*
X153920884Y-66584729D01*
X154046737Y-66773082D01*
X154206918Y-66933263D01*
X154395271Y-67059116D01*
X154604557Y-67145806D01*
X154826735Y-67190000D01*
X155053265Y-67190000D01*
X155275443Y-67145806D01*
X155484729Y-67059116D01*
X155673082Y-66933263D01*
X155833263Y-66773082D01*
X155959116Y-66584729D01*
X156045806Y-66375443D01*
X156090000Y-66153265D01*
X156090000Y-65926735D01*
X156045806Y-65704557D01*
X155959116Y-65495271D01*
X155833263Y-65306918D01*
X155673082Y-65146737D01*
X155484729Y-65020884D01*
X155275443Y-64934194D01*
X155053265Y-64890000D01*
X154826735Y-64890000D01*
X154604557Y-64934194D01*
X154395271Y-65020884D01*
X154206918Y-65146737D01*
X154046737Y-65306918D01*
X153920884Y-65495271D01*
X153834194Y-65704557D01*
X153790000Y-65926735D01*
X153550000Y-65926735D01*
X153505806Y-65704557D01*
X153419116Y-65495271D01*
X153293263Y-65306918D01*
X153133082Y-65146737D01*
X152944729Y-65020884D01*
X152735443Y-64934194D01*
X152513265Y-64890000D01*
X152286735Y-64890000D01*
X152064557Y-64934194D01*
X151855271Y-65020884D01*
X151666918Y-65146737D01*
X151506737Y-65306918D01*
X151380884Y-65495271D01*
X151294194Y-65704557D01*
X151250000Y-65926735D01*
X151250000Y-66153265D01*
X151294194Y-66375443D01*
X151343788Y-66495172D01*
X150939238Y-66899722D01*
X150923026Y-66913027D01*
X150909721Y-66929239D01*
X150909719Y-66929241D01*
X150897453Y-66944188D01*
X150869916Y-66977741D01*
X150855154Y-67005360D01*
X150830452Y-67051574D01*
X150806149Y-67131687D01*
X150797944Y-67215001D01*
X150800000Y-67235878D01*
X150800000Y-67920770D01*
X150669734Y-67763400D01*
X150494864Y-67621119D01*
X150295597Y-67515688D01*
X150089114Y-67453054D01*
X149910000Y-67506163D01*
X149910000Y-68530000D01*
X149930000Y-68530000D01*
X149930000Y-68630000D01*
X149910000Y-68630000D01*
X149910000Y-69653837D01*
X150089114Y-69706946D01*
X150295597Y-69644312D01*
X150494864Y-69538881D01*
X150669734Y-69396600D01*
X150799999Y-69239231D01*
X150799999Y-69525958D01*
X149574239Y-70751719D01*
X149558027Y-70765024D01*
X149544722Y-70781236D01*
X149544720Y-70781238D01*
X149541633Y-70785000D01*
X149504917Y-70829738D01*
X149465453Y-70903571D01*
X149441150Y-70983684D01*
X149432945Y-71066998D01*
X149435001Y-71087875D01*
X149435000Y-77671290D01*
X149315271Y-77720884D01*
X149126918Y-77846737D01*
X148966737Y-78006918D01*
X148840884Y-78195271D01*
X148754194Y-78404557D01*
X148710000Y-78626735D01*
X148470000Y-78626735D01*
X148425806Y-78404557D01*
X148339116Y-78195271D01*
X148213263Y-78006918D01*
X148053082Y-77846737D01*
X147864729Y-77720884D01*
X147655443Y-77634194D01*
X147433265Y-77590000D01*
X147206735Y-77590000D01*
X146984557Y-77634194D01*
X146864828Y-77683788D01*
X145836212Y-76655172D01*
X145885806Y-76535443D01*
X145930000Y-76313265D01*
X145930000Y-76086735D01*
X145885806Y-75864557D01*
X145799116Y-75655271D01*
X145673263Y-75466918D01*
X145541345Y-75335000D01*
X146009133Y-75335000D01*
X146030000Y-75337055D01*
X146050867Y-75335000D01*
X146050874Y-75335000D01*
X146113314Y-75328850D01*
X146193427Y-75304548D01*
X146267260Y-75265084D01*
X146331974Y-75211974D01*
X146345283Y-75195757D01*
X147605763Y-73935278D01*
X147621974Y-73921974D01*
X147675084Y-73857260D01*
X147714548Y-73783427D01*
X147738850Y-73703314D01*
X147745000Y-73640874D01*
X147745000Y-73640868D01*
X147747055Y-73620001D01*
X147745000Y-73599134D01*
X147745000Y-69648710D01*
X147864729Y-69599116D01*
X148053082Y-69473263D01*
X148213263Y-69313082D01*
X148339116Y-69124729D01*
X148425806Y-68915443D01*
X148446956Y-68809114D01*
X148733052Y-68809114D01*
X148799404Y-69024568D01*
X148906514Y-69222938D01*
X149050266Y-69396600D01*
X149225136Y-69538881D01*
X149424403Y-69644312D01*
X149630886Y-69706946D01*
X149810000Y-69653837D01*
X149810000Y-68630000D01*
X148786085Y-68630000D01*
X148733052Y-68809114D01*
X148446956Y-68809114D01*
X148470000Y-68693265D01*
X148470000Y-68466735D01*
X148446957Y-68350886D01*
X148733052Y-68350886D01*
X148786085Y-68530000D01*
X149810000Y-68530000D01*
X149810000Y-67506163D01*
X149630886Y-67453054D01*
X149424403Y-67515688D01*
X149225136Y-67621119D01*
X149050266Y-67763400D01*
X148906514Y-67937062D01*
X148799404Y-68135432D01*
X148733052Y-68350886D01*
X148446957Y-68350886D01*
X148425806Y-68244557D01*
X148339116Y-68035271D01*
X148213263Y-67846918D01*
X148053082Y-67686737D01*
X147864729Y-67560884D01*
X147655443Y-67474194D01*
X147433265Y-67430000D01*
X147206735Y-67430000D01*
X146984557Y-67474194D01*
X146775271Y-67560884D01*
X146586918Y-67686737D01*
X146426737Y-67846918D01*
X146300884Y-68035271D01*
X146214194Y-68244557D01*
X146170000Y-68466735D01*
X146170000Y-68693265D01*
X146214194Y-68915443D01*
X146300884Y-69124729D01*
X146426737Y-69313082D01*
X146586918Y-69473263D01*
X146775271Y-69599116D01*
X146895001Y-69648710D01*
X146895000Y-73443959D01*
X145931451Y-74407509D01*
X145931451Y-72810000D01*
X145925659Y-72751190D01*
X145908504Y-72694640D01*
X145880647Y-72642523D01*
X145843158Y-72596842D01*
X145797477Y-72559353D01*
X145745360Y-72531496D01*
X145688810Y-72514341D01*
X145630000Y-72508549D01*
X143930000Y-72508549D01*
X143871190Y-72514341D01*
X143814640Y-72531496D01*
X143762523Y-72559353D01*
X143716842Y-72596842D01*
X143679353Y-72642523D01*
X143651496Y-72694640D01*
X143634341Y-72751190D01*
X143628549Y-72810000D01*
X143628549Y-74485000D01*
X142574451Y-74485000D01*
X142574451Y-74260000D01*
X142568659Y-74201190D01*
X142556164Y-74160002D01*
X142568660Y-74118810D01*
X142574452Y-74060000D01*
X142573000Y-74035000D01*
X142498000Y-73960000D01*
X142287733Y-73960000D01*
X142273000Y-73958549D01*
X140373000Y-73958549D01*
X140358267Y-73960000D01*
X140148000Y-73960000D01*
X140073000Y-74035000D01*
X140071548Y-74060000D01*
X140077340Y-74118810D01*
X140089836Y-74160002D01*
X140077341Y-74201190D01*
X140071549Y-74260000D01*
X140071549Y-74485000D01*
X139542580Y-74485000D01*
X139521713Y-74482945D01*
X139500846Y-74485000D01*
X139500840Y-74485000D01*
X139446812Y-74490321D01*
X139438399Y-74491150D01*
X139414097Y-74498522D01*
X139358287Y-74515452D01*
X139284454Y-74554916D01*
X139219740Y-74608026D01*
X139206435Y-74624238D01*
X137676489Y-76154185D01*
X137651453Y-76149205D01*
X137513565Y-76149205D01*
X137378327Y-76176106D01*
X137250935Y-76228873D01*
X137136285Y-76305479D01*
X137038783Y-76402981D01*
X136962177Y-76517631D01*
X136909410Y-76645023D01*
X136882509Y-76780261D01*
X134437000Y-76780261D01*
X134437000Y-72560000D01*
X140071548Y-72560000D01*
X140077340Y-72618810D01*
X140089836Y-72660002D01*
X140077341Y-72701190D01*
X140071549Y-72760000D01*
X140071549Y-73060000D01*
X140077341Y-73118810D01*
X140089836Y-73160000D01*
X140077341Y-73201190D01*
X140071549Y-73260000D01*
X140071549Y-73560000D01*
X140077341Y-73618810D01*
X140089836Y-73659998D01*
X140077340Y-73701190D01*
X140071548Y-73760000D01*
X140073000Y-73785000D01*
X140148000Y-73860000D01*
X140358267Y-73860000D01*
X140373000Y-73861451D01*
X142273000Y-73861451D01*
X142287733Y-73860000D01*
X142498000Y-73860000D01*
X142573000Y-73785000D01*
X142574452Y-73760000D01*
X142568660Y-73701190D01*
X142556164Y-73659998D01*
X142568659Y-73618810D01*
X142574451Y-73560000D01*
X142574451Y-73260000D01*
X142568659Y-73201190D01*
X142556164Y-73160000D01*
X142568659Y-73118810D01*
X142574451Y-73060000D01*
X142574451Y-72760000D01*
X142568659Y-72701190D01*
X142556164Y-72660002D01*
X142568660Y-72618810D01*
X142574452Y-72560000D01*
X142573000Y-72535000D01*
X142498000Y-72460000D01*
X142287733Y-72460000D01*
X142273000Y-72458549D01*
X140373000Y-72458549D01*
X140358267Y-72460000D01*
X140148000Y-72460000D01*
X140073000Y-72535000D01*
X140071548Y-72560000D01*
X134437000Y-72560000D01*
X134437000Y-71060000D01*
X140071548Y-71060000D01*
X140077340Y-71118810D01*
X140089836Y-71160002D01*
X140077341Y-71201190D01*
X140071549Y-71260000D01*
X140071549Y-71560000D01*
X140077341Y-71618810D01*
X140089836Y-71660000D01*
X140077341Y-71701190D01*
X140071549Y-71760000D01*
X140071549Y-72060000D01*
X140077341Y-72118810D01*
X140089836Y-72159998D01*
X140077340Y-72201190D01*
X140071548Y-72260000D01*
X140073000Y-72285000D01*
X140148000Y-72360000D01*
X140358267Y-72360000D01*
X140373000Y-72361451D01*
X142273000Y-72361451D01*
X142287733Y-72360000D01*
X142498000Y-72360000D01*
X142573000Y-72285000D01*
X142574452Y-72260000D01*
X142568660Y-72201190D01*
X142556164Y-72159998D01*
X142568659Y-72118810D01*
X142574451Y-72060000D01*
X142574451Y-71760000D01*
X142568659Y-71701190D01*
X142556164Y-71660000D01*
X142568659Y-71618810D01*
X142574451Y-71560000D01*
X142574451Y-71260000D01*
X142568659Y-71201190D01*
X142556164Y-71160002D01*
X142568660Y-71118810D01*
X142574452Y-71060000D01*
X142573000Y-71035000D01*
X142498000Y-70960000D01*
X142287733Y-70960000D01*
X142273000Y-70958549D01*
X140373000Y-70958549D01*
X140358267Y-70960000D01*
X140148000Y-70960000D01*
X140073000Y-71035000D01*
X140071548Y-71060000D01*
X134437000Y-71060000D01*
X134437000Y-69560000D01*
X140071548Y-69560000D01*
X140077340Y-69618810D01*
X140089836Y-69660002D01*
X140077341Y-69701190D01*
X140071549Y-69760000D01*
X140071549Y-70060000D01*
X140077341Y-70118810D01*
X140089836Y-70160000D01*
X140077341Y-70201190D01*
X140071549Y-70260000D01*
X140071549Y-70560000D01*
X140077341Y-70618810D01*
X140089836Y-70659998D01*
X140077340Y-70701190D01*
X140071548Y-70760000D01*
X140073000Y-70785000D01*
X140148000Y-70860000D01*
X140358267Y-70860000D01*
X140373000Y-70861451D01*
X142273000Y-70861451D01*
X142287733Y-70860000D01*
X142498000Y-70860000D01*
X142573000Y-70785000D01*
X142574452Y-70760000D01*
X142568660Y-70701190D01*
X142556164Y-70659998D01*
X142568659Y-70618810D01*
X142574451Y-70560000D01*
X142574451Y-70260000D01*
X142568659Y-70201190D01*
X142556164Y-70160000D01*
X142568659Y-70118810D01*
X142574451Y-70060000D01*
X142574451Y-69760000D01*
X142568659Y-69701190D01*
X142556164Y-69660002D01*
X142568660Y-69618810D01*
X142574452Y-69560000D01*
X142573000Y-69535000D01*
X142498000Y-69460000D01*
X142287733Y-69460000D01*
X142273000Y-69458549D01*
X140373000Y-69458549D01*
X140358267Y-69460000D01*
X140148000Y-69460000D01*
X140073000Y-69535000D01*
X140071548Y-69560000D01*
X134437000Y-69560000D01*
X134437000Y-69260000D01*
X140071548Y-69260000D01*
X140073000Y-69285000D01*
X140148000Y-69360000D01*
X140358267Y-69360000D01*
X140373000Y-69361451D01*
X142273000Y-69361451D01*
X142287733Y-69360000D01*
X142498000Y-69360000D01*
X142573000Y-69285000D01*
X142574452Y-69260000D01*
X142568660Y-69201190D01*
X142556164Y-69159998D01*
X142568659Y-69118810D01*
X142574451Y-69060000D01*
X142574451Y-68760000D01*
X142568659Y-68701190D01*
X142551504Y-68644640D01*
X142523647Y-68592523D01*
X142486158Y-68546842D01*
X142440477Y-68509353D01*
X142388360Y-68481496D01*
X142331810Y-68464341D01*
X142273000Y-68458549D01*
X140373000Y-68458549D01*
X140314190Y-68464341D01*
X140257640Y-68481496D01*
X140205523Y-68509353D01*
X140159842Y-68546842D01*
X140122353Y-68592523D01*
X140094496Y-68644640D01*
X140077341Y-68701190D01*
X140071549Y-68760000D01*
X140071549Y-69060000D01*
X140077341Y-69118810D01*
X140089836Y-69159998D01*
X140077340Y-69201190D01*
X140071548Y-69260000D01*
X134437000Y-69260000D01*
X134437000Y-67730000D01*
X143628549Y-67730000D01*
X143628549Y-69430000D01*
X143634341Y-69488810D01*
X143651496Y-69545360D01*
X143679353Y-69597477D01*
X143716842Y-69643158D01*
X143762523Y-69680647D01*
X143814640Y-69708504D01*
X143871190Y-69725659D01*
X143930000Y-69731451D01*
X145630000Y-69731451D01*
X145688810Y-69725659D01*
X145745360Y-69708504D01*
X145797477Y-69680647D01*
X145843158Y-69643158D01*
X145880647Y-69597477D01*
X145908504Y-69545360D01*
X145925659Y-69488810D01*
X145931451Y-69430000D01*
X145931451Y-67730000D01*
X145925659Y-67671190D01*
X145908504Y-67614640D01*
X145880647Y-67562523D01*
X145843158Y-67516842D01*
X145797477Y-67479353D01*
X145745360Y-67451496D01*
X145688810Y-67434341D01*
X145630000Y-67428549D01*
X143930000Y-67428549D01*
X143871190Y-67434341D01*
X143814640Y-67451496D01*
X143762523Y-67479353D01*
X143716842Y-67516842D01*
X143679353Y-67562523D01*
X143651496Y-67614640D01*
X143634341Y-67671190D01*
X143628549Y-67730000D01*
X134437000Y-67730000D01*
X134437000Y-67315290D01*
X139488420Y-67315290D01*
X139596195Y-67495425D01*
X139821917Y-67616362D01*
X140066894Y-67690938D01*
X140321714Y-67716289D01*
X140576583Y-67691439D01*
X140821707Y-67617345D01*
X141047666Y-67496854D01*
X141049805Y-67495425D01*
X141157580Y-67315290D01*
X140323000Y-66480711D01*
X139488420Y-67315290D01*
X134437000Y-67315290D01*
X134437000Y-66715290D01*
X134588420Y-66715290D01*
X134696195Y-66895425D01*
X134921917Y-67016362D01*
X135166894Y-67090938D01*
X135421714Y-67116289D01*
X135676583Y-67091439D01*
X135921707Y-67017345D01*
X136147666Y-66896854D01*
X136149805Y-66895425D01*
X136257580Y-66715290D01*
X135423000Y-65880711D01*
X134588420Y-66715290D01*
X134437000Y-66715290D01*
X134437000Y-66596291D01*
X134517710Y-66644580D01*
X135352289Y-65810000D01*
X135493711Y-65810000D01*
X136328290Y-66644580D01*
X136508425Y-66536805D01*
X136577053Y-66408714D01*
X139016711Y-66408714D01*
X139041561Y-66663583D01*
X139115655Y-66908707D01*
X139236146Y-67134666D01*
X139237575Y-67136805D01*
X139417710Y-67244580D01*
X140252289Y-66410000D01*
X140393711Y-66410000D01*
X141228290Y-67244580D01*
X141408425Y-67136805D01*
X141529362Y-66911083D01*
X141603938Y-66666106D01*
X141629289Y-66411286D01*
X141604439Y-66156417D01*
X141535013Y-65926735D01*
X146170000Y-65926735D01*
X146170000Y-66153265D01*
X146214194Y-66375443D01*
X146300884Y-66584729D01*
X146426737Y-66773082D01*
X146586918Y-66933263D01*
X146775271Y-67059116D01*
X146984557Y-67145806D01*
X147206735Y-67190000D01*
X147433265Y-67190000D01*
X147655443Y-67145806D01*
X147864729Y-67059116D01*
X148053082Y-66933263D01*
X148213263Y-66773082D01*
X148339116Y-66584729D01*
X148425806Y-66375443D01*
X148470000Y-66153265D01*
X148470000Y-65926735D01*
X148710000Y-65926735D01*
X148710000Y-66153265D01*
X148754194Y-66375443D01*
X148840884Y-66584729D01*
X148966737Y-66773082D01*
X149126918Y-66933263D01*
X149315271Y-67059116D01*
X149524557Y-67145806D01*
X149746735Y-67190000D01*
X149973265Y-67190000D01*
X150195443Y-67145806D01*
X150404729Y-67059116D01*
X150593082Y-66933263D01*
X150753263Y-66773082D01*
X150879116Y-66584729D01*
X150965806Y-66375443D01*
X151010000Y-66153265D01*
X151010000Y-65926735D01*
X150965806Y-65704557D01*
X150879116Y-65495271D01*
X150753263Y-65306918D01*
X150593082Y-65146737D01*
X150404729Y-65020884D01*
X150195443Y-64934194D01*
X149973265Y-64890000D01*
X149746735Y-64890000D01*
X149524557Y-64934194D01*
X149315271Y-65020884D01*
X149126918Y-65146737D01*
X148966737Y-65306918D01*
X148840884Y-65495271D01*
X148754194Y-65704557D01*
X148710000Y-65926735D01*
X148470000Y-65926735D01*
X148425806Y-65704557D01*
X148339116Y-65495271D01*
X148213263Y-65306918D01*
X148053082Y-65146737D01*
X147864729Y-65020884D01*
X147655443Y-64934194D01*
X147433265Y-64890000D01*
X147206735Y-64890000D01*
X146984557Y-64934194D01*
X146775271Y-65020884D01*
X146586918Y-65146737D01*
X146426737Y-65306918D01*
X146300884Y-65495271D01*
X146214194Y-65704557D01*
X146170000Y-65926735D01*
X141535013Y-65926735D01*
X141530345Y-65911293D01*
X141409854Y-65685334D01*
X141408425Y-65683195D01*
X141228290Y-65575420D01*
X140393711Y-66410000D01*
X140252289Y-66410000D01*
X139417710Y-65575420D01*
X139237575Y-65683195D01*
X139116638Y-65908917D01*
X139042062Y-66153894D01*
X139016711Y-66408714D01*
X136577053Y-66408714D01*
X136629362Y-66311083D01*
X136703938Y-66066106D01*
X136729289Y-65811286D01*
X136704439Y-65556417D01*
X136688810Y-65504710D01*
X139488420Y-65504710D01*
X140323000Y-66339289D01*
X141157580Y-65504710D01*
X141049805Y-65324575D01*
X140824083Y-65203638D01*
X140579106Y-65129062D01*
X140324286Y-65103711D01*
X140069417Y-65128561D01*
X139824293Y-65202655D01*
X139598334Y-65323146D01*
X139596195Y-65324575D01*
X139488420Y-65504710D01*
X136688810Y-65504710D01*
X136630345Y-65311293D01*
X136509854Y-65085334D01*
X136508425Y-65083195D01*
X136328290Y-64975420D01*
X135493711Y-65810000D01*
X135352289Y-65810000D01*
X135338147Y-65795858D01*
X135408858Y-65725147D01*
X135423000Y-65739289D01*
X136257580Y-64904710D01*
X136219462Y-64841000D01*
X157718104Y-64841000D01*
X157917247Y-64860526D01*
G37*
%TD.AperFunction*%
%TD*%
M02*
