%TF.GenerationSoftware,KiCad,Pcbnew,5.1.8*%
%TF.CreationDate,2020-12-26T07:32:41-08:00*%
%TF.ProjectId,teensy-toslink-receiver,7465656e-7379-42d7-946f-736c696e6b2d,rev?*%
%TF.SameCoordinates,Original*%
%TF.FileFunction,Copper,L1,Top*%
%TF.FilePolarity,Positive*%
%FSLAX46Y46*%
G04 Gerber Fmt 4.6, Leading zero omitted, Abs format (unit mm)*
G04 Created by KiCad (PCBNEW 5.1.8) date 2020-12-26 07:32:41*
%MOMM*%
%LPD*%
G01*
G04 APERTURE LIST*
%TA.AperFunction,EtchedComponent*%
%ADD10C,0.100000*%
%TD*%
%TA.AperFunction,ComponentPad*%
%ADD11O,1.700000X1.700000*%
%TD*%
%TA.AperFunction,ComponentPad*%
%ADD12R,1.700000X1.700000*%
%TD*%
%TA.AperFunction,SMDPad,CuDef*%
%ADD13R,0.800000X0.900000*%
%TD*%
%TA.AperFunction,SMDPad,CuDef*%
%ADD14R,0.900000X0.800000*%
%TD*%
%TA.AperFunction,ComponentPad*%
%ADD15C,2.000000*%
%TD*%
%TA.AperFunction,ComponentPad*%
%ADD16R,1.500000X1.500000*%
%TD*%
%TA.AperFunction,ComponentPad*%
%ADD17O,1.500000X1.500000*%
%TD*%
%TA.AperFunction,ComponentPad*%
%ADD18C,1.500000*%
%TD*%
%TA.AperFunction,SMDPad,CuDef*%
%ADD19C,0.100000*%
%TD*%
%TA.AperFunction,ViaPad*%
%ADD20C,0.800000*%
%TD*%
%TA.AperFunction,Conductor*%
%ADD21C,0.250000*%
%TD*%
%TA.AperFunction,Conductor*%
%ADD22C,0.200000*%
%TD*%
%TA.AperFunction,Conductor*%
%ADD23C,0.100000*%
%TD*%
G04 APERTURE END LIST*
D10*
%TO.C,JP1*%
G36*
X147944000Y-75738000D02*
G01*
X148444000Y-75738000D01*
X148444000Y-75138000D01*
X147944000Y-75138000D01*
X147944000Y-75738000D01*
G37*
%TD*%
D11*
%TO.P,J2,5*%
%TO.N,/DIO17*%
X147320000Y-66040000D03*
%TO.P,J2,4*%
%TO.N,/DIO16*%
X149860000Y-66040000D03*
%TO.P,J2,3*%
%TO.N,/SPDIF_IN*%
X152400000Y-66040000D03*
%TO.P,J2,2*%
%TO.N,/DIO14*%
X154940000Y-66040000D03*
D12*
%TO.P,J2,1*%
%TO.N,/DIO13*%
X157480000Y-66040000D03*
%TD*%
%TO.P,R3,2*%
%TO.N,+3V3*%
%TA.AperFunction,SMDPad,CuDef*%
G36*
G01*
X140806000Y-75538000D02*
X140806000Y-75338000D01*
G75*
G02*
X140906000Y-75238000I100000J0D01*
G01*
X141166000Y-75238000D01*
G75*
G02*
X141266000Y-75338000I0J-100000D01*
G01*
X141266000Y-75538000D01*
G75*
G02*
X141166000Y-75638000I-100000J0D01*
G01*
X140906000Y-75638000D01*
G75*
G02*
X140806000Y-75538000I0J100000D01*
G01*
G37*
%TD.AperFunction*%
%TO.P,R3,1*%
%TO.N,Net-(Q2-Pad2)*%
%TA.AperFunction,SMDPad,CuDef*%
G36*
G01*
X140166000Y-75538000D02*
X140166000Y-75338000D01*
G75*
G02*
X140266000Y-75238000I100000J0D01*
G01*
X140526000Y-75238000D01*
G75*
G02*
X140626000Y-75338000I0J-100000D01*
G01*
X140626000Y-75538000D01*
G75*
G02*
X140526000Y-75638000I-100000J0D01*
G01*
X140266000Y-75638000D01*
G75*
G02*
X140166000Y-75538000I0J100000D01*
G01*
G37*
%TD.AperFunction*%
%TD*%
%TO.P,R2,2*%
%TO.N,/DIO17*%
%TA.AperFunction,SMDPad,CuDef*%
G36*
G01*
X140806000Y-74776000D02*
X140806000Y-74576000D01*
G75*
G02*
X140906000Y-74476000I100000J0D01*
G01*
X141166000Y-74476000D01*
G75*
G02*
X141266000Y-74576000I0J-100000D01*
G01*
X141266000Y-74776000D01*
G75*
G02*
X141166000Y-74876000I-100000J0D01*
G01*
X140906000Y-74876000D01*
G75*
G02*
X140806000Y-74776000I0J100000D01*
G01*
G37*
%TD.AperFunction*%
%TO.P,R2,1*%
%TO.N,Net-(Q2-Pad2)*%
%TA.AperFunction,SMDPad,CuDef*%
G36*
G01*
X140166000Y-74776000D02*
X140166000Y-74576000D01*
G75*
G02*
X140266000Y-74476000I100000J0D01*
G01*
X140526000Y-74476000D01*
G75*
G02*
X140626000Y-74576000I0J-100000D01*
G01*
X140626000Y-74776000D01*
G75*
G02*
X140526000Y-74876000I-100000J0D01*
G01*
X140266000Y-74876000D01*
G75*
G02*
X140166000Y-74776000I0J100000D01*
G01*
G37*
%TD.AperFunction*%
%TD*%
D13*
%TO.P,Q3,3*%
%TO.N,/DIO9*%
X137668000Y-71898000D03*
%TO.P,Q3,2*%
%TO.N,GND*%
X138618000Y-73898000D03*
%TO.P,Q3,1*%
%TO.N,+5V*%
X136718000Y-73898000D03*
%TD*%
D14*
%TO.P,Q2,3*%
%TO.N,/CEC*%
X136668000Y-76454000D03*
%TO.P,Q2,2*%
%TO.N,Net-(Q2-Pad2)*%
X138668000Y-75504000D03*
%TO.P,Q2,1*%
%TO.N,+5V*%
X138668000Y-77404000D03*
%TD*%
%TO.P,Q1,3*%
%TO.N,/HPD*%
X142224000Y-77978000D03*
%TO.P,Q1,2*%
%TO.N,GND*%
X140224000Y-78928000D03*
%TO.P,Q1,1*%
%TO.N,/DIO8*%
X140224000Y-77028000D03*
%TD*%
D15*
%TO.P,J7,M3*%
%TO.N,GND*%
X135423000Y-81510000D03*
%TO.P,J7,M4*%
X135423000Y-65810000D03*
%TO.P,J7,M1*%
X140323000Y-80910000D03*
%TO.P,J7,M2*%
X140323000Y-66410000D03*
%TD*%
D16*
%TO.P,U1,1*%
%TO.N,Net-(C1-Pad1)*%
X151892000Y-71120000D03*
D17*
%TO.P,U1,2*%
%TO.N,GND*%
X151892000Y-73660000D03*
%TO.P,U1,3*%
%TO.N,/TOSLINK_RX*%
X151892000Y-76200000D03*
D18*
%TO.P,U1,4*%
%TO.N,N/C*%
X154432000Y-71040000D03*
%TO.P,U1,5*%
X154432000Y-76280000D03*
%TD*%
%TO.P,L1,2*%
%TO.N,Net-(C1-Pad1)*%
%TA.AperFunction,SMDPad,CuDef*%
G36*
G01*
X147955250Y-71765000D02*
X147192750Y-71765000D01*
G75*
G02*
X146974000Y-71546250I0J218750D01*
G01*
X146974000Y-71108750D01*
G75*
G02*
X147192750Y-70890000I218750J0D01*
G01*
X147955250Y-70890000D01*
G75*
G02*
X148174000Y-71108750I0J-218750D01*
G01*
X148174000Y-71546250D01*
G75*
G02*
X147955250Y-71765000I-218750J0D01*
G01*
G37*
%TD.AperFunction*%
%TO.P,L1,1*%
%TO.N,+3V3*%
%TA.AperFunction,SMDPad,CuDef*%
G36*
G01*
X147955250Y-73890000D02*
X147192750Y-73890000D01*
G75*
G02*
X146974000Y-73671250I0J218750D01*
G01*
X146974000Y-73233750D01*
G75*
G02*
X147192750Y-73015000I218750J0D01*
G01*
X147955250Y-73015000D01*
G75*
G02*
X148174000Y-73233750I0J-218750D01*
G01*
X148174000Y-73671250D01*
G75*
G02*
X147955250Y-73890000I-218750J0D01*
G01*
G37*
%TD.AperFunction*%
%TD*%
%TA.AperFunction,SMDPad,CuDef*%
D19*
%TO.P,JP1,1*%
%TO.N,Net-(C1-Pad1)*%
G36*
X148344000Y-74688000D02*
G01*
X148844000Y-74688000D01*
X148844000Y-74688602D01*
X148868534Y-74688602D01*
X148917365Y-74693412D01*
X148965490Y-74702984D01*
X149012445Y-74717228D01*
X149057778Y-74736005D01*
X149101051Y-74759136D01*
X149141850Y-74786396D01*
X149179779Y-74817524D01*
X149214476Y-74852221D01*
X149245604Y-74890150D01*
X149272864Y-74930949D01*
X149295995Y-74974222D01*
X149314772Y-75019555D01*
X149329016Y-75066510D01*
X149338588Y-75114635D01*
X149343398Y-75163466D01*
X149343398Y-75188000D01*
X149344000Y-75188000D01*
X149344000Y-75688000D01*
X149343398Y-75688000D01*
X149343398Y-75712534D01*
X149338588Y-75761365D01*
X149329016Y-75809490D01*
X149314772Y-75856445D01*
X149295995Y-75901778D01*
X149272864Y-75945051D01*
X149245604Y-75985850D01*
X149214476Y-76023779D01*
X149179779Y-76058476D01*
X149141850Y-76089604D01*
X149101051Y-76116864D01*
X149057778Y-76139995D01*
X149012445Y-76158772D01*
X148965490Y-76173016D01*
X148917365Y-76182588D01*
X148868534Y-76187398D01*
X148844000Y-76187398D01*
X148844000Y-76188000D01*
X148344000Y-76188000D01*
X148344000Y-74688000D01*
G37*
%TD.AperFunction*%
%TA.AperFunction,SMDPad,CuDef*%
%TO.P,JP1,2*%
%TO.N,+3V3*%
G36*
X147544000Y-76187398D02*
G01*
X147519466Y-76187398D01*
X147470635Y-76182588D01*
X147422510Y-76173016D01*
X147375555Y-76158772D01*
X147330222Y-76139995D01*
X147286949Y-76116864D01*
X147246150Y-76089604D01*
X147208221Y-76058476D01*
X147173524Y-76023779D01*
X147142396Y-75985850D01*
X147115136Y-75945051D01*
X147092005Y-75901778D01*
X147073228Y-75856445D01*
X147058984Y-75809490D01*
X147049412Y-75761365D01*
X147044602Y-75712534D01*
X147044602Y-75688000D01*
X147044000Y-75688000D01*
X147044000Y-75188000D01*
X147044602Y-75188000D01*
X147044602Y-75163466D01*
X147049412Y-75114635D01*
X147058984Y-75066510D01*
X147073228Y-75019555D01*
X147092005Y-74974222D01*
X147115136Y-74930949D01*
X147142396Y-74890150D01*
X147173524Y-74852221D01*
X147208221Y-74817524D01*
X147246150Y-74786396D01*
X147286949Y-74759136D01*
X147330222Y-74736005D01*
X147375555Y-74717228D01*
X147422510Y-74702984D01*
X147470635Y-74693412D01*
X147519466Y-74688602D01*
X147544000Y-74688602D01*
X147544000Y-74688000D01*
X148044000Y-74688000D01*
X148044000Y-76188000D01*
X147544000Y-76188000D01*
X147544000Y-76187398D01*
G37*
%TD.AperFunction*%
%TD*%
D11*
%TO.P,J6,4*%
%TO.N,GND*%
X144780000Y-81280000D03*
%TO.P,J6,3*%
%TO.N,/HPD*%
X144780000Y-78740000D03*
%TO.P,J6,2*%
%TO.N,/ARC*%
X144780000Y-76200000D03*
D12*
%TO.P,J6,1*%
%TO.N,+3V3*%
X144780000Y-73660000D03*
%TD*%
D11*
%TO.P,J5,3*%
%TO.N,GND*%
X149860000Y-68580000D03*
%TO.P,J5,2*%
%TO.N,/CEC*%
X147320000Y-68580000D03*
D12*
%TO.P,J5,1*%
%TO.N,+3V3*%
X144780000Y-68580000D03*
%TD*%
D11*
%TO.P,J4,5*%
%TO.N,/VBat*%
X157480000Y-78740000D03*
%TO.P,J4,4*%
%TO.N,+3V3*%
X157480000Y-76200000D03*
%TO.P,J4,3*%
%TO.N,GND*%
X157480000Y-73660000D03*
%TO.P,J4,2*%
%TO.N,/Program*%
X157480000Y-71120000D03*
D12*
%TO.P,J4,1*%
%TO.N,/OnOff*%
X157480000Y-68580000D03*
%TD*%
D11*
%TO.P,J3,5*%
%TO.N,/DIO12*%
X157480000Y-81280000D03*
%TO.P,J3,4*%
%TO.N,/DIO11*%
X154940000Y-81280000D03*
%TO.P,J3,3*%
%TO.N,/DIO10*%
X152400000Y-81280000D03*
%TO.P,J3,2*%
%TO.N,/DIO9*%
X149860000Y-81280000D03*
D12*
%TO.P,J3,1*%
%TO.N,/DIO8*%
X147320000Y-81280000D03*
%TD*%
D11*
%TO.P,J1,3*%
%TO.N,/ARC*%
X147320000Y-78740000D03*
%TO.P,J1,2*%
%TO.N,/SPDIF_IN*%
X149860000Y-78740000D03*
D12*
%TO.P,J1,1*%
%TO.N,/TOSLINK_RX*%
X152400000Y-78740000D03*
%TD*%
%TO.P,C1,2*%
%TO.N,GND*%
%TA.AperFunction,SMDPad,CuDef*%
G36*
G01*
X149864000Y-72461000D02*
X150364000Y-72461000D01*
G75*
G02*
X150589000Y-72686000I0J-225000D01*
G01*
X150589000Y-73136000D01*
G75*
G02*
X150364000Y-73361000I-225000J0D01*
G01*
X149864000Y-73361000D01*
G75*
G02*
X149639000Y-73136000I0J225000D01*
G01*
X149639000Y-72686000D01*
G75*
G02*
X149864000Y-72461000I225000J0D01*
G01*
G37*
%TD.AperFunction*%
%TO.P,C1,1*%
%TO.N,Net-(C1-Pad1)*%
%TA.AperFunction,SMDPad,CuDef*%
G36*
G01*
X149864000Y-70911000D02*
X150364000Y-70911000D01*
G75*
G02*
X150589000Y-71136000I0J-225000D01*
G01*
X150589000Y-71586000D01*
G75*
G02*
X150364000Y-71811000I-225000J0D01*
G01*
X149864000Y-71811000D01*
G75*
G02*
X149639000Y-71586000I0J225000D01*
G01*
X149639000Y-71136000D01*
G75*
G02*
X149864000Y-70911000I225000J0D01*
G01*
G37*
%TD.AperFunction*%
%TD*%
D20*
%TO.N,GND*%
X138684000Y-72898000D03*
%TO.N,/CEC*%
X137582509Y-76849205D03*
%TO.N,+5V*%
X138938000Y-78486000D03*
%TD*%
D21*
%TO.N,GND*%
X151651000Y-73901000D02*
X151892000Y-73660000D01*
X150114000Y-73165000D02*
X150127000Y-73165000D01*
X138618000Y-72964000D02*
X138684000Y-72898000D01*
X138618000Y-73898000D02*
X138618000Y-72964000D01*
%TO.N,Net-(C1-Pad1)*%
X149826500Y-71327500D02*
X150114000Y-71615000D01*
X148844000Y-75438000D02*
X148844000Y-72136000D01*
X150080500Y-71327500D02*
X150114000Y-71361000D01*
X147574000Y-71327500D02*
X150080500Y-71327500D01*
X149619000Y-71361000D02*
X148844000Y-72136000D01*
X150114000Y-71361000D02*
X149619000Y-71361000D01*
X151651000Y-71361000D02*
X151892000Y-71120000D01*
X150114000Y-71361000D02*
X151651000Y-71361000D01*
%TO.N,/SPDIF_IN*%
X152400000Y-66040000D02*
X152400000Y-66548000D01*
%TO.N,/DIO17*%
X144018000Y-66040000D02*
X147320000Y-66040000D01*
X141036000Y-69022000D02*
X144018000Y-66040000D01*
X141036000Y-74168000D02*
X141036000Y-69022000D01*
X141036000Y-74168000D02*
X141036000Y-74676000D01*
%TO.N,/DIO9*%
X149860000Y-81280000D02*
X148732599Y-80152599D01*
X148732599Y-80152599D02*
X148732599Y-78484045D01*
X148732599Y-78484045D02*
X145321153Y-75072599D01*
X145321153Y-75072599D02*
X144238846Y-75072599D01*
X144238846Y-75072599D02*
X143082444Y-76229001D01*
X137957999Y-76229001D02*
X137668000Y-75939002D01*
X137668000Y-75939002D02*
X137668000Y-71898000D01*
X143082444Y-76229001D02*
X137957999Y-76229001D01*
%TO.N,/DIO8*%
X143764000Y-77470000D02*
X143322000Y-77028000D01*
X145542000Y-77470000D02*
X143764000Y-77470000D01*
X146050000Y-77978000D02*
X145542000Y-77470000D01*
X146050000Y-80010000D02*
X146050000Y-77978000D01*
X143322000Y-77028000D02*
X140224000Y-77028000D01*
X147320000Y-81280000D02*
X146050000Y-80010000D01*
%TO.N,+3V3*%
X147574000Y-75408000D02*
X147544000Y-75438000D01*
X147574000Y-73452500D02*
X147574000Y-75408000D01*
X147544000Y-76185592D02*
X147544000Y-75438000D01*
X147871418Y-76513010D02*
X147544000Y-76185592D01*
X149182328Y-76513010D02*
X147871418Y-76513010D01*
X150570339Y-75124999D02*
X149182328Y-76513010D01*
X156404999Y-75124999D02*
X150570339Y-75124999D01*
X157480000Y-76200000D02*
X156404999Y-75124999D01*
X146050000Y-69850000D02*
X144780000Y-68580000D01*
X146096500Y-73452500D02*
X146050000Y-73406000D01*
X146050000Y-73406000D02*
X146050000Y-69850000D01*
X147574000Y-73452500D02*
X146096500Y-73452500D01*
X144987500Y-73452500D02*
X144780000Y-73660000D01*
X146096500Y-73452500D02*
X144987500Y-73452500D01*
X143002000Y-75438000D02*
X144780000Y-73660000D01*
X141036000Y-75438000D02*
X143002000Y-75438000D01*
%TO.N,/CEC*%
X137063205Y-76849205D02*
X136668000Y-76454000D01*
X137582509Y-76849205D02*
X137063205Y-76849205D01*
%TO.N,/HPD*%
X142986000Y-78740000D02*
X142224000Y-77978000D01*
X144780000Y-78740000D02*
X142986000Y-78740000D01*
%TO.N,+5V*%
X136353205Y-77574207D02*
X138497793Y-77574207D01*
X138497793Y-77574207D02*
X138668000Y-77404000D01*
X135890000Y-75692000D02*
X135890000Y-77111002D01*
X136718000Y-74864000D02*
X135890000Y-75692000D01*
X135890000Y-77111002D02*
X136353205Y-77574207D01*
X136718000Y-73898000D02*
X136718000Y-74864000D01*
X138938000Y-77674000D02*
X138668000Y-77404000D01*
X138938000Y-78486000D02*
X138938000Y-77674000D01*
%TO.N,Net-(Q2-Pad2)*%
X138734000Y-75438000D02*
X138668000Y-75504000D01*
X140396000Y-75438000D02*
X138734000Y-75438000D01*
X140396000Y-74676000D02*
X140396000Y-75438000D01*
%TD*%
D22*
%TO.N,GND*%
X157917247Y-64860526D02*
X158010063Y-64888549D01*
X156630000Y-64888549D01*
X156571190Y-64894341D01*
X156514640Y-64911496D01*
X156462523Y-64939353D01*
X156416842Y-64976842D01*
X156379353Y-65022523D01*
X156351496Y-65074640D01*
X156334341Y-65131190D01*
X156328549Y-65190000D01*
X156328549Y-66890000D01*
X156334341Y-66948810D01*
X156351496Y-67005360D01*
X156379353Y-67057477D01*
X156416842Y-67103158D01*
X156462523Y-67140647D01*
X156514640Y-67168504D01*
X156571190Y-67185659D01*
X156630000Y-67191451D01*
X158330000Y-67191451D01*
X158388810Y-67185659D01*
X158445360Y-67168504D01*
X158497477Y-67140647D01*
X158543158Y-67103158D01*
X158580647Y-67057477D01*
X158608504Y-67005360D01*
X158625659Y-66948810D01*
X158631451Y-66890000D01*
X158631451Y-65509972D01*
X158658172Y-65596292D01*
X158679001Y-65794474D01*
X158679000Y-81518103D01*
X158659474Y-81717247D01*
X158606253Y-81893521D01*
X158519812Y-82056093D01*
X158403436Y-82198784D01*
X158261569Y-82316147D01*
X158099598Y-82403724D01*
X157923708Y-82458172D01*
X157725536Y-82479000D01*
X136219462Y-82479000D01*
X136257580Y-82415290D01*
X135423000Y-81580711D01*
X135408858Y-81594853D01*
X135338147Y-81524142D01*
X135352289Y-81510000D01*
X135493711Y-81510000D01*
X136328290Y-82344580D01*
X136508425Y-82236805D01*
X136629362Y-82011083D01*
X136688965Y-81815290D01*
X139488420Y-81815290D01*
X139596195Y-81995425D01*
X139821917Y-82116362D01*
X140066894Y-82190938D01*
X140321714Y-82216289D01*
X140576583Y-82191439D01*
X140821707Y-82117345D01*
X141047666Y-81996854D01*
X141049805Y-81995425D01*
X141157580Y-81815290D01*
X140323000Y-80980711D01*
X139488420Y-81815290D01*
X136688965Y-81815290D01*
X136703938Y-81766106D01*
X136729289Y-81511286D01*
X136704439Y-81256417D01*
X136630345Y-81011293D01*
X136575646Y-80908714D01*
X139016711Y-80908714D01*
X139041561Y-81163583D01*
X139115655Y-81408707D01*
X139236146Y-81634666D01*
X139237575Y-81636805D01*
X139417710Y-81744580D01*
X140252289Y-80910000D01*
X140393711Y-80910000D01*
X141228290Y-81744580D01*
X141408425Y-81636805D01*
X141476839Y-81509114D01*
X143653054Y-81509114D01*
X143715688Y-81715597D01*
X143821119Y-81914864D01*
X143963400Y-82089734D01*
X144137062Y-82233486D01*
X144335432Y-82340596D01*
X144550886Y-82406948D01*
X144730000Y-82353915D01*
X144730000Y-81330000D01*
X144830000Y-81330000D01*
X144830000Y-82353915D01*
X145009114Y-82406948D01*
X145224568Y-82340596D01*
X145422938Y-82233486D01*
X145596600Y-82089734D01*
X145738881Y-81914864D01*
X145844312Y-81715597D01*
X145906946Y-81509114D01*
X145853837Y-81330000D01*
X144830000Y-81330000D01*
X144730000Y-81330000D01*
X143706163Y-81330000D01*
X143653054Y-81509114D01*
X141476839Y-81509114D01*
X141529362Y-81411083D01*
X141603938Y-81166106D01*
X141615400Y-81050886D01*
X143653054Y-81050886D01*
X143706163Y-81230000D01*
X144730000Y-81230000D01*
X144730000Y-80206085D01*
X144830000Y-80206085D01*
X144830000Y-81230000D01*
X145853837Y-81230000D01*
X145906946Y-81050886D01*
X145844312Y-80844403D01*
X145738881Y-80645136D01*
X145596600Y-80470266D01*
X145422938Y-80326514D01*
X145224568Y-80219404D01*
X145009114Y-80153052D01*
X144830000Y-80206085D01*
X144730000Y-80206085D01*
X144550886Y-80153052D01*
X144335432Y-80219404D01*
X144137062Y-80326514D01*
X143963400Y-80470266D01*
X143821119Y-80645136D01*
X143715688Y-80844403D01*
X143653054Y-81050886D01*
X141615400Y-81050886D01*
X141629289Y-80911286D01*
X141604439Y-80656417D01*
X141530345Y-80411293D01*
X141409854Y-80185334D01*
X141408425Y-80183195D01*
X141228290Y-80075420D01*
X140393711Y-80910000D01*
X140252289Y-80910000D01*
X139417710Y-80075420D01*
X139237575Y-80183195D01*
X139116638Y-80408917D01*
X139042062Y-80653894D01*
X139016711Y-80908714D01*
X136575646Y-80908714D01*
X136509854Y-80785334D01*
X136508425Y-80783195D01*
X136328290Y-80675420D01*
X135493711Y-81510000D01*
X135352289Y-81510000D01*
X134517710Y-80675420D01*
X134437000Y-80723709D01*
X134437000Y-80604710D01*
X134588420Y-80604710D01*
X135423000Y-81439289D01*
X136257580Y-80604710D01*
X136149805Y-80424575D01*
X135924083Y-80303638D01*
X135679106Y-80229062D01*
X135424286Y-80203711D01*
X135169417Y-80228561D01*
X134924293Y-80302655D01*
X134698334Y-80423146D01*
X134696195Y-80424575D01*
X134588420Y-80604710D01*
X134437000Y-80604710D01*
X134437000Y-75692000D01*
X135462945Y-75692000D01*
X135465000Y-75712867D01*
X135465001Y-77090126D01*
X135462945Y-77111002D01*
X135471150Y-77194316D01*
X135489605Y-77255150D01*
X135495453Y-77274429D01*
X135534917Y-77348262D01*
X135588027Y-77412976D01*
X135604239Y-77426281D01*
X136037926Y-77859969D01*
X136051231Y-77876181D01*
X136115945Y-77929291D01*
X136164060Y-77955008D01*
X136189777Y-77968755D01*
X136269890Y-77993057D01*
X136277532Y-77993810D01*
X136332331Y-77999207D01*
X136332338Y-77999207D01*
X136353205Y-78001262D01*
X136374072Y-77999207D01*
X137990110Y-77999207D01*
X138004842Y-78017158D01*
X138050523Y-78054647D01*
X138102640Y-78082504D01*
X138159190Y-78099659D01*
X138218000Y-78105451D01*
X138350392Y-78105451D01*
X138317668Y-78154426D01*
X138264901Y-78281818D01*
X138238000Y-78417056D01*
X138238000Y-78554944D01*
X138264901Y-78690182D01*
X138317668Y-78817574D01*
X138394274Y-78932224D01*
X138491776Y-79029726D01*
X138606426Y-79106332D01*
X138733818Y-79159099D01*
X138869056Y-79186000D01*
X139006944Y-79186000D01*
X139142182Y-79159099D01*
X139269574Y-79106332D01*
X139384224Y-79029726D01*
X139474000Y-78939950D01*
X139474000Y-78978002D01*
X139548998Y-78978002D01*
X139474000Y-79053000D01*
X139472548Y-79328000D01*
X139478340Y-79386810D01*
X139495495Y-79443361D01*
X139523352Y-79495478D01*
X139560841Y-79541159D01*
X139606522Y-79578648D01*
X139658639Y-79606505D01*
X139715190Y-79623660D01*
X139774000Y-79629452D01*
X140074026Y-79628112D01*
X140069417Y-79628561D01*
X139824293Y-79702655D01*
X139598334Y-79823146D01*
X139596195Y-79824575D01*
X139488420Y-80004710D01*
X140323000Y-80839289D01*
X141157580Y-80004710D01*
X141049805Y-79824575D01*
X140824083Y-79703638D01*
X140579106Y-79629062D01*
X140578749Y-79629026D01*
X140674000Y-79629452D01*
X140732810Y-79623660D01*
X140789361Y-79606505D01*
X140841478Y-79578648D01*
X140887159Y-79541159D01*
X140924648Y-79495478D01*
X140952505Y-79443361D01*
X140969660Y-79386810D01*
X140975452Y-79328000D01*
X140974000Y-79053000D01*
X140899000Y-78978000D01*
X140274000Y-78978000D01*
X140274000Y-78998000D01*
X140174000Y-78998000D01*
X140174000Y-78978000D01*
X140154000Y-78978000D01*
X140154000Y-78878000D01*
X140174000Y-78878000D01*
X140174000Y-78303000D01*
X140274000Y-78303000D01*
X140274000Y-78878000D01*
X140899000Y-78878000D01*
X140974000Y-78803000D01*
X140975452Y-78528000D01*
X140969660Y-78469190D01*
X140952505Y-78412639D01*
X140924648Y-78360522D01*
X140887159Y-78314841D01*
X140841478Y-78277352D01*
X140789361Y-78249495D01*
X140732810Y-78232340D01*
X140674000Y-78226548D01*
X140349000Y-78228000D01*
X140274000Y-78303000D01*
X140174000Y-78303000D01*
X140099000Y-78228000D01*
X139774000Y-78226548D01*
X139715190Y-78232340D01*
X139658639Y-78249495D01*
X139608755Y-78276159D01*
X139558332Y-78154426D01*
X139481726Y-78039776D01*
X139384245Y-77942295D01*
X139396504Y-77919360D01*
X139413659Y-77862810D01*
X139419451Y-77804000D01*
X139419451Y-77004000D01*
X139413659Y-76945190D01*
X139396504Y-76888640D01*
X139368647Y-76836523D01*
X139331158Y-76790842D01*
X139285477Y-76753353D01*
X139233360Y-76725496D01*
X139176810Y-76708341D01*
X139118000Y-76702549D01*
X138267051Y-76702549D01*
X138257394Y-76654001D01*
X139472549Y-76654001D01*
X139472549Y-77428000D01*
X139478341Y-77486810D01*
X139495496Y-77543360D01*
X139523353Y-77595477D01*
X139560842Y-77641158D01*
X139606523Y-77678647D01*
X139658640Y-77706504D01*
X139715190Y-77723659D01*
X139774000Y-77729451D01*
X140674000Y-77729451D01*
X140732810Y-77723659D01*
X140789360Y-77706504D01*
X140841477Y-77678647D01*
X140887158Y-77641158D01*
X140924647Y-77595477D01*
X140952504Y-77543360D01*
X140969659Y-77486810D01*
X140972989Y-77453000D01*
X141500649Y-77453000D01*
X141495496Y-77462640D01*
X141478341Y-77519190D01*
X141472549Y-77578000D01*
X141472549Y-78378000D01*
X141478341Y-78436810D01*
X141495496Y-78493360D01*
X141523353Y-78545477D01*
X141560842Y-78591158D01*
X141606523Y-78628647D01*
X141658640Y-78656504D01*
X141715190Y-78673659D01*
X141774000Y-78679451D01*
X142324410Y-78679451D01*
X142670721Y-79025762D01*
X142684026Y-79041974D01*
X142748740Y-79095084D01*
X142796855Y-79120801D01*
X142822572Y-79134548D01*
X142902686Y-79158850D01*
X142965126Y-79165000D01*
X142965133Y-79165000D01*
X142986000Y-79167055D01*
X143006867Y-79165000D01*
X143711290Y-79165000D01*
X143760884Y-79284729D01*
X143886737Y-79473082D01*
X144046918Y-79633263D01*
X144235271Y-79759116D01*
X144444557Y-79845806D01*
X144666735Y-79890000D01*
X144893265Y-79890000D01*
X145115443Y-79845806D01*
X145324729Y-79759116D01*
X145513082Y-79633263D01*
X145625000Y-79521345D01*
X145625000Y-79989133D01*
X145622945Y-80010000D01*
X145625000Y-80030867D01*
X145625000Y-80030873D01*
X145631150Y-80093313D01*
X145655452Y-80173426D01*
X145694916Y-80247259D01*
X145748026Y-80311974D01*
X145764243Y-80325283D01*
X146168549Y-80729589D01*
X146168549Y-82130000D01*
X146174341Y-82188810D01*
X146191496Y-82245360D01*
X146219353Y-82297477D01*
X146256842Y-82343158D01*
X146302523Y-82380647D01*
X146354640Y-82408504D01*
X146411190Y-82425659D01*
X146470000Y-82431451D01*
X148170000Y-82431451D01*
X148228810Y-82425659D01*
X148285360Y-82408504D01*
X148337477Y-82380647D01*
X148383158Y-82343158D01*
X148420647Y-82297477D01*
X148448504Y-82245360D01*
X148465659Y-82188810D01*
X148471451Y-82130000D01*
X148471451Y-80492491D01*
X148803788Y-80824828D01*
X148754194Y-80944557D01*
X148710000Y-81166735D01*
X148710000Y-81393265D01*
X148754194Y-81615443D01*
X148840884Y-81824729D01*
X148966737Y-82013082D01*
X149126918Y-82173263D01*
X149315271Y-82299116D01*
X149524557Y-82385806D01*
X149746735Y-82430000D01*
X149973265Y-82430000D01*
X150195443Y-82385806D01*
X150404729Y-82299116D01*
X150593082Y-82173263D01*
X150753263Y-82013082D01*
X150879116Y-81824729D01*
X150965806Y-81615443D01*
X151010000Y-81393265D01*
X151010000Y-81166735D01*
X151250000Y-81166735D01*
X151250000Y-81393265D01*
X151294194Y-81615443D01*
X151380884Y-81824729D01*
X151506737Y-82013082D01*
X151666918Y-82173263D01*
X151855271Y-82299116D01*
X152064557Y-82385806D01*
X152286735Y-82430000D01*
X152513265Y-82430000D01*
X152735443Y-82385806D01*
X152944729Y-82299116D01*
X153133082Y-82173263D01*
X153293263Y-82013082D01*
X153419116Y-81824729D01*
X153505806Y-81615443D01*
X153550000Y-81393265D01*
X153550000Y-81166735D01*
X153790000Y-81166735D01*
X153790000Y-81393265D01*
X153834194Y-81615443D01*
X153920884Y-81824729D01*
X154046737Y-82013082D01*
X154206918Y-82173263D01*
X154395271Y-82299116D01*
X154604557Y-82385806D01*
X154826735Y-82430000D01*
X155053265Y-82430000D01*
X155275443Y-82385806D01*
X155484729Y-82299116D01*
X155673082Y-82173263D01*
X155833263Y-82013082D01*
X155959116Y-81824729D01*
X156045806Y-81615443D01*
X156090000Y-81393265D01*
X156090000Y-81166735D01*
X156330000Y-81166735D01*
X156330000Y-81393265D01*
X156374194Y-81615443D01*
X156460884Y-81824729D01*
X156586737Y-82013082D01*
X156746918Y-82173263D01*
X156935271Y-82299116D01*
X157144557Y-82385806D01*
X157366735Y-82430000D01*
X157593265Y-82430000D01*
X157815443Y-82385806D01*
X158024729Y-82299116D01*
X158213082Y-82173263D01*
X158373263Y-82013082D01*
X158499116Y-81824729D01*
X158585806Y-81615443D01*
X158630000Y-81393265D01*
X158630000Y-81166735D01*
X158585806Y-80944557D01*
X158499116Y-80735271D01*
X158373263Y-80546918D01*
X158213082Y-80386737D01*
X158024729Y-80260884D01*
X157815443Y-80174194D01*
X157593265Y-80130000D01*
X157366735Y-80130000D01*
X157144557Y-80174194D01*
X156935271Y-80260884D01*
X156746918Y-80386737D01*
X156586737Y-80546918D01*
X156460884Y-80735271D01*
X156374194Y-80944557D01*
X156330000Y-81166735D01*
X156090000Y-81166735D01*
X156045806Y-80944557D01*
X155959116Y-80735271D01*
X155833263Y-80546918D01*
X155673082Y-80386737D01*
X155484729Y-80260884D01*
X155275443Y-80174194D01*
X155053265Y-80130000D01*
X154826735Y-80130000D01*
X154604557Y-80174194D01*
X154395271Y-80260884D01*
X154206918Y-80386737D01*
X154046737Y-80546918D01*
X153920884Y-80735271D01*
X153834194Y-80944557D01*
X153790000Y-81166735D01*
X153550000Y-81166735D01*
X153505806Y-80944557D01*
X153419116Y-80735271D01*
X153293263Y-80546918D01*
X153133082Y-80386737D01*
X152944729Y-80260884D01*
X152735443Y-80174194D01*
X152513265Y-80130000D01*
X152286735Y-80130000D01*
X152064557Y-80174194D01*
X151855271Y-80260884D01*
X151666918Y-80386737D01*
X151506737Y-80546918D01*
X151380884Y-80735271D01*
X151294194Y-80944557D01*
X151250000Y-81166735D01*
X151010000Y-81166735D01*
X150965806Y-80944557D01*
X150879116Y-80735271D01*
X150753263Y-80546918D01*
X150593082Y-80386737D01*
X150404729Y-80260884D01*
X150195443Y-80174194D01*
X149973265Y-80130000D01*
X149746735Y-80130000D01*
X149524557Y-80174194D01*
X149404828Y-80223788D01*
X149157599Y-79976559D01*
X149157599Y-79653763D01*
X149315271Y-79759116D01*
X149524557Y-79845806D01*
X149746735Y-79890000D01*
X149973265Y-79890000D01*
X150195443Y-79845806D01*
X150404729Y-79759116D01*
X150593082Y-79633263D01*
X150753263Y-79473082D01*
X150879116Y-79284729D01*
X150965806Y-79075443D01*
X151010000Y-78853265D01*
X151010000Y-78626735D01*
X150965806Y-78404557D01*
X150879116Y-78195271D01*
X150753263Y-78006918D01*
X150636345Y-77890000D01*
X151248549Y-77890000D01*
X151248549Y-79590000D01*
X151254341Y-79648810D01*
X151271496Y-79705360D01*
X151299353Y-79757477D01*
X151336842Y-79803158D01*
X151382523Y-79840647D01*
X151434640Y-79868504D01*
X151491190Y-79885659D01*
X151550000Y-79891451D01*
X153250000Y-79891451D01*
X153308810Y-79885659D01*
X153365360Y-79868504D01*
X153417477Y-79840647D01*
X153463158Y-79803158D01*
X153500647Y-79757477D01*
X153528504Y-79705360D01*
X153545659Y-79648810D01*
X153551451Y-79590000D01*
X153551451Y-78626735D01*
X156330000Y-78626735D01*
X156330000Y-78853265D01*
X156374194Y-79075443D01*
X156460884Y-79284729D01*
X156586737Y-79473082D01*
X156746918Y-79633263D01*
X156935271Y-79759116D01*
X157144557Y-79845806D01*
X157366735Y-79890000D01*
X157593265Y-79890000D01*
X157815443Y-79845806D01*
X158024729Y-79759116D01*
X158213082Y-79633263D01*
X158373263Y-79473082D01*
X158499116Y-79284729D01*
X158585806Y-79075443D01*
X158630000Y-78853265D01*
X158630000Y-78626735D01*
X158585806Y-78404557D01*
X158499116Y-78195271D01*
X158373263Y-78006918D01*
X158213082Y-77846737D01*
X158024729Y-77720884D01*
X157815443Y-77634194D01*
X157593265Y-77590000D01*
X157366735Y-77590000D01*
X157144557Y-77634194D01*
X156935271Y-77720884D01*
X156746918Y-77846737D01*
X156586737Y-78006918D01*
X156460884Y-78195271D01*
X156374194Y-78404557D01*
X156330000Y-78626735D01*
X153551451Y-78626735D01*
X153551451Y-77890000D01*
X153545659Y-77831190D01*
X153528504Y-77774640D01*
X153500647Y-77722523D01*
X153463158Y-77676842D01*
X153417477Y-77639353D01*
X153365360Y-77611496D01*
X153308810Y-77594341D01*
X153250000Y-77588549D01*
X151550000Y-77588549D01*
X151491190Y-77594341D01*
X151434640Y-77611496D01*
X151382523Y-77639353D01*
X151336842Y-77676842D01*
X151299353Y-77722523D01*
X151271496Y-77774640D01*
X151254341Y-77831190D01*
X151248549Y-77890000D01*
X150636345Y-77890000D01*
X150593082Y-77846737D01*
X150404729Y-77720884D01*
X150195443Y-77634194D01*
X149973265Y-77590000D01*
X149746735Y-77590000D01*
X149524557Y-77634194D01*
X149315271Y-77720884D01*
X149126918Y-77846737D01*
X148966737Y-78006918D01*
X148922588Y-78072993D01*
X147778560Y-76928965D01*
X147788103Y-76931860D01*
X147794795Y-76932519D01*
X147850544Y-76938010D01*
X147850551Y-76938010D01*
X147871418Y-76940065D01*
X147892285Y-76938010D01*
X149161461Y-76938010D01*
X149182328Y-76940065D01*
X149203195Y-76938010D01*
X149203202Y-76938010D01*
X149265642Y-76931860D01*
X149345755Y-76907558D01*
X149419588Y-76868094D01*
X149484302Y-76814984D01*
X149497611Y-76798767D01*
X150746380Y-75549999D01*
X151063492Y-75549999D01*
X150961502Y-75702638D01*
X150882350Y-75893726D01*
X150842000Y-76096584D01*
X150842000Y-76303416D01*
X150882350Y-76506274D01*
X150961502Y-76697362D01*
X151076411Y-76869336D01*
X151222664Y-77015589D01*
X151394638Y-77130498D01*
X151585726Y-77209650D01*
X151788584Y-77250000D01*
X151995416Y-77250000D01*
X152198274Y-77209650D01*
X152389362Y-77130498D01*
X152561336Y-77015589D01*
X152707589Y-76869336D01*
X152822498Y-76697362D01*
X152901650Y-76506274D01*
X152942000Y-76303416D01*
X152942000Y-76096584D01*
X152901650Y-75893726D01*
X152822498Y-75702638D01*
X152720508Y-75549999D01*
X153677076Y-75549999D01*
X153616411Y-75610664D01*
X153501502Y-75782638D01*
X153422350Y-75973726D01*
X153382000Y-76176584D01*
X153382000Y-76383416D01*
X153422350Y-76586274D01*
X153501502Y-76777362D01*
X153616411Y-76949336D01*
X153762664Y-77095589D01*
X153934638Y-77210498D01*
X154125726Y-77289650D01*
X154328584Y-77330000D01*
X154535416Y-77330000D01*
X154738274Y-77289650D01*
X154929362Y-77210498D01*
X155101336Y-77095589D01*
X155247589Y-76949336D01*
X155362498Y-76777362D01*
X155441650Y-76586274D01*
X155482000Y-76383416D01*
X155482000Y-76176584D01*
X155441650Y-75973726D01*
X155362498Y-75782638D01*
X155247589Y-75610664D01*
X155186924Y-75549999D01*
X156228959Y-75549999D01*
X156423788Y-75744828D01*
X156374194Y-75864557D01*
X156330000Y-76086735D01*
X156330000Y-76313265D01*
X156374194Y-76535443D01*
X156460884Y-76744729D01*
X156586737Y-76933082D01*
X156746918Y-77093263D01*
X156935271Y-77219116D01*
X157144557Y-77305806D01*
X157366735Y-77350000D01*
X157593265Y-77350000D01*
X157815443Y-77305806D01*
X158024729Y-77219116D01*
X158213082Y-77093263D01*
X158373263Y-76933082D01*
X158499116Y-76744729D01*
X158585806Y-76535443D01*
X158630000Y-76313265D01*
X158630000Y-76086735D01*
X158585806Y-75864557D01*
X158499116Y-75655271D01*
X158373263Y-75466918D01*
X158213082Y-75306737D01*
X158024729Y-75180884D01*
X157815443Y-75094194D01*
X157593265Y-75050000D01*
X157366735Y-75050000D01*
X157144557Y-75094194D01*
X157024828Y-75143788D01*
X156720282Y-74839242D01*
X156706973Y-74823025D01*
X156642259Y-74769915D01*
X156568426Y-74730451D01*
X156488313Y-74706149D01*
X156425873Y-74699999D01*
X156425866Y-74699999D01*
X156404999Y-74697944D01*
X156384132Y-74699999D01*
X151942002Y-74699999D01*
X151942002Y-74633718D01*
X152105454Y-74688075D01*
X152285688Y-74633407D01*
X152468026Y-74537898D01*
X152628227Y-74408652D01*
X152760135Y-74250636D01*
X152858681Y-74069922D01*
X152915184Y-73889114D01*
X156353054Y-73889114D01*
X156415688Y-74095597D01*
X156521119Y-74294864D01*
X156663400Y-74469734D01*
X156837062Y-74613486D01*
X157035432Y-74720596D01*
X157250886Y-74786948D01*
X157430000Y-74733915D01*
X157430000Y-73710000D01*
X157530000Y-73710000D01*
X157530000Y-74733915D01*
X157709114Y-74786948D01*
X157924568Y-74720596D01*
X158122938Y-74613486D01*
X158296600Y-74469734D01*
X158438881Y-74294864D01*
X158544312Y-74095597D01*
X158606946Y-73889114D01*
X158553837Y-73710000D01*
X157530000Y-73710000D01*
X157430000Y-73710000D01*
X156406163Y-73710000D01*
X156353054Y-73889114D01*
X152915184Y-73889114D01*
X152920078Y-73873455D01*
X152865812Y-73710000D01*
X151942000Y-73710000D01*
X151942000Y-73730000D01*
X151842000Y-73730000D01*
X151842000Y-73710000D01*
X150918188Y-73710000D01*
X150863922Y-73873455D01*
X150925319Y-74069922D01*
X151023865Y-74250636D01*
X151155773Y-74408652D01*
X151315974Y-74537898D01*
X151498312Y-74633407D01*
X151678546Y-74688075D01*
X151841998Y-74633718D01*
X151841998Y-74699999D01*
X150591206Y-74699999D01*
X150570339Y-74697944D01*
X150549472Y-74699999D01*
X150549465Y-74699999D01*
X150494666Y-74705396D01*
X150487024Y-74706149D01*
X150462722Y-74713521D01*
X150406912Y-74730451D01*
X150333079Y-74769915D01*
X150268365Y-74823025D01*
X150255060Y-74839237D01*
X149645452Y-75448845D01*
X149645452Y-75188000D01*
X149643044Y-75163550D01*
X149643044Y-75138991D01*
X149637252Y-75080181D01*
X149618130Y-74984048D01*
X149600976Y-74927499D01*
X149563467Y-74836943D01*
X149535609Y-74784824D01*
X149481153Y-74703325D01*
X149443664Y-74657644D01*
X149374356Y-74588336D01*
X149328675Y-74550847D01*
X149269000Y-74510973D01*
X149269000Y-73361000D01*
X149337548Y-73361000D01*
X149343340Y-73419810D01*
X149360495Y-73476361D01*
X149388352Y-73528478D01*
X149425841Y-73574159D01*
X149471522Y-73611648D01*
X149523639Y-73639505D01*
X149580190Y-73656660D01*
X149639000Y-73662452D01*
X149989000Y-73661000D01*
X150064000Y-73586000D01*
X150064000Y-72961000D01*
X150164000Y-72961000D01*
X150164000Y-73586000D01*
X150239000Y-73661000D01*
X150589000Y-73662452D01*
X150647810Y-73656660D01*
X150704361Y-73639505D01*
X150756478Y-73611648D01*
X150802159Y-73574159D01*
X150839648Y-73528478D01*
X150867505Y-73476361D01*
X150870521Y-73466420D01*
X150918188Y-73610000D01*
X151842000Y-73610000D01*
X151842000Y-72686283D01*
X151942000Y-72686283D01*
X151942000Y-73610000D01*
X152865812Y-73610000D01*
X152920078Y-73446545D01*
X152915185Y-73430886D01*
X156353054Y-73430886D01*
X156406163Y-73610000D01*
X157430000Y-73610000D01*
X157430000Y-72586085D01*
X157530000Y-72586085D01*
X157530000Y-73610000D01*
X158553837Y-73610000D01*
X158606946Y-73430886D01*
X158544312Y-73224403D01*
X158438881Y-73025136D01*
X158296600Y-72850266D01*
X158122938Y-72706514D01*
X157924568Y-72599404D01*
X157709114Y-72533052D01*
X157530000Y-72586085D01*
X157430000Y-72586085D01*
X157250886Y-72533052D01*
X157035432Y-72599404D01*
X156837062Y-72706514D01*
X156663400Y-72850266D01*
X156521119Y-73025136D01*
X156415688Y-73224403D01*
X156353054Y-73430886D01*
X152915185Y-73430886D01*
X152858681Y-73250078D01*
X152760135Y-73069364D01*
X152628227Y-72911348D01*
X152468026Y-72782102D01*
X152285688Y-72686593D01*
X152105454Y-72631925D01*
X151942000Y-72686283D01*
X151842000Y-72686283D01*
X151678546Y-72631925D01*
X151498312Y-72686593D01*
X151315974Y-72782102D01*
X151155773Y-72911348D01*
X151023865Y-73069364D01*
X150925319Y-73250078D01*
X150890358Y-73361950D01*
X150890452Y-73361000D01*
X150889000Y-73036000D01*
X150814000Y-72961000D01*
X150164000Y-72961000D01*
X150064000Y-72961000D01*
X149414000Y-72961000D01*
X149339000Y-73036000D01*
X149337548Y-73361000D01*
X149269000Y-73361000D01*
X149269000Y-72461000D01*
X149337548Y-72461000D01*
X149339000Y-72786000D01*
X149414000Y-72861000D01*
X150064000Y-72861000D01*
X150064000Y-72236000D01*
X150164000Y-72236000D01*
X150164000Y-72861000D01*
X150814000Y-72861000D01*
X150889000Y-72786000D01*
X150890452Y-72461000D01*
X150884660Y-72402190D01*
X150867505Y-72345639D01*
X150839648Y-72293522D01*
X150802159Y-72247841D01*
X150756478Y-72210352D01*
X150704361Y-72182495D01*
X150647810Y-72165340D01*
X150589000Y-72159548D01*
X150239000Y-72161000D01*
X150164000Y-72236000D01*
X150064000Y-72236000D01*
X149989000Y-72161000D01*
X149639000Y-72159548D01*
X149580190Y-72165340D01*
X149523639Y-72182495D01*
X149471522Y-72210352D01*
X149425841Y-72247841D01*
X149388352Y-72293522D01*
X149360495Y-72345639D01*
X149343340Y-72402190D01*
X149337548Y-72461000D01*
X149269000Y-72461000D01*
X149269000Y-72312040D01*
X149563716Y-72017324D01*
X149571519Y-72023728D01*
X149662536Y-72072377D01*
X149761295Y-72102335D01*
X149864000Y-72112451D01*
X150364000Y-72112451D01*
X150466705Y-72102335D01*
X150565464Y-72072377D01*
X150656481Y-72023728D01*
X150736257Y-71958257D01*
X150801728Y-71878481D01*
X150840549Y-71805851D01*
X150840549Y-71870000D01*
X150846341Y-71928810D01*
X150863496Y-71985360D01*
X150891353Y-72037477D01*
X150928842Y-72083158D01*
X150974523Y-72120647D01*
X151026640Y-72148504D01*
X151083190Y-72165659D01*
X151142000Y-72171451D01*
X152642000Y-72171451D01*
X152700810Y-72165659D01*
X152757360Y-72148504D01*
X152809477Y-72120647D01*
X152855158Y-72083158D01*
X152892647Y-72037477D01*
X152920504Y-71985360D01*
X152937659Y-71928810D01*
X152943451Y-71870000D01*
X152943451Y-70936584D01*
X153382000Y-70936584D01*
X153382000Y-71143416D01*
X153422350Y-71346274D01*
X153501502Y-71537362D01*
X153616411Y-71709336D01*
X153762664Y-71855589D01*
X153934638Y-71970498D01*
X154125726Y-72049650D01*
X154328584Y-72090000D01*
X154535416Y-72090000D01*
X154738274Y-72049650D01*
X154929362Y-71970498D01*
X155101336Y-71855589D01*
X155247589Y-71709336D01*
X155362498Y-71537362D01*
X155441650Y-71346274D01*
X155482000Y-71143416D01*
X155482000Y-71006735D01*
X156330000Y-71006735D01*
X156330000Y-71233265D01*
X156374194Y-71455443D01*
X156460884Y-71664729D01*
X156586737Y-71853082D01*
X156746918Y-72013263D01*
X156935271Y-72139116D01*
X157144557Y-72225806D01*
X157366735Y-72270000D01*
X157593265Y-72270000D01*
X157815443Y-72225806D01*
X158024729Y-72139116D01*
X158213082Y-72013263D01*
X158373263Y-71853082D01*
X158499116Y-71664729D01*
X158585806Y-71455443D01*
X158630000Y-71233265D01*
X158630000Y-71006735D01*
X158585806Y-70784557D01*
X158499116Y-70575271D01*
X158373263Y-70386918D01*
X158213082Y-70226737D01*
X158024729Y-70100884D01*
X157815443Y-70014194D01*
X157593265Y-69970000D01*
X157366735Y-69970000D01*
X157144557Y-70014194D01*
X156935271Y-70100884D01*
X156746918Y-70226737D01*
X156586737Y-70386918D01*
X156460884Y-70575271D01*
X156374194Y-70784557D01*
X156330000Y-71006735D01*
X155482000Y-71006735D01*
X155482000Y-70936584D01*
X155441650Y-70733726D01*
X155362498Y-70542638D01*
X155247589Y-70370664D01*
X155101336Y-70224411D01*
X154929362Y-70109502D01*
X154738274Y-70030350D01*
X154535416Y-69990000D01*
X154328584Y-69990000D01*
X154125726Y-70030350D01*
X153934638Y-70109502D01*
X153762664Y-70224411D01*
X153616411Y-70370664D01*
X153501502Y-70542638D01*
X153422350Y-70733726D01*
X153382000Y-70936584D01*
X152943451Y-70936584D01*
X152943451Y-70370000D01*
X152937659Y-70311190D01*
X152920504Y-70254640D01*
X152892647Y-70202523D01*
X152855158Y-70156842D01*
X152809477Y-70119353D01*
X152757360Y-70091496D01*
X152700810Y-70074341D01*
X152642000Y-70068549D01*
X151142000Y-70068549D01*
X151083190Y-70074341D01*
X151026640Y-70091496D01*
X150974523Y-70119353D01*
X150928842Y-70156842D01*
X150891353Y-70202523D01*
X150863496Y-70254640D01*
X150846341Y-70311190D01*
X150840549Y-70370000D01*
X150840549Y-70916149D01*
X150801728Y-70843519D01*
X150736257Y-70763743D01*
X150656481Y-70698272D01*
X150565464Y-70649623D01*
X150466705Y-70619665D01*
X150364000Y-70609549D01*
X149864000Y-70609549D01*
X149761295Y-70619665D01*
X149662536Y-70649623D01*
X149571519Y-70698272D01*
X149491743Y-70763743D01*
X149426272Y-70843519D01*
X149394746Y-70902500D01*
X148432016Y-70902500D01*
X148387781Y-70819742D01*
X148323088Y-70740912D01*
X148244258Y-70676219D01*
X148154322Y-70628147D01*
X148056736Y-70598545D01*
X147955250Y-70588549D01*
X147192750Y-70588549D01*
X147091264Y-70598545D01*
X146993678Y-70628147D01*
X146903742Y-70676219D01*
X146824912Y-70740912D01*
X146760219Y-70819742D01*
X146712147Y-70909678D01*
X146682545Y-71007264D01*
X146672549Y-71108750D01*
X146672549Y-71546250D01*
X146682545Y-71647736D01*
X146712147Y-71745322D01*
X146760219Y-71835258D01*
X146824912Y-71914088D01*
X146903742Y-71978781D01*
X146993678Y-72026853D01*
X147091264Y-72056455D01*
X147192750Y-72066451D01*
X147955250Y-72066451D01*
X148056736Y-72056455D01*
X148154322Y-72026853D01*
X148244258Y-71978781D01*
X148323088Y-71914088D01*
X148387781Y-71835258D01*
X148432016Y-71752500D01*
X148626460Y-71752500D01*
X148558239Y-71820721D01*
X148542027Y-71834026D01*
X148528722Y-71850238D01*
X148528720Y-71850240D01*
X148516454Y-71865187D01*
X148488917Y-71898740D01*
X148472059Y-71930280D01*
X148449453Y-71972573D01*
X148425150Y-72052686D01*
X148416945Y-72136000D01*
X148419001Y-72156877D01*
X148419001Y-73003150D01*
X148387781Y-72944742D01*
X148323088Y-72865912D01*
X148244258Y-72801219D01*
X148154322Y-72753147D01*
X148056736Y-72723545D01*
X147955250Y-72713549D01*
X147192750Y-72713549D01*
X147091264Y-72723545D01*
X146993678Y-72753147D01*
X146903742Y-72801219D01*
X146824912Y-72865912D01*
X146760219Y-72944742D01*
X146715984Y-73027500D01*
X146475000Y-73027500D01*
X146475000Y-69870866D01*
X146477055Y-69849999D01*
X146475000Y-69829132D01*
X146475000Y-69829126D01*
X146468850Y-69766686D01*
X146444548Y-69686573D01*
X146405084Y-69612740D01*
X146351974Y-69548026D01*
X146335762Y-69534721D01*
X145931451Y-69130410D01*
X145931451Y-68466735D01*
X146170000Y-68466735D01*
X146170000Y-68693265D01*
X146214194Y-68915443D01*
X146300884Y-69124729D01*
X146426737Y-69313082D01*
X146586918Y-69473263D01*
X146775271Y-69599116D01*
X146984557Y-69685806D01*
X147206735Y-69730000D01*
X147433265Y-69730000D01*
X147655443Y-69685806D01*
X147864729Y-69599116D01*
X148053082Y-69473263D01*
X148213263Y-69313082D01*
X148339116Y-69124729D01*
X148425806Y-68915443D01*
X148446956Y-68809114D01*
X148733052Y-68809114D01*
X148799404Y-69024568D01*
X148906514Y-69222938D01*
X149050266Y-69396600D01*
X149225136Y-69538881D01*
X149424403Y-69644312D01*
X149630886Y-69706946D01*
X149810000Y-69653837D01*
X149810000Y-68630000D01*
X149910000Y-68630000D01*
X149910000Y-69653837D01*
X150089114Y-69706946D01*
X150295597Y-69644312D01*
X150494864Y-69538881D01*
X150669734Y-69396600D01*
X150813486Y-69222938D01*
X150920596Y-69024568D01*
X150986948Y-68809114D01*
X150933915Y-68630000D01*
X149910000Y-68630000D01*
X149810000Y-68630000D01*
X148786085Y-68630000D01*
X148733052Y-68809114D01*
X148446956Y-68809114D01*
X148470000Y-68693265D01*
X148470000Y-68466735D01*
X148446957Y-68350886D01*
X148733052Y-68350886D01*
X148786085Y-68530000D01*
X149810000Y-68530000D01*
X149810000Y-67506163D01*
X149910000Y-67506163D01*
X149910000Y-68530000D01*
X150933915Y-68530000D01*
X150986948Y-68350886D01*
X150920596Y-68135432D01*
X150813486Y-67937062D01*
X150669734Y-67763400D01*
X150628684Y-67730000D01*
X156328549Y-67730000D01*
X156328549Y-69430000D01*
X156334341Y-69488810D01*
X156351496Y-69545360D01*
X156379353Y-69597477D01*
X156416842Y-69643158D01*
X156462523Y-69680647D01*
X156514640Y-69708504D01*
X156571190Y-69725659D01*
X156630000Y-69731451D01*
X158330000Y-69731451D01*
X158388810Y-69725659D01*
X158445360Y-69708504D01*
X158497477Y-69680647D01*
X158543158Y-69643158D01*
X158580647Y-69597477D01*
X158608504Y-69545360D01*
X158625659Y-69488810D01*
X158631451Y-69430000D01*
X158631451Y-67730000D01*
X158625659Y-67671190D01*
X158608504Y-67614640D01*
X158580647Y-67562523D01*
X158543158Y-67516842D01*
X158497477Y-67479353D01*
X158445360Y-67451496D01*
X158388810Y-67434341D01*
X158330000Y-67428549D01*
X156630000Y-67428549D01*
X156571190Y-67434341D01*
X156514640Y-67451496D01*
X156462523Y-67479353D01*
X156416842Y-67516842D01*
X156379353Y-67562523D01*
X156351496Y-67614640D01*
X156334341Y-67671190D01*
X156328549Y-67730000D01*
X150628684Y-67730000D01*
X150494864Y-67621119D01*
X150295597Y-67515688D01*
X150089114Y-67453054D01*
X149910000Y-67506163D01*
X149810000Y-67506163D01*
X149630886Y-67453054D01*
X149424403Y-67515688D01*
X149225136Y-67621119D01*
X149050266Y-67763400D01*
X148906514Y-67937062D01*
X148799404Y-68135432D01*
X148733052Y-68350886D01*
X148446957Y-68350886D01*
X148425806Y-68244557D01*
X148339116Y-68035271D01*
X148213263Y-67846918D01*
X148053082Y-67686737D01*
X147864729Y-67560884D01*
X147655443Y-67474194D01*
X147433265Y-67430000D01*
X147206735Y-67430000D01*
X146984557Y-67474194D01*
X146775271Y-67560884D01*
X146586918Y-67686737D01*
X146426737Y-67846918D01*
X146300884Y-68035271D01*
X146214194Y-68244557D01*
X146170000Y-68466735D01*
X145931451Y-68466735D01*
X145931451Y-67730000D01*
X145925659Y-67671190D01*
X145908504Y-67614640D01*
X145880647Y-67562523D01*
X145843158Y-67516842D01*
X145797477Y-67479353D01*
X145745360Y-67451496D01*
X145688810Y-67434341D01*
X145630000Y-67428549D01*
X143930000Y-67428549D01*
X143871190Y-67434341D01*
X143814640Y-67451496D01*
X143762523Y-67479353D01*
X143716842Y-67516842D01*
X143679353Y-67562523D01*
X143651496Y-67614640D01*
X143634341Y-67671190D01*
X143628549Y-67730000D01*
X143628549Y-69430000D01*
X143634341Y-69488810D01*
X143651496Y-69545360D01*
X143679353Y-69597477D01*
X143716842Y-69643158D01*
X143762523Y-69680647D01*
X143814640Y-69708504D01*
X143871190Y-69725659D01*
X143930000Y-69731451D01*
X145330410Y-69731451D01*
X145625001Y-70026042D01*
X145625000Y-72508549D01*
X143930000Y-72508549D01*
X143871190Y-72514341D01*
X143814640Y-72531496D01*
X143762523Y-72559353D01*
X143716842Y-72596842D01*
X143679353Y-72642523D01*
X143651496Y-72694640D01*
X143634341Y-72751190D01*
X143628549Y-72810000D01*
X143628549Y-74210410D01*
X142825960Y-75013000D01*
X141488333Y-75013000D01*
X141499794Y-74999034D01*
X141536892Y-74929629D01*
X141559737Y-74854319D01*
X141567451Y-74776000D01*
X141567451Y-74576000D01*
X141559737Y-74497681D01*
X141536892Y-74422371D01*
X141499794Y-74352966D01*
X141461000Y-74305694D01*
X141461000Y-69198040D01*
X144194041Y-66465000D01*
X146251290Y-66465000D01*
X146300884Y-66584729D01*
X146426737Y-66773082D01*
X146586918Y-66933263D01*
X146775271Y-67059116D01*
X146984557Y-67145806D01*
X147206735Y-67190000D01*
X147433265Y-67190000D01*
X147655443Y-67145806D01*
X147864729Y-67059116D01*
X148053082Y-66933263D01*
X148213263Y-66773082D01*
X148339116Y-66584729D01*
X148425806Y-66375443D01*
X148470000Y-66153265D01*
X148470000Y-65926735D01*
X148710000Y-65926735D01*
X148710000Y-66153265D01*
X148754194Y-66375443D01*
X148840884Y-66584729D01*
X148966737Y-66773082D01*
X149126918Y-66933263D01*
X149315271Y-67059116D01*
X149524557Y-67145806D01*
X149746735Y-67190000D01*
X149973265Y-67190000D01*
X150195443Y-67145806D01*
X150404729Y-67059116D01*
X150593082Y-66933263D01*
X150753263Y-66773082D01*
X150879116Y-66584729D01*
X150965806Y-66375443D01*
X151010000Y-66153265D01*
X151010000Y-65926735D01*
X151250000Y-65926735D01*
X151250000Y-66153265D01*
X151294194Y-66375443D01*
X151380884Y-66584729D01*
X151506737Y-66773082D01*
X151666918Y-66933263D01*
X151855271Y-67059116D01*
X152064557Y-67145806D01*
X152286735Y-67190000D01*
X152513265Y-67190000D01*
X152735443Y-67145806D01*
X152944729Y-67059116D01*
X153133082Y-66933263D01*
X153293263Y-66773082D01*
X153419116Y-66584729D01*
X153505806Y-66375443D01*
X153550000Y-66153265D01*
X153550000Y-65926735D01*
X153790000Y-65926735D01*
X153790000Y-66153265D01*
X153834194Y-66375443D01*
X153920884Y-66584729D01*
X154046737Y-66773082D01*
X154206918Y-66933263D01*
X154395271Y-67059116D01*
X154604557Y-67145806D01*
X154826735Y-67190000D01*
X155053265Y-67190000D01*
X155275443Y-67145806D01*
X155484729Y-67059116D01*
X155673082Y-66933263D01*
X155833263Y-66773082D01*
X155959116Y-66584729D01*
X156045806Y-66375443D01*
X156090000Y-66153265D01*
X156090000Y-65926735D01*
X156045806Y-65704557D01*
X155959116Y-65495271D01*
X155833263Y-65306918D01*
X155673082Y-65146737D01*
X155484729Y-65020884D01*
X155275443Y-64934194D01*
X155053265Y-64890000D01*
X154826735Y-64890000D01*
X154604557Y-64934194D01*
X154395271Y-65020884D01*
X154206918Y-65146737D01*
X154046737Y-65306918D01*
X153920884Y-65495271D01*
X153834194Y-65704557D01*
X153790000Y-65926735D01*
X153550000Y-65926735D01*
X153505806Y-65704557D01*
X153419116Y-65495271D01*
X153293263Y-65306918D01*
X153133082Y-65146737D01*
X152944729Y-65020884D01*
X152735443Y-64934194D01*
X152513265Y-64890000D01*
X152286735Y-64890000D01*
X152064557Y-64934194D01*
X151855271Y-65020884D01*
X151666918Y-65146737D01*
X151506737Y-65306918D01*
X151380884Y-65495271D01*
X151294194Y-65704557D01*
X151250000Y-65926735D01*
X151010000Y-65926735D01*
X150965806Y-65704557D01*
X150879116Y-65495271D01*
X150753263Y-65306918D01*
X150593082Y-65146737D01*
X150404729Y-65020884D01*
X150195443Y-64934194D01*
X149973265Y-64890000D01*
X149746735Y-64890000D01*
X149524557Y-64934194D01*
X149315271Y-65020884D01*
X149126918Y-65146737D01*
X148966737Y-65306918D01*
X148840884Y-65495271D01*
X148754194Y-65704557D01*
X148710000Y-65926735D01*
X148470000Y-65926735D01*
X148425806Y-65704557D01*
X148339116Y-65495271D01*
X148213263Y-65306918D01*
X148053082Y-65146737D01*
X147864729Y-65020884D01*
X147655443Y-64934194D01*
X147433265Y-64890000D01*
X147206735Y-64890000D01*
X146984557Y-64934194D01*
X146775271Y-65020884D01*
X146586918Y-65146737D01*
X146426737Y-65306918D01*
X146300884Y-65495271D01*
X146251290Y-65615000D01*
X144038867Y-65615000D01*
X144018000Y-65612945D01*
X143997133Y-65615000D01*
X143997126Y-65615000D01*
X143942327Y-65620397D01*
X143934685Y-65621150D01*
X143854572Y-65645452D01*
X143828855Y-65659199D01*
X143780740Y-65684916D01*
X143716026Y-65738026D01*
X143702721Y-65754238D01*
X140750239Y-68706721D01*
X140734027Y-68720026D01*
X140680917Y-68784740D01*
X140641453Y-68858573D01*
X140617150Y-68938686D01*
X140608945Y-69022000D01*
X140611001Y-69042877D01*
X140611000Y-74147126D01*
X140611000Y-74184290D01*
X140604319Y-74182263D01*
X140526000Y-74174549D01*
X140266000Y-74174549D01*
X140187681Y-74182263D01*
X140112371Y-74205108D01*
X140042966Y-74242206D01*
X139982131Y-74292131D01*
X139932206Y-74352966D01*
X139895108Y-74422371D01*
X139872263Y-74497681D01*
X139864549Y-74576000D01*
X139864549Y-74776000D01*
X139872263Y-74854319D01*
X139895108Y-74929629D01*
X139932206Y-74999034D01*
X139943667Y-75013000D01*
X139403894Y-75013000D01*
X139396504Y-74988640D01*
X139368647Y-74936523D01*
X139331158Y-74890842D01*
X139285477Y-74853353D01*
X139233360Y-74825496D01*
X139176810Y-74808341D01*
X139118000Y-74802549D01*
X138218000Y-74802549D01*
X138159190Y-74808341D01*
X138102640Y-74825496D01*
X138093000Y-74830649D01*
X138093000Y-74621353D01*
X138102639Y-74626505D01*
X138159190Y-74643660D01*
X138218000Y-74649452D01*
X138493000Y-74648000D01*
X138568000Y-74573000D01*
X138568000Y-73948000D01*
X138668000Y-73948000D01*
X138668000Y-74573000D01*
X138743000Y-74648000D01*
X139018000Y-74649452D01*
X139076810Y-74643660D01*
X139133361Y-74626505D01*
X139185478Y-74598648D01*
X139231159Y-74561159D01*
X139268648Y-74515478D01*
X139296505Y-74463361D01*
X139313660Y-74406810D01*
X139319452Y-74348000D01*
X139318000Y-74023000D01*
X139243000Y-73948000D01*
X138668000Y-73948000D01*
X138568000Y-73948000D01*
X138548000Y-73948000D01*
X138548000Y-73848000D01*
X138568000Y-73848000D01*
X138568000Y-73223000D01*
X138668000Y-73223000D01*
X138668000Y-73848000D01*
X139243000Y-73848000D01*
X139318000Y-73773000D01*
X139319452Y-73448000D01*
X139313660Y-73389190D01*
X139296505Y-73332639D01*
X139268648Y-73280522D01*
X139231159Y-73234841D01*
X139185478Y-73197352D01*
X139133361Y-73169495D01*
X139076810Y-73152340D01*
X139018000Y-73146548D01*
X138743000Y-73148000D01*
X138668000Y-73223000D01*
X138568000Y-73223000D01*
X138493000Y-73148000D01*
X138218000Y-73146548D01*
X138159190Y-73152340D01*
X138102639Y-73169495D01*
X138093000Y-73174647D01*
X138093000Y-72646989D01*
X138126810Y-72643659D01*
X138183360Y-72626504D01*
X138235477Y-72598647D01*
X138281158Y-72561158D01*
X138318647Y-72515477D01*
X138346504Y-72463360D01*
X138363659Y-72406810D01*
X138369451Y-72348000D01*
X138369451Y-71448000D01*
X138363659Y-71389190D01*
X138346504Y-71332640D01*
X138318647Y-71280523D01*
X138281158Y-71234842D01*
X138235477Y-71197353D01*
X138183360Y-71169496D01*
X138126810Y-71152341D01*
X138068000Y-71146549D01*
X137268000Y-71146549D01*
X137209190Y-71152341D01*
X137152640Y-71169496D01*
X137100523Y-71197353D01*
X137054842Y-71234842D01*
X137017353Y-71280523D01*
X136989496Y-71332640D01*
X136972341Y-71389190D01*
X136966549Y-71448000D01*
X136966549Y-72348000D01*
X136972341Y-72406810D01*
X136989496Y-72463360D01*
X137017353Y-72515477D01*
X137054842Y-72561158D01*
X137100523Y-72598647D01*
X137152640Y-72626504D01*
X137209190Y-72643659D01*
X137243001Y-72646989D01*
X137243001Y-73174649D01*
X137233360Y-73169496D01*
X137176810Y-73152341D01*
X137118000Y-73146549D01*
X136318000Y-73146549D01*
X136259190Y-73152341D01*
X136202640Y-73169496D01*
X136150523Y-73197353D01*
X136104842Y-73234842D01*
X136067353Y-73280523D01*
X136039496Y-73332640D01*
X136022341Y-73389190D01*
X136016549Y-73448000D01*
X136016549Y-74348000D01*
X136022341Y-74406810D01*
X136039496Y-74463360D01*
X136067353Y-74515477D01*
X136104842Y-74561158D01*
X136150523Y-74598647D01*
X136202640Y-74626504D01*
X136259190Y-74643659D01*
X136293001Y-74646989D01*
X136293001Y-74687958D01*
X135604243Y-75376717D01*
X135588026Y-75390026D01*
X135534916Y-75454741D01*
X135495452Y-75528574D01*
X135490635Y-75544455D01*
X135473353Y-75601426D01*
X135471150Y-75608687D01*
X135465000Y-75671127D01*
X135465000Y-75671133D01*
X135462945Y-75692000D01*
X134437000Y-75692000D01*
X134437000Y-67315290D01*
X139488420Y-67315290D01*
X139596195Y-67495425D01*
X139821917Y-67616362D01*
X140066894Y-67690938D01*
X140321714Y-67716289D01*
X140576583Y-67691439D01*
X140821707Y-67617345D01*
X141047666Y-67496854D01*
X141049805Y-67495425D01*
X141157580Y-67315290D01*
X140323000Y-66480711D01*
X139488420Y-67315290D01*
X134437000Y-67315290D01*
X134437000Y-66715290D01*
X134588420Y-66715290D01*
X134696195Y-66895425D01*
X134921917Y-67016362D01*
X135166894Y-67090938D01*
X135421714Y-67116289D01*
X135676583Y-67091439D01*
X135921707Y-67017345D01*
X136147666Y-66896854D01*
X136149805Y-66895425D01*
X136257580Y-66715290D01*
X135423000Y-65880711D01*
X134588420Y-66715290D01*
X134437000Y-66715290D01*
X134437000Y-66596291D01*
X134517710Y-66644580D01*
X135352289Y-65810000D01*
X135493711Y-65810000D01*
X136328290Y-66644580D01*
X136508425Y-66536805D01*
X136577053Y-66408714D01*
X139016711Y-66408714D01*
X139041561Y-66663583D01*
X139115655Y-66908707D01*
X139236146Y-67134666D01*
X139237575Y-67136805D01*
X139417710Y-67244580D01*
X140252289Y-66410000D01*
X140393711Y-66410000D01*
X141228290Y-67244580D01*
X141408425Y-67136805D01*
X141529362Y-66911083D01*
X141603938Y-66666106D01*
X141629289Y-66411286D01*
X141604439Y-66156417D01*
X141530345Y-65911293D01*
X141409854Y-65685334D01*
X141408425Y-65683195D01*
X141228290Y-65575420D01*
X140393711Y-66410000D01*
X140252289Y-66410000D01*
X139417710Y-65575420D01*
X139237575Y-65683195D01*
X139116638Y-65908917D01*
X139042062Y-66153894D01*
X139016711Y-66408714D01*
X136577053Y-66408714D01*
X136629362Y-66311083D01*
X136703938Y-66066106D01*
X136729289Y-65811286D01*
X136704439Y-65556417D01*
X136688810Y-65504710D01*
X139488420Y-65504710D01*
X140323000Y-66339289D01*
X141157580Y-65504710D01*
X141049805Y-65324575D01*
X140824083Y-65203638D01*
X140579106Y-65129062D01*
X140324286Y-65103711D01*
X140069417Y-65128561D01*
X139824293Y-65202655D01*
X139598334Y-65323146D01*
X139596195Y-65324575D01*
X139488420Y-65504710D01*
X136688810Y-65504710D01*
X136630345Y-65311293D01*
X136509854Y-65085334D01*
X136508425Y-65083195D01*
X136328290Y-64975420D01*
X135493711Y-65810000D01*
X135352289Y-65810000D01*
X135338147Y-65795858D01*
X135408858Y-65725147D01*
X135423000Y-65739289D01*
X136257580Y-64904710D01*
X136219462Y-64841000D01*
X157718104Y-64841000D01*
X157917247Y-64860526D01*
%TA.AperFunction,Conductor*%
D23*
G36*
X157917247Y-64860526D02*
G01*
X158010063Y-64888549D01*
X156630000Y-64888549D01*
X156571190Y-64894341D01*
X156514640Y-64911496D01*
X156462523Y-64939353D01*
X156416842Y-64976842D01*
X156379353Y-65022523D01*
X156351496Y-65074640D01*
X156334341Y-65131190D01*
X156328549Y-65190000D01*
X156328549Y-66890000D01*
X156334341Y-66948810D01*
X156351496Y-67005360D01*
X156379353Y-67057477D01*
X156416842Y-67103158D01*
X156462523Y-67140647D01*
X156514640Y-67168504D01*
X156571190Y-67185659D01*
X156630000Y-67191451D01*
X158330000Y-67191451D01*
X158388810Y-67185659D01*
X158445360Y-67168504D01*
X158497477Y-67140647D01*
X158543158Y-67103158D01*
X158580647Y-67057477D01*
X158608504Y-67005360D01*
X158625659Y-66948810D01*
X158631451Y-66890000D01*
X158631451Y-65509972D01*
X158658172Y-65596292D01*
X158679001Y-65794474D01*
X158679000Y-81518103D01*
X158659474Y-81717247D01*
X158606253Y-81893521D01*
X158519812Y-82056093D01*
X158403436Y-82198784D01*
X158261569Y-82316147D01*
X158099598Y-82403724D01*
X157923708Y-82458172D01*
X157725536Y-82479000D01*
X136219462Y-82479000D01*
X136257580Y-82415290D01*
X135423000Y-81580711D01*
X135408858Y-81594853D01*
X135338147Y-81524142D01*
X135352289Y-81510000D01*
X135493711Y-81510000D01*
X136328290Y-82344580D01*
X136508425Y-82236805D01*
X136629362Y-82011083D01*
X136688965Y-81815290D01*
X139488420Y-81815290D01*
X139596195Y-81995425D01*
X139821917Y-82116362D01*
X140066894Y-82190938D01*
X140321714Y-82216289D01*
X140576583Y-82191439D01*
X140821707Y-82117345D01*
X141047666Y-81996854D01*
X141049805Y-81995425D01*
X141157580Y-81815290D01*
X140323000Y-80980711D01*
X139488420Y-81815290D01*
X136688965Y-81815290D01*
X136703938Y-81766106D01*
X136729289Y-81511286D01*
X136704439Y-81256417D01*
X136630345Y-81011293D01*
X136575646Y-80908714D01*
X139016711Y-80908714D01*
X139041561Y-81163583D01*
X139115655Y-81408707D01*
X139236146Y-81634666D01*
X139237575Y-81636805D01*
X139417710Y-81744580D01*
X140252289Y-80910000D01*
X140393711Y-80910000D01*
X141228290Y-81744580D01*
X141408425Y-81636805D01*
X141476839Y-81509114D01*
X143653054Y-81509114D01*
X143715688Y-81715597D01*
X143821119Y-81914864D01*
X143963400Y-82089734D01*
X144137062Y-82233486D01*
X144335432Y-82340596D01*
X144550886Y-82406948D01*
X144730000Y-82353915D01*
X144730000Y-81330000D01*
X144830000Y-81330000D01*
X144830000Y-82353915D01*
X145009114Y-82406948D01*
X145224568Y-82340596D01*
X145422938Y-82233486D01*
X145596600Y-82089734D01*
X145738881Y-81914864D01*
X145844312Y-81715597D01*
X145906946Y-81509114D01*
X145853837Y-81330000D01*
X144830000Y-81330000D01*
X144730000Y-81330000D01*
X143706163Y-81330000D01*
X143653054Y-81509114D01*
X141476839Y-81509114D01*
X141529362Y-81411083D01*
X141603938Y-81166106D01*
X141615400Y-81050886D01*
X143653054Y-81050886D01*
X143706163Y-81230000D01*
X144730000Y-81230000D01*
X144730000Y-80206085D01*
X144830000Y-80206085D01*
X144830000Y-81230000D01*
X145853837Y-81230000D01*
X145906946Y-81050886D01*
X145844312Y-80844403D01*
X145738881Y-80645136D01*
X145596600Y-80470266D01*
X145422938Y-80326514D01*
X145224568Y-80219404D01*
X145009114Y-80153052D01*
X144830000Y-80206085D01*
X144730000Y-80206085D01*
X144550886Y-80153052D01*
X144335432Y-80219404D01*
X144137062Y-80326514D01*
X143963400Y-80470266D01*
X143821119Y-80645136D01*
X143715688Y-80844403D01*
X143653054Y-81050886D01*
X141615400Y-81050886D01*
X141629289Y-80911286D01*
X141604439Y-80656417D01*
X141530345Y-80411293D01*
X141409854Y-80185334D01*
X141408425Y-80183195D01*
X141228290Y-80075420D01*
X140393711Y-80910000D01*
X140252289Y-80910000D01*
X139417710Y-80075420D01*
X139237575Y-80183195D01*
X139116638Y-80408917D01*
X139042062Y-80653894D01*
X139016711Y-80908714D01*
X136575646Y-80908714D01*
X136509854Y-80785334D01*
X136508425Y-80783195D01*
X136328290Y-80675420D01*
X135493711Y-81510000D01*
X135352289Y-81510000D01*
X134517710Y-80675420D01*
X134437000Y-80723709D01*
X134437000Y-80604710D01*
X134588420Y-80604710D01*
X135423000Y-81439289D01*
X136257580Y-80604710D01*
X136149805Y-80424575D01*
X135924083Y-80303638D01*
X135679106Y-80229062D01*
X135424286Y-80203711D01*
X135169417Y-80228561D01*
X134924293Y-80302655D01*
X134698334Y-80423146D01*
X134696195Y-80424575D01*
X134588420Y-80604710D01*
X134437000Y-80604710D01*
X134437000Y-75692000D01*
X135462945Y-75692000D01*
X135465000Y-75712867D01*
X135465001Y-77090126D01*
X135462945Y-77111002D01*
X135471150Y-77194316D01*
X135489605Y-77255150D01*
X135495453Y-77274429D01*
X135534917Y-77348262D01*
X135588027Y-77412976D01*
X135604239Y-77426281D01*
X136037926Y-77859969D01*
X136051231Y-77876181D01*
X136115945Y-77929291D01*
X136164060Y-77955008D01*
X136189777Y-77968755D01*
X136269890Y-77993057D01*
X136277532Y-77993810D01*
X136332331Y-77999207D01*
X136332338Y-77999207D01*
X136353205Y-78001262D01*
X136374072Y-77999207D01*
X137990110Y-77999207D01*
X138004842Y-78017158D01*
X138050523Y-78054647D01*
X138102640Y-78082504D01*
X138159190Y-78099659D01*
X138218000Y-78105451D01*
X138350392Y-78105451D01*
X138317668Y-78154426D01*
X138264901Y-78281818D01*
X138238000Y-78417056D01*
X138238000Y-78554944D01*
X138264901Y-78690182D01*
X138317668Y-78817574D01*
X138394274Y-78932224D01*
X138491776Y-79029726D01*
X138606426Y-79106332D01*
X138733818Y-79159099D01*
X138869056Y-79186000D01*
X139006944Y-79186000D01*
X139142182Y-79159099D01*
X139269574Y-79106332D01*
X139384224Y-79029726D01*
X139474000Y-78939950D01*
X139474000Y-78978002D01*
X139548998Y-78978002D01*
X139474000Y-79053000D01*
X139472548Y-79328000D01*
X139478340Y-79386810D01*
X139495495Y-79443361D01*
X139523352Y-79495478D01*
X139560841Y-79541159D01*
X139606522Y-79578648D01*
X139658639Y-79606505D01*
X139715190Y-79623660D01*
X139774000Y-79629452D01*
X140074026Y-79628112D01*
X140069417Y-79628561D01*
X139824293Y-79702655D01*
X139598334Y-79823146D01*
X139596195Y-79824575D01*
X139488420Y-80004710D01*
X140323000Y-80839289D01*
X141157580Y-80004710D01*
X141049805Y-79824575D01*
X140824083Y-79703638D01*
X140579106Y-79629062D01*
X140578749Y-79629026D01*
X140674000Y-79629452D01*
X140732810Y-79623660D01*
X140789361Y-79606505D01*
X140841478Y-79578648D01*
X140887159Y-79541159D01*
X140924648Y-79495478D01*
X140952505Y-79443361D01*
X140969660Y-79386810D01*
X140975452Y-79328000D01*
X140974000Y-79053000D01*
X140899000Y-78978000D01*
X140274000Y-78978000D01*
X140274000Y-78998000D01*
X140174000Y-78998000D01*
X140174000Y-78978000D01*
X140154000Y-78978000D01*
X140154000Y-78878000D01*
X140174000Y-78878000D01*
X140174000Y-78303000D01*
X140274000Y-78303000D01*
X140274000Y-78878000D01*
X140899000Y-78878000D01*
X140974000Y-78803000D01*
X140975452Y-78528000D01*
X140969660Y-78469190D01*
X140952505Y-78412639D01*
X140924648Y-78360522D01*
X140887159Y-78314841D01*
X140841478Y-78277352D01*
X140789361Y-78249495D01*
X140732810Y-78232340D01*
X140674000Y-78226548D01*
X140349000Y-78228000D01*
X140274000Y-78303000D01*
X140174000Y-78303000D01*
X140099000Y-78228000D01*
X139774000Y-78226548D01*
X139715190Y-78232340D01*
X139658639Y-78249495D01*
X139608755Y-78276159D01*
X139558332Y-78154426D01*
X139481726Y-78039776D01*
X139384245Y-77942295D01*
X139396504Y-77919360D01*
X139413659Y-77862810D01*
X139419451Y-77804000D01*
X139419451Y-77004000D01*
X139413659Y-76945190D01*
X139396504Y-76888640D01*
X139368647Y-76836523D01*
X139331158Y-76790842D01*
X139285477Y-76753353D01*
X139233360Y-76725496D01*
X139176810Y-76708341D01*
X139118000Y-76702549D01*
X138267051Y-76702549D01*
X138257394Y-76654001D01*
X139472549Y-76654001D01*
X139472549Y-77428000D01*
X139478341Y-77486810D01*
X139495496Y-77543360D01*
X139523353Y-77595477D01*
X139560842Y-77641158D01*
X139606523Y-77678647D01*
X139658640Y-77706504D01*
X139715190Y-77723659D01*
X139774000Y-77729451D01*
X140674000Y-77729451D01*
X140732810Y-77723659D01*
X140789360Y-77706504D01*
X140841477Y-77678647D01*
X140887158Y-77641158D01*
X140924647Y-77595477D01*
X140952504Y-77543360D01*
X140969659Y-77486810D01*
X140972989Y-77453000D01*
X141500649Y-77453000D01*
X141495496Y-77462640D01*
X141478341Y-77519190D01*
X141472549Y-77578000D01*
X141472549Y-78378000D01*
X141478341Y-78436810D01*
X141495496Y-78493360D01*
X141523353Y-78545477D01*
X141560842Y-78591158D01*
X141606523Y-78628647D01*
X141658640Y-78656504D01*
X141715190Y-78673659D01*
X141774000Y-78679451D01*
X142324410Y-78679451D01*
X142670721Y-79025762D01*
X142684026Y-79041974D01*
X142748740Y-79095084D01*
X142796855Y-79120801D01*
X142822572Y-79134548D01*
X142902686Y-79158850D01*
X142965126Y-79165000D01*
X142965133Y-79165000D01*
X142986000Y-79167055D01*
X143006867Y-79165000D01*
X143711290Y-79165000D01*
X143760884Y-79284729D01*
X143886737Y-79473082D01*
X144046918Y-79633263D01*
X144235271Y-79759116D01*
X144444557Y-79845806D01*
X144666735Y-79890000D01*
X144893265Y-79890000D01*
X145115443Y-79845806D01*
X145324729Y-79759116D01*
X145513082Y-79633263D01*
X145625000Y-79521345D01*
X145625000Y-79989133D01*
X145622945Y-80010000D01*
X145625000Y-80030867D01*
X145625000Y-80030873D01*
X145631150Y-80093313D01*
X145655452Y-80173426D01*
X145694916Y-80247259D01*
X145748026Y-80311974D01*
X145764243Y-80325283D01*
X146168549Y-80729589D01*
X146168549Y-82130000D01*
X146174341Y-82188810D01*
X146191496Y-82245360D01*
X146219353Y-82297477D01*
X146256842Y-82343158D01*
X146302523Y-82380647D01*
X146354640Y-82408504D01*
X146411190Y-82425659D01*
X146470000Y-82431451D01*
X148170000Y-82431451D01*
X148228810Y-82425659D01*
X148285360Y-82408504D01*
X148337477Y-82380647D01*
X148383158Y-82343158D01*
X148420647Y-82297477D01*
X148448504Y-82245360D01*
X148465659Y-82188810D01*
X148471451Y-82130000D01*
X148471451Y-80492491D01*
X148803788Y-80824828D01*
X148754194Y-80944557D01*
X148710000Y-81166735D01*
X148710000Y-81393265D01*
X148754194Y-81615443D01*
X148840884Y-81824729D01*
X148966737Y-82013082D01*
X149126918Y-82173263D01*
X149315271Y-82299116D01*
X149524557Y-82385806D01*
X149746735Y-82430000D01*
X149973265Y-82430000D01*
X150195443Y-82385806D01*
X150404729Y-82299116D01*
X150593082Y-82173263D01*
X150753263Y-82013082D01*
X150879116Y-81824729D01*
X150965806Y-81615443D01*
X151010000Y-81393265D01*
X151010000Y-81166735D01*
X151250000Y-81166735D01*
X151250000Y-81393265D01*
X151294194Y-81615443D01*
X151380884Y-81824729D01*
X151506737Y-82013082D01*
X151666918Y-82173263D01*
X151855271Y-82299116D01*
X152064557Y-82385806D01*
X152286735Y-82430000D01*
X152513265Y-82430000D01*
X152735443Y-82385806D01*
X152944729Y-82299116D01*
X153133082Y-82173263D01*
X153293263Y-82013082D01*
X153419116Y-81824729D01*
X153505806Y-81615443D01*
X153550000Y-81393265D01*
X153550000Y-81166735D01*
X153790000Y-81166735D01*
X153790000Y-81393265D01*
X153834194Y-81615443D01*
X153920884Y-81824729D01*
X154046737Y-82013082D01*
X154206918Y-82173263D01*
X154395271Y-82299116D01*
X154604557Y-82385806D01*
X154826735Y-82430000D01*
X155053265Y-82430000D01*
X155275443Y-82385806D01*
X155484729Y-82299116D01*
X155673082Y-82173263D01*
X155833263Y-82013082D01*
X155959116Y-81824729D01*
X156045806Y-81615443D01*
X156090000Y-81393265D01*
X156090000Y-81166735D01*
X156330000Y-81166735D01*
X156330000Y-81393265D01*
X156374194Y-81615443D01*
X156460884Y-81824729D01*
X156586737Y-82013082D01*
X156746918Y-82173263D01*
X156935271Y-82299116D01*
X157144557Y-82385806D01*
X157366735Y-82430000D01*
X157593265Y-82430000D01*
X157815443Y-82385806D01*
X158024729Y-82299116D01*
X158213082Y-82173263D01*
X158373263Y-82013082D01*
X158499116Y-81824729D01*
X158585806Y-81615443D01*
X158630000Y-81393265D01*
X158630000Y-81166735D01*
X158585806Y-80944557D01*
X158499116Y-80735271D01*
X158373263Y-80546918D01*
X158213082Y-80386737D01*
X158024729Y-80260884D01*
X157815443Y-80174194D01*
X157593265Y-80130000D01*
X157366735Y-80130000D01*
X157144557Y-80174194D01*
X156935271Y-80260884D01*
X156746918Y-80386737D01*
X156586737Y-80546918D01*
X156460884Y-80735271D01*
X156374194Y-80944557D01*
X156330000Y-81166735D01*
X156090000Y-81166735D01*
X156045806Y-80944557D01*
X155959116Y-80735271D01*
X155833263Y-80546918D01*
X155673082Y-80386737D01*
X155484729Y-80260884D01*
X155275443Y-80174194D01*
X155053265Y-80130000D01*
X154826735Y-80130000D01*
X154604557Y-80174194D01*
X154395271Y-80260884D01*
X154206918Y-80386737D01*
X154046737Y-80546918D01*
X153920884Y-80735271D01*
X153834194Y-80944557D01*
X153790000Y-81166735D01*
X153550000Y-81166735D01*
X153505806Y-80944557D01*
X153419116Y-80735271D01*
X153293263Y-80546918D01*
X153133082Y-80386737D01*
X152944729Y-80260884D01*
X152735443Y-80174194D01*
X152513265Y-80130000D01*
X152286735Y-80130000D01*
X152064557Y-80174194D01*
X151855271Y-80260884D01*
X151666918Y-80386737D01*
X151506737Y-80546918D01*
X151380884Y-80735271D01*
X151294194Y-80944557D01*
X151250000Y-81166735D01*
X151010000Y-81166735D01*
X150965806Y-80944557D01*
X150879116Y-80735271D01*
X150753263Y-80546918D01*
X150593082Y-80386737D01*
X150404729Y-80260884D01*
X150195443Y-80174194D01*
X149973265Y-80130000D01*
X149746735Y-80130000D01*
X149524557Y-80174194D01*
X149404828Y-80223788D01*
X149157599Y-79976559D01*
X149157599Y-79653763D01*
X149315271Y-79759116D01*
X149524557Y-79845806D01*
X149746735Y-79890000D01*
X149973265Y-79890000D01*
X150195443Y-79845806D01*
X150404729Y-79759116D01*
X150593082Y-79633263D01*
X150753263Y-79473082D01*
X150879116Y-79284729D01*
X150965806Y-79075443D01*
X151010000Y-78853265D01*
X151010000Y-78626735D01*
X150965806Y-78404557D01*
X150879116Y-78195271D01*
X150753263Y-78006918D01*
X150636345Y-77890000D01*
X151248549Y-77890000D01*
X151248549Y-79590000D01*
X151254341Y-79648810D01*
X151271496Y-79705360D01*
X151299353Y-79757477D01*
X151336842Y-79803158D01*
X151382523Y-79840647D01*
X151434640Y-79868504D01*
X151491190Y-79885659D01*
X151550000Y-79891451D01*
X153250000Y-79891451D01*
X153308810Y-79885659D01*
X153365360Y-79868504D01*
X153417477Y-79840647D01*
X153463158Y-79803158D01*
X153500647Y-79757477D01*
X153528504Y-79705360D01*
X153545659Y-79648810D01*
X153551451Y-79590000D01*
X153551451Y-78626735D01*
X156330000Y-78626735D01*
X156330000Y-78853265D01*
X156374194Y-79075443D01*
X156460884Y-79284729D01*
X156586737Y-79473082D01*
X156746918Y-79633263D01*
X156935271Y-79759116D01*
X157144557Y-79845806D01*
X157366735Y-79890000D01*
X157593265Y-79890000D01*
X157815443Y-79845806D01*
X158024729Y-79759116D01*
X158213082Y-79633263D01*
X158373263Y-79473082D01*
X158499116Y-79284729D01*
X158585806Y-79075443D01*
X158630000Y-78853265D01*
X158630000Y-78626735D01*
X158585806Y-78404557D01*
X158499116Y-78195271D01*
X158373263Y-78006918D01*
X158213082Y-77846737D01*
X158024729Y-77720884D01*
X157815443Y-77634194D01*
X157593265Y-77590000D01*
X157366735Y-77590000D01*
X157144557Y-77634194D01*
X156935271Y-77720884D01*
X156746918Y-77846737D01*
X156586737Y-78006918D01*
X156460884Y-78195271D01*
X156374194Y-78404557D01*
X156330000Y-78626735D01*
X153551451Y-78626735D01*
X153551451Y-77890000D01*
X153545659Y-77831190D01*
X153528504Y-77774640D01*
X153500647Y-77722523D01*
X153463158Y-77676842D01*
X153417477Y-77639353D01*
X153365360Y-77611496D01*
X153308810Y-77594341D01*
X153250000Y-77588549D01*
X151550000Y-77588549D01*
X151491190Y-77594341D01*
X151434640Y-77611496D01*
X151382523Y-77639353D01*
X151336842Y-77676842D01*
X151299353Y-77722523D01*
X151271496Y-77774640D01*
X151254341Y-77831190D01*
X151248549Y-77890000D01*
X150636345Y-77890000D01*
X150593082Y-77846737D01*
X150404729Y-77720884D01*
X150195443Y-77634194D01*
X149973265Y-77590000D01*
X149746735Y-77590000D01*
X149524557Y-77634194D01*
X149315271Y-77720884D01*
X149126918Y-77846737D01*
X148966737Y-78006918D01*
X148922588Y-78072993D01*
X147778560Y-76928965D01*
X147788103Y-76931860D01*
X147794795Y-76932519D01*
X147850544Y-76938010D01*
X147850551Y-76938010D01*
X147871418Y-76940065D01*
X147892285Y-76938010D01*
X149161461Y-76938010D01*
X149182328Y-76940065D01*
X149203195Y-76938010D01*
X149203202Y-76938010D01*
X149265642Y-76931860D01*
X149345755Y-76907558D01*
X149419588Y-76868094D01*
X149484302Y-76814984D01*
X149497611Y-76798767D01*
X150746380Y-75549999D01*
X151063492Y-75549999D01*
X150961502Y-75702638D01*
X150882350Y-75893726D01*
X150842000Y-76096584D01*
X150842000Y-76303416D01*
X150882350Y-76506274D01*
X150961502Y-76697362D01*
X151076411Y-76869336D01*
X151222664Y-77015589D01*
X151394638Y-77130498D01*
X151585726Y-77209650D01*
X151788584Y-77250000D01*
X151995416Y-77250000D01*
X152198274Y-77209650D01*
X152389362Y-77130498D01*
X152561336Y-77015589D01*
X152707589Y-76869336D01*
X152822498Y-76697362D01*
X152901650Y-76506274D01*
X152942000Y-76303416D01*
X152942000Y-76096584D01*
X152901650Y-75893726D01*
X152822498Y-75702638D01*
X152720508Y-75549999D01*
X153677076Y-75549999D01*
X153616411Y-75610664D01*
X153501502Y-75782638D01*
X153422350Y-75973726D01*
X153382000Y-76176584D01*
X153382000Y-76383416D01*
X153422350Y-76586274D01*
X153501502Y-76777362D01*
X153616411Y-76949336D01*
X153762664Y-77095589D01*
X153934638Y-77210498D01*
X154125726Y-77289650D01*
X154328584Y-77330000D01*
X154535416Y-77330000D01*
X154738274Y-77289650D01*
X154929362Y-77210498D01*
X155101336Y-77095589D01*
X155247589Y-76949336D01*
X155362498Y-76777362D01*
X155441650Y-76586274D01*
X155482000Y-76383416D01*
X155482000Y-76176584D01*
X155441650Y-75973726D01*
X155362498Y-75782638D01*
X155247589Y-75610664D01*
X155186924Y-75549999D01*
X156228959Y-75549999D01*
X156423788Y-75744828D01*
X156374194Y-75864557D01*
X156330000Y-76086735D01*
X156330000Y-76313265D01*
X156374194Y-76535443D01*
X156460884Y-76744729D01*
X156586737Y-76933082D01*
X156746918Y-77093263D01*
X156935271Y-77219116D01*
X157144557Y-77305806D01*
X157366735Y-77350000D01*
X157593265Y-77350000D01*
X157815443Y-77305806D01*
X158024729Y-77219116D01*
X158213082Y-77093263D01*
X158373263Y-76933082D01*
X158499116Y-76744729D01*
X158585806Y-76535443D01*
X158630000Y-76313265D01*
X158630000Y-76086735D01*
X158585806Y-75864557D01*
X158499116Y-75655271D01*
X158373263Y-75466918D01*
X158213082Y-75306737D01*
X158024729Y-75180884D01*
X157815443Y-75094194D01*
X157593265Y-75050000D01*
X157366735Y-75050000D01*
X157144557Y-75094194D01*
X157024828Y-75143788D01*
X156720282Y-74839242D01*
X156706973Y-74823025D01*
X156642259Y-74769915D01*
X156568426Y-74730451D01*
X156488313Y-74706149D01*
X156425873Y-74699999D01*
X156425866Y-74699999D01*
X156404999Y-74697944D01*
X156384132Y-74699999D01*
X151942002Y-74699999D01*
X151942002Y-74633718D01*
X152105454Y-74688075D01*
X152285688Y-74633407D01*
X152468026Y-74537898D01*
X152628227Y-74408652D01*
X152760135Y-74250636D01*
X152858681Y-74069922D01*
X152915184Y-73889114D01*
X156353054Y-73889114D01*
X156415688Y-74095597D01*
X156521119Y-74294864D01*
X156663400Y-74469734D01*
X156837062Y-74613486D01*
X157035432Y-74720596D01*
X157250886Y-74786948D01*
X157430000Y-74733915D01*
X157430000Y-73710000D01*
X157530000Y-73710000D01*
X157530000Y-74733915D01*
X157709114Y-74786948D01*
X157924568Y-74720596D01*
X158122938Y-74613486D01*
X158296600Y-74469734D01*
X158438881Y-74294864D01*
X158544312Y-74095597D01*
X158606946Y-73889114D01*
X158553837Y-73710000D01*
X157530000Y-73710000D01*
X157430000Y-73710000D01*
X156406163Y-73710000D01*
X156353054Y-73889114D01*
X152915184Y-73889114D01*
X152920078Y-73873455D01*
X152865812Y-73710000D01*
X151942000Y-73710000D01*
X151942000Y-73730000D01*
X151842000Y-73730000D01*
X151842000Y-73710000D01*
X150918188Y-73710000D01*
X150863922Y-73873455D01*
X150925319Y-74069922D01*
X151023865Y-74250636D01*
X151155773Y-74408652D01*
X151315974Y-74537898D01*
X151498312Y-74633407D01*
X151678546Y-74688075D01*
X151841998Y-74633718D01*
X151841998Y-74699999D01*
X150591206Y-74699999D01*
X150570339Y-74697944D01*
X150549472Y-74699999D01*
X150549465Y-74699999D01*
X150494666Y-74705396D01*
X150487024Y-74706149D01*
X150462722Y-74713521D01*
X150406912Y-74730451D01*
X150333079Y-74769915D01*
X150268365Y-74823025D01*
X150255060Y-74839237D01*
X149645452Y-75448845D01*
X149645452Y-75188000D01*
X149643044Y-75163550D01*
X149643044Y-75138991D01*
X149637252Y-75080181D01*
X149618130Y-74984048D01*
X149600976Y-74927499D01*
X149563467Y-74836943D01*
X149535609Y-74784824D01*
X149481153Y-74703325D01*
X149443664Y-74657644D01*
X149374356Y-74588336D01*
X149328675Y-74550847D01*
X149269000Y-74510973D01*
X149269000Y-73361000D01*
X149337548Y-73361000D01*
X149343340Y-73419810D01*
X149360495Y-73476361D01*
X149388352Y-73528478D01*
X149425841Y-73574159D01*
X149471522Y-73611648D01*
X149523639Y-73639505D01*
X149580190Y-73656660D01*
X149639000Y-73662452D01*
X149989000Y-73661000D01*
X150064000Y-73586000D01*
X150064000Y-72961000D01*
X150164000Y-72961000D01*
X150164000Y-73586000D01*
X150239000Y-73661000D01*
X150589000Y-73662452D01*
X150647810Y-73656660D01*
X150704361Y-73639505D01*
X150756478Y-73611648D01*
X150802159Y-73574159D01*
X150839648Y-73528478D01*
X150867505Y-73476361D01*
X150870521Y-73466420D01*
X150918188Y-73610000D01*
X151842000Y-73610000D01*
X151842000Y-72686283D01*
X151942000Y-72686283D01*
X151942000Y-73610000D01*
X152865812Y-73610000D01*
X152920078Y-73446545D01*
X152915185Y-73430886D01*
X156353054Y-73430886D01*
X156406163Y-73610000D01*
X157430000Y-73610000D01*
X157430000Y-72586085D01*
X157530000Y-72586085D01*
X157530000Y-73610000D01*
X158553837Y-73610000D01*
X158606946Y-73430886D01*
X158544312Y-73224403D01*
X158438881Y-73025136D01*
X158296600Y-72850266D01*
X158122938Y-72706514D01*
X157924568Y-72599404D01*
X157709114Y-72533052D01*
X157530000Y-72586085D01*
X157430000Y-72586085D01*
X157250886Y-72533052D01*
X157035432Y-72599404D01*
X156837062Y-72706514D01*
X156663400Y-72850266D01*
X156521119Y-73025136D01*
X156415688Y-73224403D01*
X156353054Y-73430886D01*
X152915185Y-73430886D01*
X152858681Y-73250078D01*
X152760135Y-73069364D01*
X152628227Y-72911348D01*
X152468026Y-72782102D01*
X152285688Y-72686593D01*
X152105454Y-72631925D01*
X151942000Y-72686283D01*
X151842000Y-72686283D01*
X151678546Y-72631925D01*
X151498312Y-72686593D01*
X151315974Y-72782102D01*
X151155773Y-72911348D01*
X151023865Y-73069364D01*
X150925319Y-73250078D01*
X150890358Y-73361950D01*
X150890452Y-73361000D01*
X150889000Y-73036000D01*
X150814000Y-72961000D01*
X150164000Y-72961000D01*
X150064000Y-72961000D01*
X149414000Y-72961000D01*
X149339000Y-73036000D01*
X149337548Y-73361000D01*
X149269000Y-73361000D01*
X149269000Y-72461000D01*
X149337548Y-72461000D01*
X149339000Y-72786000D01*
X149414000Y-72861000D01*
X150064000Y-72861000D01*
X150064000Y-72236000D01*
X150164000Y-72236000D01*
X150164000Y-72861000D01*
X150814000Y-72861000D01*
X150889000Y-72786000D01*
X150890452Y-72461000D01*
X150884660Y-72402190D01*
X150867505Y-72345639D01*
X150839648Y-72293522D01*
X150802159Y-72247841D01*
X150756478Y-72210352D01*
X150704361Y-72182495D01*
X150647810Y-72165340D01*
X150589000Y-72159548D01*
X150239000Y-72161000D01*
X150164000Y-72236000D01*
X150064000Y-72236000D01*
X149989000Y-72161000D01*
X149639000Y-72159548D01*
X149580190Y-72165340D01*
X149523639Y-72182495D01*
X149471522Y-72210352D01*
X149425841Y-72247841D01*
X149388352Y-72293522D01*
X149360495Y-72345639D01*
X149343340Y-72402190D01*
X149337548Y-72461000D01*
X149269000Y-72461000D01*
X149269000Y-72312040D01*
X149563716Y-72017324D01*
X149571519Y-72023728D01*
X149662536Y-72072377D01*
X149761295Y-72102335D01*
X149864000Y-72112451D01*
X150364000Y-72112451D01*
X150466705Y-72102335D01*
X150565464Y-72072377D01*
X150656481Y-72023728D01*
X150736257Y-71958257D01*
X150801728Y-71878481D01*
X150840549Y-71805851D01*
X150840549Y-71870000D01*
X150846341Y-71928810D01*
X150863496Y-71985360D01*
X150891353Y-72037477D01*
X150928842Y-72083158D01*
X150974523Y-72120647D01*
X151026640Y-72148504D01*
X151083190Y-72165659D01*
X151142000Y-72171451D01*
X152642000Y-72171451D01*
X152700810Y-72165659D01*
X152757360Y-72148504D01*
X152809477Y-72120647D01*
X152855158Y-72083158D01*
X152892647Y-72037477D01*
X152920504Y-71985360D01*
X152937659Y-71928810D01*
X152943451Y-71870000D01*
X152943451Y-70936584D01*
X153382000Y-70936584D01*
X153382000Y-71143416D01*
X153422350Y-71346274D01*
X153501502Y-71537362D01*
X153616411Y-71709336D01*
X153762664Y-71855589D01*
X153934638Y-71970498D01*
X154125726Y-72049650D01*
X154328584Y-72090000D01*
X154535416Y-72090000D01*
X154738274Y-72049650D01*
X154929362Y-71970498D01*
X155101336Y-71855589D01*
X155247589Y-71709336D01*
X155362498Y-71537362D01*
X155441650Y-71346274D01*
X155482000Y-71143416D01*
X155482000Y-71006735D01*
X156330000Y-71006735D01*
X156330000Y-71233265D01*
X156374194Y-71455443D01*
X156460884Y-71664729D01*
X156586737Y-71853082D01*
X156746918Y-72013263D01*
X156935271Y-72139116D01*
X157144557Y-72225806D01*
X157366735Y-72270000D01*
X157593265Y-72270000D01*
X157815443Y-72225806D01*
X158024729Y-72139116D01*
X158213082Y-72013263D01*
X158373263Y-71853082D01*
X158499116Y-71664729D01*
X158585806Y-71455443D01*
X158630000Y-71233265D01*
X158630000Y-71006735D01*
X158585806Y-70784557D01*
X158499116Y-70575271D01*
X158373263Y-70386918D01*
X158213082Y-70226737D01*
X158024729Y-70100884D01*
X157815443Y-70014194D01*
X157593265Y-69970000D01*
X157366735Y-69970000D01*
X157144557Y-70014194D01*
X156935271Y-70100884D01*
X156746918Y-70226737D01*
X156586737Y-70386918D01*
X156460884Y-70575271D01*
X156374194Y-70784557D01*
X156330000Y-71006735D01*
X155482000Y-71006735D01*
X155482000Y-70936584D01*
X155441650Y-70733726D01*
X155362498Y-70542638D01*
X155247589Y-70370664D01*
X155101336Y-70224411D01*
X154929362Y-70109502D01*
X154738274Y-70030350D01*
X154535416Y-69990000D01*
X154328584Y-69990000D01*
X154125726Y-70030350D01*
X153934638Y-70109502D01*
X153762664Y-70224411D01*
X153616411Y-70370664D01*
X153501502Y-70542638D01*
X153422350Y-70733726D01*
X153382000Y-70936584D01*
X152943451Y-70936584D01*
X152943451Y-70370000D01*
X152937659Y-70311190D01*
X152920504Y-70254640D01*
X152892647Y-70202523D01*
X152855158Y-70156842D01*
X152809477Y-70119353D01*
X152757360Y-70091496D01*
X152700810Y-70074341D01*
X152642000Y-70068549D01*
X151142000Y-70068549D01*
X151083190Y-70074341D01*
X151026640Y-70091496D01*
X150974523Y-70119353D01*
X150928842Y-70156842D01*
X150891353Y-70202523D01*
X150863496Y-70254640D01*
X150846341Y-70311190D01*
X150840549Y-70370000D01*
X150840549Y-70916149D01*
X150801728Y-70843519D01*
X150736257Y-70763743D01*
X150656481Y-70698272D01*
X150565464Y-70649623D01*
X150466705Y-70619665D01*
X150364000Y-70609549D01*
X149864000Y-70609549D01*
X149761295Y-70619665D01*
X149662536Y-70649623D01*
X149571519Y-70698272D01*
X149491743Y-70763743D01*
X149426272Y-70843519D01*
X149394746Y-70902500D01*
X148432016Y-70902500D01*
X148387781Y-70819742D01*
X148323088Y-70740912D01*
X148244258Y-70676219D01*
X148154322Y-70628147D01*
X148056736Y-70598545D01*
X147955250Y-70588549D01*
X147192750Y-70588549D01*
X147091264Y-70598545D01*
X146993678Y-70628147D01*
X146903742Y-70676219D01*
X146824912Y-70740912D01*
X146760219Y-70819742D01*
X146712147Y-70909678D01*
X146682545Y-71007264D01*
X146672549Y-71108750D01*
X146672549Y-71546250D01*
X146682545Y-71647736D01*
X146712147Y-71745322D01*
X146760219Y-71835258D01*
X146824912Y-71914088D01*
X146903742Y-71978781D01*
X146993678Y-72026853D01*
X147091264Y-72056455D01*
X147192750Y-72066451D01*
X147955250Y-72066451D01*
X148056736Y-72056455D01*
X148154322Y-72026853D01*
X148244258Y-71978781D01*
X148323088Y-71914088D01*
X148387781Y-71835258D01*
X148432016Y-71752500D01*
X148626460Y-71752500D01*
X148558239Y-71820721D01*
X148542027Y-71834026D01*
X148528722Y-71850238D01*
X148528720Y-71850240D01*
X148516454Y-71865187D01*
X148488917Y-71898740D01*
X148472059Y-71930280D01*
X148449453Y-71972573D01*
X148425150Y-72052686D01*
X148416945Y-72136000D01*
X148419001Y-72156877D01*
X148419001Y-73003150D01*
X148387781Y-72944742D01*
X148323088Y-72865912D01*
X148244258Y-72801219D01*
X148154322Y-72753147D01*
X148056736Y-72723545D01*
X147955250Y-72713549D01*
X147192750Y-72713549D01*
X147091264Y-72723545D01*
X146993678Y-72753147D01*
X146903742Y-72801219D01*
X146824912Y-72865912D01*
X146760219Y-72944742D01*
X146715984Y-73027500D01*
X146475000Y-73027500D01*
X146475000Y-69870866D01*
X146477055Y-69849999D01*
X146475000Y-69829132D01*
X146475000Y-69829126D01*
X146468850Y-69766686D01*
X146444548Y-69686573D01*
X146405084Y-69612740D01*
X146351974Y-69548026D01*
X146335762Y-69534721D01*
X145931451Y-69130410D01*
X145931451Y-68466735D01*
X146170000Y-68466735D01*
X146170000Y-68693265D01*
X146214194Y-68915443D01*
X146300884Y-69124729D01*
X146426737Y-69313082D01*
X146586918Y-69473263D01*
X146775271Y-69599116D01*
X146984557Y-69685806D01*
X147206735Y-69730000D01*
X147433265Y-69730000D01*
X147655443Y-69685806D01*
X147864729Y-69599116D01*
X148053082Y-69473263D01*
X148213263Y-69313082D01*
X148339116Y-69124729D01*
X148425806Y-68915443D01*
X148446956Y-68809114D01*
X148733052Y-68809114D01*
X148799404Y-69024568D01*
X148906514Y-69222938D01*
X149050266Y-69396600D01*
X149225136Y-69538881D01*
X149424403Y-69644312D01*
X149630886Y-69706946D01*
X149810000Y-69653837D01*
X149810000Y-68630000D01*
X149910000Y-68630000D01*
X149910000Y-69653837D01*
X150089114Y-69706946D01*
X150295597Y-69644312D01*
X150494864Y-69538881D01*
X150669734Y-69396600D01*
X150813486Y-69222938D01*
X150920596Y-69024568D01*
X150986948Y-68809114D01*
X150933915Y-68630000D01*
X149910000Y-68630000D01*
X149810000Y-68630000D01*
X148786085Y-68630000D01*
X148733052Y-68809114D01*
X148446956Y-68809114D01*
X148470000Y-68693265D01*
X148470000Y-68466735D01*
X148446957Y-68350886D01*
X148733052Y-68350886D01*
X148786085Y-68530000D01*
X149810000Y-68530000D01*
X149810000Y-67506163D01*
X149910000Y-67506163D01*
X149910000Y-68530000D01*
X150933915Y-68530000D01*
X150986948Y-68350886D01*
X150920596Y-68135432D01*
X150813486Y-67937062D01*
X150669734Y-67763400D01*
X150628684Y-67730000D01*
X156328549Y-67730000D01*
X156328549Y-69430000D01*
X156334341Y-69488810D01*
X156351496Y-69545360D01*
X156379353Y-69597477D01*
X156416842Y-69643158D01*
X156462523Y-69680647D01*
X156514640Y-69708504D01*
X156571190Y-69725659D01*
X156630000Y-69731451D01*
X158330000Y-69731451D01*
X158388810Y-69725659D01*
X158445360Y-69708504D01*
X158497477Y-69680647D01*
X158543158Y-69643158D01*
X158580647Y-69597477D01*
X158608504Y-69545360D01*
X158625659Y-69488810D01*
X158631451Y-69430000D01*
X158631451Y-67730000D01*
X158625659Y-67671190D01*
X158608504Y-67614640D01*
X158580647Y-67562523D01*
X158543158Y-67516842D01*
X158497477Y-67479353D01*
X158445360Y-67451496D01*
X158388810Y-67434341D01*
X158330000Y-67428549D01*
X156630000Y-67428549D01*
X156571190Y-67434341D01*
X156514640Y-67451496D01*
X156462523Y-67479353D01*
X156416842Y-67516842D01*
X156379353Y-67562523D01*
X156351496Y-67614640D01*
X156334341Y-67671190D01*
X156328549Y-67730000D01*
X150628684Y-67730000D01*
X150494864Y-67621119D01*
X150295597Y-67515688D01*
X150089114Y-67453054D01*
X149910000Y-67506163D01*
X149810000Y-67506163D01*
X149630886Y-67453054D01*
X149424403Y-67515688D01*
X149225136Y-67621119D01*
X149050266Y-67763400D01*
X148906514Y-67937062D01*
X148799404Y-68135432D01*
X148733052Y-68350886D01*
X148446957Y-68350886D01*
X148425806Y-68244557D01*
X148339116Y-68035271D01*
X148213263Y-67846918D01*
X148053082Y-67686737D01*
X147864729Y-67560884D01*
X147655443Y-67474194D01*
X147433265Y-67430000D01*
X147206735Y-67430000D01*
X146984557Y-67474194D01*
X146775271Y-67560884D01*
X146586918Y-67686737D01*
X146426737Y-67846918D01*
X146300884Y-68035271D01*
X146214194Y-68244557D01*
X146170000Y-68466735D01*
X145931451Y-68466735D01*
X145931451Y-67730000D01*
X145925659Y-67671190D01*
X145908504Y-67614640D01*
X145880647Y-67562523D01*
X145843158Y-67516842D01*
X145797477Y-67479353D01*
X145745360Y-67451496D01*
X145688810Y-67434341D01*
X145630000Y-67428549D01*
X143930000Y-67428549D01*
X143871190Y-67434341D01*
X143814640Y-67451496D01*
X143762523Y-67479353D01*
X143716842Y-67516842D01*
X143679353Y-67562523D01*
X143651496Y-67614640D01*
X143634341Y-67671190D01*
X143628549Y-67730000D01*
X143628549Y-69430000D01*
X143634341Y-69488810D01*
X143651496Y-69545360D01*
X143679353Y-69597477D01*
X143716842Y-69643158D01*
X143762523Y-69680647D01*
X143814640Y-69708504D01*
X143871190Y-69725659D01*
X143930000Y-69731451D01*
X145330410Y-69731451D01*
X145625001Y-70026042D01*
X145625000Y-72508549D01*
X143930000Y-72508549D01*
X143871190Y-72514341D01*
X143814640Y-72531496D01*
X143762523Y-72559353D01*
X143716842Y-72596842D01*
X143679353Y-72642523D01*
X143651496Y-72694640D01*
X143634341Y-72751190D01*
X143628549Y-72810000D01*
X143628549Y-74210410D01*
X142825960Y-75013000D01*
X141488333Y-75013000D01*
X141499794Y-74999034D01*
X141536892Y-74929629D01*
X141559737Y-74854319D01*
X141567451Y-74776000D01*
X141567451Y-74576000D01*
X141559737Y-74497681D01*
X141536892Y-74422371D01*
X141499794Y-74352966D01*
X141461000Y-74305694D01*
X141461000Y-69198040D01*
X144194041Y-66465000D01*
X146251290Y-66465000D01*
X146300884Y-66584729D01*
X146426737Y-66773082D01*
X146586918Y-66933263D01*
X146775271Y-67059116D01*
X146984557Y-67145806D01*
X147206735Y-67190000D01*
X147433265Y-67190000D01*
X147655443Y-67145806D01*
X147864729Y-67059116D01*
X148053082Y-66933263D01*
X148213263Y-66773082D01*
X148339116Y-66584729D01*
X148425806Y-66375443D01*
X148470000Y-66153265D01*
X148470000Y-65926735D01*
X148710000Y-65926735D01*
X148710000Y-66153265D01*
X148754194Y-66375443D01*
X148840884Y-66584729D01*
X148966737Y-66773082D01*
X149126918Y-66933263D01*
X149315271Y-67059116D01*
X149524557Y-67145806D01*
X149746735Y-67190000D01*
X149973265Y-67190000D01*
X150195443Y-67145806D01*
X150404729Y-67059116D01*
X150593082Y-66933263D01*
X150753263Y-66773082D01*
X150879116Y-66584729D01*
X150965806Y-66375443D01*
X151010000Y-66153265D01*
X151010000Y-65926735D01*
X151250000Y-65926735D01*
X151250000Y-66153265D01*
X151294194Y-66375443D01*
X151380884Y-66584729D01*
X151506737Y-66773082D01*
X151666918Y-66933263D01*
X151855271Y-67059116D01*
X152064557Y-67145806D01*
X152286735Y-67190000D01*
X152513265Y-67190000D01*
X152735443Y-67145806D01*
X152944729Y-67059116D01*
X153133082Y-66933263D01*
X153293263Y-66773082D01*
X153419116Y-66584729D01*
X153505806Y-66375443D01*
X153550000Y-66153265D01*
X153550000Y-65926735D01*
X153790000Y-65926735D01*
X153790000Y-66153265D01*
X153834194Y-66375443D01*
X153920884Y-66584729D01*
X154046737Y-66773082D01*
X154206918Y-66933263D01*
X154395271Y-67059116D01*
X154604557Y-67145806D01*
X154826735Y-67190000D01*
X155053265Y-67190000D01*
X155275443Y-67145806D01*
X155484729Y-67059116D01*
X155673082Y-66933263D01*
X155833263Y-66773082D01*
X155959116Y-66584729D01*
X156045806Y-66375443D01*
X156090000Y-66153265D01*
X156090000Y-65926735D01*
X156045806Y-65704557D01*
X155959116Y-65495271D01*
X155833263Y-65306918D01*
X155673082Y-65146737D01*
X155484729Y-65020884D01*
X155275443Y-64934194D01*
X155053265Y-64890000D01*
X154826735Y-64890000D01*
X154604557Y-64934194D01*
X154395271Y-65020884D01*
X154206918Y-65146737D01*
X154046737Y-65306918D01*
X153920884Y-65495271D01*
X153834194Y-65704557D01*
X153790000Y-65926735D01*
X153550000Y-65926735D01*
X153505806Y-65704557D01*
X153419116Y-65495271D01*
X153293263Y-65306918D01*
X153133082Y-65146737D01*
X152944729Y-65020884D01*
X152735443Y-64934194D01*
X152513265Y-64890000D01*
X152286735Y-64890000D01*
X152064557Y-64934194D01*
X151855271Y-65020884D01*
X151666918Y-65146737D01*
X151506737Y-65306918D01*
X151380884Y-65495271D01*
X151294194Y-65704557D01*
X151250000Y-65926735D01*
X151010000Y-65926735D01*
X150965806Y-65704557D01*
X150879116Y-65495271D01*
X150753263Y-65306918D01*
X150593082Y-65146737D01*
X150404729Y-65020884D01*
X150195443Y-64934194D01*
X149973265Y-64890000D01*
X149746735Y-64890000D01*
X149524557Y-64934194D01*
X149315271Y-65020884D01*
X149126918Y-65146737D01*
X148966737Y-65306918D01*
X148840884Y-65495271D01*
X148754194Y-65704557D01*
X148710000Y-65926735D01*
X148470000Y-65926735D01*
X148425806Y-65704557D01*
X148339116Y-65495271D01*
X148213263Y-65306918D01*
X148053082Y-65146737D01*
X147864729Y-65020884D01*
X147655443Y-64934194D01*
X147433265Y-64890000D01*
X147206735Y-64890000D01*
X146984557Y-64934194D01*
X146775271Y-65020884D01*
X146586918Y-65146737D01*
X146426737Y-65306918D01*
X146300884Y-65495271D01*
X146251290Y-65615000D01*
X144038867Y-65615000D01*
X144018000Y-65612945D01*
X143997133Y-65615000D01*
X143997126Y-65615000D01*
X143942327Y-65620397D01*
X143934685Y-65621150D01*
X143854572Y-65645452D01*
X143828855Y-65659199D01*
X143780740Y-65684916D01*
X143716026Y-65738026D01*
X143702721Y-65754238D01*
X140750239Y-68706721D01*
X140734027Y-68720026D01*
X140680917Y-68784740D01*
X140641453Y-68858573D01*
X140617150Y-68938686D01*
X140608945Y-69022000D01*
X140611001Y-69042877D01*
X140611000Y-74147126D01*
X140611000Y-74184290D01*
X140604319Y-74182263D01*
X140526000Y-74174549D01*
X140266000Y-74174549D01*
X140187681Y-74182263D01*
X140112371Y-74205108D01*
X140042966Y-74242206D01*
X139982131Y-74292131D01*
X139932206Y-74352966D01*
X139895108Y-74422371D01*
X139872263Y-74497681D01*
X139864549Y-74576000D01*
X139864549Y-74776000D01*
X139872263Y-74854319D01*
X139895108Y-74929629D01*
X139932206Y-74999034D01*
X139943667Y-75013000D01*
X139403894Y-75013000D01*
X139396504Y-74988640D01*
X139368647Y-74936523D01*
X139331158Y-74890842D01*
X139285477Y-74853353D01*
X139233360Y-74825496D01*
X139176810Y-74808341D01*
X139118000Y-74802549D01*
X138218000Y-74802549D01*
X138159190Y-74808341D01*
X138102640Y-74825496D01*
X138093000Y-74830649D01*
X138093000Y-74621353D01*
X138102639Y-74626505D01*
X138159190Y-74643660D01*
X138218000Y-74649452D01*
X138493000Y-74648000D01*
X138568000Y-74573000D01*
X138568000Y-73948000D01*
X138668000Y-73948000D01*
X138668000Y-74573000D01*
X138743000Y-74648000D01*
X139018000Y-74649452D01*
X139076810Y-74643660D01*
X139133361Y-74626505D01*
X139185478Y-74598648D01*
X139231159Y-74561159D01*
X139268648Y-74515478D01*
X139296505Y-74463361D01*
X139313660Y-74406810D01*
X139319452Y-74348000D01*
X139318000Y-74023000D01*
X139243000Y-73948000D01*
X138668000Y-73948000D01*
X138568000Y-73948000D01*
X138548000Y-73948000D01*
X138548000Y-73848000D01*
X138568000Y-73848000D01*
X138568000Y-73223000D01*
X138668000Y-73223000D01*
X138668000Y-73848000D01*
X139243000Y-73848000D01*
X139318000Y-73773000D01*
X139319452Y-73448000D01*
X139313660Y-73389190D01*
X139296505Y-73332639D01*
X139268648Y-73280522D01*
X139231159Y-73234841D01*
X139185478Y-73197352D01*
X139133361Y-73169495D01*
X139076810Y-73152340D01*
X139018000Y-73146548D01*
X138743000Y-73148000D01*
X138668000Y-73223000D01*
X138568000Y-73223000D01*
X138493000Y-73148000D01*
X138218000Y-73146548D01*
X138159190Y-73152340D01*
X138102639Y-73169495D01*
X138093000Y-73174647D01*
X138093000Y-72646989D01*
X138126810Y-72643659D01*
X138183360Y-72626504D01*
X138235477Y-72598647D01*
X138281158Y-72561158D01*
X138318647Y-72515477D01*
X138346504Y-72463360D01*
X138363659Y-72406810D01*
X138369451Y-72348000D01*
X138369451Y-71448000D01*
X138363659Y-71389190D01*
X138346504Y-71332640D01*
X138318647Y-71280523D01*
X138281158Y-71234842D01*
X138235477Y-71197353D01*
X138183360Y-71169496D01*
X138126810Y-71152341D01*
X138068000Y-71146549D01*
X137268000Y-71146549D01*
X137209190Y-71152341D01*
X137152640Y-71169496D01*
X137100523Y-71197353D01*
X137054842Y-71234842D01*
X137017353Y-71280523D01*
X136989496Y-71332640D01*
X136972341Y-71389190D01*
X136966549Y-71448000D01*
X136966549Y-72348000D01*
X136972341Y-72406810D01*
X136989496Y-72463360D01*
X137017353Y-72515477D01*
X137054842Y-72561158D01*
X137100523Y-72598647D01*
X137152640Y-72626504D01*
X137209190Y-72643659D01*
X137243001Y-72646989D01*
X137243001Y-73174649D01*
X137233360Y-73169496D01*
X137176810Y-73152341D01*
X137118000Y-73146549D01*
X136318000Y-73146549D01*
X136259190Y-73152341D01*
X136202640Y-73169496D01*
X136150523Y-73197353D01*
X136104842Y-73234842D01*
X136067353Y-73280523D01*
X136039496Y-73332640D01*
X136022341Y-73389190D01*
X136016549Y-73448000D01*
X136016549Y-74348000D01*
X136022341Y-74406810D01*
X136039496Y-74463360D01*
X136067353Y-74515477D01*
X136104842Y-74561158D01*
X136150523Y-74598647D01*
X136202640Y-74626504D01*
X136259190Y-74643659D01*
X136293001Y-74646989D01*
X136293001Y-74687958D01*
X135604243Y-75376717D01*
X135588026Y-75390026D01*
X135534916Y-75454741D01*
X135495452Y-75528574D01*
X135490635Y-75544455D01*
X135473353Y-75601426D01*
X135471150Y-75608687D01*
X135465000Y-75671127D01*
X135465000Y-75671133D01*
X135462945Y-75692000D01*
X134437000Y-75692000D01*
X134437000Y-67315290D01*
X139488420Y-67315290D01*
X139596195Y-67495425D01*
X139821917Y-67616362D01*
X140066894Y-67690938D01*
X140321714Y-67716289D01*
X140576583Y-67691439D01*
X140821707Y-67617345D01*
X141047666Y-67496854D01*
X141049805Y-67495425D01*
X141157580Y-67315290D01*
X140323000Y-66480711D01*
X139488420Y-67315290D01*
X134437000Y-67315290D01*
X134437000Y-66715290D01*
X134588420Y-66715290D01*
X134696195Y-66895425D01*
X134921917Y-67016362D01*
X135166894Y-67090938D01*
X135421714Y-67116289D01*
X135676583Y-67091439D01*
X135921707Y-67017345D01*
X136147666Y-66896854D01*
X136149805Y-66895425D01*
X136257580Y-66715290D01*
X135423000Y-65880711D01*
X134588420Y-66715290D01*
X134437000Y-66715290D01*
X134437000Y-66596291D01*
X134517710Y-66644580D01*
X135352289Y-65810000D01*
X135493711Y-65810000D01*
X136328290Y-66644580D01*
X136508425Y-66536805D01*
X136577053Y-66408714D01*
X139016711Y-66408714D01*
X139041561Y-66663583D01*
X139115655Y-66908707D01*
X139236146Y-67134666D01*
X139237575Y-67136805D01*
X139417710Y-67244580D01*
X140252289Y-66410000D01*
X140393711Y-66410000D01*
X141228290Y-67244580D01*
X141408425Y-67136805D01*
X141529362Y-66911083D01*
X141603938Y-66666106D01*
X141629289Y-66411286D01*
X141604439Y-66156417D01*
X141530345Y-65911293D01*
X141409854Y-65685334D01*
X141408425Y-65683195D01*
X141228290Y-65575420D01*
X140393711Y-66410000D01*
X140252289Y-66410000D01*
X139417710Y-65575420D01*
X139237575Y-65683195D01*
X139116638Y-65908917D01*
X139042062Y-66153894D01*
X139016711Y-66408714D01*
X136577053Y-66408714D01*
X136629362Y-66311083D01*
X136703938Y-66066106D01*
X136729289Y-65811286D01*
X136704439Y-65556417D01*
X136688810Y-65504710D01*
X139488420Y-65504710D01*
X140323000Y-66339289D01*
X141157580Y-65504710D01*
X141049805Y-65324575D01*
X140824083Y-65203638D01*
X140579106Y-65129062D01*
X140324286Y-65103711D01*
X140069417Y-65128561D01*
X139824293Y-65202655D01*
X139598334Y-65323146D01*
X139596195Y-65324575D01*
X139488420Y-65504710D01*
X136688810Y-65504710D01*
X136630345Y-65311293D01*
X136509854Y-65085334D01*
X136508425Y-65083195D01*
X136328290Y-64975420D01*
X135493711Y-65810000D01*
X135352289Y-65810000D01*
X135338147Y-65795858D01*
X135408858Y-65725147D01*
X135423000Y-65739289D01*
X136257580Y-64904710D01*
X136219462Y-64841000D01*
X157718104Y-64841000D01*
X157917247Y-64860526D01*
G37*
%TD.AperFunction*%
%TD*%
M02*
