%TF.GenerationSoftware,KiCad,Pcbnew,5.1.8*%
%TF.CreationDate,2020-11-15T21:26:51-08:00*%
%TF.ProjectId,teensy-toslink-receiver,7465656e-7379-42d7-946f-736c696e6b2d,rev?*%
%TF.SameCoordinates,Original*%
%TF.FileFunction,Copper,L1,Top*%
%TF.FilePolarity,Positive*%
%FSLAX46Y46*%
G04 Gerber Fmt 4.6, Leading zero omitted, Abs format (unit mm)*
G04 Created by KiCad (PCBNEW 5.1.8) date 2020-11-15 21:26:51*
%MOMM*%
%LPD*%
G01*
G04 APERTURE LIST*
%TA.AperFunction,ComponentPad*%
%ADD10R,1.500000X1.500000*%
%TD*%
%TA.AperFunction,ComponentPad*%
%ADD11O,1.500000X1.500000*%
%TD*%
%TA.AperFunction,ComponentPad*%
%ADD12C,2.000000*%
%TD*%
%TA.AperFunction,SMDPad,CuDef*%
%ADD13R,1.900000X0.300000*%
%TD*%
%TA.AperFunction,ComponentPad*%
%ADD14O,1.700000X1.700000*%
%TD*%
%TA.AperFunction,ComponentPad*%
%ADD15R,1.700000X1.700000*%
%TD*%
%TA.AperFunction,Conductor*%
%ADD16C,0.250000*%
%TD*%
%TA.AperFunction,Conductor*%
%ADD17C,0.200000*%
%TD*%
%TA.AperFunction,Conductor*%
%ADD18C,0.100000*%
%TD*%
G04 APERTURE END LIST*
D10*
%TO.P,U1,1*%
%TO.N,Net-(C1-Pad1)*%
X151892000Y-76200000D03*
D11*
%TO.P,U1,2*%
%TO.N,GND*%
X151892000Y-73660000D03*
%TO.P,U1,3*%
%TO.N,/TOSLINK_RX*%
X151892000Y-71120000D03*
D12*
%TO.P,U1,4*%
%TO.N,N/C*%
X154432000Y-76280000D03*
%TO.P,U1,5*%
X154432000Y-71040000D03*
%TD*%
%TO.P,J7,M3*%
%TO.N,GND*%
X135423000Y-65810000D03*
%TO.P,J7,M4*%
X135423000Y-81510000D03*
%TO.P,J7,M1*%
X140323000Y-66410000D03*
%TO.P,J7,M2*%
X140323000Y-80910000D03*
D13*
%TO.P,J7,1*%
%TO.N,Net-(J7-Pad1)*%
X141323000Y-78410000D03*
%TO.P,J7,2*%
%TO.N,GND*%
X141323000Y-77910000D03*
%TO.P,J7,3*%
%TO.N,Net-(J7-Pad3)*%
X141323000Y-77410000D03*
%TO.P,J7,4*%
%TO.N,Net-(J7-Pad4)*%
X141323000Y-76910000D03*
%TO.P,J7,5*%
%TO.N,GND*%
X141323000Y-76410000D03*
%TO.P,J7,6*%
%TO.N,Net-(J7-Pad6)*%
X141323000Y-75910000D03*
%TO.P,J7,7*%
%TO.N,Net-(J7-Pad7)*%
X141323000Y-75410000D03*
%TO.P,J7,8*%
%TO.N,GND*%
X141323000Y-74910000D03*
%TO.P,J7,9*%
%TO.N,Net-(J7-Pad9)*%
X141323000Y-74410000D03*
%TO.P,J7,10*%
%TO.N,Net-(J7-Pad10)*%
X141323000Y-73910000D03*
%TO.P,J7,11*%
%TO.N,GND*%
X141323000Y-73410000D03*
%TO.P,J7,12*%
%TO.N,Net-(J7-Pad12)*%
X141323000Y-72910000D03*
%TO.P,J7,13*%
%TO.N,/CEC*%
X141323000Y-72410000D03*
%TO.P,J7,14*%
%TO.N,/ARC*%
X141323000Y-71910000D03*
%TO.P,J7,15*%
%TO.N,Net-(J7-Pad15)*%
X141323000Y-71410000D03*
%TO.P,J7,16*%
%TO.N,Net-(J7-Pad16)*%
X141323000Y-70910000D03*
%TO.P,J7,17*%
%TO.N,GND*%
X141323000Y-70410000D03*
%TO.P,J7,18*%
%TO.N,+5V*%
X141323000Y-69910000D03*
%TO.P,J7,19*%
%TO.N,/HPD*%
X141323000Y-69410000D03*
%TD*%
D14*
%TO.P,J6,4*%
%TO.N,GND*%
X152400000Y-81280000D03*
%TO.P,J6,3*%
%TO.N,/HPD*%
X149860000Y-81280000D03*
%TO.P,J6,2*%
%TO.N,/ARC*%
X147320000Y-81280000D03*
D15*
%TO.P,J6,1*%
%TO.N,+3V3*%
X144780000Y-81280000D03*
%TD*%
D14*
%TO.P,J5,3*%
%TO.N,GND*%
X144780000Y-71120000D03*
%TO.P,J5,2*%
%TO.N,/CEC*%
X144780000Y-73660000D03*
D15*
%TO.P,J5,1*%
%TO.N,+3V3*%
X144780000Y-76200000D03*
%TD*%
D14*
%TO.P,J4,5*%
%TO.N,/VBat*%
X157480000Y-78740000D03*
%TO.P,J4,4*%
%TO.N,+3V3*%
X157480000Y-76200000D03*
%TO.P,J4,3*%
%TO.N,GND*%
X157480000Y-73660000D03*
%TO.P,J4,2*%
%TO.N,/Program*%
X157480000Y-71120000D03*
D15*
%TO.P,J4,1*%
%TO.N,/OnOff*%
X157480000Y-68580000D03*
%TD*%
D14*
%TO.P,J3,5*%
%TO.N,/DIO12*%
X154940000Y-78740000D03*
%TO.P,J3,4*%
%TO.N,/DIO11*%
X152400000Y-78740000D03*
%TO.P,J3,3*%
%TO.N,/DIO10*%
X149860000Y-78740000D03*
%TO.P,J3,2*%
%TO.N,/DIO9*%
X147320000Y-78740000D03*
D15*
%TO.P,J3,1*%
%TO.N,/DIO8*%
X144780000Y-78740000D03*
%TD*%
D14*
%TO.P,J2,5*%
%TO.N,/DIO17*%
X144780000Y-68580000D03*
%TO.P,J2,4*%
%TO.N,/DIO16*%
X147320000Y-68580000D03*
%TO.P,J2,3*%
%TO.N,/SPDIF_IN*%
X149860000Y-68580000D03*
%TO.P,J2,2*%
%TO.N,/DIO14*%
X152400000Y-68580000D03*
D15*
%TO.P,J2,1*%
%TO.N,/DIO13*%
X154940000Y-68580000D03*
%TD*%
D14*
%TO.P,J1,3*%
%TO.N,/ARC*%
X147320000Y-66040000D03*
%TO.P,J1,2*%
%TO.N,/SPDIF_IN*%
X149860000Y-66040000D03*
D15*
%TO.P,J1,1*%
%TO.N,/TOSLINK_RX*%
X152400000Y-66040000D03*
%TD*%
%TO.P,C1,2*%
%TO.N,GND*%
%TA.AperFunction,SMDPad,CuDef*%
G36*
G01*
X148586000Y-74351000D02*
X148086000Y-74351000D01*
G75*
G02*
X147861000Y-74126000I0J225000D01*
G01*
X147861000Y-73676000D01*
G75*
G02*
X148086000Y-73451000I225000J0D01*
G01*
X148586000Y-73451000D01*
G75*
G02*
X148811000Y-73676000I0J-225000D01*
G01*
X148811000Y-74126000D01*
G75*
G02*
X148586000Y-74351000I-225000J0D01*
G01*
G37*
%TD.AperFunction*%
%TO.P,C1,1*%
%TO.N,Net-(C1-Pad1)*%
%TA.AperFunction,SMDPad,CuDef*%
G36*
G01*
X148586000Y-75901000D02*
X148086000Y-75901000D01*
G75*
G02*
X147861000Y-75676000I0J225000D01*
G01*
X147861000Y-75226000D01*
G75*
G02*
X148086000Y-75001000I225000J0D01*
G01*
X148586000Y-75001000D01*
G75*
G02*
X148811000Y-75226000I0J-225000D01*
G01*
X148811000Y-75676000D01*
G75*
G02*
X148586000Y-75901000I-225000J0D01*
G01*
G37*
%TD.AperFunction*%
%TD*%
D16*
%TO.N,GND*%
X151651000Y-73901000D02*
X151892000Y-73660000D01*
X148336000Y-73901000D02*
X151651000Y-73901000D01*
%TO.N,Net-(C1-Pad1)*%
X149085000Y-76200000D02*
X148336000Y-75451000D01*
X151892000Y-76200000D02*
X149085000Y-76200000D01*
%TO.N,/ARC*%
X141323000Y-71910000D02*
X140180000Y-71910000D01*
X146050000Y-80010000D02*
X147320000Y-81280000D01*
X143510000Y-80010000D02*
X146050000Y-80010000D01*
X143002000Y-79502000D02*
X143510000Y-80010000D01*
X140208000Y-79502000D02*
X143002000Y-79502000D01*
X139700000Y-78994000D02*
X140208000Y-79502000D01*
X140208000Y-68580000D02*
X139700000Y-69088000D01*
X142240000Y-68580000D02*
X140208000Y-68580000D01*
X144780000Y-66040000D02*
X142240000Y-68580000D01*
X147320000Y-66040000D02*
X144780000Y-66040000D01*
X139728000Y-71910000D02*
X139700000Y-71882000D01*
X141323000Y-71910000D02*
X139728000Y-71910000D01*
X139700000Y-71882000D02*
X139700000Y-78994000D01*
X139700000Y-69088000D02*
X139700000Y-71882000D01*
%TO.N,/SPDIF_IN*%
X149860000Y-66040000D02*
X149860000Y-68580000D01*
%TO.N,/TOSLINK_RX*%
X152400000Y-66040000D02*
X152400000Y-66548000D01*
X153670000Y-67310000D02*
X152400000Y-66040000D01*
X153670000Y-69342000D02*
X153670000Y-67310000D01*
X151892000Y-71120000D02*
X153670000Y-69342000D01*
%TO.N,/CEC*%
X143530000Y-72410000D02*
X144780000Y-73660000D01*
X141323000Y-72410000D02*
X143530000Y-72410000D01*
%TO.N,/HPD*%
X141323000Y-69410000D02*
X143070000Y-69410000D01*
X143070000Y-69410000D02*
X143510000Y-69850000D01*
X143510000Y-69850000D02*
X146050000Y-69850000D01*
X146050000Y-69850000D02*
X146812000Y-70612000D01*
X146812000Y-70612000D02*
X146812000Y-75946000D01*
X146812000Y-75946000D02*
X148590000Y-77724000D01*
X148590000Y-80010000D02*
X149860000Y-81280000D01*
X148590000Y-77724000D02*
X148590000Y-80010000D01*
%TD*%
D17*
%TO.N,GND*%
X157917247Y-64860526D02*
X158093519Y-64913746D01*
X158256091Y-65000187D01*
X158398784Y-65116564D01*
X158516150Y-65258436D01*
X158603724Y-65420401D01*
X158658172Y-65596292D01*
X158679001Y-65794474D01*
X158679000Y-81518103D01*
X158659474Y-81717247D01*
X158606253Y-81893521D01*
X158519812Y-82056093D01*
X158403436Y-82198784D01*
X158261569Y-82316147D01*
X158099598Y-82403724D01*
X157923708Y-82458172D01*
X157725536Y-82479000D01*
X136219462Y-82479000D01*
X136257580Y-82415290D01*
X135423000Y-81580711D01*
X135408858Y-81594853D01*
X135338147Y-81524142D01*
X135352289Y-81510000D01*
X135493711Y-81510000D01*
X136328290Y-82344580D01*
X136508425Y-82236805D01*
X136629362Y-82011083D01*
X136688965Y-81815290D01*
X139488420Y-81815290D01*
X139596195Y-81995425D01*
X139821917Y-82116362D01*
X140066894Y-82190938D01*
X140321714Y-82216289D01*
X140576583Y-82191439D01*
X140821707Y-82117345D01*
X141047666Y-81996854D01*
X141049805Y-81995425D01*
X141157580Y-81815290D01*
X140323000Y-80980711D01*
X139488420Y-81815290D01*
X136688965Y-81815290D01*
X136703938Y-81766106D01*
X136729289Y-81511286D01*
X136704439Y-81256417D01*
X136630345Y-81011293D01*
X136575646Y-80908714D01*
X139016711Y-80908714D01*
X139041561Y-81163583D01*
X139115655Y-81408707D01*
X139236146Y-81634666D01*
X139237575Y-81636805D01*
X139417710Y-81744580D01*
X140252289Y-80910000D01*
X140393711Y-80910000D01*
X141228290Y-81744580D01*
X141408425Y-81636805D01*
X141529362Y-81411083D01*
X141603938Y-81166106D01*
X141629289Y-80911286D01*
X141604439Y-80656417D01*
X141530345Y-80411293D01*
X141409854Y-80185334D01*
X141408425Y-80183195D01*
X141228290Y-80075420D01*
X140393711Y-80910000D01*
X140252289Y-80910000D01*
X139417710Y-80075420D01*
X139237575Y-80183195D01*
X139116638Y-80408917D01*
X139042062Y-80653894D01*
X139016711Y-80908714D01*
X136575646Y-80908714D01*
X136509854Y-80785334D01*
X136508425Y-80783195D01*
X136328290Y-80675420D01*
X135493711Y-81510000D01*
X135352289Y-81510000D01*
X134517710Y-80675420D01*
X134437000Y-80723709D01*
X134437000Y-80604710D01*
X134588420Y-80604710D01*
X135423000Y-81439289D01*
X136257580Y-80604710D01*
X136149805Y-80424575D01*
X135924083Y-80303638D01*
X135679106Y-80229062D01*
X135424286Y-80203711D01*
X135169417Y-80228561D01*
X134924293Y-80302655D01*
X134698334Y-80423146D01*
X134696195Y-80424575D01*
X134588420Y-80604710D01*
X134437000Y-80604710D01*
X134437000Y-69088000D01*
X139272945Y-69088000D01*
X139275000Y-69108867D01*
X139275001Y-71861117D01*
X139275000Y-71861127D01*
X139275000Y-71861133D01*
X139272945Y-71882000D01*
X139275000Y-71902867D01*
X139275001Y-78973123D01*
X139272945Y-78994000D01*
X139281150Y-79077314D01*
X139302265Y-79146917D01*
X139305453Y-79157427D01*
X139344917Y-79231260D01*
X139398027Y-79295974D01*
X139414239Y-79309279D01*
X139813415Y-79708456D01*
X139598334Y-79823146D01*
X139596195Y-79824575D01*
X139488420Y-80004710D01*
X140323000Y-80839289D01*
X141157580Y-80004710D01*
X141111086Y-79927000D01*
X142825960Y-79927000D01*
X143194719Y-80295760D01*
X143208026Y-80311974D01*
X143272740Y-80365084D01*
X143346573Y-80404548D01*
X143402383Y-80421478D01*
X143426685Y-80428850D01*
X143435098Y-80429679D01*
X143489126Y-80435000D01*
X143489132Y-80435000D01*
X143509999Y-80437055D01*
X143530866Y-80435000D01*
X143628549Y-80435000D01*
X143628549Y-82130000D01*
X143634341Y-82188810D01*
X143651496Y-82245360D01*
X143679353Y-82297477D01*
X143716842Y-82343158D01*
X143762523Y-82380647D01*
X143814640Y-82408504D01*
X143871190Y-82425659D01*
X143930000Y-82431451D01*
X145630000Y-82431451D01*
X145688810Y-82425659D01*
X145745360Y-82408504D01*
X145797477Y-82380647D01*
X145843158Y-82343158D01*
X145880647Y-82297477D01*
X145908504Y-82245360D01*
X145925659Y-82188810D01*
X145931451Y-82130000D01*
X145931451Y-80492491D01*
X146263788Y-80824828D01*
X146214194Y-80944557D01*
X146170000Y-81166735D01*
X146170000Y-81393265D01*
X146214194Y-81615443D01*
X146300884Y-81824729D01*
X146426737Y-82013082D01*
X146586918Y-82173263D01*
X146775271Y-82299116D01*
X146984557Y-82385806D01*
X147206735Y-82430000D01*
X147433265Y-82430000D01*
X147655443Y-82385806D01*
X147864729Y-82299116D01*
X148053082Y-82173263D01*
X148213263Y-82013082D01*
X148339116Y-81824729D01*
X148425806Y-81615443D01*
X148470000Y-81393265D01*
X148470000Y-81166735D01*
X148425806Y-80944557D01*
X148339116Y-80735271D01*
X148213263Y-80546918D01*
X148053082Y-80386737D01*
X147864729Y-80260884D01*
X147655443Y-80174194D01*
X147433265Y-80130000D01*
X147206735Y-80130000D01*
X146984557Y-80174194D01*
X146864828Y-80223788D01*
X146365283Y-79724243D01*
X146351974Y-79708026D01*
X146287260Y-79654916D01*
X146213427Y-79615452D01*
X146133314Y-79591150D01*
X146070874Y-79585000D01*
X146070867Y-79585000D01*
X146050000Y-79582945D01*
X146029133Y-79585000D01*
X145931451Y-79585000D01*
X145931451Y-77890000D01*
X145925659Y-77831190D01*
X145908504Y-77774640D01*
X145880647Y-77722523D01*
X145843158Y-77676842D01*
X145797477Y-77639353D01*
X145745360Y-77611496D01*
X145688810Y-77594341D01*
X145630000Y-77588549D01*
X143930000Y-77588549D01*
X143871190Y-77594341D01*
X143814640Y-77611496D01*
X143762523Y-77639353D01*
X143716842Y-77676842D01*
X143679353Y-77722523D01*
X143651496Y-77774640D01*
X143634341Y-77831190D01*
X143628549Y-77890000D01*
X143628549Y-79527508D01*
X143317283Y-79216243D01*
X143303974Y-79200026D01*
X143239260Y-79146916D01*
X143165427Y-79107452D01*
X143085314Y-79083150D01*
X143022874Y-79077000D01*
X143022867Y-79077000D01*
X143002000Y-79074945D01*
X142981133Y-79077000D01*
X140384041Y-79077000D01*
X140125000Y-78817960D01*
X140125000Y-78730702D01*
X140159842Y-78773158D01*
X140205523Y-78810647D01*
X140257640Y-78838504D01*
X140314190Y-78855659D01*
X140373000Y-78861451D01*
X142273000Y-78861451D01*
X142331810Y-78855659D01*
X142388360Y-78838504D01*
X142440477Y-78810647D01*
X142486158Y-78773158D01*
X142523647Y-78727477D01*
X142551504Y-78675360D01*
X142568659Y-78618810D01*
X142574451Y-78560000D01*
X142574451Y-78260000D01*
X142568659Y-78201190D01*
X142556164Y-78160002D01*
X142568660Y-78118810D01*
X142574452Y-78060000D01*
X142573000Y-78035000D01*
X142498000Y-77960000D01*
X142287733Y-77960000D01*
X142273000Y-77958549D01*
X141253000Y-77958549D01*
X141253000Y-77861451D01*
X142273000Y-77861451D01*
X142287733Y-77860000D01*
X142498000Y-77860000D01*
X142573000Y-77785000D01*
X142574452Y-77760000D01*
X142568660Y-77701190D01*
X142556164Y-77659998D01*
X142568659Y-77618810D01*
X142574451Y-77560000D01*
X142574451Y-77260000D01*
X142568659Y-77201190D01*
X142556164Y-77160000D01*
X142568659Y-77118810D01*
X142574451Y-77060000D01*
X142574451Y-76760000D01*
X142568659Y-76701190D01*
X142556164Y-76660002D01*
X142568660Y-76618810D01*
X142574452Y-76560000D01*
X142573000Y-76535000D01*
X142498000Y-76460000D01*
X142287733Y-76460000D01*
X142273000Y-76458549D01*
X141253000Y-76458549D01*
X141253000Y-76361451D01*
X142273000Y-76361451D01*
X142287733Y-76360000D01*
X142498000Y-76360000D01*
X142573000Y-76285000D01*
X142574452Y-76260000D01*
X142568660Y-76201190D01*
X142556164Y-76159998D01*
X142568659Y-76118810D01*
X142574451Y-76060000D01*
X142574451Y-75760000D01*
X142568659Y-75701190D01*
X142556164Y-75660000D01*
X142568659Y-75618810D01*
X142574451Y-75560000D01*
X142574451Y-75350000D01*
X143628549Y-75350000D01*
X143628549Y-77050000D01*
X143634341Y-77108810D01*
X143651496Y-77165360D01*
X143679353Y-77217477D01*
X143716842Y-77263158D01*
X143762523Y-77300647D01*
X143814640Y-77328504D01*
X143871190Y-77345659D01*
X143930000Y-77351451D01*
X145630000Y-77351451D01*
X145688810Y-77345659D01*
X145745360Y-77328504D01*
X145797477Y-77300647D01*
X145843158Y-77263158D01*
X145880647Y-77217477D01*
X145908504Y-77165360D01*
X145925659Y-77108810D01*
X145931451Y-77050000D01*
X145931451Y-75350000D01*
X145925659Y-75291190D01*
X145908504Y-75234640D01*
X145880647Y-75182523D01*
X145843158Y-75136842D01*
X145797477Y-75099353D01*
X145745360Y-75071496D01*
X145688810Y-75054341D01*
X145630000Y-75048549D01*
X143930000Y-75048549D01*
X143871190Y-75054341D01*
X143814640Y-75071496D01*
X143762523Y-75099353D01*
X143716842Y-75136842D01*
X143679353Y-75182523D01*
X143651496Y-75234640D01*
X143634341Y-75291190D01*
X143628549Y-75350000D01*
X142574451Y-75350000D01*
X142574451Y-75260000D01*
X142568659Y-75201190D01*
X142556164Y-75160002D01*
X142568660Y-75118810D01*
X142574452Y-75060000D01*
X142573000Y-75035000D01*
X142498000Y-74960000D01*
X142287733Y-74960000D01*
X142273000Y-74958549D01*
X141253000Y-74958549D01*
X141253000Y-74861451D01*
X142273000Y-74861451D01*
X142287733Y-74860000D01*
X142498000Y-74860000D01*
X142573000Y-74785000D01*
X142574452Y-74760000D01*
X142568660Y-74701190D01*
X142556164Y-74659998D01*
X142568659Y-74618810D01*
X142574451Y-74560000D01*
X142574451Y-74260000D01*
X142568659Y-74201190D01*
X142556164Y-74160000D01*
X142568659Y-74118810D01*
X142574451Y-74060000D01*
X142574451Y-73760000D01*
X142568659Y-73701190D01*
X142556164Y-73660002D01*
X142568660Y-73618810D01*
X142574452Y-73560000D01*
X142573000Y-73535000D01*
X142498000Y-73460000D01*
X142287733Y-73460000D01*
X142273000Y-73458549D01*
X141253000Y-73458549D01*
X141253000Y-73361451D01*
X142273000Y-73361451D01*
X142287733Y-73360000D01*
X142498000Y-73360000D01*
X142573000Y-73285000D01*
X142574452Y-73260000D01*
X142568660Y-73201190D01*
X142556164Y-73159998D01*
X142568659Y-73118810D01*
X142574451Y-73060000D01*
X142574451Y-72835000D01*
X143353960Y-72835000D01*
X143723788Y-73204828D01*
X143674194Y-73324557D01*
X143630000Y-73546735D01*
X143630000Y-73773265D01*
X143674194Y-73995443D01*
X143760884Y-74204729D01*
X143886737Y-74393082D01*
X144046918Y-74553263D01*
X144235271Y-74679116D01*
X144444557Y-74765806D01*
X144666735Y-74810000D01*
X144893265Y-74810000D01*
X145115443Y-74765806D01*
X145324729Y-74679116D01*
X145513082Y-74553263D01*
X145673263Y-74393082D01*
X145799116Y-74204729D01*
X145885806Y-73995443D01*
X145930000Y-73773265D01*
X145930000Y-73546735D01*
X145885806Y-73324557D01*
X145799116Y-73115271D01*
X145673263Y-72926918D01*
X145513082Y-72766737D01*
X145324729Y-72640884D01*
X145115443Y-72554194D01*
X144893265Y-72510000D01*
X144666735Y-72510000D01*
X144444557Y-72554194D01*
X144324828Y-72603788D01*
X143845283Y-72124243D01*
X143831974Y-72108026D01*
X143767260Y-72054916D01*
X143693427Y-72015452D01*
X143613314Y-71991150D01*
X143550874Y-71985000D01*
X143550867Y-71985000D01*
X143530000Y-71982945D01*
X143509133Y-71985000D01*
X142574451Y-71985000D01*
X142574451Y-71760000D01*
X142568659Y-71701190D01*
X142556164Y-71660000D01*
X142568659Y-71618810D01*
X142574451Y-71560000D01*
X142574451Y-71349114D01*
X143653054Y-71349114D01*
X143715688Y-71555597D01*
X143821119Y-71754864D01*
X143963400Y-71929734D01*
X144137062Y-72073486D01*
X144335432Y-72180596D01*
X144550886Y-72246948D01*
X144730000Y-72193915D01*
X144730000Y-71170000D01*
X144830000Y-71170000D01*
X144830000Y-72193915D01*
X145009114Y-72246948D01*
X145224568Y-72180596D01*
X145422938Y-72073486D01*
X145596600Y-71929734D01*
X145738881Y-71754864D01*
X145844312Y-71555597D01*
X145906946Y-71349114D01*
X145853837Y-71170000D01*
X144830000Y-71170000D01*
X144730000Y-71170000D01*
X143706163Y-71170000D01*
X143653054Y-71349114D01*
X142574451Y-71349114D01*
X142574451Y-71260000D01*
X142568659Y-71201190D01*
X142556164Y-71160000D01*
X142568659Y-71118810D01*
X142574451Y-71060000D01*
X142574451Y-70760000D01*
X142568659Y-70701190D01*
X142556164Y-70660002D01*
X142568660Y-70618810D01*
X142574452Y-70560000D01*
X142573000Y-70535000D01*
X142498000Y-70460000D01*
X142287733Y-70460000D01*
X142273000Y-70458549D01*
X141253000Y-70458549D01*
X141253000Y-70361451D01*
X142273000Y-70361451D01*
X142287733Y-70360000D01*
X142498000Y-70360000D01*
X142573000Y-70285000D01*
X142574452Y-70260000D01*
X142568660Y-70201190D01*
X142556164Y-70159998D01*
X142568659Y-70118810D01*
X142574451Y-70060000D01*
X142574451Y-69835000D01*
X142893960Y-69835000D01*
X143194719Y-70135760D01*
X143208026Y-70151974D01*
X143272740Y-70205084D01*
X143346573Y-70244548D01*
X143402383Y-70261478D01*
X143426685Y-70268850D01*
X143434327Y-70269603D01*
X143489126Y-70275000D01*
X143489133Y-70275000D01*
X143510000Y-70277055D01*
X143530867Y-70275000D01*
X144006004Y-70275000D01*
X143963400Y-70310266D01*
X143821119Y-70485136D01*
X143715688Y-70684403D01*
X143653054Y-70890886D01*
X143706163Y-71070000D01*
X144730000Y-71070000D01*
X144730000Y-71050000D01*
X144830000Y-71050000D01*
X144830000Y-71070000D01*
X145853837Y-71070000D01*
X145906946Y-70890886D01*
X145844312Y-70684403D01*
X145738881Y-70485136D01*
X145596600Y-70310266D01*
X145553996Y-70275000D01*
X145873960Y-70275000D01*
X146387000Y-70788041D01*
X146387001Y-75925123D01*
X146384945Y-75946000D01*
X146393150Y-76029314D01*
X146398897Y-76048257D01*
X146417453Y-76109427D01*
X146456917Y-76183260D01*
X146510027Y-76247974D01*
X146526239Y-76261279D01*
X148165000Y-77900041D01*
X148165000Y-77958655D01*
X148053082Y-77846737D01*
X147864729Y-77720884D01*
X147655443Y-77634194D01*
X147433265Y-77590000D01*
X147206735Y-77590000D01*
X146984557Y-77634194D01*
X146775271Y-77720884D01*
X146586918Y-77846737D01*
X146426737Y-78006918D01*
X146300884Y-78195271D01*
X146214194Y-78404557D01*
X146170000Y-78626735D01*
X146170000Y-78853265D01*
X146214194Y-79075443D01*
X146300884Y-79284729D01*
X146426737Y-79473082D01*
X146586918Y-79633263D01*
X146775271Y-79759116D01*
X146984557Y-79845806D01*
X147206735Y-79890000D01*
X147433265Y-79890000D01*
X147655443Y-79845806D01*
X147864729Y-79759116D01*
X148053082Y-79633263D01*
X148165001Y-79521344D01*
X148165001Y-79989123D01*
X148162945Y-80010000D01*
X148171150Y-80093314D01*
X148183596Y-80134341D01*
X148195453Y-80173427D01*
X148234917Y-80247260D01*
X148288027Y-80311974D01*
X148304239Y-80325279D01*
X148803788Y-80824828D01*
X148754194Y-80944557D01*
X148710000Y-81166735D01*
X148710000Y-81393265D01*
X148754194Y-81615443D01*
X148840884Y-81824729D01*
X148966737Y-82013082D01*
X149126918Y-82173263D01*
X149315271Y-82299116D01*
X149524557Y-82385806D01*
X149746735Y-82430000D01*
X149973265Y-82430000D01*
X150195443Y-82385806D01*
X150404729Y-82299116D01*
X150593082Y-82173263D01*
X150753263Y-82013082D01*
X150879116Y-81824729D01*
X150965806Y-81615443D01*
X150986956Y-81509114D01*
X151273052Y-81509114D01*
X151339404Y-81724568D01*
X151446514Y-81922938D01*
X151590266Y-82096600D01*
X151765136Y-82238881D01*
X151964403Y-82344312D01*
X152170886Y-82406946D01*
X152350000Y-82353837D01*
X152350000Y-81330000D01*
X152450000Y-81330000D01*
X152450000Y-82353837D01*
X152629114Y-82406946D01*
X152835597Y-82344312D01*
X153034864Y-82238881D01*
X153209734Y-82096600D01*
X153353486Y-81922938D01*
X153460596Y-81724568D01*
X153526948Y-81509114D01*
X153473915Y-81330000D01*
X152450000Y-81330000D01*
X152350000Y-81330000D01*
X151326085Y-81330000D01*
X151273052Y-81509114D01*
X150986956Y-81509114D01*
X151010000Y-81393265D01*
X151010000Y-81166735D01*
X150986957Y-81050886D01*
X151273052Y-81050886D01*
X151326085Y-81230000D01*
X152350000Y-81230000D01*
X152350000Y-80206163D01*
X152450000Y-80206163D01*
X152450000Y-81230000D01*
X153473915Y-81230000D01*
X153526948Y-81050886D01*
X153460596Y-80835432D01*
X153353486Y-80637062D01*
X153209734Y-80463400D01*
X153034864Y-80321119D01*
X152835597Y-80215688D01*
X152629114Y-80153054D01*
X152450000Y-80206163D01*
X152350000Y-80206163D01*
X152170886Y-80153054D01*
X151964403Y-80215688D01*
X151765136Y-80321119D01*
X151590266Y-80463400D01*
X151446514Y-80637062D01*
X151339404Y-80835432D01*
X151273052Y-81050886D01*
X150986957Y-81050886D01*
X150965806Y-80944557D01*
X150879116Y-80735271D01*
X150753263Y-80546918D01*
X150593082Y-80386737D01*
X150404729Y-80260884D01*
X150195443Y-80174194D01*
X149973265Y-80130000D01*
X149746735Y-80130000D01*
X149524557Y-80174194D01*
X149404828Y-80223788D01*
X149015000Y-79833960D01*
X149015000Y-79521345D01*
X149126918Y-79633263D01*
X149315271Y-79759116D01*
X149524557Y-79845806D01*
X149746735Y-79890000D01*
X149973265Y-79890000D01*
X150195443Y-79845806D01*
X150404729Y-79759116D01*
X150593082Y-79633263D01*
X150753263Y-79473082D01*
X150879116Y-79284729D01*
X150965806Y-79075443D01*
X151010000Y-78853265D01*
X151010000Y-78626735D01*
X151250000Y-78626735D01*
X151250000Y-78853265D01*
X151294194Y-79075443D01*
X151380884Y-79284729D01*
X151506737Y-79473082D01*
X151666918Y-79633263D01*
X151855271Y-79759116D01*
X152064557Y-79845806D01*
X152286735Y-79890000D01*
X152513265Y-79890000D01*
X152735443Y-79845806D01*
X152944729Y-79759116D01*
X153133082Y-79633263D01*
X153293263Y-79473082D01*
X153419116Y-79284729D01*
X153505806Y-79075443D01*
X153550000Y-78853265D01*
X153550000Y-78626735D01*
X153790000Y-78626735D01*
X153790000Y-78853265D01*
X153834194Y-79075443D01*
X153920884Y-79284729D01*
X154046737Y-79473082D01*
X154206918Y-79633263D01*
X154395271Y-79759116D01*
X154604557Y-79845806D01*
X154826735Y-79890000D01*
X155053265Y-79890000D01*
X155275443Y-79845806D01*
X155484729Y-79759116D01*
X155673082Y-79633263D01*
X155833263Y-79473082D01*
X155959116Y-79284729D01*
X156045806Y-79075443D01*
X156090000Y-78853265D01*
X156090000Y-78626735D01*
X156330000Y-78626735D01*
X156330000Y-78853265D01*
X156374194Y-79075443D01*
X156460884Y-79284729D01*
X156586737Y-79473082D01*
X156746918Y-79633263D01*
X156935271Y-79759116D01*
X157144557Y-79845806D01*
X157366735Y-79890000D01*
X157593265Y-79890000D01*
X157815443Y-79845806D01*
X158024729Y-79759116D01*
X158213082Y-79633263D01*
X158373263Y-79473082D01*
X158499116Y-79284729D01*
X158585806Y-79075443D01*
X158630000Y-78853265D01*
X158630000Y-78626735D01*
X158585806Y-78404557D01*
X158499116Y-78195271D01*
X158373263Y-78006918D01*
X158213082Y-77846737D01*
X158024729Y-77720884D01*
X157815443Y-77634194D01*
X157593265Y-77590000D01*
X157366735Y-77590000D01*
X157144557Y-77634194D01*
X156935271Y-77720884D01*
X156746918Y-77846737D01*
X156586737Y-78006918D01*
X156460884Y-78195271D01*
X156374194Y-78404557D01*
X156330000Y-78626735D01*
X156090000Y-78626735D01*
X156045806Y-78404557D01*
X155959116Y-78195271D01*
X155833263Y-78006918D01*
X155673082Y-77846737D01*
X155484729Y-77720884D01*
X155275443Y-77634194D01*
X155053265Y-77590000D01*
X154826735Y-77590000D01*
X154604557Y-77634194D01*
X154395271Y-77720884D01*
X154206918Y-77846737D01*
X154046737Y-78006918D01*
X153920884Y-78195271D01*
X153834194Y-78404557D01*
X153790000Y-78626735D01*
X153550000Y-78626735D01*
X153505806Y-78404557D01*
X153419116Y-78195271D01*
X153293263Y-78006918D01*
X153133082Y-77846737D01*
X152944729Y-77720884D01*
X152735443Y-77634194D01*
X152513265Y-77590000D01*
X152286735Y-77590000D01*
X152064557Y-77634194D01*
X151855271Y-77720884D01*
X151666918Y-77846737D01*
X151506737Y-78006918D01*
X151380884Y-78195271D01*
X151294194Y-78404557D01*
X151250000Y-78626735D01*
X151010000Y-78626735D01*
X150965806Y-78404557D01*
X150879116Y-78195271D01*
X150753263Y-78006918D01*
X150593082Y-77846737D01*
X150404729Y-77720884D01*
X150195443Y-77634194D01*
X149973265Y-77590000D01*
X149746735Y-77590000D01*
X149524557Y-77634194D01*
X149315271Y-77720884D01*
X149126918Y-77846737D01*
X149015000Y-77958655D01*
X149015000Y-77744867D01*
X149017055Y-77724000D01*
X149015000Y-77703133D01*
X149015000Y-77703126D01*
X149008850Y-77640686D01*
X148999995Y-77611496D01*
X148984548Y-77560572D01*
X148957170Y-77509352D01*
X148945084Y-77486740D01*
X148891974Y-77422026D01*
X148875763Y-77408722D01*
X147237000Y-75769960D01*
X147237000Y-75226000D01*
X147559549Y-75226000D01*
X147559549Y-75676000D01*
X147569665Y-75778705D01*
X147599623Y-75877464D01*
X147648272Y-75968481D01*
X147713743Y-76048257D01*
X147793519Y-76113728D01*
X147884536Y-76162377D01*
X147983295Y-76192335D01*
X148086000Y-76202451D01*
X148486410Y-76202451D01*
X148769721Y-76485762D01*
X148783026Y-76501974D01*
X148847740Y-76555084D01*
X148921573Y-76594548D01*
X148977383Y-76611478D01*
X149001685Y-76618850D01*
X149009327Y-76619603D01*
X149064126Y-76625000D01*
X149064133Y-76625000D01*
X149085000Y-76627055D01*
X149105867Y-76625000D01*
X150840549Y-76625000D01*
X150840549Y-76950000D01*
X150846341Y-77008810D01*
X150863496Y-77065360D01*
X150891353Y-77117477D01*
X150928842Y-77163158D01*
X150974523Y-77200647D01*
X151026640Y-77228504D01*
X151083190Y-77245659D01*
X151142000Y-77251451D01*
X152642000Y-77251451D01*
X152700810Y-77245659D01*
X152757360Y-77228504D01*
X152809477Y-77200647D01*
X152855158Y-77163158D01*
X152892647Y-77117477D01*
X152920504Y-77065360D01*
X152937659Y-77008810D01*
X152943451Y-76950000D01*
X152943451Y-76151961D01*
X153132000Y-76151961D01*
X153132000Y-76408039D01*
X153181958Y-76659196D01*
X153279955Y-76895781D01*
X153422224Y-77108702D01*
X153603298Y-77289776D01*
X153816219Y-77432045D01*
X154052804Y-77530042D01*
X154303961Y-77580000D01*
X154560039Y-77580000D01*
X154811196Y-77530042D01*
X155047781Y-77432045D01*
X155260702Y-77289776D01*
X155441776Y-77108702D01*
X155584045Y-76895781D01*
X155682042Y-76659196D01*
X155732000Y-76408039D01*
X155732000Y-76151961D01*
X155719026Y-76086735D01*
X156330000Y-76086735D01*
X156330000Y-76313265D01*
X156374194Y-76535443D01*
X156460884Y-76744729D01*
X156586737Y-76933082D01*
X156746918Y-77093263D01*
X156935271Y-77219116D01*
X157144557Y-77305806D01*
X157366735Y-77350000D01*
X157593265Y-77350000D01*
X157815443Y-77305806D01*
X158024729Y-77219116D01*
X158213082Y-77093263D01*
X158373263Y-76933082D01*
X158499116Y-76744729D01*
X158585806Y-76535443D01*
X158630000Y-76313265D01*
X158630000Y-76086735D01*
X158585806Y-75864557D01*
X158499116Y-75655271D01*
X158373263Y-75466918D01*
X158213082Y-75306737D01*
X158024729Y-75180884D01*
X157815443Y-75094194D01*
X157593265Y-75050000D01*
X157366735Y-75050000D01*
X157144557Y-75094194D01*
X156935271Y-75180884D01*
X156746918Y-75306737D01*
X156586737Y-75466918D01*
X156460884Y-75655271D01*
X156374194Y-75864557D01*
X156330000Y-76086735D01*
X155719026Y-76086735D01*
X155682042Y-75900804D01*
X155584045Y-75664219D01*
X155441776Y-75451298D01*
X155260702Y-75270224D01*
X155047781Y-75127955D01*
X154811196Y-75029958D01*
X154560039Y-74980000D01*
X154303961Y-74980000D01*
X154052804Y-75029958D01*
X153816219Y-75127955D01*
X153603298Y-75270224D01*
X153422224Y-75451298D01*
X153279955Y-75664219D01*
X153181958Y-75900804D01*
X153132000Y-76151961D01*
X152943451Y-76151961D01*
X152943451Y-75450000D01*
X152937659Y-75391190D01*
X152920504Y-75334640D01*
X152892647Y-75282523D01*
X152855158Y-75236842D01*
X152809477Y-75199353D01*
X152757360Y-75171496D01*
X152700810Y-75154341D01*
X152642000Y-75148549D01*
X151142000Y-75148549D01*
X151083190Y-75154341D01*
X151026640Y-75171496D01*
X150974523Y-75199353D01*
X150928842Y-75236842D01*
X150891353Y-75282523D01*
X150863496Y-75334640D01*
X150846341Y-75391190D01*
X150840549Y-75450000D01*
X150840549Y-75775000D01*
X149261041Y-75775000D01*
X149112451Y-75626410D01*
X149112451Y-75226000D01*
X149102335Y-75123295D01*
X149072377Y-75024536D01*
X149023728Y-74933519D01*
X148958257Y-74853743D01*
X148878481Y-74788272D01*
X148787464Y-74739623D01*
X148688705Y-74709665D01*
X148586000Y-74699549D01*
X148086000Y-74699549D01*
X147983295Y-74709665D01*
X147884536Y-74739623D01*
X147793519Y-74788272D01*
X147713743Y-74853743D01*
X147648272Y-74933519D01*
X147599623Y-75024536D01*
X147569665Y-75123295D01*
X147559549Y-75226000D01*
X147237000Y-75226000D01*
X147237000Y-74351000D01*
X147559548Y-74351000D01*
X147565340Y-74409810D01*
X147582495Y-74466361D01*
X147610352Y-74518478D01*
X147647841Y-74564159D01*
X147693522Y-74601648D01*
X147745639Y-74629505D01*
X147802190Y-74646660D01*
X147861000Y-74652452D01*
X148211000Y-74651000D01*
X148286000Y-74576000D01*
X148286000Y-73951000D01*
X148386000Y-73951000D01*
X148386000Y-74576000D01*
X148461000Y-74651000D01*
X148811000Y-74652452D01*
X148869810Y-74646660D01*
X148926361Y-74629505D01*
X148978478Y-74601648D01*
X149024159Y-74564159D01*
X149061648Y-74518478D01*
X149089505Y-74466361D01*
X149106660Y-74409810D01*
X149112452Y-74351000D01*
X149111000Y-74026000D01*
X149036000Y-73951000D01*
X148386000Y-73951000D01*
X148286000Y-73951000D01*
X147636000Y-73951000D01*
X147561000Y-74026000D01*
X147559548Y-74351000D01*
X147237000Y-74351000D01*
X147237000Y-73873455D01*
X150863922Y-73873455D01*
X150925319Y-74069922D01*
X151023865Y-74250636D01*
X151155773Y-74408652D01*
X151315974Y-74537898D01*
X151498312Y-74633407D01*
X151678546Y-74688075D01*
X151842000Y-74633717D01*
X151842000Y-73710000D01*
X151942000Y-73710000D01*
X151942000Y-74633717D01*
X152105454Y-74688075D01*
X152285688Y-74633407D01*
X152468026Y-74537898D01*
X152628227Y-74408652D01*
X152760135Y-74250636D01*
X152858681Y-74069922D01*
X152915184Y-73889114D01*
X156353054Y-73889114D01*
X156415688Y-74095597D01*
X156521119Y-74294864D01*
X156663400Y-74469734D01*
X156837062Y-74613486D01*
X157035432Y-74720596D01*
X157250886Y-74786948D01*
X157430000Y-74733915D01*
X157430000Y-73710000D01*
X157530000Y-73710000D01*
X157530000Y-74733915D01*
X157709114Y-74786948D01*
X157924568Y-74720596D01*
X158122938Y-74613486D01*
X158296600Y-74469734D01*
X158438881Y-74294864D01*
X158544312Y-74095597D01*
X158606946Y-73889114D01*
X158553837Y-73710000D01*
X157530000Y-73710000D01*
X157430000Y-73710000D01*
X156406163Y-73710000D01*
X156353054Y-73889114D01*
X152915184Y-73889114D01*
X152920078Y-73873455D01*
X152865812Y-73710000D01*
X151942000Y-73710000D01*
X151842000Y-73710000D01*
X150918188Y-73710000D01*
X150863922Y-73873455D01*
X147237000Y-73873455D01*
X147237000Y-73451000D01*
X147559548Y-73451000D01*
X147561000Y-73776000D01*
X147636000Y-73851000D01*
X148286000Y-73851000D01*
X148286000Y-73226000D01*
X148386000Y-73226000D01*
X148386000Y-73851000D01*
X149036000Y-73851000D01*
X149111000Y-73776000D01*
X149112452Y-73451000D01*
X149112014Y-73446545D01*
X150863922Y-73446545D01*
X150918188Y-73610000D01*
X151842000Y-73610000D01*
X151842000Y-72686283D01*
X151942000Y-72686283D01*
X151942000Y-73610000D01*
X152865812Y-73610000D01*
X152920078Y-73446545D01*
X152915185Y-73430886D01*
X156353054Y-73430886D01*
X156406163Y-73610000D01*
X157430000Y-73610000D01*
X157430000Y-72586085D01*
X157530000Y-72586085D01*
X157530000Y-73610000D01*
X158553837Y-73610000D01*
X158606946Y-73430886D01*
X158544312Y-73224403D01*
X158438881Y-73025136D01*
X158296600Y-72850266D01*
X158122938Y-72706514D01*
X157924568Y-72599404D01*
X157709114Y-72533052D01*
X157530000Y-72586085D01*
X157430000Y-72586085D01*
X157250886Y-72533052D01*
X157035432Y-72599404D01*
X156837062Y-72706514D01*
X156663400Y-72850266D01*
X156521119Y-73025136D01*
X156415688Y-73224403D01*
X156353054Y-73430886D01*
X152915185Y-73430886D01*
X152858681Y-73250078D01*
X152760135Y-73069364D01*
X152628227Y-72911348D01*
X152468026Y-72782102D01*
X152285688Y-72686593D01*
X152105454Y-72631925D01*
X151942000Y-72686283D01*
X151842000Y-72686283D01*
X151678546Y-72631925D01*
X151498312Y-72686593D01*
X151315974Y-72782102D01*
X151155773Y-72911348D01*
X151023865Y-73069364D01*
X150925319Y-73250078D01*
X150863922Y-73446545D01*
X149112014Y-73446545D01*
X149106660Y-73392190D01*
X149089505Y-73335639D01*
X149061648Y-73283522D01*
X149024159Y-73237841D01*
X148978478Y-73200352D01*
X148926361Y-73172495D01*
X148869810Y-73155340D01*
X148811000Y-73149548D01*
X148461000Y-73151000D01*
X148386000Y-73226000D01*
X148286000Y-73226000D01*
X148211000Y-73151000D01*
X147861000Y-73149548D01*
X147802190Y-73155340D01*
X147745639Y-73172495D01*
X147693522Y-73200352D01*
X147647841Y-73237841D01*
X147610352Y-73283522D01*
X147582495Y-73335639D01*
X147565340Y-73392190D01*
X147559548Y-73451000D01*
X147237000Y-73451000D01*
X147237000Y-71016584D01*
X150842000Y-71016584D01*
X150842000Y-71223416D01*
X150882350Y-71426274D01*
X150961502Y-71617362D01*
X151076411Y-71789336D01*
X151222664Y-71935589D01*
X151394638Y-72050498D01*
X151585726Y-72129650D01*
X151788584Y-72170000D01*
X151995416Y-72170000D01*
X152198274Y-72129650D01*
X152389362Y-72050498D01*
X152561336Y-71935589D01*
X152707589Y-71789336D01*
X152822498Y-71617362D01*
X152901650Y-71426274D01*
X152942000Y-71223416D01*
X152942000Y-71016584D01*
X152921190Y-70911961D01*
X153132000Y-70911961D01*
X153132000Y-71168039D01*
X153181958Y-71419196D01*
X153279955Y-71655781D01*
X153422224Y-71868702D01*
X153603298Y-72049776D01*
X153816219Y-72192045D01*
X154052804Y-72290042D01*
X154303961Y-72340000D01*
X154560039Y-72340000D01*
X154811196Y-72290042D01*
X155047781Y-72192045D01*
X155260702Y-72049776D01*
X155441776Y-71868702D01*
X155584045Y-71655781D01*
X155682042Y-71419196D01*
X155732000Y-71168039D01*
X155732000Y-71006735D01*
X156330000Y-71006735D01*
X156330000Y-71233265D01*
X156374194Y-71455443D01*
X156460884Y-71664729D01*
X156586737Y-71853082D01*
X156746918Y-72013263D01*
X156935271Y-72139116D01*
X157144557Y-72225806D01*
X157366735Y-72270000D01*
X157593265Y-72270000D01*
X157815443Y-72225806D01*
X158024729Y-72139116D01*
X158213082Y-72013263D01*
X158373263Y-71853082D01*
X158499116Y-71664729D01*
X158585806Y-71455443D01*
X158630000Y-71233265D01*
X158630000Y-71006735D01*
X158585806Y-70784557D01*
X158499116Y-70575271D01*
X158373263Y-70386918D01*
X158213082Y-70226737D01*
X158024729Y-70100884D01*
X157815443Y-70014194D01*
X157593265Y-69970000D01*
X157366735Y-69970000D01*
X157144557Y-70014194D01*
X156935271Y-70100884D01*
X156746918Y-70226737D01*
X156586737Y-70386918D01*
X156460884Y-70575271D01*
X156374194Y-70784557D01*
X156330000Y-71006735D01*
X155732000Y-71006735D01*
X155732000Y-70911961D01*
X155682042Y-70660804D01*
X155584045Y-70424219D01*
X155441776Y-70211298D01*
X155260702Y-70030224D01*
X155047781Y-69887955D01*
X154811196Y-69789958D01*
X154560039Y-69740000D01*
X154303961Y-69740000D01*
X154052804Y-69789958D01*
X153816219Y-69887955D01*
X153603298Y-70030224D01*
X153422224Y-70211298D01*
X153279955Y-70424219D01*
X153181958Y-70660804D01*
X153132000Y-70911961D01*
X152921190Y-70911961D01*
X152901650Y-70813726D01*
X152871676Y-70741364D01*
X153928956Y-69684085D01*
X153974640Y-69708504D01*
X154031190Y-69725659D01*
X154090000Y-69731451D01*
X155790000Y-69731451D01*
X155848810Y-69725659D01*
X155905360Y-69708504D01*
X155957477Y-69680647D01*
X156003158Y-69643158D01*
X156040647Y-69597477D01*
X156068504Y-69545360D01*
X156085659Y-69488810D01*
X156091451Y-69430000D01*
X156091451Y-67730000D01*
X156328549Y-67730000D01*
X156328549Y-69430000D01*
X156334341Y-69488810D01*
X156351496Y-69545360D01*
X156379353Y-69597477D01*
X156416842Y-69643158D01*
X156462523Y-69680647D01*
X156514640Y-69708504D01*
X156571190Y-69725659D01*
X156630000Y-69731451D01*
X158330000Y-69731451D01*
X158388810Y-69725659D01*
X158445360Y-69708504D01*
X158497477Y-69680647D01*
X158543158Y-69643158D01*
X158580647Y-69597477D01*
X158608504Y-69545360D01*
X158625659Y-69488810D01*
X158631451Y-69430000D01*
X158631451Y-67730000D01*
X158625659Y-67671190D01*
X158608504Y-67614640D01*
X158580647Y-67562523D01*
X158543158Y-67516842D01*
X158497477Y-67479353D01*
X158445360Y-67451496D01*
X158388810Y-67434341D01*
X158330000Y-67428549D01*
X156630000Y-67428549D01*
X156571190Y-67434341D01*
X156514640Y-67451496D01*
X156462523Y-67479353D01*
X156416842Y-67516842D01*
X156379353Y-67562523D01*
X156351496Y-67614640D01*
X156334341Y-67671190D01*
X156328549Y-67730000D01*
X156091451Y-67730000D01*
X156085659Y-67671190D01*
X156068504Y-67614640D01*
X156040647Y-67562523D01*
X156003158Y-67516842D01*
X155957477Y-67479353D01*
X155905360Y-67451496D01*
X155848810Y-67434341D01*
X155790000Y-67428549D01*
X154095000Y-67428549D01*
X154095000Y-67330866D01*
X154097055Y-67309999D01*
X154095000Y-67289132D01*
X154095000Y-67289126D01*
X154088850Y-67226686D01*
X154064548Y-67146573D01*
X154025084Y-67072740D01*
X153971974Y-67008026D01*
X153955762Y-66994721D01*
X153551451Y-66590410D01*
X153551451Y-65190000D01*
X153545659Y-65131190D01*
X153528504Y-65074640D01*
X153500647Y-65022523D01*
X153463158Y-64976842D01*
X153417477Y-64939353D01*
X153365360Y-64911496D01*
X153308810Y-64894341D01*
X153250000Y-64888549D01*
X151550000Y-64888549D01*
X151491190Y-64894341D01*
X151434640Y-64911496D01*
X151382523Y-64939353D01*
X151336842Y-64976842D01*
X151299353Y-65022523D01*
X151271496Y-65074640D01*
X151254341Y-65131190D01*
X151248549Y-65190000D01*
X151248549Y-66890000D01*
X151254341Y-66948810D01*
X151271496Y-67005360D01*
X151299353Y-67057477D01*
X151336842Y-67103158D01*
X151382523Y-67140647D01*
X151434640Y-67168504D01*
X151491190Y-67185659D01*
X151550000Y-67191451D01*
X152950410Y-67191451D01*
X153245001Y-67486042D01*
X153245001Y-67798656D01*
X153133082Y-67686737D01*
X152944729Y-67560884D01*
X152735443Y-67474194D01*
X152513265Y-67430000D01*
X152286735Y-67430000D01*
X152064557Y-67474194D01*
X151855271Y-67560884D01*
X151666918Y-67686737D01*
X151506737Y-67846918D01*
X151380884Y-68035271D01*
X151294194Y-68244557D01*
X151250000Y-68466735D01*
X151250000Y-68693265D01*
X151294194Y-68915443D01*
X151380884Y-69124729D01*
X151506737Y-69313082D01*
X151666918Y-69473263D01*
X151855271Y-69599116D01*
X152064557Y-69685806D01*
X152286735Y-69730000D01*
X152513265Y-69730000D01*
X152722598Y-69688361D01*
X152270636Y-70140324D01*
X152198274Y-70110350D01*
X151995416Y-70070000D01*
X151788584Y-70070000D01*
X151585726Y-70110350D01*
X151394638Y-70189502D01*
X151222664Y-70304411D01*
X151076411Y-70450664D01*
X150961502Y-70622638D01*
X150882350Y-70813726D01*
X150842000Y-71016584D01*
X147237000Y-71016584D01*
X147237000Y-70632867D01*
X147239055Y-70612000D01*
X147237000Y-70591133D01*
X147237000Y-70591126D01*
X147230850Y-70528686D01*
X147211331Y-70464341D01*
X147206548Y-70448572D01*
X147192801Y-70422855D01*
X147167084Y-70374740D01*
X147113974Y-70310026D01*
X147097763Y-70296722D01*
X146365283Y-69564243D01*
X146351974Y-69548026D01*
X146287260Y-69494916D01*
X146213427Y-69455452D01*
X146133314Y-69431150D01*
X146070874Y-69425000D01*
X146070867Y-69425000D01*
X146050000Y-69422945D01*
X146029133Y-69425000D01*
X145561345Y-69425000D01*
X145673263Y-69313082D01*
X145799116Y-69124729D01*
X145885806Y-68915443D01*
X145930000Y-68693265D01*
X145930000Y-68466735D01*
X146170000Y-68466735D01*
X146170000Y-68693265D01*
X146214194Y-68915443D01*
X146300884Y-69124729D01*
X146426737Y-69313082D01*
X146586918Y-69473263D01*
X146775271Y-69599116D01*
X146984557Y-69685806D01*
X147206735Y-69730000D01*
X147433265Y-69730000D01*
X147655443Y-69685806D01*
X147864729Y-69599116D01*
X148053082Y-69473263D01*
X148213263Y-69313082D01*
X148339116Y-69124729D01*
X148425806Y-68915443D01*
X148470000Y-68693265D01*
X148470000Y-68466735D01*
X148425806Y-68244557D01*
X148339116Y-68035271D01*
X148213263Y-67846918D01*
X148053082Y-67686737D01*
X147864729Y-67560884D01*
X147655443Y-67474194D01*
X147433265Y-67430000D01*
X147206735Y-67430000D01*
X146984557Y-67474194D01*
X146775271Y-67560884D01*
X146586918Y-67686737D01*
X146426737Y-67846918D01*
X146300884Y-68035271D01*
X146214194Y-68244557D01*
X146170000Y-68466735D01*
X145930000Y-68466735D01*
X145885806Y-68244557D01*
X145799116Y-68035271D01*
X145673263Y-67846918D01*
X145513082Y-67686737D01*
X145324729Y-67560884D01*
X145115443Y-67474194D01*
X144893265Y-67430000D01*
X144666735Y-67430000D01*
X144444557Y-67474194D01*
X144235271Y-67560884D01*
X144046918Y-67686737D01*
X143886737Y-67846918D01*
X143760884Y-68035271D01*
X143674194Y-68244557D01*
X143630000Y-68466735D01*
X143630000Y-68693265D01*
X143674194Y-68915443D01*
X143760884Y-69124729D01*
X143886737Y-69313082D01*
X143998655Y-69425000D01*
X143686041Y-69425000D01*
X143385283Y-69124243D01*
X143371974Y-69108026D01*
X143307260Y-69054916D01*
X143233427Y-69015452D01*
X143153314Y-68991150D01*
X143090874Y-68985000D01*
X143090867Y-68985000D01*
X143070000Y-68982945D01*
X143049133Y-68985000D01*
X142394916Y-68985000D01*
X142388360Y-68981496D01*
X142384441Y-68980307D01*
X142403427Y-68974548D01*
X142477260Y-68935084D01*
X142541974Y-68881974D01*
X142555283Y-68865757D01*
X144956041Y-66465000D01*
X146251290Y-66465000D01*
X146300884Y-66584729D01*
X146426737Y-66773082D01*
X146586918Y-66933263D01*
X146775271Y-67059116D01*
X146984557Y-67145806D01*
X147206735Y-67190000D01*
X147433265Y-67190000D01*
X147655443Y-67145806D01*
X147864729Y-67059116D01*
X148053082Y-66933263D01*
X148213263Y-66773082D01*
X148339116Y-66584729D01*
X148425806Y-66375443D01*
X148470000Y-66153265D01*
X148470000Y-65926735D01*
X148710000Y-65926735D01*
X148710000Y-66153265D01*
X148754194Y-66375443D01*
X148840884Y-66584729D01*
X148966737Y-66773082D01*
X149126918Y-66933263D01*
X149315271Y-67059116D01*
X149435000Y-67108710D01*
X149435001Y-67511290D01*
X149315271Y-67560884D01*
X149126918Y-67686737D01*
X148966737Y-67846918D01*
X148840884Y-68035271D01*
X148754194Y-68244557D01*
X148710000Y-68466735D01*
X148710000Y-68693265D01*
X148754194Y-68915443D01*
X148840884Y-69124729D01*
X148966737Y-69313082D01*
X149126918Y-69473263D01*
X149315271Y-69599116D01*
X149524557Y-69685806D01*
X149746735Y-69730000D01*
X149973265Y-69730000D01*
X150195443Y-69685806D01*
X150404729Y-69599116D01*
X150593082Y-69473263D01*
X150753263Y-69313082D01*
X150879116Y-69124729D01*
X150965806Y-68915443D01*
X151010000Y-68693265D01*
X151010000Y-68466735D01*
X150965806Y-68244557D01*
X150879116Y-68035271D01*
X150753263Y-67846918D01*
X150593082Y-67686737D01*
X150404729Y-67560884D01*
X150285000Y-67511290D01*
X150285000Y-67108710D01*
X150404729Y-67059116D01*
X150593082Y-66933263D01*
X150753263Y-66773082D01*
X150879116Y-66584729D01*
X150965806Y-66375443D01*
X151010000Y-66153265D01*
X151010000Y-65926735D01*
X150965806Y-65704557D01*
X150879116Y-65495271D01*
X150753263Y-65306918D01*
X150593082Y-65146737D01*
X150404729Y-65020884D01*
X150195443Y-64934194D01*
X149973265Y-64890000D01*
X149746735Y-64890000D01*
X149524557Y-64934194D01*
X149315271Y-65020884D01*
X149126918Y-65146737D01*
X148966737Y-65306918D01*
X148840884Y-65495271D01*
X148754194Y-65704557D01*
X148710000Y-65926735D01*
X148470000Y-65926735D01*
X148425806Y-65704557D01*
X148339116Y-65495271D01*
X148213263Y-65306918D01*
X148053082Y-65146737D01*
X147864729Y-65020884D01*
X147655443Y-64934194D01*
X147433265Y-64890000D01*
X147206735Y-64890000D01*
X146984557Y-64934194D01*
X146775271Y-65020884D01*
X146586918Y-65146737D01*
X146426737Y-65306918D01*
X146300884Y-65495271D01*
X146251290Y-65615000D01*
X144800866Y-65615000D01*
X144779999Y-65612945D01*
X144759132Y-65615000D01*
X144759126Y-65615000D01*
X144705098Y-65620321D01*
X144696685Y-65621150D01*
X144678268Y-65626737D01*
X144616573Y-65645452D01*
X144542740Y-65684916D01*
X144478026Y-65738026D01*
X144464721Y-65754238D01*
X142063960Y-68155000D01*
X140228866Y-68155000D01*
X140207999Y-68152945D01*
X140187132Y-68155000D01*
X140187126Y-68155000D01*
X140133098Y-68160321D01*
X140124685Y-68161150D01*
X140100383Y-68168522D01*
X140044573Y-68185452D01*
X139970740Y-68224916D01*
X139906026Y-68278026D01*
X139892721Y-68294238D01*
X139414243Y-68772717D01*
X139398026Y-68786026D01*
X139344916Y-68850741D01*
X139305452Y-68924574D01*
X139302264Y-68935084D01*
X139282921Y-68998850D01*
X139281150Y-69004687D01*
X139275000Y-69067127D01*
X139275000Y-69067133D01*
X139272945Y-69088000D01*
X134437000Y-69088000D01*
X134437000Y-67315290D01*
X139488420Y-67315290D01*
X139596195Y-67495425D01*
X139821917Y-67616362D01*
X140066894Y-67690938D01*
X140321714Y-67716289D01*
X140576583Y-67691439D01*
X140821707Y-67617345D01*
X141047666Y-67496854D01*
X141049805Y-67495425D01*
X141157580Y-67315290D01*
X140323000Y-66480711D01*
X139488420Y-67315290D01*
X134437000Y-67315290D01*
X134437000Y-66715290D01*
X134588420Y-66715290D01*
X134696195Y-66895425D01*
X134921917Y-67016362D01*
X135166894Y-67090938D01*
X135421714Y-67116289D01*
X135676583Y-67091439D01*
X135921707Y-67017345D01*
X136147666Y-66896854D01*
X136149805Y-66895425D01*
X136257580Y-66715290D01*
X135423000Y-65880711D01*
X134588420Y-66715290D01*
X134437000Y-66715290D01*
X134437000Y-66596291D01*
X134517710Y-66644580D01*
X135352289Y-65810000D01*
X135493711Y-65810000D01*
X136328290Y-66644580D01*
X136508425Y-66536805D01*
X136577053Y-66408714D01*
X139016711Y-66408714D01*
X139041561Y-66663583D01*
X139115655Y-66908707D01*
X139236146Y-67134666D01*
X139237575Y-67136805D01*
X139417710Y-67244580D01*
X140252289Y-66410000D01*
X140393711Y-66410000D01*
X141228290Y-67244580D01*
X141408425Y-67136805D01*
X141529362Y-66911083D01*
X141603938Y-66666106D01*
X141629289Y-66411286D01*
X141604439Y-66156417D01*
X141530345Y-65911293D01*
X141409854Y-65685334D01*
X141408425Y-65683195D01*
X141228290Y-65575420D01*
X140393711Y-66410000D01*
X140252289Y-66410000D01*
X139417710Y-65575420D01*
X139237575Y-65683195D01*
X139116638Y-65908917D01*
X139042062Y-66153894D01*
X139016711Y-66408714D01*
X136577053Y-66408714D01*
X136629362Y-66311083D01*
X136703938Y-66066106D01*
X136729289Y-65811286D01*
X136704439Y-65556417D01*
X136688810Y-65504710D01*
X139488420Y-65504710D01*
X140323000Y-66339289D01*
X141157580Y-65504710D01*
X141049805Y-65324575D01*
X140824083Y-65203638D01*
X140579106Y-65129062D01*
X140324286Y-65103711D01*
X140069417Y-65128561D01*
X139824293Y-65202655D01*
X139598334Y-65323146D01*
X139596195Y-65324575D01*
X139488420Y-65504710D01*
X136688810Y-65504710D01*
X136630345Y-65311293D01*
X136509854Y-65085334D01*
X136508425Y-65083195D01*
X136328290Y-64975420D01*
X135493711Y-65810000D01*
X135352289Y-65810000D01*
X135338147Y-65795858D01*
X135408858Y-65725147D01*
X135423000Y-65739289D01*
X136257580Y-64904710D01*
X136219462Y-64841000D01*
X157718104Y-64841000D01*
X157917247Y-64860526D01*
%TA.AperFunction,Conductor*%
D18*
G36*
X157917247Y-64860526D02*
G01*
X158093519Y-64913746D01*
X158256091Y-65000187D01*
X158398784Y-65116564D01*
X158516150Y-65258436D01*
X158603724Y-65420401D01*
X158658172Y-65596292D01*
X158679001Y-65794474D01*
X158679000Y-81518103D01*
X158659474Y-81717247D01*
X158606253Y-81893521D01*
X158519812Y-82056093D01*
X158403436Y-82198784D01*
X158261569Y-82316147D01*
X158099598Y-82403724D01*
X157923708Y-82458172D01*
X157725536Y-82479000D01*
X136219462Y-82479000D01*
X136257580Y-82415290D01*
X135423000Y-81580711D01*
X135408858Y-81594853D01*
X135338147Y-81524142D01*
X135352289Y-81510000D01*
X135493711Y-81510000D01*
X136328290Y-82344580D01*
X136508425Y-82236805D01*
X136629362Y-82011083D01*
X136688965Y-81815290D01*
X139488420Y-81815290D01*
X139596195Y-81995425D01*
X139821917Y-82116362D01*
X140066894Y-82190938D01*
X140321714Y-82216289D01*
X140576583Y-82191439D01*
X140821707Y-82117345D01*
X141047666Y-81996854D01*
X141049805Y-81995425D01*
X141157580Y-81815290D01*
X140323000Y-80980711D01*
X139488420Y-81815290D01*
X136688965Y-81815290D01*
X136703938Y-81766106D01*
X136729289Y-81511286D01*
X136704439Y-81256417D01*
X136630345Y-81011293D01*
X136575646Y-80908714D01*
X139016711Y-80908714D01*
X139041561Y-81163583D01*
X139115655Y-81408707D01*
X139236146Y-81634666D01*
X139237575Y-81636805D01*
X139417710Y-81744580D01*
X140252289Y-80910000D01*
X140393711Y-80910000D01*
X141228290Y-81744580D01*
X141408425Y-81636805D01*
X141529362Y-81411083D01*
X141603938Y-81166106D01*
X141629289Y-80911286D01*
X141604439Y-80656417D01*
X141530345Y-80411293D01*
X141409854Y-80185334D01*
X141408425Y-80183195D01*
X141228290Y-80075420D01*
X140393711Y-80910000D01*
X140252289Y-80910000D01*
X139417710Y-80075420D01*
X139237575Y-80183195D01*
X139116638Y-80408917D01*
X139042062Y-80653894D01*
X139016711Y-80908714D01*
X136575646Y-80908714D01*
X136509854Y-80785334D01*
X136508425Y-80783195D01*
X136328290Y-80675420D01*
X135493711Y-81510000D01*
X135352289Y-81510000D01*
X134517710Y-80675420D01*
X134437000Y-80723709D01*
X134437000Y-80604710D01*
X134588420Y-80604710D01*
X135423000Y-81439289D01*
X136257580Y-80604710D01*
X136149805Y-80424575D01*
X135924083Y-80303638D01*
X135679106Y-80229062D01*
X135424286Y-80203711D01*
X135169417Y-80228561D01*
X134924293Y-80302655D01*
X134698334Y-80423146D01*
X134696195Y-80424575D01*
X134588420Y-80604710D01*
X134437000Y-80604710D01*
X134437000Y-69088000D01*
X139272945Y-69088000D01*
X139275000Y-69108867D01*
X139275001Y-71861117D01*
X139275000Y-71861127D01*
X139275000Y-71861133D01*
X139272945Y-71882000D01*
X139275000Y-71902867D01*
X139275001Y-78973123D01*
X139272945Y-78994000D01*
X139281150Y-79077314D01*
X139302265Y-79146917D01*
X139305453Y-79157427D01*
X139344917Y-79231260D01*
X139398027Y-79295974D01*
X139414239Y-79309279D01*
X139813415Y-79708456D01*
X139598334Y-79823146D01*
X139596195Y-79824575D01*
X139488420Y-80004710D01*
X140323000Y-80839289D01*
X141157580Y-80004710D01*
X141111086Y-79927000D01*
X142825960Y-79927000D01*
X143194719Y-80295760D01*
X143208026Y-80311974D01*
X143272740Y-80365084D01*
X143346573Y-80404548D01*
X143402383Y-80421478D01*
X143426685Y-80428850D01*
X143435098Y-80429679D01*
X143489126Y-80435000D01*
X143489132Y-80435000D01*
X143509999Y-80437055D01*
X143530866Y-80435000D01*
X143628549Y-80435000D01*
X143628549Y-82130000D01*
X143634341Y-82188810D01*
X143651496Y-82245360D01*
X143679353Y-82297477D01*
X143716842Y-82343158D01*
X143762523Y-82380647D01*
X143814640Y-82408504D01*
X143871190Y-82425659D01*
X143930000Y-82431451D01*
X145630000Y-82431451D01*
X145688810Y-82425659D01*
X145745360Y-82408504D01*
X145797477Y-82380647D01*
X145843158Y-82343158D01*
X145880647Y-82297477D01*
X145908504Y-82245360D01*
X145925659Y-82188810D01*
X145931451Y-82130000D01*
X145931451Y-80492491D01*
X146263788Y-80824828D01*
X146214194Y-80944557D01*
X146170000Y-81166735D01*
X146170000Y-81393265D01*
X146214194Y-81615443D01*
X146300884Y-81824729D01*
X146426737Y-82013082D01*
X146586918Y-82173263D01*
X146775271Y-82299116D01*
X146984557Y-82385806D01*
X147206735Y-82430000D01*
X147433265Y-82430000D01*
X147655443Y-82385806D01*
X147864729Y-82299116D01*
X148053082Y-82173263D01*
X148213263Y-82013082D01*
X148339116Y-81824729D01*
X148425806Y-81615443D01*
X148470000Y-81393265D01*
X148470000Y-81166735D01*
X148425806Y-80944557D01*
X148339116Y-80735271D01*
X148213263Y-80546918D01*
X148053082Y-80386737D01*
X147864729Y-80260884D01*
X147655443Y-80174194D01*
X147433265Y-80130000D01*
X147206735Y-80130000D01*
X146984557Y-80174194D01*
X146864828Y-80223788D01*
X146365283Y-79724243D01*
X146351974Y-79708026D01*
X146287260Y-79654916D01*
X146213427Y-79615452D01*
X146133314Y-79591150D01*
X146070874Y-79585000D01*
X146070867Y-79585000D01*
X146050000Y-79582945D01*
X146029133Y-79585000D01*
X145931451Y-79585000D01*
X145931451Y-77890000D01*
X145925659Y-77831190D01*
X145908504Y-77774640D01*
X145880647Y-77722523D01*
X145843158Y-77676842D01*
X145797477Y-77639353D01*
X145745360Y-77611496D01*
X145688810Y-77594341D01*
X145630000Y-77588549D01*
X143930000Y-77588549D01*
X143871190Y-77594341D01*
X143814640Y-77611496D01*
X143762523Y-77639353D01*
X143716842Y-77676842D01*
X143679353Y-77722523D01*
X143651496Y-77774640D01*
X143634341Y-77831190D01*
X143628549Y-77890000D01*
X143628549Y-79527508D01*
X143317283Y-79216243D01*
X143303974Y-79200026D01*
X143239260Y-79146916D01*
X143165427Y-79107452D01*
X143085314Y-79083150D01*
X143022874Y-79077000D01*
X143022867Y-79077000D01*
X143002000Y-79074945D01*
X142981133Y-79077000D01*
X140384041Y-79077000D01*
X140125000Y-78817960D01*
X140125000Y-78730702D01*
X140159842Y-78773158D01*
X140205523Y-78810647D01*
X140257640Y-78838504D01*
X140314190Y-78855659D01*
X140373000Y-78861451D01*
X142273000Y-78861451D01*
X142331810Y-78855659D01*
X142388360Y-78838504D01*
X142440477Y-78810647D01*
X142486158Y-78773158D01*
X142523647Y-78727477D01*
X142551504Y-78675360D01*
X142568659Y-78618810D01*
X142574451Y-78560000D01*
X142574451Y-78260000D01*
X142568659Y-78201190D01*
X142556164Y-78160002D01*
X142568660Y-78118810D01*
X142574452Y-78060000D01*
X142573000Y-78035000D01*
X142498000Y-77960000D01*
X142287733Y-77960000D01*
X142273000Y-77958549D01*
X141253000Y-77958549D01*
X141253000Y-77861451D01*
X142273000Y-77861451D01*
X142287733Y-77860000D01*
X142498000Y-77860000D01*
X142573000Y-77785000D01*
X142574452Y-77760000D01*
X142568660Y-77701190D01*
X142556164Y-77659998D01*
X142568659Y-77618810D01*
X142574451Y-77560000D01*
X142574451Y-77260000D01*
X142568659Y-77201190D01*
X142556164Y-77160000D01*
X142568659Y-77118810D01*
X142574451Y-77060000D01*
X142574451Y-76760000D01*
X142568659Y-76701190D01*
X142556164Y-76660002D01*
X142568660Y-76618810D01*
X142574452Y-76560000D01*
X142573000Y-76535000D01*
X142498000Y-76460000D01*
X142287733Y-76460000D01*
X142273000Y-76458549D01*
X141253000Y-76458549D01*
X141253000Y-76361451D01*
X142273000Y-76361451D01*
X142287733Y-76360000D01*
X142498000Y-76360000D01*
X142573000Y-76285000D01*
X142574452Y-76260000D01*
X142568660Y-76201190D01*
X142556164Y-76159998D01*
X142568659Y-76118810D01*
X142574451Y-76060000D01*
X142574451Y-75760000D01*
X142568659Y-75701190D01*
X142556164Y-75660000D01*
X142568659Y-75618810D01*
X142574451Y-75560000D01*
X142574451Y-75350000D01*
X143628549Y-75350000D01*
X143628549Y-77050000D01*
X143634341Y-77108810D01*
X143651496Y-77165360D01*
X143679353Y-77217477D01*
X143716842Y-77263158D01*
X143762523Y-77300647D01*
X143814640Y-77328504D01*
X143871190Y-77345659D01*
X143930000Y-77351451D01*
X145630000Y-77351451D01*
X145688810Y-77345659D01*
X145745360Y-77328504D01*
X145797477Y-77300647D01*
X145843158Y-77263158D01*
X145880647Y-77217477D01*
X145908504Y-77165360D01*
X145925659Y-77108810D01*
X145931451Y-77050000D01*
X145931451Y-75350000D01*
X145925659Y-75291190D01*
X145908504Y-75234640D01*
X145880647Y-75182523D01*
X145843158Y-75136842D01*
X145797477Y-75099353D01*
X145745360Y-75071496D01*
X145688810Y-75054341D01*
X145630000Y-75048549D01*
X143930000Y-75048549D01*
X143871190Y-75054341D01*
X143814640Y-75071496D01*
X143762523Y-75099353D01*
X143716842Y-75136842D01*
X143679353Y-75182523D01*
X143651496Y-75234640D01*
X143634341Y-75291190D01*
X143628549Y-75350000D01*
X142574451Y-75350000D01*
X142574451Y-75260000D01*
X142568659Y-75201190D01*
X142556164Y-75160002D01*
X142568660Y-75118810D01*
X142574452Y-75060000D01*
X142573000Y-75035000D01*
X142498000Y-74960000D01*
X142287733Y-74960000D01*
X142273000Y-74958549D01*
X141253000Y-74958549D01*
X141253000Y-74861451D01*
X142273000Y-74861451D01*
X142287733Y-74860000D01*
X142498000Y-74860000D01*
X142573000Y-74785000D01*
X142574452Y-74760000D01*
X142568660Y-74701190D01*
X142556164Y-74659998D01*
X142568659Y-74618810D01*
X142574451Y-74560000D01*
X142574451Y-74260000D01*
X142568659Y-74201190D01*
X142556164Y-74160000D01*
X142568659Y-74118810D01*
X142574451Y-74060000D01*
X142574451Y-73760000D01*
X142568659Y-73701190D01*
X142556164Y-73660002D01*
X142568660Y-73618810D01*
X142574452Y-73560000D01*
X142573000Y-73535000D01*
X142498000Y-73460000D01*
X142287733Y-73460000D01*
X142273000Y-73458549D01*
X141253000Y-73458549D01*
X141253000Y-73361451D01*
X142273000Y-73361451D01*
X142287733Y-73360000D01*
X142498000Y-73360000D01*
X142573000Y-73285000D01*
X142574452Y-73260000D01*
X142568660Y-73201190D01*
X142556164Y-73159998D01*
X142568659Y-73118810D01*
X142574451Y-73060000D01*
X142574451Y-72835000D01*
X143353960Y-72835000D01*
X143723788Y-73204828D01*
X143674194Y-73324557D01*
X143630000Y-73546735D01*
X143630000Y-73773265D01*
X143674194Y-73995443D01*
X143760884Y-74204729D01*
X143886737Y-74393082D01*
X144046918Y-74553263D01*
X144235271Y-74679116D01*
X144444557Y-74765806D01*
X144666735Y-74810000D01*
X144893265Y-74810000D01*
X145115443Y-74765806D01*
X145324729Y-74679116D01*
X145513082Y-74553263D01*
X145673263Y-74393082D01*
X145799116Y-74204729D01*
X145885806Y-73995443D01*
X145930000Y-73773265D01*
X145930000Y-73546735D01*
X145885806Y-73324557D01*
X145799116Y-73115271D01*
X145673263Y-72926918D01*
X145513082Y-72766737D01*
X145324729Y-72640884D01*
X145115443Y-72554194D01*
X144893265Y-72510000D01*
X144666735Y-72510000D01*
X144444557Y-72554194D01*
X144324828Y-72603788D01*
X143845283Y-72124243D01*
X143831974Y-72108026D01*
X143767260Y-72054916D01*
X143693427Y-72015452D01*
X143613314Y-71991150D01*
X143550874Y-71985000D01*
X143550867Y-71985000D01*
X143530000Y-71982945D01*
X143509133Y-71985000D01*
X142574451Y-71985000D01*
X142574451Y-71760000D01*
X142568659Y-71701190D01*
X142556164Y-71660000D01*
X142568659Y-71618810D01*
X142574451Y-71560000D01*
X142574451Y-71349114D01*
X143653054Y-71349114D01*
X143715688Y-71555597D01*
X143821119Y-71754864D01*
X143963400Y-71929734D01*
X144137062Y-72073486D01*
X144335432Y-72180596D01*
X144550886Y-72246948D01*
X144730000Y-72193915D01*
X144730000Y-71170000D01*
X144830000Y-71170000D01*
X144830000Y-72193915D01*
X145009114Y-72246948D01*
X145224568Y-72180596D01*
X145422938Y-72073486D01*
X145596600Y-71929734D01*
X145738881Y-71754864D01*
X145844312Y-71555597D01*
X145906946Y-71349114D01*
X145853837Y-71170000D01*
X144830000Y-71170000D01*
X144730000Y-71170000D01*
X143706163Y-71170000D01*
X143653054Y-71349114D01*
X142574451Y-71349114D01*
X142574451Y-71260000D01*
X142568659Y-71201190D01*
X142556164Y-71160000D01*
X142568659Y-71118810D01*
X142574451Y-71060000D01*
X142574451Y-70760000D01*
X142568659Y-70701190D01*
X142556164Y-70660002D01*
X142568660Y-70618810D01*
X142574452Y-70560000D01*
X142573000Y-70535000D01*
X142498000Y-70460000D01*
X142287733Y-70460000D01*
X142273000Y-70458549D01*
X141253000Y-70458549D01*
X141253000Y-70361451D01*
X142273000Y-70361451D01*
X142287733Y-70360000D01*
X142498000Y-70360000D01*
X142573000Y-70285000D01*
X142574452Y-70260000D01*
X142568660Y-70201190D01*
X142556164Y-70159998D01*
X142568659Y-70118810D01*
X142574451Y-70060000D01*
X142574451Y-69835000D01*
X142893960Y-69835000D01*
X143194719Y-70135760D01*
X143208026Y-70151974D01*
X143272740Y-70205084D01*
X143346573Y-70244548D01*
X143402383Y-70261478D01*
X143426685Y-70268850D01*
X143434327Y-70269603D01*
X143489126Y-70275000D01*
X143489133Y-70275000D01*
X143510000Y-70277055D01*
X143530867Y-70275000D01*
X144006004Y-70275000D01*
X143963400Y-70310266D01*
X143821119Y-70485136D01*
X143715688Y-70684403D01*
X143653054Y-70890886D01*
X143706163Y-71070000D01*
X144730000Y-71070000D01*
X144730000Y-71050000D01*
X144830000Y-71050000D01*
X144830000Y-71070000D01*
X145853837Y-71070000D01*
X145906946Y-70890886D01*
X145844312Y-70684403D01*
X145738881Y-70485136D01*
X145596600Y-70310266D01*
X145553996Y-70275000D01*
X145873960Y-70275000D01*
X146387000Y-70788041D01*
X146387001Y-75925123D01*
X146384945Y-75946000D01*
X146393150Y-76029314D01*
X146398897Y-76048257D01*
X146417453Y-76109427D01*
X146456917Y-76183260D01*
X146510027Y-76247974D01*
X146526239Y-76261279D01*
X148165000Y-77900041D01*
X148165000Y-77958655D01*
X148053082Y-77846737D01*
X147864729Y-77720884D01*
X147655443Y-77634194D01*
X147433265Y-77590000D01*
X147206735Y-77590000D01*
X146984557Y-77634194D01*
X146775271Y-77720884D01*
X146586918Y-77846737D01*
X146426737Y-78006918D01*
X146300884Y-78195271D01*
X146214194Y-78404557D01*
X146170000Y-78626735D01*
X146170000Y-78853265D01*
X146214194Y-79075443D01*
X146300884Y-79284729D01*
X146426737Y-79473082D01*
X146586918Y-79633263D01*
X146775271Y-79759116D01*
X146984557Y-79845806D01*
X147206735Y-79890000D01*
X147433265Y-79890000D01*
X147655443Y-79845806D01*
X147864729Y-79759116D01*
X148053082Y-79633263D01*
X148165001Y-79521344D01*
X148165001Y-79989123D01*
X148162945Y-80010000D01*
X148171150Y-80093314D01*
X148183596Y-80134341D01*
X148195453Y-80173427D01*
X148234917Y-80247260D01*
X148288027Y-80311974D01*
X148304239Y-80325279D01*
X148803788Y-80824828D01*
X148754194Y-80944557D01*
X148710000Y-81166735D01*
X148710000Y-81393265D01*
X148754194Y-81615443D01*
X148840884Y-81824729D01*
X148966737Y-82013082D01*
X149126918Y-82173263D01*
X149315271Y-82299116D01*
X149524557Y-82385806D01*
X149746735Y-82430000D01*
X149973265Y-82430000D01*
X150195443Y-82385806D01*
X150404729Y-82299116D01*
X150593082Y-82173263D01*
X150753263Y-82013082D01*
X150879116Y-81824729D01*
X150965806Y-81615443D01*
X150986956Y-81509114D01*
X151273052Y-81509114D01*
X151339404Y-81724568D01*
X151446514Y-81922938D01*
X151590266Y-82096600D01*
X151765136Y-82238881D01*
X151964403Y-82344312D01*
X152170886Y-82406946D01*
X152350000Y-82353837D01*
X152350000Y-81330000D01*
X152450000Y-81330000D01*
X152450000Y-82353837D01*
X152629114Y-82406946D01*
X152835597Y-82344312D01*
X153034864Y-82238881D01*
X153209734Y-82096600D01*
X153353486Y-81922938D01*
X153460596Y-81724568D01*
X153526948Y-81509114D01*
X153473915Y-81330000D01*
X152450000Y-81330000D01*
X152350000Y-81330000D01*
X151326085Y-81330000D01*
X151273052Y-81509114D01*
X150986956Y-81509114D01*
X151010000Y-81393265D01*
X151010000Y-81166735D01*
X150986957Y-81050886D01*
X151273052Y-81050886D01*
X151326085Y-81230000D01*
X152350000Y-81230000D01*
X152350000Y-80206163D01*
X152450000Y-80206163D01*
X152450000Y-81230000D01*
X153473915Y-81230000D01*
X153526948Y-81050886D01*
X153460596Y-80835432D01*
X153353486Y-80637062D01*
X153209734Y-80463400D01*
X153034864Y-80321119D01*
X152835597Y-80215688D01*
X152629114Y-80153054D01*
X152450000Y-80206163D01*
X152350000Y-80206163D01*
X152170886Y-80153054D01*
X151964403Y-80215688D01*
X151765136Y-80321119D01*
X151590266Y-80463400D01*
X151446514Y-80637062D01*
X151339404Y-80835432D01*
X151273052Y-81050886D01*
X150986957Y-81050886D01*
X150965806Y-80944557D01*
X150879116Y-80735271D01*
X150753263Y-80546918D01*
X150593082Y-80386737D01*
X150404729Y-80260884D01*
X150195443Y-80174194D01*
X149973265Y-80130000D01*
X149746735Y-80130000D01*
X149524557Y-80174194D01*
X149404828Y-80223788D01*
X149015000Y-79833960D01*
X149015000Y-79521345D01*
X149126918Y-79633263D01*
X149315271Y-79759116D01*
X149524557Y-79845806D01*
X149746735Y-79890000D01*
X149973265Y-79890000D01*
X150195443Y-79845806D01*
X150404729Y-79759116D01*
X150593082Y-79633263D01*
X150753263Y-79473082D01*
X150879116Y-79284729D01*
X150965806Y-79075443D01*
X151010000Y-78853265D01*
X151010000Y-78626735D01*
X151250000Y-78626735D01*
X151250000Y-78853265D01*
X151294194Y-79075443D01*
X151380884Y-79284729D01*
X151506737Y-79473082D01*
X151666918Y-79633263D01*
X151855271Y-79759116D01*
X152064557Y-79845806D01*
X152286735Y-79890000D01*
X152513265Y-79890000D01*
X152735443Y-79845806D01*
X152944729Y-79759116D01*
X153133082Y-79633263D01*
X153293263Y-79473082D01*
X153419116Y-79284729D01*
X153505806Y-79075443D01*
X153550000Y-78853265D01*
X153550000Y-78626735D01*
X153790000Y-78626735D01*
X153790000Y-78853265D01*
X153834194Y-79075443D01*
X153920884Y-79284729D01*
X154046737Y-79473082D01*
X154206918Y-79633263D01*
X154395271Y-79759116D01*
X154604557Y-79845806D01*
X154826735Y-79890000D01*
X155053265Y-79890000D01*
X155275443Y-79845806D01*
X155484729Y-79759116D01*
X155673082Y-79633263D01*
X155833263Y-79473082D01*
X155959116Y-79284729D01*
X156045806Y-79075443D01*
X156090000Y-78853265D01*
X156090000Y-78626735D01*
X156330000Y-78626735D01*
X156330000Y-78853265D01*
X156374194Y-79075443D01*
X156460884Y-79284729D01*
X156586737Y-79473082D01*
X156746918Y-79633263D01*
X156935271Y-79759116D01*
X157144557Y-79845806D01*
X157366735Y-79890000D01*
X157593265Y-79890000D01*
X157815443Y-79845806D01*
X158024729Y-79759116D01*
X158213082Y-79633263D01*
X158373263Y-79473082D01*
X158499116Y-79284729D01*
X158585806Y-79075443D01*
X158630000Y-78853265D01*
X158630000Y-78626735D01*
X158585806Y-78404557D01*
X158499116Y-78195271D01*
X158373263Y-78006918D01*
X158213082Y-77846737D01*
X158024729Y-77720884D01*
X157815443Y-77634194D01*
X157593265Y-77590000D01*
X157366735Y-77590000D01*
X157144557Y-77634194D01*
X156935271Y-77720884D01*
X156746918Y-77846737D01*
X156586737Y-78006918D01*
X156460884Y-78195271D01*
X156374194Y-78404557D01*
X156330000Y-78626735D01*
X156090000Y-78626735D01*
X156045806Y-78404557D01*
X155959116Y-78195271D01*
X155833263Y-78006918D01*
X155673082Y-77846737D01*
X155484729Y-77720884D01*
X155275443Y-77634194D01*
X155053265Y-77590000D01*
X154826735Y-77590000D01*
X154604557Y-77634194D01*
X154395271Y-77720884D01*
X154206918Y-77846737D01*
X154046737Y-78006918D01*
X153920884Y-78195271D01*
X153834194Y-78404557D01*
X153790000Y-78626735D01*
X153550000Y-78626735D01*
X153505806Y-78404557D01*
X153419116Y-78195271D01*
X153293263Y-78006918D01*
X153133082Y-77846737D01*
X152944729Y-77720884D01*
X152735443Y-77634194D01*
X152513265Y-77590000D01*
X152286735Y-77590000D01*
X152064557Y-77634194D01*
X151855271Y-77720884D01*
X151666918Y-77846737D01*
X151506737Y-78006918D01*
X151380884Y-78195271D01*
X151294194Y-78404557D01*
X151250000Y-78626735D01*
X151010000Y-78626735D01*
X150965806Y-78404557D01*
X150879116Y-78195271D01*
X150753263Y-78006918D01*
X150593082Y-77846737D01*
X150404729Y-77720884D01*
X150195443Y-77634194D01*
X149973265Y-77590000D01*
X149746735Y-77590000D01*
X149524557Y-77634194D01*
X149315271Y-77720884D01*
X149126918Y-77846737D01*
X149015000Y-77958655D01*
X149015000Y-77744867D01*
X149017055Y-77724000D01*
X149015000Y-77703133D01*
X149015000Y-77703126D01*
X149008850Y-77640686D01*
X148999995Y-77611496D01*
X148984548Y-77560572D01*
X148957170Y-77509352D01*
X148945084Y-77486740D01*
X148891974Y-77422026D01*
X148875763Y-77408722D01*
X147237000Y-75769960D01*
X147237000Y-75226000D01*
X147559549Y-75226000D01*
X147559549Y-75676000D01*
X147569665Y-75778705D01*
X147599623Y-75877464D01*
X147648272Y-75968481D01*
X147713743Y-76048257D01*
X147793519Y-76113728D01*
X147884536Y-76162377D01*
X147983295Y-76192335D01*
X148086000Y-76202451D01*
X148486410Y-76202451D01*
X148769721Y-76485762D01*
X148783026Y-76501974D01*
X148847740Y-76555084D01*
X148921573Y-76594548D01*
X148977383Y-76611478D01*
X149001685Y-76618850D01*
X149009327Y-76619603D01*
X149064126Y-76625000D01*
X149064133Y-76625000D01*
X149085000Y-76627055D01*
X149105867Y-76625000D01*
X150840549Y-76625000D01*
X150840549Y-76950000D01*
X150846341Y-77008810D01*
X150863496Y-77065360D01*
X150891353Y-77117477D01*
X150928842Y-77163158D01*
X150974523Y-77200647D01*
X151026640Y-77228504D01*
X151083190Y-77245659D01*
X151142000Y-77251451D01*
X152642000Y-77251451D01*
X152700810Y-77245659D01*
X152757360Y-77228504D01*
X152809477Y-77200647D01*
X152855158Y-77163158D01*
X152892647Y-77117477D01*
X152920504Y-77065360D01*
X152937659Y-77008810D01*
X152943451Y-76950000D01*
X152943451Y-76151961D01*
X153132000Y-76151961D01*
X153132000Y-76408039D01*
X153181958Y-76659196D01*
X153279955Y-76895781D01*
X153422224Y-77108702D01*
X153603298Y-77289776D01*
X153816219Y-77432045D01*
X154052804Y-77530042D01*
X154303961Y-77580000D01*
X154560039Y-77580000D01*
X154811196Y-77530042D01*
X155047781Y-77432045D01*
X155260702Y-77289776D01*
X155441776Y-77108702D01*
X155584045Y-76895781D01*
X155682042Y-76659196D01*
X155732000Y-76408039D01*
X155732000Y-76151961D01*
X155719026Y-76086735D01*
X156330000Y-76086735D01*
X156330000Y-76313265D01*
X156374194Y-76535443D01*
X156460884Y-76744729D01*
X156586737Y-76933082D01*
X156746918Y-77093263D01*
X156935271Y-77219116D01*
X157144557Y-77305806D01*
X157366735Y-77350000D01*
X157593265Y-77350000D01*
X157815443Y-77305806D01*
X158024729Y-77219116D01*
X158213082Y-77093263D01*
X158373263Y-76933082D01*
X158499116Y-76744729D01*
X158585806Y-76535443D01*
X158630000Y-76313265D01*
X158630000Y-76086735D01*
X158585806Y-75864557D01*
X158499116Y-75655271D01*
X158373263Y-75466918D01*
X158213082Y-75306737D01*
X158024729Y-75180884D01*
X157815443Y-75094194D01*
X157593265Y-75050000D01*
X157366735Y-75050000D01*
X157144557Y-75094194D01*
X156935271Y-75180884D01*
X156746918Y-75306737D01*
X156586737Y-75466918D01*
X156460884Y-75655271D01*
X156374194Y-75864557D01*
X156330000Y-76086735D01*
X155719026Y-76086735D01*
X155682042Y-75900804D01*
X155584045Y-75664219D01*
X155441776Y-75451298D01*
X155260702Y-75270224D01*
X155047781Y-75127955D01*
X154811196Y-75029958D01*
X154560039Y-74980000D01*
X154303961Y-74980000D01*
X154052804Y-75029958D01*
X153816219Y-75127955D01*
X153603298Y-75270224D01*
X153422224Y-75451298D01*
X153279955Y-75664219D01*
X153181958Y-75900804D01*
X153132000Y-76151961D01*
X152943451Y-76151961D01*
X152943451Y-75450000D01*
X152937659Y-75391190D01*
X152920504Y-75334640D01*
X152892647Y-75282523D01*
X152855158Y-75236842D01*
X152809477Y-75199353D01*
X152757360Y-75171496D01*
X152700810Y-75154341D01*
X152642000Y-75148549D01*
X151142000Y-75148549D01*
X151083190Y-75154341D01*
X151026640Y-75171496D01*
X150974523Y-75199353D01*
X150928842Y-75236842D01*
X150891353Y-75282523D01*
X150863496Y-75334640D01*
X150846341Y-75391190D01*
X150840549Y-75450000D01*
X150840549Y-75775000D01*
X149261041Y-75775000D01*
X149112451Y-75626410D01*
X149112451Y-75226000D01*
X149102335Y-75123295D01*
X149072377Y-75024536D01*
X149023728Y-74933519D01*
X148958257Y-74853743D01*
X148878481Y-74788272D01*
X148787464Y-74739623D01*
X148688705Y-74709665D01*
X148586000Y-74699549D01*
X148086000Y-74699549D01*
X147983295Y-74709665D01*
X147884536Y-74739623D01*
X147793519Y-74788272D01*
X147713743Y-74853743D01*
X147648272Y-74933519D01*
X147599623Y-75024536D01*
X147569665Y-75123295D01*
X147559549Y-75226000D01*
X147237000Y-75226000D01*
X147237000Y-74351000D01*
X147559548Y-74351000D01*
X147565340Y-74409810D01*
X147582495Y-74466361D01*
X147610352Y-74518478D01*
X147647841Y-74564159D01*
X147693522Y-74601648D01*
X147745639Y-74629505D01*
X147802190Y-74646660D01*
X147861000Y-74652452D01*
X148211000Y-74651000D01*
X148286000Y-74576000D01*
X148286000Y-73951000D01*
X148386000Y-73951000D01*
X148386000Y-74576000D01*
X148461000Y-74651000D01*
X148811000Y-74652452D01*
X148869810Y-74646660D01*
X148926361Y-74629505D01*
X148978478Y-74601648D01*
X149024159Y-74564159D01*
X149061648Y-74518478D01*
X149089505Y-74466361D01*
X149106660Y-74409810D01*
X149112452Y-74351000D01*
X149111000Y-74026000D01*
X149036000Y-73951000D01*
X148386000Y-73951000D01*
X148286000Y-73951000D01*
X147636000Y-73951000D01*
X147561000Y-74026000D01*
X147559548Y-74351000D01*
X147237000Y-74351000D01*
X147237000Y-73873455D01*
X150863922Y-73873455D01*
X150925319Y-74069922D01*
X151023865Y-74250636D01*
X151155773Y-74408652D01*
X151315974Y-74537898D01*
X151498312Y-74633407D01*
X151678546Y-74688075D01*
X151842000Y-74633717D01*
X151842000Y-73710000D01*
X151942000Y-73710000D01*
X151942000Y-74633717D01*
X152105454Y-74688075D01*
X152285688Y-74633407D01*
X152468026Y-74537898D01*
X152628227Y-74408652D01*
X152760135Y-74250636D01*
X152858681Y-74069922D01*
X152915184Y-73889114D01*
X156353054Y-73889114D01*
X156415688Y-74095597D01*
X156521119Y-74294864D01*
X156663400Y-74469734D01*
X156837062Y-74613486D01*
X157035432Y-74720596D01*
X157250886Y-74786948D01*
X157430000Y-74733915D01*
X157430000Y-73710000D01*
X157530000Y-73710000D01*
X157530000Y-74733915D01*
X157709114Y-74786948D01*
X157924568Y-74720596D01*
X158122938Y-74613486D01*
X158296600Y-74469734D01*
X158438881Y-74294864D01*
X158544312Y-74095597D01*
X158606946Y-73889114D01*
X158553837Y-73710000D01*
X157530000Y-73710000D01*
X157430000Y-73710000D01*
X156406163Y-73710000D01*
X156353054Y-73889114D01*
X152915184Y-73889114D01*
X152920078Y-73873455D01*
X152865812Y-73710000D01*
X151942000Y-73710000D01*
X151842000Y-73710000D01*
X150918188Y-73710000D01*
X150863922Y-73873455D01*
X147237000Y-73873455D01*
X147237000Y-73451000D01*
X147559548Y-73451000D01*
X147561000Y-73776000D01*
X147636000Y-73851000D01*
X148286000Y-73851000D01*
X148286000Y-73226000D01*
X148386000Y-73226000D01*
X148386000Y-73851000D01*
X149036000Y-73851000D01*
X149111000Y-73776000D01*
X149112452Y-73451000D01*
X149112014Y-73446545D01*
X150863922Y-73446545D01*
X150918188Y-73610000D01*
X151842000Y-73610000D01*
X151842000Y-72686283D01*
X151942000Y-72686283D01*
X151942000Y-73610000D01*
X152865812Y-73610000D01*
X152920078Y-73446545D01*
X152915185Y-73430886D01*
X156353054Y-73430886D01*
X156406163Y-73610000D01*
X157430000Y-73610000D01*
X157430000Y-72586085D01*
X157530000Y-72586085D01*
X157530000Y-73610000D01*
X158553837Y-73610000D01*
X158606946Y-73430886D01*
X158544312Y-73224403D01*
X158438881Y-73025136D01*
X158296600Y-72850266D01*
X158122938Y-72706514D01*
X157924568Y-72599404D01*
X157709114Y-72533052D01*
X157530000Y-72586085D01*
X157430000Y-72586085D01*
X157250886Y-72533052D01*
X157035432Y-72599404D01*
X156837062Y-72706514D01*
X156663400Y-72850266D01*
X156521119Y-73025136D01*
X156415688Y-73224403D01*
X156353054Y-73430886D01*
X152915185Y-73430886D01*
X152858681Y-73250078D01*
X152760135Y-73069364D01*
X152628227Y-72911348D01*
X152468026Y-72782102D01*
X152285688Y-72686593D01*
X152105454Y-72631925D01*
X151942000Y-72686283D01*
X151842000Y-72686283D01*
X151678546Y-72631925D01*
X151498312Y-72686593D01*
X151315974Y-72782102D01*
X151155773Y-72911348D01*
X151023865Y-73069364D01*
X150925319Y-73250078D01*
X150863922Y-73446545D01*
X149112014Y-73446545D01*
X149106660Y-73392190D01*
X149089505Y-73335639D01*
X149061648Y-73283522D01*
X149024159Y-73237841D01*
X148978478Y-73200352D01*
X148926361Y-73172495D01*
X148869810Y-73155340D01*
X148811000Y-73149548D01*
X148461000Y-73151000D01*
X148386000Y-73226000D01*
X148286000Y-73226000D01*
X148211000Y-73151000D01*
X147861000Y-73149548D01*
X147802190Y-73155340D01*
X147745639Y-73172495D01*
X147693522Y-73200352D01*
X147647841Y-73237841D01*
X147610352Y-73283522D01*
X147582495Y-73335639D01*
X147565340Y-73392190D01*
X147559548Y-73451000D01*
X147237000Y-73451000D01*
X147237000Y-71016584D01*
X150842000Y-71016584D01*
X150842000Y-71223416D01*
X150882350Y-71426274D01*
X150961502Y-71617362D01*
X151076411Y-71789336D01*
X151222664Y-71935589D01*
X151394638Y-72050498D01*
X151585726Y-72129650D01*
X151788584Y-72170000D01*
X151995416Y-72170000D01*
X152198274Y-72129650D01*
X152389362Y-72050498D01*
X152561336Y-71935589D01*
X152707589Y-71789336D01*
X152822498Y-71617362D01*
X152901650Y-71426274D01*
X152942000Y-71223416D01*
X152942000Y-71016584D01*
X152921190Y-70911961D01*
X153132000Y-70911961D01*
X153132000Y-71168039D01*
X153181958Y-71419196D01*
X153279955Y-71655781D01*
X153422224Y-71868702D01*
X153603298Y-72049776D01*
X153816219Y-72192045D01*
X154052804Y-72290042D01*
X154303961Y-72340000D01*
X154560039Y-72340000D01*
X154811196Y-72290042D01*
X155047781Y-72192045D01*
X155260702Y-72049776D01*
X155441776Y-71868702D01*
X155584045Y-71655781D01*
X155682042Y-71419196D01*
X155732000Y-71168039D01*
X155732000Y-71006735D01*
X156330000Y-71006735D01*
X156330000Y-71233265D01*
X156374194Y-71455443D01*
X156460884Y-71664729D01*
X156586737Y-71853082D01*
X156746918Y-72013263D01*
X156935271Y-72139116D01*
X157144557Y-72225806D01*
X157366735Y-72270000D01*
X157593265Y-72270000D01*
X157815443Y-72225806D01*
X158024729Y-72139116D01*
X158213082Y-72013263D01*
X158373263Y-71853082D01*
X158499116Y-71664729D01*
X158585806Y-71455443D01*
X158630000Y-71233265D01*
X158630000Y-71006735D01*
X158585806Y-70784557D01*
X158499116Y-70575271D01*
X158373263Y-70386918D01*
X158213082Y-70226737D01*
X158024729Y-70100884D01*
X157815443Y-70014194D01*
X157593265Y-69970000D01*
X157366735Y-69970000D01*
X157144557Y-70014194D01*
X156935271Y-70100884D01*
X156746918Y-70226737D01*
X156586737Y-70386918D01*
X156460884Y-70575271D01*
X156374194Y-70784557D01*
X156330000Y-71006735D01*
X155732000Y-71006735D01*
X155732000Y-70911961D01*
X155682042Y-70660804D01*
X155584045Y-70424219D01*
X155441776Y-70211298D01*
X155260702Y-70030224D01*
X155047781Y-69887955D01*
X154811196Y-69789958D01*
X154560039Y-69740000D01*
X154303961Y-69740000D01*
X154052804Y-69789958D01*
X153816219Y-69887955D01*
X153603298Y-70030224D01*
X153422224Y-70211298D01*
X153279955Y-70424219D01*
X153181958Y-70660804D01*
X153132000Y-70911961D01*
X152921190Y-70911961D01*
X152901650Y-70813726D01*
X152871676Y-70741364D01*
X153928956Y-69684085D01*
X153974640Y-69708504D01*
X154031190Y-69725659D01*
X154090000Y-69731451D01*
X155790000Y-69731451D01*
X155848810Y-69725659D01*
X155905360Y-69708504D01*
X155957477Y-69680647D01*
X156003158Y-69643158D01*
X156040647Y-69597477D01*
X156068504Y-69545360D01*
X156085659Y-69488810D01*
X156091451Y-69430000D01*
X156091451Y-67730000D01*
X156328549Y-67730000D01*
X156328549Y-69430000D01*
X156334341Y-69488810D01*
X156351496Y-69545360D01*
X156379353Y-69597477D01*
X156416842Y-69643158D01*
X156462523Y-69680647D01*
X156514640Y-69708504D01*
X156571190Y-69725659D01*
X156630000Y-69731451D01*
X158330000Y-69731451D01*
X158388810Y-69725659D01*
X158445360Y-69708504D01*
X158497477Y-69680647D01*
X158543158Y-69643158D01*
X158580647Y-69597477D01*
X158608504Y-69545360D01*
X158625659Y-69488810D01*
X158631451Y-69430000D01*
X158631451Y-67730000D01*
X158625659Y-67671190D01*
X158608504Y-67614640D01*
X158580647Y-67562523D01*
X158543158Y-67516842D01*
X158497477Y-67479353D01*
X158445360Y-67451496D01*
X158388810Y-67434341D01*
X158330000Y-67428549D01*
X156630000Y-67428549D01*
X156571190Y-67434341D01*
X156514640Y-67451496D01*
X156462523Y-67479353D01*
X156416842Y-67516842D01*
X156379353Y-67562523D01*
X156351496Y-67614640D01*
X156334341Y-67671190D01*
X156328549Y-67730000D01*
X156091451Y-67730000D01*
X156085659Y-67671190D01*
X156068504Y-67614640D01*
X156040647Y-67562523D01*
X156003158Y-67516842D01*
X155957477Y-67479353D01*
X155905360Y-67451496D01*
X155848810Y-67434341D01*
X155790000Y-67428549D01*
X154095000Y-67428549D01*
X154095000Y-67330866D01*
X154097055Y-67309999D01*
X154095000Y-67289132D01*
X154095000Y-67289126D01*
X154088850Y-67226686D01*
X154064548Y-67146573D01*
X154025084Y-67072740D01*
X153971974Y-67008026D01*
X153955762Y-66994721D01*
X153551451Y-66590410D01*
X153551451Y-65190000D01*
X153545659Y-65131190D01*
X153528504Y-65074640D01*
X153500647Y-65022523D01*
X153463158Y-64976842D01*
X153417477Y-64939353D01*
X153365360Y-64911496D01*
X153308810Y-64894341D01*
X153250000Y-64888549D01*
X151550000Y-64888549D01*
X151491190Y-64894341D01*
X151434640Y-64911496D01*
X151382523Y-64939353D01*
X151336842Y-64976842D01*
X151299353Y-65022523D01*
X151271496Y-65074640D01*
X151254341Y-65131190D01*
X151248549Y-65190000D01*
X151248549Y-66890000D01*
X151254341Y-66948810D01*
X151271496Y-67005360D01*
X151299353Y-67057477D01*
X151336842Y-67103158D01*
X151382523Y-67140647D01*
X151434640Y-67168504D01*
X151491190Y-67185659D01*
X151550000Y-67191451D01*
X152950410Y-67191451D01*
X153245001Y-67486042D01*
X153245001Y-67798656D01*
X153133082Y-67686737D01*
X152944729Y-67560884D01*
X152735443Y-67474194D01*
X152513265Y-67430000D01*
X152286735Y-67430000D01*
X152064557Y-67474194D01*
X151855271Y-67560884D01*
X151666918Y-67686737D01*
X151506737Y-67846918D01*
X151380884Y-68035271D01*
X151294194Y-68244557D01*
X151250000Y-68466735D01*
X151250000Y-68693265D01*
X151294194Y-68915443D01*
X151380884Y-69124729D01*
X151506737Y-69313082D01*
X151666918Y-69473263D01*
X151855271Y-69599116D01*
X152064557Y-69685806D01*
X152286735Y-69730000D01*
X152513265Y-69730000D01*
X152722598Y-69688361D01*
X152270636Y-70140324D01*
X152198274Y-70110350D01*
X151995416Y-70070000D01*
X151788584Y-70070000D01*
X151585726Y-70110350D01*
X151394638Y-70189502D01*
X151222664Y-70304411D01*
X151076411Y-70450664D01*
X150961502Y-70622638D01*
X150882350Y-70813726D01*
X150842000Y-71016584D01*
X147237000Y-71016584D01*
X147237000Y-70632867D01*
X147239055Y-70612000D01*
X147237000Y-70591133D01*
X147237000Y-70591126D01*
X147230850Y-70528686D01*
X147211331Y-70464341D01*
X147206548Y-70448572D01*
X147192801Y-70422855D01*
X147167084Y-70374740D01*
X147113974Y-70310026D01*
X147097763Y-70296722D01*
X146365283Y-69564243D01*
X146351974Y-69548026D01*
X146287260Y-69494916D01*
X146213427Y-69455452D01*
X146133314Y-69431150D01*
X146070874Y-69425000D01*
X146070867Y-69425000D01*
X146050000Y-69422945D01*
X146029133Y-69425000D01*
X145561345Y-69425000D01*
X145673263Y-69313082D01*
X145799116Y-69124729D01*
X145885806Y-68915443D01*
X145930000Y-68693265D01*
X145930000Y-68466735D01*
X146170000Y-68466735D01*
X146170000Y-68693265D01*
X146214194Y-68915443D01*
X146300884Y-69124729D01*
X146426737Y-69313082D01*
X146586918Y-69473263D01*
X146775271Y-69599116D01*
X146984557Y-69685806D01*
X147206735Y-69730000D01*
X147433265Y-69730000D01*
X147655443Y-69685806D01*
X147864729Y-69599116D01*
X148053082Y-69473263D01*
X148213263Y-69313082D01*
X148339116Y-69124729D01*
X148425806Y-68915443D01*
X148470000Y-68693265D01*
X148470000Y-68466735D01*
X148425806Y-68244557D01*
X148339116Y-68035271D01*
X148213263Y-67846918D01*
X148053082Y-67686737D01*
X147864729Y-67560884D01*
X147655443Y-67474194D01*
X147433265Y-67430000D01*
X147206735Y-67430000D01*
X146984557Y-67474194D01*
X146775271Y-67560884D01*
X146586918Y-67686737D01*
X146426737Y-67846918D01*
X146300884Y-68035271D01*
X146214194Y-68244557D01*
X146170000Y-68466735D01*
X145930000Y-68466735D01*
X145885806Y-68244557D01*
X145799116Y-68035271D01*
X145673263Y-67846918D01*
X145513082Y-67686737D01*
X145324729Y-67560884D01*
X145115443Y-67474194D01*
X144893265Y-67430000D01*
X144666735Y-67430000D01*
X144444557Y-67474194D01*
X144235271Y-67560884D01*
X144046918Y-67686737D01*
X143886737Y-67846918D01*
X143760884Y-68035271D01*
X143674194Y-68244557D01*
X143630000Y-68466735D01*
X143630000Y-68693265D01*
X143674194Y-68915443D01*
X143760884Y-69124729D01*
X143886737Y-69313082D01*
X143998655Y-69425000D01*
X143686041Y-69425000D01*
X143385283Y-69124243D01*
X143371974Y-69108026D01*
X143307260Y-69054916D01*
X143233427Y-69015452D01*
X143153314Y-68991150D01*
X143090874Y-68985000D01*
X143090867Y-68985000D01*
X143070000Y-68982945D01*
X143049133Y-68985000D01*
X142394916Y-68985000D01*
X142388360Y-68981496D01*
X142384441Y-68980307D01*
X142403427Y-68974548D01*
X142477260Y-68935084D01*
X142541974Y-68881974D01*
X142555283Y-68865757D01*
X144956041Y-66465000D01*
X146251290Y-66465000D01*
X146300884Y-66584729D01*
X146426737Y-66773082D01*
X146586918Y-66933263D01*
X146775271Y-67059116D01*
X146984557Y-67145806D01*
X147206735Y-67190000D01*
X147433265Y-67190000D01*
X147655443Y-67145806D01*
X147864729Y-67059116D01*
X148053082Y-66933263D01*
X148213263Y-66773082D01*
X148339116Y-66584729D01*
X148425806Y-66375443D01*
X148470000Y-66153265D01*
X148470000Y-65926735D01*
X148710000Y-65926735D01*
X148710000Y-66153265D01*
X148754194Y-66375443D01*
X148840884Y-66584729D01*
X148966737Y-66773082D01*
X149126918Y-66933263D01*
X149315271Y-67059116D01*
X149435000Y-67108710D01*
X149435001Y-67511290D01*
X149315271Y-67560884D01*
X149126918Y-67686737D01*
X148966737Y-67846918D01*
X148840884Y-68035271D01*
X148754194Y-68244557D01*
X148710000Y-68466735D01*
X148710000Y-68693265D01*
X148754194Y-68915443D01*
X148840884Y-69124729D01*
X148966737Y-69313082D01*
X149126918Y-69473263D01*
X149315271Y-69599116D01*
X149524557Y-69685806D01*
X149746735Y-69730000D01*
X149973265Y-69730000D01*
X150195443Y-69685806D01*
X150404729Y-69599116D01*
X150593082Y-69473263D01*
X150753263Y-69313082D01*
X150879116Y-69124729D01*
X150965806Y-68915443D01*
X151010000Y-68693265D01*
X151010000Y-68466735D01*
X150965806Y-68244557D01*
X150879116Y-68035271D01*
X150753263Y-67846918D01*
X150593082Y-67686737D01*
X150404729Y-67560884D01*
X150285000Y-67511290D01*
X150285000Y-67108710D01*
X150404729Y-67059116D01*
X150593082Y-66933263D01*
X150753263Y-66773082D01*
X150879116Y-66584729D01*
X150965806Y-66375443D01*
X151010000Y-66153265D01*
X151010000Y-65926735D01*
X150965806Y-65704557D01*
X150879116Y-65495271D01*
X150753263Y-65306918D01*
X150593082Y-65146737D01*
X150404729Y-65020884D01*
X150195443Y-64934194D01*
X149973265Y-64890000D01*
X149746735Y-64890000D01*
X149524557Y-64934194D01*
X149315271Y-65020884D01*
X149126918Y-65146737D01*
X148966737Y-65306918D01*
X148840884Y-65495271D01*
X148754194Y-65704557D01*
X148710000Y-65926735D01*
X148470000Y-65926735D01*
X148425806Y-65704557D01*
X148339116Y-65495271D01*
X148213263Y-65306918D01*
X148053082Y-65146737D01*
X147864729Y-65020884D01*
X147655443Y-64934194D01*
X147433265Y-64890000D01*
X147206735Y-64890000D01*
X146984557Y-64934194D01*
X146775271Y-65020884D01*
X146586918Y-65146737D01*
X146426737Y-65306918D01*
X146300884Y-65495271D01*
X146251290Y-65615000D01*
X144800866Y-65615000D01*
X144779999Y-65612945D01*
X144759132Y-65615000D01*
X144759126Y-65615000D01*
X144705098Y-65620321D01*
X144696685Y-65621150D01*
X144678268Y-65626737D01*
X144616573Y-65645452D01*
X144542740Y-65684916D01*
X144478026Y-65738026D01*
X144464721Y-65754238D01*
X142063960Y-68155000D01*
X140228866Y-68155000D01*
X140207999Y-68152945D01*
X140187132Y-68155000D01*
X140187126Y-68155000D01*
X140133098Y-68160321D01*
X140124685Y-68161150D01*
X140100383Y-68168522D01*
X140044573Y-68185452D01*
X139970740Y-68224916D01*
X139906026Y-68278026D01*
X139892721Y-68294238D01*
X139414243Y-68772717D01*
X139398026Y-68786026D01*
X139344916Y-68850741D01*
X139305452Y-68924574D01*
X139302264Y-68935084D01*
X139282921Y-68998850D01*
X139281150Y-69004687D01*
X139275000Y-69067127D01*
X139275000Y-69067133D01*
X139272945Y-69088000D01*
X134437000Y-69088000D01*
X134437000Y-67315290D01*
X139488420Y-67315290D01*
X139596195Y-67495425D01*
X139821917Y-67616362D01*
X140066894Y-67690938D01*
X140321714Y-67716289D01*
X140576583Y-67691439D01*
X140821707Y-67617345D01*
X141047666Y-67496854D01*
X141049805Y-67495425D01*
X141157580Y-67315290D01*
X140323000Y-66480711D01*
X139488420Y-67315290D01*
X134437000Y-67315290D01*
X134437000Y-66715290D01*
X134588420Y-66715290D01*
X134696195Y-66895425D01*
X134921917Y-67016362D01*
X135166894Y-67090938D01*
X135421714Y-67116289D01*
X135676583Y-67091439D01*
X135921707Y-67017345D01*
X136147666Y-66896854D01*
X136149805Y-66895425D01*
X136257580Y-66715290D01*
X135423000Y-65880711D01*
X134588420Y-66715290D01*
X134437000Y-66715290D01*
X134437000Y-66596291D01*
X134517710Y-66644580D01*
X135352289Y-65810000D01*
X135493711Y-65810000D01*
X136328290Y-66644580D01*
X136508425Y-66536805D01*
X136577053Y-66408714D01*
X139016711Y-66408714D01*
X139041561Y-66663583D01*
X139115655Y-66908707D01*
X139236146Y-67134666D01*
X139237575Y-67136805D01*
X139417710Y-67244580D01*
X140252289Y-66410000D01*
X140393711Y-66410000D01*
X141228290Y-67244580D01*
X141408425Y-67136805D01*
X141529362Y-66911083D01*
X141603938Y-66666106D01*
X141629289Y-66411286D01*
X141604439Y-66156417D01*
X141530345Y-65911293D01*
X141409854Y-65685334D01*
X141408425Y-65683195D01*
X141228290Y-65575420D01*
X140393711Y-66410000D01*
X140252289Y-66410000D01*
X139417710Y-65575420D01*
X139237575Y-65683195D01*
X139116638Y-65908917D01*
X139042062Y-66153894D01*
X139016711Y-66408714D01*
X136577053Y-66408714D01*
X136629362Y-66311083D01*
X136703938Y-66066106D01*
X136729289Y-65811286D01*
X136704439Y-65556417D01*
X136688810Y-65504710D01*
X139488420Y-65504710D01*
X140323000Y-66339289D01*
X141157580Y-65504710D01*
X141049805Y-65324575D01*
X140824083Y-65203638D01*
X140579106Y-65129062D01*
X140324286Y-65103711D01*
X140069417Y-65128561D01*
X139824293Y-65202655D01*
X139598334Y-65323146D01*
X139596195Y-65324575D01*
X139488420Y-65504710D01*
X136688810Y-65504710D01*
X136630345Y-65311293D01*
X136509854Y-65085334D01*
X136508425Y-65083195D01*
X136328290Y-64975420D01*
X135493711Y-65810000D01*
X135352289Y-65810000D01*
X135338147Y-65795858D01*
X135408858Y-65725147D01*
X135423000Y-65739289D01*
X136257580Y-64904710D01*
X136219462Y-64841000D01*
X157718104Y-64841000D01*
X157917247Y-64860526D01*
G37*
%TD.AperFunction*%
%TD*%
M02*
