%TF.GenerationSoftware,KiCad,Pcbnew,5.1.8*%
%TF.CreationDate,2020-12-26T07:32:41-08:00*%
%TF.ProjectId,teensy-toslink-receiver,7465656e-7379-42d7-946f-736c696e6b2d,rev?*%
%TF.SameCoordinates,Original*%
%TF.FileFunction,Soldermask,Bot*%
%TF.FilePolarity,Negative*%
%FSLAX46Y46*%
G04 Gerber Fmt 4.6, Leading zero omitted, Abs format (unit mm)*
G04 Created by KiCad (PCBNEW 5.1.8) date 2020-12-26 07:32:41*
%MOMM*%
%LPD*%
G01*
G04 APERTURE LIST*
%ADD10O,1.700000X1.700000*%
%ADD11R,1.700000X1.700000*%
%ADD12C,2.000000*%
%ADD13R,1.900000X0.300000*%
%ADD14R,1.500000X1.500000*%
%ADD15O,1.500000X1.500000*%
%ADD16C,1.500000*%
G04 APERTURE END LIST*
D10*
%TO.C,J2*%
X147320000Y-66040000D03*
X149860000Y-66040000D03*
X152400000Y-66040000D03*
X154940000Y-66040000D03*
D11*
X157480000Y-66040000D03*
%TD*%
%TO.C,R1*%
G36*
G01*
X143600000Y-77443000D02*
X143600000Y-77243000D01*
G75*
G02*
X143700000Y-77143000I100000J0D01*
G01*
X143960000Y-77143000D01*
G75*
G02*
X144060000Y-77243000I0J-100000D01*
G01*
X144060000Y-77443000D01*
G75*
G02*
X143960000Y-77543000I-100000J0D01*
G01*
X143700000Y-77543000D01*
G75*
G02*
X143600000Y-77443000I0J100000D01*
G01*
G37*
G36*
G01*
X142960000Y-77443000D02*
X142960000Y-77243000D01*
G75*
G02*
X143060000Y-77143000I100000J0D01*
G01*
X143320000Y-77143000D01*
G75*
G02*
X143420000Y-77243000I0J-100000D01*
G01*
X143420000Y-77443000D01*
G75*
G02*
X143320000Y-77543000I-100000J0D01*
G01*
X143060000Y-77543000D01*
G75*
G02*
X142960000Y-77443000I0J100000D01*
G01*
G37*
%TD*%
D12*
%TO.C,J7*%
X135423000Y-81510000D03*
X135423000Y-65810000D03*
X140323000Y-80910000D03*
X140323000Y-66410000D03*
D13*
X141323000Y-68910000D03*
X141323000Y-69410000D03*
X141323000Y-69910000D03*
X141323000Y-70410000D03*
X141323000Y-70910000D03*
X141323000Y-71410000D03*
X141323000Y-71910000D03*
X141323000Y-72410000D03*
X141323000Y-72910000D03*
X141323000Y-73410000D03*
X141323000Y-73910000D03*
X141323000Y-74410000D03*
X141323000Y-74910000D03*
X141323000Y-75410000D03*
X141323000Y-75910000D03*
X141323000Y-76410000D03*
X141323000Y-76910000D03*
X141323000Y-77410000D03*
X141323000Y-77910000D03*
%TD*%
D14*
%TO.C,U1*%
X151892000Y-71120000D03*
D15*
X151892000Y-73660000D03*
X151892000Y-76200000D03*
D16*
X154432000Y-71040000D03*
X154432000Y-76280000D03*
%TD*%
D10*
%TO.C,J6*%
X144780000Y-81280000D03*
X144780000Y-78740000D03*
X144780000Y-76200000D03*
D11*
X144780000Y-73660000D03*
%TD*%
D10*
%TO.C,J5*%
X149860000Y-68580000D03*
X147320000Y-68580000D03*
D11*
X144780000Y-68580000D03*
%TD*%
D10*
%TO.C,J4*%
X157480000Y-78740000D03*
X157480000Y-76200000D03*
X157480000Y-73660000D03*
X157480000Y-71120000D03*
D11*
X157480000Y-68580000D03*
%TD*%
D10*
%TO.C,J3*%
X157480000Y-81280000D03*
X154940000Y-81280000D03*
X152400000Y-81280000D03*
X149860000Y-81280000D03*
D11*
X147320000Y-81280000D03*
%TD*%
D10*
%TO.C,J1*%
X147320000Y-78740000D03*
X149860000Y-78740000D03*
D11*
X152400000Y-78740000D03*
%TD*%
M02*
