%TF.GenerationSoftware,KiCad,Pcbnew,5.1.8*%
%TF.CreationDate,2020-12-26T07:32:41-08:00*%
%TF.ProjectId,teensy-toslink-receiver,7465656e-7379-42d7-946f-736c696e6b2d,rev?*%
%TF.SameCoordinates,Original*%
%TF.FileFunction,Soldermask,Top*%
%TF.FilePolarity,Negative*%
%FSLAX46Y46*%
G04 Gerber Fmt 4.6, Leading zero omitted, Abs format (unit mm)*
G04 Created by KiCad (PCBNEW 5.1.8) date 2020-12-26 07:32:41*
%MOMM*%
%LPD*%
G01*
G04 APERTURE LIST*
%ADD10O,1.700000X1.700000*%
%ADD11R,1.700000X1.700000*%
%ADD12R,0.800000X0.900000*%
%ADD13R,0.900000X0.800000*%
%ADD14C,2.000000*%
%ADD15R,1.500000X1.500000*%
%ADD16O,1.500000X1.500000*%
%ADD17C,1.500000*%
%ADD18C,0.100000*%
G04 APERTURE END LIST*
D10*
%TO.C,J2*%
X147320000Y-66040000D03*
X149860000Y-66040000D03*
X152400000Y-66040000D03*
X154940000Y-66040000D03*
D11*
X157480000Y-66040000D03*
%TD*%
%TO.C,R3*%
G36*
G01*
X140806000Y-75538000D02*
X140806000Y-75338000D01*
G75*
G02*
X140906000Y-75238000I100000J0D01*
G01*
X141166000Y-75238000D01*
G75*
G02*
X141266000Y-75338000I0J-100000D01*
G01*
X141266000Y-75538000D01*
G75*
G02*
X141166000Y-75638000I-100000J0D01*
G01*
X140906000Y-75638000D01*
G75*
G02*
X140806000Y-75538000I0J100000D01*
G01*
G37*
G36*
G01*
X140166000Y-75538000D02*
X140166000Y-75338000D01*
G75*
G02*
X140266000Y-75238000I100000J0D01*
G01*
X140526000Y-75238000D01*
G75*
G02*
X140626000Y-75338000I0J-100000D01*
G01*
X140626000Y-75538000D01*
G75*
G02*
X140526000Y-75638000I-100000J0D01*
G01*
X140266000Y-75638000D01*
G75*
G02*
X140166000Y-75538000I0J100000D01*
G01*
G37*
%TD*%
%TO.C,R2*%
G36*
G01*
X140806000Y-74776000D02*
X140806000Y-74576000D01*
G75*
G02*
X140906000Y-74476000I100000J0D01*
G01*
X141166000Y-74476000D01*
G75*
G02*
X141266000Y-74576000I0J-100000D01*
G01*
X141266000Y-74776000D01*
G75*
G02*
X141166000Y-74876000I-100000J0D01*
G01*
X140906000Y-74876000D01*
G75*
G02*
X140806000Y-74776000I0J100000D01*
G01*
G37*
G36*
G01*
X140166000Y-74776000D02*
X140166000Y-74576000D01*
G75*
G02*
X140266000Y-74476000I100000J0D01*
G01*
X140526000Y-74476000D01*
G75*
G02*
X140626000Y-74576000I0J-100000D01*
G01*
X140626000Y-74776000D01*
G75*
G02*
X140526000Y-74876000I-100000J0D01*
G01*
X140266000Y-74876000D01*
G75*
G02*
X140166000Y-74776000I0J100000D01*
G01*
G37*
%TD*%
D12*
%TO.C,Q3*%
X137668000Y-71898000D03*
X138618000Y-73898000D03*
X136718000Y-73898000D03*
%TD*%
D13*
%TO.C,Q2*%
X136668000Y-76454000D03*
X138668000Y-75504000D03*
X138668000Y-77404000D03*
%TD*%
%TO.C,Q1*%
X142224000Y-77978000D03*
X140224000Y-78928000D03*
X140224000Y-77028000D03*
%TD*%
D14*
%TO.C,J7*%
X135423000Y-81510000D03*
X135423000Y-65810000D03*
X140323000Y-80910000D03*
X140323000Y-66410000D03*
%TD*%
D15*
%TO.C,U1*%
X151892000Y-71120000D03*
D16*
X151892000Y-73660000D03*
X151892000Y-76200000D03*
D17*
X154432000Y-71040000D03*
X154432000Y-76280000D03*
%TD*%
%TO.C,L1*%
G36*
G01*
X147955250Y-71765000D02*
X147192750Y-71765000D01*
G75*
G02*
X146974000Y-71546250I0J218750D01*
G01*
X146974000Y-71108750D01*
G75*
G02*
X147192750Y-70890000I218750J0D01*
G01*
X147955250Y-70890000D01*
G75*
G02*
X148174000Y-71108750I0J-218750D01*
G01*
X148174000Y-71546250D01*
G75*
G02*
X147955250Y-71765000I-218750J0D01*
G01*
G37*
G36*
G01*
X147955250Y-73890000D02*
X147192750Y-73890000D01*
G75*
G02*
X146974000Y-73671250I0J218750D01*
G01*
X146974000Y-73233750D01*
G75*
G02*
X147192750Y-73015000I218750J0D01*
G01*
X147955250Y-73015000D01*
G75*
G02*
X148174000Y-73233750I0J-218750D01*
G01*
X148174000Y-73671250D01*
G75*
G02*
X147955250Y-73890000I-218750J0D01*
G01*
G37*
%TD*%
D18*
%TO.C,JP1*%
G36*
X148344000Y-74688000D02*
G01*
X148844000Y-74688000D01*
X148844000Y-74688602D01*
X148868534Y-74688602D01*
X148917365Y-74693412D01*
X148965490Y-74702984D01*
X149012445Y-74717228D01*
X149057778Y-74736005D01*
X149101051Y-74759136D01*
X149141850Y-74786396D01*
X149179779Y-74817524D01*
X149214476Y-74852221D01*
X149245604Y-74890150D01*
X149272864Y-74930949D01*
X149295995Y-74974222D01*
X149314772Y-75019555D01*
X149329016Y-75066510D01*
X149338588Y-75114635D01*
X149343398Y-75163466D01*
X149343398Y-75188000D01*
X149344000Y-75188000D01*
X149344000Y-75688000D01*
X149343398Y-75688000D01*
X149343398Y-75712534D01*
X149338588Y-75761365D01*
X149329016Y-75809490D01*
X149314772Y-75856445D01*
X149295995Y-75901778D01*
X149272864Y-75945051D01*
X149245604Y-75985850D01*
X149214476Y-76023779D01*
X149179779Y-76058476D01*
X149141850Y-76089604D01*
X149101051Y-76116864D01*
X149057778Y-76139995D01*
X149012445Y-76158772D01*
X148965490Y-76173016D01*
X148917365Y-76182588D01*
X148868534Y-76187398D01*
X148844000Y-76187398D01*
X148844000Y-76188000D01*
X148344000Y-76188000D01*
X148344000Y-74688000D01*
G37*
G36*
X147544000Y-76187398D02*
G01*
X147519466Y-76187398D01*
X147470635Y-76182588D01*
X147422510Y-76173016D01*
X147375555Y-76158772D01*
X147330222Y-76139995D01*
X147286949Y-76116864D01*
X147246150Y-76089604D01*
X147208221Y-76058476D01*
X147173524Y-76023779D01*
X147142396Y-75985850D01*
X147115136Y-75945051D01*
X147092005Y-75901778D01*
X147073228Y-75856445D01*
X147058984Y-75809490D01*
X147049412Y-75761365D01*
X147044602Y-75712534D01*
X147044602Y-75688000D01*
X147044000Y-75688000D01*
X147044000Y-75188000D01*
X147044602Y-75188000D01*
X147044602Y-75163466D01*
X147049412Y-75114635D01*
X147058984Y-75066510D01*
X147073228Y-75019555D01*
X147092005Y-74974222D01*
X147115136Y-74930949D01*
X147142396Y-74890150D01*
X147173524Y-74852221D01*
X147208221Y-74817524D01*
X147246150Y-74786396D01*
X147286949Y-74759136D01*
X147330222Y-74736005D01*
X147375555Y-74717228D01*
X147422510Y-74702984D01*
X147470635Y-74693412D01*
X147519466Y-74688602D01*
X147544000Y-74688602D01*
X147544000Y-74688000D01*
X148044000Y-74688000D01*
X148044000Y-76188000D01*
X147544000Y-76188000D01*
X147544000Y-76187398D01*
G37*
%TD*%
D10*
%TO.C,J6*%
X144780000Y-81280000D03*
X144780000Y-78740000D03*
X144780000Y-76200000D03*
D11*
X144780000Y-73660000D03*
%TD*%
D10*
%TO.C,J5*%
X149860000Y-68580000D03*
X147320000Y-68580000D03*
D11*
X144780000Y-68580000D03*
%TD*%
D10*
%TO.C,J4*%
X157480000Y-78740000D03*
X157480000Y-76200000D03*
X157480000Y-73660000D03*
X157480000Y-71120000D03*
D11*
X157480000Y-68580000D03*
%TD*%
D10*
%TO.C,J3*%
X157480000Y-81280000D03*
X154940000Y-81280000D03*
X152400000Y-81280000D03*
X149860000Y-81280000D03*
D11*
X147320000Y-81280000D03*
%TD*%
D10*
%TO.C,J1*%
X147320000Y-78740000D03*
X149860000Y-78740000D03*
D11*
X152400000Y-78740000D03*
%TD*%
%TO.C,C1*%
G36*
G01*
X149864000Y-72461000D02*
X150364000Y-72461000D01*
G75*
G02*
X150589000Y-72686000I0J-225000D01*
G01*
X150589000Y-73136000D01*
G75*
G02*
X150364000Y-73361000I-225000J0D01*
G01*
X149864000Y-73361000D01*
G75*
G02*
X149639000Y-73136000I0J225000D01*
G01*
X149639000Y-72686000D01*
G75*
G02*
X149864000Y-72461000I225000J0D01*
G01*
G37*
G36*
G01*
X149864000Y-70911000D02*
X150364000Y-70911000D01*
G75*
G02*
X150589000Y-71136000I0J-225000D01*
G01*
X150589000Y-71586000D01*
G75*
G02*
X150364000Y-71811000I-225000J0D01*
G01*
X149864000Y-71811000D01*
G75*
G02*
X149639000Y-71586000I0J225000D01*
G01*
X149639000Y-71136000D01*
G75*
G02*
X149864000Y-70911000I225000J0D01*
G01*
G37*
%TD*%
M02*
