%TF.GenerationSoftware,KiCad,Pcbnew,5.1.8*%
%TF.CreationDate,2020-12-26T07:32:41-08:00*%
%TF.ProjectId,teensy-toslink-receiver,7465656e-7379-42d7-946f-736c696e6b2d,rev?*%
%TF.SameCoordinates,Original*%
%TF.FileFunction,Legend,Top*%
%TF.FilePolarity,Positive*%
%FSLAX46Y46*%
G04 Gerber Fmt 4.6, Leading zero omitted, Abs format (unit mm)*
G04 Created by KiCad (PCBNEW 5.1.8) date 2020-12-26 07:32:41*
%MOMM*%
%LPD*%
G01*
G04 APERTURE LIST*
%ADD10C,0.250000*%
%ADD11C,0.300000*%
%ADD12C,0.120000*%
%ADD13C,0.150000*%
%ADD14O,1.700000X1.700000*%
%ADD15R,1.700000X1.700000*%
%ADD16R,0.800000X0.900000*%
%ADD17R,0.900000X0.800000*%
%ADD18C,2.000000*%
%ADD19R,1.500000X1.500000*%
%ADD20O,1.500000X1.500000*%
%ADD21C,1.500000*%
%ADD22C,0.100000*%
G04 APERTURE END LIST*
D10*
X137410857Y-70897428D02*
X138210857Y-70611714D01*
X137410857Y-70326000D01*
X138210857Y-69240285D02*
X138210857Y-69926000D01*
X138210857Y-69583142D02*
X137010857Y-69583142D01*
X137182285Y-69697428D01*
X137296571Y-69811714D01*
X137353714Y-69926000D01*
X138096571Y-68726000D02*
X138153714Y-68668857D01*
X138210857Y-68726000D01*
X138153714Y-68783142D01*
X138096571Y-68726000D01*
X138210857Y-68726000D01*
X138210857Y-67526000D02*
X138210857Y-68211714D01*
X138210857Y-67868857D02*
X137010857Y-67868857D01*
X137182285Y-67983142D01*
X137296571Y-68097428D01*
X137353714Y-68211714D01*
X138096571Y-67011714D02*
X138153714Y-66954571D01*
X138210857Y-67011714D01*
X138153714Y-67068857D01*
X138096571Y-67011714D01*
X138210857Y-67011714D01*
X137010857Y-66211714D02*
X137010857Y-66097428D01*
X137068000Y-65983142D01*
X137125142Y-65926000D01*
X137239428Y-65868857D01*
X137468000Y-65811714D01*
X137753714Y-65811714D01*
X137982285Y-65868857D01*
X138096571Y-65926000D01*
X138153714Y-65983142D01*
X138210857Y-66097428D01*
X138210857Y-66211714D01*
X138153714Y-66326000D01*
X138096571Y-66383142D01*
X137982285Y-66440285D01*
X137753714Y-66497428D01*
X137468000Y-66497428D01*
X137239428Y-66440285D01*
X137125142Y-66383142D01*
X137068000Y-66326000D01*
X137010857Y-66211714D01*
D11*
X134806571Y-80017142D02*
X135806571Y-79731428D01*
X135092285Y-79445714D01*
X135806571Y-79160000D01*
X134806571Y-78874285D01*
X134806571Y-77660000D02*
X135806571Y-77660000D01*
X134806571Y-78302857D02*
X135592285Y-78302857D01*
X135735142Y-78231428D01*
X135806571Y-78088571D01*
X135806571Y-77874285D01*
X135735142Y-77731428D01*
X135663714Y-77660000D01*
X134806571Y-77160000D02*
X134806571Y-76588571D01*
X134306571Y-76945714D02*
X135592285Y-76945714D01*
X135735142Y-76874285D01*
X135806571Y-76731428D01*
X135806571Y-76588571D01*
X135806571Y-74302857D02*
X135020857Y-74302857D01*
X134878000Y-74374285D01*
X134806571Y-74517142D01*
X134806571Y-74802857D01*
X134878000Y-74945714D01*
X135735142Y-74302857D02*
X135806571Y-74445714D01*
X135806571Y-74802857D01*
X135735142Y-74945714D01*
X135592285Y-75017142D01*
X135449428Y-75017142D01*
X135306571Y-74945714D01*
X135235142Y-74802857D01*
X135235142Y-74445714D01*
X135163714Y-74302857D01*
X135806571Y-72445714D02*
X134806571Y-72445714D01*
X134949428Y-72445714D02*
X134878000Y-72374285D01*
X134806571Y-72231428D01*
X134806571Y-72017142D01*
X134878000Y-71874285D01*
X135020857Y-71802857D01*
X135806571Y-71802857D01*
X135020857Y-71802857D02*
X134878000Y-71731428D01*
X134806571Y-71588571D01*
X134806571Y-71374285D01*
X134878000Y-71231428D01*
X135020857Y-71160000D01*
X135806571Y-71160000D01*
X135735142Y-69874285D02*
X135806571Y-70017142D01*
X135806571Y-70302857D01*
X135735142Y-70445714D01*
X135592285Y-70517142D01*
X135020857Y-70517142D01*
X134878000Y-70445714D01*
X134806571Y-70302857D01*
X134806571Y-70017142D01*
X134878000Y-69874285D01*
X135020857Y-69802857D01*
X135163714Y-69802857D01*
X135306571Y-70517142D01*
X135735142Y-69231428D02*
X135806571Y-69088571D01*
X135806571Y-68802857D01*
X135735142Y-68660000D01*
X135592285Y-68588571D01*
X135520857Y-68588571D01*
X135378000Y-68660000D01*
X135306571Y-68802857D01*
X135306571Y-69017142D01*
X135235142Y-69160000D01*
X135092285Y-69231428D01*
X135020857Y-69231428D01*
X134878000Y-69160000D01*
X134806571Y-69017142D01*
X134806571Y-68802857D01*
X134878000Y-68660000D01*
X135735142Y-68017142D02*
X135806571Y-67874285D01*
X135806571Y-67588571D01*
X135735142Y-67445714D01*
X135592285Y-67374285D01*
X135520857Y-67374285D01*
X135378000Y-67445714D01*
X135306571Y-67588571D01*
X135306571Y-67802857D01*
X135235142Y-67945714D01*
X135092285Y-68017142D01*
X135020857Y-68017142D01*
X134878000Y-67945714D01*
X134806571Y-67802857D01*
X134806571Y-67588571D01*
X134878000Y-67445714D01*
D12*
%TO.C,J2*%
X145990000Y-64710000D02*
X145990000Y-67370000D01*
X156210000Y-64710000D02*
X145990000Y-64710000D01*
X156210000Y-67370000D02*
X145990000Y-67370000D01*
X156210000Y-64710000D02*
X156210000Y-67370000D01*
X157480000Y-64710000D02*
X158810000Y-64710000D01*
X158810000Y-64710000D02*
X158810000Y-66040000D01*
%TO.C,Q3*%
X139248000Y-72138000D02*
X138318000Y-72138000D01*
X136088000Y-72138000D02*
X137018000Y-72138000D01*
X136088000Y-72138000D02*
X136088000Y-74298000D01*
X139248000Y-72138000D02*
X139248000Y-73598000D01*
%TO.C,Q2*%
X136908000Y-74874000D02*
X136908000Y-75804000D01*
X136908000Y-78034000D02*
X136908000Y-77104000D01*
X136908000Y-78034000D02*
X139068000Y-78034000D01*
X136908000Y-74874000D02*
X138368000Y-74874000D01*
%TO.C,Q1*%
X141984000Y-79558000D02*
X141984000Y-78628000D01*
X141984000Y-76398000D02*
X141984000Y-77328000D01*
X141984000Y-76398000D02*
X139824000Y-76398000D01*
X141984000Y-79558000D02*
X140524000Y-79558000D01*
%TO.C,L1*%
X147014000Y-72789622D02*
X147014000Y-71990378D01*
X148134000Y-72789622D02*
X148134000Y-71990378D01*
%TO.C,JP1*%
X149594000Y-75138000D02*
X149594000Y-75738000D01*
X147494000Y-74438000D02*
X148894000Y-74438000D01*
X146794000Y-75738000D02*
X146794000Y-75138000D01*
X148894000Y-76438000D02*
X147494000Y-76438000D01*
X149594000Y-75738000D02*
G75*
G02*
X148894000Y-76438000I-700000J0D01*
G01*
X148894000Y-74438000D02*
G75*
G02*
X149594000Y-75138000I0J-700000D01*
G01*
X146794000Y-75138000D02*
G75*
G02*
X147494000Y-74438000I700000J0D01*
G01*
X147494000Y-76438000D02*
G75*
G02*
X146794000Y-75738000I0J700000D01*
G01*
%TO.C,J6*%
X143450000Y-82610000D02*
X146110000Y-82610000D01*
X143450000Y-74930000D02*
X143450000Y-82610000D01*
X146110000Y-74930000D02*
X146110000Y-82610000D01*
X143450000Y-74930000D02*
X146110000Y-74930000D01*
X143450000Y-73660000D02*
X143450000Y-72330000D01*
X143450000Y-72330000D02*
X144780000Y-72330000D01*
%TO.C,J5*%
X151190000Y-69910000D02*
X151190000Y-67250000D01*
X146050000Y-69910000D02*
X151190000Y-69910000D01*
X146050000Y-67250000D02*
X151190000Y-67250000D01*
X146050000Y-69910000D02*
X146050000Y-67250000D01*
X144780000Y-69910000D02*
X143450000Y-69910000D01*
X143450000Y-69910000D02*
X143450000Y-68580000D01*
%TO.C,J4*%
X156150000Y-80070000D02*
X158810000Y-80070000D01*
X156150000Y-69850000D02*
X156150000Y-80070000D01*
X158810000Y-69850000D02*
X158810000Y-80070000D01*
X156150000Y-69850000D02*
X158810000Y-69850000D01*
X156150000Y-68580000D02*
X156150000Y-67250000D01*
X156150000Y-67250000D02*
X157480000Y-67250000D01*
%TO.C,J3*%
X158810000Y-82610000D02*
X158810000Y-79950000D01*
X148590000Y-82610000D02*
X158810000Y-82610000D01*
X148590000Y-79950000D02*
X158810000Y-79950000D01*
X148590000Y-82610000D02*
X148590000Y-79950000D01*
X147320000Y-82610000D02*
X145990000Y-82610000D01*
X145990000Y-82610000D02*
X145990000Y-81280000D01*
%TO.C,J1*%
X145990000Y-77410000D02*
X145990000Y-80070000D01*
X151130000Y-77410000D02*
X145990000Y-77410000D01*
X151130000Y-80070000D02*
X145990000Y-80070000D01*
X151130000Y-77410000D02*
X151130000Y-80070000D01*
X152400000Y-77410000D02*
X153730000Y-77410000D01*
X153730000Y-77410000D02*
X153730000Y-78740000D01*
%TO.C,C1*%
X150624000Y-71995420D02*
X150624000Y-72276580D01*
X149604000Y-71995420D02*
X149604000Y-72276580D01*
%TO.C,J2*%
D13*
X154860666Y-67524380D02*
X154860666Y-68238666D01*
X154813047Y-68381523D01*
X154717809Y-68476761D01*
X154574952Y-68524380D01*
X154479714Y-68524380D01*
X155289238Y-67619619D02*
X155336857Y-67572000D01*
X155432095Y-67524380D01*
X155670190Y-67524380D01*
X155765428Y-67572000D01*
X155813047Y-67619619D01*
X155860666Y-67714857D01*
X155860666Y-67810095D01*
X155813047Y-67952952D01*
X155241619Y-68524380D01*
X155860666Y-68524380D01*
%TO.C,R3*%
X142200333Y-76271380D02*
X141867000Y-75795190D01*
X141628904Y-76271380D02*
X141628904Y-75271380D01*
X142009857Y-75271380D01*
X142105095Y-75319000D01*
X142152714Y-75366619D01*
X142200333Y-75461857D01*
X142200333Y-75604714D01*
X142152714Y-75699952D01*
X142105095Y-75747571D01*
X142009857Y-75795190D01*
X141628904Y-75795190D01*
X142533666Y-75271380D02*
X143152714Y-75271380D01*
X142819380Y-75652333D01*
X142962238Y-75652333D01*
X143057476Y-75699952D01*
X143105095Y-75747571D01*
X143152714Y-75842809D01*
X143152714Y-76080904D01*
X143105095Y-76176142D01*
X143057476Y-76223761D01*
X142962238Y-76271380D01*
X142676523Y-76271380D01*
X142581285Y-76223761D01*
X142533666Y-76176142D01*
%TO.C,R2*%
X142200333Y-75064880D02*
X141867000Y-74588690D01*
X141628904Y-75064880D02*
X141628904Y-74064880D01*
X142009857Y-74064880D01*
X142105095Y-74112500D01*
X142152714Y-74160119D01*
X142200333Y-74255357D01*
X142200333Y-74398214D01*
X142152714Y-74493452D01*
X142105095Y-74541071D01*
X142009857Y-74588690D01*
X141628904Y-74588690D01*
X142581285Y-74160119D02*
X142628904Y-74112500D01*
X142724142Y-74064880D01*
X142962238Y-74064880D01*
X143057476Y-74112500D01*
X143105095Y-74160119D01*
X143152714Y-74255357D01*
X143152714Y-74350595D01*
X143105095Y-74493452D01*
X142533666Y-75064880D01*
X143152714Y-75064880D01*
%TO.C,Q3*%
X140366761Y-73445619D02*
X140271523Y-73398000D01*
X140176285Y-73302761D01*
X140033428Y-73159904D01*
X139938190Y-73112285D01*
X139842952Y-73112285D01*
X139890571Y-73350380D02*
X139795333Y-73302761D01*
X139700095Y-73207523D01*
X139652476Y-73017047D01*
X139652476Y-72683714D01*
X139700095Y-72493238D01*
X139795333Y-72398000D01*
X139890571Y-72350380D01*
X140081047Y-72350380D01*
X140176285Y-72398000D01*
X140271523Y-72493238D01*
X140319142Y-72683714D01*
X140319142Y-73017047D01*
X140271523Y-73207523D01*
X140176285Y-73302761D01*
X140081047Y-73350380D01*
X139890571Y-73350380D01*
X140652476Y-72350380D02*
X141271523Y-72350380D01*
X140938190Y-72731333D01*
X141081047Y-72731333D01*
X141176285Y-72778952D01*
X141223904Y-72826571D01*
X141271523Y-72921809D01*
X141271523Y-73159904D01*
X141223904Y-73255142D01*
X141176285Y-73302761D01*
X141081047Y-73350380D01*
X140795333Y-73350380D01*
X140700095Y-73302761D01*
X140652476Y-73255142D01*
%TO.C,Q2*%
X137572761Y-79501619D02*
X137477523Y-79454000D01*
X137382285Y-79358761D01*
X137239428Y-79215904D01*
X137144190Y-79168285D01*
X137048952Y-79168285D01*
X137096571Y-79406380D02*
X137001333Y-79358761D01*
X136906095Y-79263523D01*
X136858476Y-79073047D01*
X136858476Y-78739714D01*
X136906095Y-78549238D01*
X137001333Y-78454000D01*
X137096571Y-78406380D01*
X137287047Y-78406380D01*
X137382285Y-78454000D01*
X137477523Y-78549238D01*
X137525142Y-78739714D01*
X137525142Y-79073047D01*
X137477523Y-79263523D01*
X137382285Y-79358761D01*
X137287047Y-79406380D01*
X137096571Y-79406380D01*
X137906095Y-78501619D02*
X137953714Y-78454000D01*
X138048952Y-78406380D01*
X138287047Y-78406380D01*
X138382285Y-78454000D01*
X138429904Y-78501619D01*
X138477523Y-78596857D01*
X138477523Y-78692095D01*
X138429904Y-78834952D01*
X137858476Y-79406380D01*
X138477523Y-79406380D01*
%TO.C,Q1*%
X142144761Y-80811619D02*
X142049523Y-80764000D01*
X141954285Y-80668761D01*
X141811428Y-80525904D01*
X141716190Y-80478285D01*
X141620952Y-80478285D01*
X141668571Y-80716380D02*
X141573333Y-80668761D01*
X141478095Y-80573523D01*
X141430476Y-80383047D01*
X141430476Y-80049714D01*
X141478095Y-79859238D01*
X141573333Y-79764000D01*
X141668571Y-79716380D01*
X141859047Y-79716380D01*
X141954285Y-79764000D01*
X142049523Y-79859238D01*
X142097142Y-80049714D01*
X142097142Y-80383047D01*
X142049523Y-80573523D01*
X141954285Y-80668761D01*
X141859047Y-80716380D01*
X141668571Y-80716380D01*
X143049523Y-80716380D02*
X142478095Y-80716380D01*
X142763809Y-80716380D02*
X142763809Y-79716380D01*
X142668571Y-79859238D01*
X142573333Y-79954476D01*
X142478095Y-80002095D01*
%TO.C,L1*%
X149296380Y-71286666D02*
X149296380Y-71762857D01*
X148296380Y-71762857D01*
X149296380Y-70429523D02*
X149296380Y-71000952D01*
X149296380Y-70715238D02*
X148296380Y-70715238D01*
X148439238Y-70810476D01*
X148534476Y-70905714D01*
X148582095Y-71000952D01*
%TO.C,JP1*%
X149820380Y-76271333D02*
X150534666Y-76271333D01*
X150677523Y-76318952D01*
X150772761Y-76414190D01*
X150820380Y-76557047D01*
X150820380Y-76652285D01*
X150820380Y-75795142D02*
X149820380Y-75795142D01*
X149820380Y-75414190D01*
X149868000Y-75318952D01*
X149915619Y-75271333D01*
X150010857Y-75223714D01*
X150153714Y-75223714D01*
X150248952Y-75271333D01*
X150296571Y-75318952D01*
X150344190Y-75414190D01*
X150344190Y-75795142D01*
X150820380Y-74271333D02*
X150820380Y-74842761D01*
X150820380Y-74557047D02*
X149820380Y-74557047D01*
X149963238Y-74652285D01*
X150058476Y-74747523D01*
X150106095Y-74842761D01*
%TO.C,J6*%
X144232380Y-71707333D02*
X144946666Y-71707333D01*
X145089523Y-71754952D01*
X145184761Y-71850190D01*
X145232380Y-71993047D01*
X145232380Y-72088285D01*
X144232380Y-70802571D02*
X144232380Y-70993047D01*
X144280000Y-71088285D01*
X144327619Y-71135904D01*
X144470476Y-71231142D01*
X144660952Y-71278761D01*
X145041904Y-71278761D01*
X145137142Y-71231142D01*
X145184761Y-71183523D01*
X145232380Y-71088285D01*
X145232380Y-70897809D01*
X145184761Y-70802571D01*
X145137142Y-70754952D01*
X145041904Y-70707333D01*
X144803809Y-70707333D01*
X144708571Y-70754952D01*
X144660952Y-70802571D01*
X144613333Y-70897809D01*
X144613333Y-71088285D01*
X144660952Y-71183523D01*
X144708571Y-71231142D01*
X144803809Y-71278761D01*
%TO.C,J5*%
X144446666Y-66254380D02*
X144446666Y-66968666D01*
X144399047Y-67111523D01*
X144303809Y-67206761D01*
X144160952Y-67254380D01*
X144065714Y-67254380D01*
X145399047Y-66254380D02*
X144922857Y-66254380D01*
X144875238Y-66730571D01*
X144922857Y-66682952D01*
X145018095Y-66635333D01*
X145256190Y-66635333D01*
X145351428Y-66682952D01*
X145399047Y-66730571D01*
X145446666Y-66825809D01*
X145446666Y-67063904D01*
X145399047Y-67159142D01*
X145351428Y-67206761D01*
X145256190Y-67254380D01*
X145018095Y-67254380D01*
X144922857Y-67206761D01*
X144875238Y-67159142D01*
%TO.C,J4*%
X154900380Y-69929333D02*
X155614666Y-69929333D01*
X155757523Y-69976952D01*
X155852761Y-70072190D01*
X155900380Y-70215047D01*
X155900380Y-70310285D01*
X155233714Y-69024571D02*
X155900380Y-69024571D01*
X154852761Y-69262666D02*
X155567047Y-69500761D01*
X155567047Y-68881714D01*
%TO.C,J3*%
X154352666Y-78700380D02*
X154352666Y-79414666D01*
X154305047Y-79557523D01*
X154209809Y-79652761D01*
X154066952Y-79700380D01*
X153971714Y-79700380D01*
X154733619Y-78700380D02*
X155352666Y-78700380D01*
X155019333Y-79081333D01*
X155162190Y-79081333D01*
X155257428Y-79128952D01*
X155305047Y-79176571D01*
X155352666Y-79271809D01*
X155352666Y-79509904D01*
X155305047Y-79605142D01*
X155257428Y-79652761D01*
X155162190Y-79700380D01*
X154876476Y-79700380D01*
X154781238Y-79652761D01*
X154733619Y-79605142D01*
%TO.C,J1*%
X154352666Y-77430380D02*
X154352666Y-78144666D01*
X154305047Y-78287523D01*
X154209809Y-78382761D01*
X154066952Y-78430380D01*
X153971714Y-78430380D01*
X155352666Y-78430380D02*
X154781238Y-78430380D01*
X155066952Y-78430380D02*
X155066952Y-77430380D01*
X154971714Y-77573238D01*
X154876476Y-77668476D01*
X154781238Y-77716095D01*
%TO.C,C1*%
X149201142Y-73255166D02*
X149248761Y-73302785D01*
X149296380Y-73445642D01*
X149296380Y-73540880D01*
X149248761Y-73683738D01*
X149153523Y-73778976D01*
X149058285Y-73826595D01*
X148867809Y-73874214D01*
X148724952Y-73874214D01*
X148534476Y-73826595D01*
X148439238Y-73778976D01*
X148344000Y-73683738D01*
X148296380Y-73540880D01*
X148296380Y-73445642D01*
X148344000Y-73302785D01*
X148391619Y-73255166D01*
X149296380Y-72302785D02*
X149296380Y-72874214D01*
X149296380Y-72588500D02*
X148296380Y-72588500D01*
X148439238Y-72683738D01*
X148534476Y-72778976D01*
X148582095Y-72874214D01*
%TD*%
%LPC*%
D14*
%TO.C,J2*%
X147320000Y-66040000D03*
X149860000Y-66040000D03*
X152400000Y-66040000D03*
X154940000Y-66040000D03*
D15*
X157480000Y-66040000D03*
%TD*%
%TO.C,R3*%
G36*
G01*
X140806000Y-75538000D02*
X140806000Y-75338000D01*
G75*
G02*
X140906000Y-75238000I100000J0D01*
G01*
X141166000Y-75238000D01*
G75*
G02*
X141266000Y-75338000I0J-100000D01*
G01*
X141266000Y-75538000D01*
G75*
G02*
X141166000Y-75638000I-100000J0D01*
G01*
X140906000Y-75638000D01*
G75*
G02*
X140806000Y-75538000I0J100000D01*
G01*
G37*
G36*
G01*
X140166000Y-75538000D02*
X140166000Y-75338000D01*
G75*
G02*
X140266000Y-75238000I100000J0D01*
G01*
X140526000Y-75238000D01*
G75*
G02*
X140626000Y-75338000I0J-100000D01*
G01*
X140626000Y-75538000D01*
G75*
G02*
X140526000Y-75638000I-100000J0D01*
G01*
X140266000Y-75638000D01*
G75*
G02*
X140166000Y-75538000I0J100000D01*
G01*
G37*
%TD*%
%TO.C,R2*%
G36*
G01*
X140806000Y-74776000D02*
X140806000Y-74576000D01*
G75*
G02*
X140906000Y-74476000I100000J0D01*
G01*
X141166000Y-74476000D01*
G75*
G02*
X141266000Y-74576000I0J-100000D01*
G01*
X141266000Y-74776000D01*
G75*
G02*
X141166000Y-74876000I-100000J0D01*
G01*
X140906000Y-74876000D01*
G75*
G02*
X140806000Y-74776000I0J100000D01*
G01*
G37*
G36*
G01*
X140166000Y-74776000D02*
X140166000Y-74576000D01*
G75*
G02*
X140266000Y-74476000I100000J0D01*
G01*
X140526000Y-74476000D01*
G75*
G02*
X140626000Y-74576000I0J-100000D01*
G01*
X140626000Y-74776000D01*
G75*
G02*
X140526000Y-74876000I-100000J0D01*
G01*
X140266000Y-74876000D01*
G75*
G02*
X140166000Y-74776000I0J100000D01*
G01*
G37*
%TD*%
D16*
%TO.C,Q3*%
X137668000Y-71898000D03*
X138618000Y-73898000D03*
X136718000Y-73898000D03*
%TD*%
D17*
%TO.C,Q2*%
X136668000Y-76454000D03*
X138668000Y-75504000D03*
X138668000Y-77404000D03*
%TD*%
%TO.C,Q1*%
X142224000Y-77978000D03*
X140224000Y-78928000D03*
X140224000Y-77028000D03*
%TD*%
D18*
%TO.C,J7*%
X135423000Y-81510000D03*
X135423000Y-65810000D03*
X140323000Y-80910000D03*
X140323000Y-66410000D03*
%TD*%
D19*
%TO.C,U1*%
X151892000Y-71120000D03*
D20*
X151892000Y-73660000D03*
X151892000Y-76200000D03*
D21*
X154432000Y-71040000D03*
X154432000Y-76280000D03*
%TD*%
%TO.C,L1*%
G36*
G01*
X147955250Y-71765000D02*
X147192750Y-71765000D01*
G75*
G02*
X146974000Y-71546250I0J218750D01*
G01*
X146974000Y-71108750D01*
G75*
G02*
X147192750Y-70890000I218750J0D01*
G01*
X147955250Y-70890000D01*
G75*
G02*
X148174000Y-71108750I0J-218750D01*
G01*
X148174000Y-71546250D01*
G75*
G02*
X147955250Y-71765000I-218750J0D01*
G01*
G37*
G36*
G01*
X147955250Y-73890000D02*
X147192750Y-73890000D01*
G75*
G02*
X146974000Y-73671250I0J218750D01*
G01*
X146974000Y-73233750D01*
G75*
G02*
X147192750Y-73015000I218750J0D01*
G01*
X147955250Y-73015000D01*
G75*
G02*
X148174000Y-73233750I0J-218750D01*
G01*
X148174000Y-73671250D01*
G75*
G02*
X147955250Y-73890000I-218750J0D01*
G01*
G37*
%TD*%
D22*
%TO.C,JP1*%
G36*
X148344000Y-74688000D02*
G01*
X148844000Y-74688000D01*
X148844000Y-74688602D01*
X148868534Y-74688602D01*
X148917365Y-74693412D01*
X148965490Y-74702984D01*
X149012445Y-74717228D01*
X149057778Y-74736005D01*
X149101051Y-74759136D01*
X149141850Y-74786396D01*
X149179779Y-74817524D01*
X149214476Y-74852221D01*
X149245604Y-74890150D01*
X149272864Y-74930949D01*
X149295995Y-74974222D01*
X149314772Y-75019555D01*
X149329016Y-75066510D01*
X149338588Y-75114635D01*
X149343398Y-75163466D01*
X149343398Y-75188000D01*
X149344000Y-75188000D01*
X149344000Y-75688000D01*
X149343398Y-75688000D01*
X149343398Y-75712534D01*
X149338588Y-75761365D01*
X149329016Y-75809490D01*
X149314772Y-75856445D01*
X149295995Y-75901778D01*
X149272864Y-75945051D01*
X149245604Y-75985850D01*
X149214476Y-76023779D01*
X149179779Y-76058476D01*
X149141850Y-76089604D01*
X149101051Y-76116864D01*
X149057778Y-76139995D01*
X149012445Y-76158772D01*
X148965490Y-76173016D01*
X148917365Y-76182588D01*
X148868534Y-76187398D01*
X148844000Y-76187398D01*
X148844000Y-76188000D01*
X148344000Y-76188000D01*
X148344000Y-74688000D01*
G37*
G36*
X147544000Y-76187398D02*
G01*
X147519466Y-76187398D01*
X147470635Y-76182588D01*
X147422510Y-76173016D01*
X147375555Y-76158772D01*
X147330222Y-76139995D01*
X147286949Y-76116864D01*
X147246150Y-76089604D01*
X147208221Y-76058476D01*
X147173524Y-76023779D01*
X147142396Y-75985850D01*
X147115136Y-75945051D01*
X147092005Y-75901778D01*
X147073228Y-75856445D01*
X147058984Y-75809490D01*
X147049412Y-75761365D01*
X147044602Y-75712534D01*
X147044602Y-75688000D01*
X147044000Y-75688000D01*
X147044000Y-75188000D01*
X147044602Y-75188000D01*
X147044602Y-75163466D01*
X147049412Y-75114635D01*
X147058984Y-75066510D01*
X147073228Y-75019555D01*
X147092005Y-74974222D01*
X147115136Y-74930949D01*
X147142396Y-74890150D01*
X147173524Y-74852221D01*
X147208221Y-74817524D01*
X147246150Y-74786396D01*
X147286949Y-74759136D01*
X147330222Y-74736005D01*
X147375555Y-74717228D01*
X147422510Y-74702984D01*
X147470635Y-74693412D01*
X147519466Y-74688602D01*
X147544000Y-74688602D01*
X147544000Y-74688000D01*
X148044000Y-74688000D01*
X148044000Y-76188000D01*
X147544000Y-76188000D01*
X147544000Y-76187398D01*
G37*
%TD*%
D14*
%TO.C,J6*%
X144780000Y-81280000D03*
X144780000Y-78740000D03*
X144780000Y-76200000D03*
D15*
X144780000Y-73660000D03*
%TD*%
D14*
%TO.C,J5*%
X149860000Y-68580000D03*
X147320000Y-68580000D03*
D15*
X144780000Y-68580000D03*
%TD*%
D14*
%TO.C,J4*%
X157480000Y-78740000D03*
X157480000Y-76200000D03*
X157480000Y-73660000D03*
X157480000Y-71120000D03*
D15*
X157480000Y-68580000D03*
%TD*%
D14*
%TO.C,J3*%
X157480000Y-81280000D03*
X154940000Y-81280000D03*
X152400000Y-81280000D03*
X149860000Y-81280000D03*
D15*
X147320000Y-81280000D03*
%TD*%
D14*
%TO.C,J1*%
X147320000Y-78740000D03*
X149860000Y-78740000D03*
D15*
X152400000Y-78740000D03*
%TD*%
%TO.C,C1*%
G36*
G01*
X149864000Y-72461000D02*
X150364000Y-72461000D01*
G75*
G02*
X150589000Y-72686000I0J-225000D01*
G01*
X150589000Y-73136000D01*
G75*
G02*
X150364000Y-73361000I-225000J0D01*
G01*
X149864000Y-73361000D01*
G75*
G02*
X149639000Y-73136000I0J225000D01*
G01*
X149639000Y-72686000D01*
G75*
G02*
X149864000Y-72461000I225000J0D01*
G01*
G37*
G36*
G01*
X149864000Y-70911000D02*
X150364000Y-70911000D01*
G75*
G02*
X150589000Y-71136000I0J-225000D01*
G01*
X150589000Y-71586000D01*
G75*
G02*
X150364000Y-71811000I-225000J0D01*
G01*
X149864000Y-71811000D01*
G75*
G02*
X149639000Y-71586000I0J225000D01*
G01*
X149639000Y-71136000D01*
G75*
G02*
X149864000Y-70911000I225000J0D01*
G01*
G37*
%TD*%
M02*
