M48
; DRILL file {KiCad 5.1.8} date Sat Dec 26 07:32:38 2020
; FORMAT={-:-/ absolute / inch / decimal}
; #@! TF.CreationDate,2020-12-26T07:32:38-08:00
; #@! TF.GenerationSoftware,Kicad,Pcbnew,5.1.8
; #@! TF.FileFunction,Plated,1,2,PTH
FMAT,2
INCH
T1C0.0157
T2C0.0236
T3C0.0256
T4C0.0276
T5C0.0315
T6C0.0394
%
G90
G05
T1
X5.4166Y-3.0256
X5.46Y-2.87
X5.47Y-3.09
T4
X5.98Y-2.8
X5.98Y-2.9
X5.98Y-3.0
T5
X6.08Y-2.7969
X6.08Y-3.0031
T6
X5.8Y-3.2
X5.9Y-3.2
X6.0Y-3.2
X6.1Y-3.2
X6.2Y-3.2
X6.2Y-2.7
X6.2Y-2.8
X6.2Y-2.9
X6.2Y-3.0
X6.2Y-3.1
X5.8Y-2.6
X5.9Y-2.6
X6.0Y-2.6
X6.1Y-2.6
X6.2Y-2.6
X5.8Y-3.1
X5.9Y-3.1
X6.0Y-3.1
X5.7Y-2.7
X5.8Y-2.7
X5.9Y-2.7
X5.7Y-2.9
X5.7Y-3.0
X5.7Y-3.1
X5.7Y-3.2
T2
G00X5.3218Y-3.2091
M15
G01X5.3415Y-3.2091
M16
G05
T3
G00X5.3228Y-2.5909
M15
G01X5.3405Y-2.5909
M16
G05
G00X5.5157Y-2.6146
M15
G01X5.5334Y-2.6146
M16
G05
G00X5.5157Y-3.1854
M15
G01X5.5334Y-3.1854
M16
G05
T0
M30
