%TF.GenerationSoftware,KiCad,Pcbnew,5.1.8*%
%TF.CreationDate,2020-12-26T07:32:41-08:00*%
%TF.ProjectId,teensy-toslink-receiver,7465656e-7379-42d7-946f-736c696e6b2d,rev?*%
%TF.SameCoordinates,Original*%
%TF.FileFunction,Legend,Bot*%
%TF.FilePolarity,Positive*%
%FSLAX46Y46*%
G04 Gerber Fmt 4.6, Leading zero omitted, Abs format (unit mm)*
G04 Created by KiCad (PCBNEW 5.1.8) date 2020-12-26 07:32:41*
%MOMM*%
%LPD*%
G01*
G04 APERTURE LIST*
%ADD10C,0.150000*%
%ADD11C,0.250000*%
%ADD12C,0.120000*%
%ADD13O,1.700000X1.700000*%
%ADD14R,1.700000X1.700000*%
%ADD15C,2.000000*%
%ADD16R,1.900000X0.300000*%
%ADD17R,1.500000X1.500000*%
%ADD18O,1.500000X1.500000*%
%ADD19C,1.500000*%
G04 APERTURE END LIST*
D10*
%TO.C,J7*%
X141048000Y-79535000D02*
X141048000Y-78435000D01*
X141048000Y-68385000D02*
X141048000Y-67785000D01*
X136798000Y-66010000D02*
X138948000Y-66010000D01*
X136798000Y-81310000D02*
X138948000Y-81310000D01*
D11*
X142973000Y-68910000D02*
G75*
G03*
X142973000Y-68910000I-125000J0D01*
G01*
D12*
%TO.C,U1*%
X149502000Y-78510000D02*
X163002000Y-78510000D01*
X149502000Y-68810000D02*
X163002000Y-68810000D01*
X163002000Y-68810000D02*
X163002000Y-78510000D01*
X149502000Y-78510000D02*
X149502000Y-68810000D01*
%TO.C,R1*%
D10*
X143708380Y-78573333D02*
X143232190Y-78240000D01*
X143708380Y-78001904D02*
X142708380Y-78001904D01*
X142708380Y-78382857D01*
X142756000Y-78478095D01*
X142803619Y-78525714D01*
X142898857Y-78573333D01*
X143041714Y-78573333D01*
X143136952Y-78525714D01*
X143184571Y-78478095D01*
X143232190Y-78382857D01*
X143232190Y-78001904D01*
X143708380Y-79525714D02*
X143708380Y-78954285D01*
X143708380Y-79240000D02*
X142708380Y-79240000D01*
X142851238Y-79144761D01*
X142946476Y-79049523D01*
X142994095Y-78954285D01*
%TO.C,J7*%
X142708380Y-69963309D02*
X143422666Y-69963309D01*
X143565523Y-69915690D01*
X143660761Y-69820452D01*
X143708380Y-69677595D01*
X143708380Y-69582357D01*
X142708380Y-70344261D02*
X142708380Y-71010928D01*
X143708380Y-70582357D01*
X136972523Y-68610238D02*
X135702523Y-68610238D01*
X136307285Y-68610238D02*
X136307285Y-69335952D01*
X136972523Y-69335952D02*
X135702523Y-69335952D01*
X136972523Y-69940714D02*
X135702523Y-69940714D01*
X135702523Y-70243095D01*
X135763000Y-70424523D01*
X135883952Y-70545476D01*
X136004904Y-70605952D01*
X136246809Y-70666428D01*
X136428238Y-70666428D01*
X136670142Y-70605952D01*
X136791095Y-70545476D01*
X136912047Y-70424523D01*
X136972523Y-70243095D01*
X136972523Y-69940714D01*
X136972523Y-71210714D02*
X135702523Y-71210714D01*
X136609666Y-71634047D01*
X135702523Y-72057380D01*
X136972523Y-72057380D01*
X136972523Y-72662142D02*
X135702523Y-72662142D01*
X137093476Y-72964523D02*
X137093476Y-73932142D01*
X136609666Y-74174047D02*
X136609666Y-74778809D01*
X136972523Y-74053095D02*
X135702523Y-74476428D01*
X136972523Y-74899761D01*
X137093476Y-75020714D02*
X137093476Y-75988333D01*
X136972523Y-76955952D02*
X136972523Y-76230238D01*
X136972523Y-76593095D02*
X135702523Y-76593095D01*
X135883952Y-76472142D01*
X136004904Y-76351190D01*
X136065380Y-76230238D01*
X136851571Y-77500238D02*
X136912047Y-77560714D01*
X136972523Y-77500238D01*
X136912047Y-77439761D01*
X136851571Y-77500238D01*
X136972523Y-77500238D01*
X136125857Y-78649285D02*
X136972523Y-78649285D01*
X135642047Y-78346904D02*
X136549190Y-78044523D01*
X136549190Y-78830714D01*
%TO.C,U1*%
X148042380Y-70358095D02*
X148851904Y-70358095D01*
X148947142Y-70405714D01*
X148994761Y-70453333D01*
X149042380Y-70548571D01*
X149042380Y-70739047D01*
X148994761Y-70834285D01*
X148947142Y-70881904D01*
X148851904Y-70929523D01*
X148042380Y-70929523D01*
X149042380Y-71929523D02*
X149042380Y-71358095D01*
X149042380Y-71643809D02*
X148042380Y-71643809D01*
X148185238Y-71548571D01*
X148280476Y-71453333D01*
X148328095Y-71358095D01*
%TD*%
%LPC*%
D13*
%TO.C,J2*%
X147320000Y-66040000D03*
X149860000Y-66040000D03*
X152400000Y-66040000D03*
X154940000Y-66040000D03*
D14*
X157480000Y-66040000D03*
%TD*%
%TO.C,R1*%
G36*
G01*
X143600000Y-77443000D02*
X143600000Y-77243000D01*
G75*
G02*
X143700000Y-77143000I100000J0D01*
G01*
X143960000Y-77143000D01*
G75*
G02*
X144060000Y-77243000I0J-100000D01*
G01*
X144060000Y-77443000D01*
G75*
G02*
X143960000Y-77543000I-100000J0D01*
G01*
X143700000Y-77543000D01*
G75*
G02*
X143600000Y-77443000I0J100000D01*
G01*
G37*
G36*
G01*
X142960000Y-77443000D02*
X142960000Y-77243000D01*
G75*
G02*
X143060000Y-77143000I100000J0D01*
G01*
X143320000Y-77143000D01*
G75*
G02*
X143420000Y-77243000I0J-100000D01*
G01*
X143420000Y-77443000D01*
G75*
G02*
X143320000Y-77543000I-100000J0D01*
G01*
X143060000Y-77543000D01*
G75*
G02*
X142960000Y-77443000I0J100000D01*
G01*
G37*
%TD*%
D15*
%TO.C,J7*%
X135423000Y-81510000D03*
X135423000Y-65810000D03*
X140323000Y-80910000D03*
X140323000Y-66410000D03*
D16*
X141323000Y-68910000D03*
X141323000Y-69410000D03*
X141323000Y-69910000D03*
X141323000Y-70410000D03*
X141323000Y-70910000D03*
X141323000Y-71410000D03*
X141323000Y-71910000D03*
X141323000Y-72410000D03*
X141323000Y-72910000D03*
X141323000Y-73410000D03*
X141323000Y-73910000D03*
X141323000Y-74410000D03*
X141323000Y-74910000D03*
X141323000Y-75410000D03*
X141323000Y-75910000D03*
X141323000Y-76410000D03*
X141323000Y-76910000D03*
X141323000Y-77410000D03*
X141323000Y-77910000D03*
%TD*%
D17*
%TO.C,U1*%
X151892000Y-71120000D03*
D18*
X151892000Y-73660000D03*
X151892000Y-76200000D03*
D19*
X154432000Y-71040000D03*
X154432000Y-76280000D03*
%TD*%
D13*
%TO.C,J6*%
X144780000Y-81280000D03*
X144780000Y-78740000D03*
X144780000Y-76200000D03*
D14*
X144780000Y-73660000D03*
%TD*%
D13*
%TO.C,J5*%
X149860000Y-68580000D03*
X147320000Y-68580000D03*
D14*
X144780000Y-68580000D03*
%TD*%
D13*
%TO.C,J4*%
X157480000Y-78740000D03*
X157480000Y-76200000D03*
X157480000Y-73660000D03*
X157480000Y-71120000D03*
D14*
X157480000Y-68580000D03*
%TD*%
D13*
%TO.C,J3*%
X157480000Y-81280000D03*
X154940000Y-81280000D03*
X152400000Y-81280000D03*
X149860000Y-81280000D03*
D14*
X147320000Y-81280000D03*
%TD*%
D13*
%TO.C,J1*%
X147320000Y-78740000D03*
X149860000Y-78740000D03*
D14*
X152400000Y-78740000D03*
%TD*%
M02*
