%TF.GenerationSoftware,KiCad,Pcbnew,5.1.8*%
%TF.CreationDate,2020-11-15T21:26:51-08:00*%
%TF.ProjectId,teensy-toslink-receiver,7465656e-7379-42d7-946f-736c696e6b2d,rev?*%
%TF.SameCoordinates,Original*%
%TF.FileFunction,Legend,Top*%
%TF.FilePolarity,Positive*%
%FSLAX46Y46*%
G04 Gerber Fmt 4.6, Leading zero omitted, Abs format (unit mm)*
G04 Created by KiCad (PCBNEW 5.1.8) date 2020-11-15 21:26:51*
%MOMM*%
%LPD*%
G01*
G04 APERTURE LIST*
%ADD10C,0.120000*%
%ADD11C,0.150000*%
%ADD12C,0.250000*%
%ADD13R,1.500000X1.500000*%
%ADD14O,1.500000X1.500000*%
%ADD15C,2.000000*%
%ADD16R,1.900000X0.300000*%
%ADD17O,1.700000X1.700000*%
%ADD18R,1.700000X1.700000*%
G04 APERTURE END LIST*
D10*
%TO.C,U1*%
X149502000Y-68810000D02*
X163002000Y-68810000D01*
X149502000Y-78510000D02*
X163002000Y-78510000D01*
X163002000Y-78510000D02*
X163002000Y-68810000D01*
X149502000Y-68810000D02*
X149502000Y-78510000D01*
D11*
%TO.C,J7*%
X141048000Y-67785000D02*
X141048000Y-68885000D01*
X141048000Y-78935000D02*
X141048000Y-79535000D01*
X136798000Y-81310000D02*
X138948000Y-81310000D01*
X136798000Y-66010000D02*
X138948000Y-66010000D01*
D12*
X142973000Y-78410000D02*
G75*
G03*
X142973000Y-78410000I-125000J0D01*
G01*
D10*
%TO.C,J6*%
X153730000Y-82610000D02*
X153730000Y-79950000D01*
X146050000Y-82610000D02*
X153730000Y-82610000D01*
X146050000Y-79950000D02*
X153730000Y-79950000D01*
X146050000Y-82610000D02*
X146050000Y-79950000D01*
X144780000Y-82610000D02*
X143450000Y-82610000D01*
X143450000Y-82610000D02*
X143450000Y-81280000D01*
%TO.C,J5*%
X146110000Y-69790000D02*
X143450000Y-69790000D01*
X146110000Y-74930000D02*
X146110000Y-69790000D01*
X143450000Y-74930000D02*
X143450000Y-69790000D01*
X146110000Y-74930000D02*
X143450000Y-74930000D01*
X146110000Y-76200000D02*
X146110000Y-77530000D01*
X146110000Y-77530000D02*
X144780000Y-77530000D01*
%TO.C,J4*%
X156150000Y-80070000D02*
X158810000Y-80070000D01*
X156150000Y-69850000D02*
X156150000Y-80070000D01*
X158810000Y-69850000D02*
X158810000Y-80070000D01*
X156150000Y-69850000D02*
X158810000Y-69850000D01*
X156150000Y-68580000D02*
X156150000Y-67250000D01*
X156150000Y-67250000D02*
X157480000Y-67250000D01*
%TO.C,J3*%
X156270000Y-80070000D02*
X156270000Y-77410000D01*
X146050000Y-80070000D02*
X156270000Y-80070000D01*
X146050000Y-77410000D02*
X156270000Y-77410000D01*
X146050000Y-80070000D02*
X146050000Y-77410000D01*
X144780000Y-80070000D02*
X143450000Y-80070000D01*
X143450000Y-80070000D02*
X143450000Y-78740000D01*
%TO.C,J2*%
X143450000Y-67250000D02*
X143450000Y-69910000D01*
X153670000Y-67250000D02*
X143450000Y-67250000D01*
X153670000Y-69910000D02*
X143450000Y-69910000D01*
X153670000Y-67250000D02*
X153670000Y-69910000D01*
X154940000Y-67250000D02*
X156270000Y-67250000D01*
X156270000Y-67250000D02*
X156270000Y-68580000D01*
%TO.C,J1*%
X145990000Y-64710000D02*
X145990000Y-67370000D01*
X151130000Y-64710000D02*
X145990000Y-64710000D01*
X151130000Y-67370000D02*
X145990000Y-67370000D01*
X151130000Y-64710000D02*
X151130000Y-67370000D01*
X152400000Y-64710000D02*
X153730000Y-64710000D01*
X153730000Y-64710000D02*
X153730000Y-66040000D01*
%TO.C,C1*%
X147826000Y-74816580D02*
X147826000Y-74535420D01*
X148846000Y-74816580D02*
X148846000Y-74535420D01*
%TO.C,U1*%
D11*
X148169380Y-72389904D02*
X148978904Y-72389904D01*
X149074142Y-72342285D01*
X149121761Y-72294666D01*
X149169380Y-72199428D01*
X149169380Y-72008952D01*
X149121761Y-71913714D01*
X149074142Y-71866095D01*
X148978904Y-71818476D01*
X148169380Y-71818476D01*
X149169380Y-70818476D02*
X149169380Y-71389904D01*
X149169380Y-71104190D02*
X148169380Y-71104190D01*
X148312238Y-71199428D01*
X148407476Y-71294666D01*
X148455095Y-71389904D01*
%TO.C,J7*%
X141968023Y-65238380D02*
X141968023Y-65952666D01*
X141920404Y-66095523D01*
X141825166Y-66190761D01*
X141682309Y-66238380D01*
X141587071Y-66238380D01*
X142348976Y-65238380D02*
X143015642Y-65238380D01*
X142587071Y-66238380D01*
X136972523Y-78709761D02*
X135702523Y-78709761D01*
X136307285Y-78709761D02*
X136307285Y-77984047D01*
X136972523Y-77984047D02*
X135702523Y-77984047D01*
X136972523Y-77379285D02*
X135702523Y-77379285D01*
X135702523Y-77076904D01*
X135763000Y-76895476D01*
X135883952Y-76774523D01*
X136004904Y-76714047D01*
X136246809Y-76653571D01*
X136428238Y-76653571D01*
X136670142Y-76714047D01*
X136791095Y-76774523D01*
X136912047Y-76895476D01*
X136972523Y-77076904D01*
X136972523Y-77379285D01*
X136972523Y-76109285D02*
X135702523Y-76109285D01*
X136609666Y-75685952D01*
X135702523Y-75262619D01*
X136972523Y-75262619D01*
X136972523Y-74657857D02*
X135702523Y-74657857D01*
X137093476Y-74355476D02*
X137093476Y-73387857D01*
X136609666Y-73145952D02*
X136609666Y-72541190D01*
X136972523Y-73266904D02*
X135702523Y-72843571D01*
X136972523Y-72420238D01*
X137093476Y-72299285D02*
X137093476Y-71331666D01*
X136972523Y-70364047D02*
X136972523Y-71089761D01*
X136972523Y-70726904D02*
X135702523Y-70726904D01*
X135883952Y-70847857D01*
X136004904Y-70968809D01*
X136065380Y-71089761D01*
X136851571Y-69819761D02*
X136912047Y-69759285D01*
X136972523Y-69819761D01*
X136912047Y-69880238D01*
X136851571Y-69819761D01*
X136972523Y-69819761D01*
X136125857Y-68670714D02*
X136972523Y-68670714D01*
X135642047Y-68973095D02*
X136549190Y-69275476D01*
X136549190Y-68489285D01*
%TO.C,J6*%
X142200380Y-81740333D02*
X142914666Y-81740333D01*
X143057523Y-81787952D01*
X143152761Y-81883190D01*
X143200380Y-82026047D01*
X143200380Y-82121285D01*
X142200380Y-80835571D02*
X142200380Y-81026047D01*
X142248000Y-81121285D01*
X142295619Y-81168904D01*
X142438476Y-81264142D01*
X142628952Y-81311761D01*
X143009904Y-81311761D01*
X143105142Y-81264142D01*
X143152761Y-81216523D01*
X143200380Y-81121285D01*
X143200380Y-80930809D01*
X143152761Y-80835571D01*
X143105142Y-80787952D01*
X143009904Y-80740333D01*
X142771809Y-80740333D01*
X142676571Y-80787952D01*
X142628952Y-80835571D01*
X142581333Y-80930809D01*
X142581333Y-81121285D01*
X142628952Y-81216523D01*
X142676571Y-81264142D01*
X142771809Y-81311761D01*
%TO.C,J5*%
X142581380Y-76533333D02*
X143295666Y-76533333D01*
X143438523Y-76580952D01*
X143533761Y-76676190D01*
X143581380Y-76819047D01*
X143581380Y-76914285D01*
X142581380Y-75580952D02*
X142581380Y-76057142D01*
X143057571Y-76104761D01*
X143009952Y-76057142D01*
X142962333Y-75961904D01*
X142962333Y-75723809D01*
X143009952Y-75628571D01*
X143057571Y-75580952D01*
X143152809Y-75533333D01*
X143390904Y-75533333D01*
X143486142Y-75580952D01*
X143533761Y-75628571D01*
X143581380Y-75723809D01*
X143581380Y-75961904D01*
X143533761Y-76057142D01*
X143486142Y-76104761D01*
%TO.C,J4*%
X157146666Y-66000380D02*
X157146666Y-66714666D01*
X157099047Y-66857523D01*
X157003809Y-66952761D01*
X156860952Y-67000380D01*
X156765714Y-67000380D01*
X158051428Y-66333714D02*
X158051428Y-67000380D01*
X157813333Y-65952761D02*
X157575238Y-66667047D01*
X158194285Y-66667047D01*
%TO.C,J3*%
X142581380Y-78438333D02*
X143295666Y-78438333D01*
X143438523Y-78485952D01*
X143533761Y-78581190D01*
X143581380Y-78724047D01*
X143581380Y-78819285D01*
X142581380Y-78057380D02*
X142581380Y-77438333D01*
X142962333Y-77771666D01*
X142962333Y-77628809D01*
X143009952Y-77533571D01*
X143057571Y-77485952D01*
X143152809Y-77438333D01*
X143390904Y-77438333D01*
X143486142Y-77485952D01*
X143533761Y-77533571D01*
X143581380Y-77628809D01*
X143581380Y-77914523D01*
X143533761Y-78009761D01*
X143486142Y-78057380D01*
%TO.C,J2*%
X154606666Y-66000380D02*
X154606666Y-66714666D01*
X154559047Y-66857523D01*
X154463809Y-66952761D01*
X154320952Y-67000380D01*
X154225714Y-67000380D01*
X155035238Y-66095619D02*
X155082857Y-66048000D01*
X155178095Y-66000380D01*
X155416190Y-66000380D01*
X155511428Y-66048000D01*
X155559047Y-66095619D01*
X155606666Y-66190857D01*
X155606666Y-66286095D01*
X155559047Y-66428952D01*
X154987619Y-67000380D01*
X155606666Y-67000380D01*
%TO.C,J1*%
X154733666Y-64730380D02*
X154733666Y-65444666D01*
X154686047Y-65587523D01*
X154590809Y-65682761D01*
X154447952Y-65730380D01*
X154352714Y-65730380D01*
X155733666Y-65730380D02*
X155162238Y-65730380D01*
X155447952Y-65730380D02*
X155447952Y-64730380D01*
X155352714Y-64873238D01*
X155257476Y-64968476D01*
X155162238Y-65016095D01*
%TO.C,C1*%
X148169333Y-77065142D02*
X148121714Y-77112761D01*
X147978857Y-77160380D01*
X147883619Y-77160380D01*
X147740761Y-77112761D01*
X147645523Y-77017523D01*
X147597904Y-76922285D01*
X147550285Y-76731809D01*
X147550285Y-76588952D01*
X147597904Y-76398476D01*
X147645523Y-76303238D01*
X147740761Y-76208000D01*
X147883619Y-76160380D01*
X147978857Y-76160380D01*
X148121714Y-76208000D01*
X148169333Y-76255619D01*
X149121714Y-77160380D02*
X148550285Y-77160380D01*
X148836000Y-77160380D02*
X148836000Y-76160380D01*
X148740761Y-76303238D01*
X148645523Y-76398476D01*
X148550285Y-76446095D01*
%TD*%
%LPC*%
D13*
%TO.C,U1*%
X151892000Y-76200000D03*
D14*
X151892000Y-73660000D03*
X151892000Y-71120000D03*
D15*
X154432000Y-76280000D03*
X154432000Y-71040000D03*
%TD*%
D16*
%TO.C,J7*%
X141323000Y-78410000D03*
X141323000Y-77910000D03*
X141323000Y-77410000D03*
X141323000Y-76910000D03*
X141323000Y-76410000D03*
X141323000Y-75910000D03*
X141323000Y-75410000D03*
X141323000Y-74910000D03*
X141323000Y-74410000D03*
X141323000Y-73910000D03*
X141323000Y-73410000D03*
X141323000Y-72910000D03*
X141323000Y-72410000D03*
X141323000Y-71910000D03*
X141323000Y-71410000D03*
X141323000Y-70910000D03*
X141323000Y-70410000D03*
X141323000Y-69910000D03*
X141323000Y-69410000D03*
%TD*%
D17*
%TO.C,J6*%
X152400000Y-81280000D03*
X149860000Y-81280000D03*
X147320000Y-81280000D03*
D18*
X144780000Y-81280000D03*
%TD*%
D17*
%TO.C,J5*%
X144780000Y-71120000D03*
X144780000Y-73660000D03*
D18*
X144780000Y-76200000D03*
%TD*%
D17*
%TO.C,J4*%
X157480000Y-78740000D03*
X157480000Y-76200000D03*
X157480000Y-73660000D03*
X157480000Y-71120000D03*
D18*
X157480000Y-68580000D03*
%TD*%
D17*
%TO.C,J3*%
X154940000Y-78740000D03*
X152400000Y-78740000D03*
X149860000Y-78740000D03*
X147320000Y-78740000D03*
D18*
X144780000Y-78740000D03*
%TD*%
D17*
%TO.C,J2*%
X144780000Y-68580000D03*
X147320000Y-68580000D03*
X149860000Y-68580000D03*
X152400000Y-68580000D03*
D18*
X154940000Y-68580000D03*
%TD*%
D17*
%TO.C,J1*%
X147320000Y-66040000D03*
X149860000Y-66040000D03*
D18*
X152400000Y-66040000D03*
%TD*%
%TO.C,C1*%
G36*
G01*
X148586000Y-74351000D02*
X148086000Y-74351000D01*
G75*
G02*
X147861000Y-74126000I0J225000D01*
G01*
X147861000Y-73676000D01*
G75*
G02*
X148086000Y-73451000I225000J0D01*
G01*
X148586000Y-73451000D01*
G75*
G02*
X148811000Y-73676000I0J-225000D01*
G01*
X148811000Y-74126000D01*
G75*
G02*
X148586000Y-74351000I-225000J0D01*
G01*
G37*
G36*
G01*
X148586000Y-75901000D02*
X148086000Y-75901000D01*
G75*
G02*
X147861000Y-75676000I0J225000D01*
G01*
X147861000Y-75226000D01*
G75*
G02*
X148086000Y-75001000I225000J0D01*
G01*
X148586000Y-75001000D01*
G75*
G02*
X148811000Y-75226000I0J-225000D01*
G01*
X148811000Y-75676000D01*
G75*
G02*
X148586000Y-75901000I-225000J0D01*
G01*
G37*
%TD*%
M02*
