M48
METRIC
T1C0.800
T2C1.000
T3C1.100
T4C1.300
%
G90
G05
T1
X151.892Y-71.12
X151.892Y-73.66
X151.892Y-76.2
T2
X144.78Y-81.28
X147.32Y-81.28
X149.86Y-81.28
X152.4Y-81.28
X144.78Y-68.58
X147.32Y-68.58
X149.86Y-68.58
X152.4Y-68.58
X154.94Y-68.58
X144.78Y-71.12
X144.78Y-73.66
X144.78Y-76.2
X144.78Y-78.74
X147.32Y-78.74
X149.86Y-78.74
X152.4Y-78.74
X154.94Y-78.74
X157.48Y-68.58
X157.48Y-71.12
X157.48Y-73.66
X157.48Y-76.2
X157.48Y-78.74
X147.32Y-66.04
X149.86Y-66.04
X152.4Y-66.04
T3
X154.432Y-71.04
X154.432Y-76.28
T4
X135.423Y-65.81
X135.423Y-81.51
X140.323Y-66.41
X140.323Y-80.91
T0
M30
